<svg xmlns="http://www.w3.org/2000/svg" viewBox="0 0 255.12 255.12"><defs><style>.cls-1{fill:#e52933;}.cls-2{font-size:8.4px;fill:#fff;font-family:AvenirNext-Bold, Avenir Next;font-weight:700;}</style></defs><title>Level 1</title><g id="timeline"><path class="cls-1" d="M131.78,26.8a100.8,100.8,0,0,1,28.94,5.49l5-13.09q-2.28-.79-4.58-1.5a113.5,113.5,0,0,0-23.07-4.54c-2.1-.19-4.2-.32-6.32-.4Z"/><path class="cls-1" d="M159.78,35a97.35,97.35,0,0,0-28.12-5.33V64.42l3.66.72,12,2.32Z"/><text class="cls-2" transform="translate(145.19 24.11) rotate(11.54)">1</text><path class="cls-1" d="M165.47,94.29a1.41,1.41,0,0,0-2.14,1.85A48.26,48.26,0,1,1,126.8,79.42a48.74,48.74,0,0,1,9.81,1,1.4,1.4,0,0,0,1.67-1.1s0,0,0-.08v0l2.6-13.44a1.42,1.42,0,0,0-2.78-.54l-2.34,12.14a51.87,51.87,0,0,0-9-.79,51.09,51.09,0,1,0,38.67,17.7Z"/></g></svg>