<svg xmlns="http://www.w3.org/2000/svg" viewBox="0 0 255.12 255.12"><defs><style>.cls-1{fill:#cdcccc;}.cls-2{fill:none;stroke:#e7e6e6;stroke-miterlimit:10;stroke-width:2px;}.cls-17,.cls-3{fill:#fff;}.cls-4{fill:#b78838;}.cls-5{fill:#43824e;}.cls-6{fill:#e62772;}.cls-7{fill:#ee703f;}.cls-8{fill:#daa449;}.cls-9{fill:#f59b3a;}.cls-10{fill:#fcbf2c;}.cls-11{fill:#a01d4c;}.cls-12{fill:#4aa547;}.cls-13{fill:#c9223d;}.cls-14{fill:#e52933;}.cls-15{fill:#ea503e;}.cls-16{fill:#23badd;}.cls-17{font-size:8.4px;font-family:AvenirNext-Bold, Avenir Next;font-weight:700;}</style></defs><title>Level 1</title><g id="underline"><path class="cls-1" d="M86.85,95.83a50.93,50.93,0,0,0-10.59,28,1.42,1.42,0,0,0,2.83.18,48.29,48.29,0,1,1,2.11,17.46,48.84,48.84,0,0,1-2-9.67,1.41,1.41,0,0,0-1.54-1.27l-.08,0h0L64,132.09a1.41,1.41,0,0,0,.31,2.81l12.29-1.38a51.42,51.42,0,0,0,1.93,8.8,51.09,51.09,0,1,0,8.35-46.49Z"/><path class="cls-2" d="M84.76,127.77a42.46,42.46,0,0,1,42.46-42.45"/></g><g id="steps"><path class="cls-1" d="M55.68,42.2a109,109,0,0,1,13.53-9.81A109,109,0,0,0,55.68,42.2l9.19,10.07h0Z"/><path class="cls-1" d="M16.55,138.94c-.05-.44-.09-.88-.13-1.33C16.46,138.06,16.5,138.5,16.55,138.94Z"/><path class="cls-1" d="M26.45,80.23a111.23,111.23,0,0,0-6.09,16.1,111.23,111.23,0,0,1,6.09-16.1Z"/><path class="cls-1" d="M19.44,154.5h0c-1.11-2.16-2.16-8.24-2.82-14.83C17.28,146.26,18.33,152.34,19.44,154.5Z"/><path class="cls-1" d="M73.29,30l1.19-.65Z"/><path class="cls-1" d="M29.63,74h0c1-1.86,2.09-3.68,3.21-5.47C31.72,70.32,30.66,72.14,29.63,74Z"/><path class="cls-1" d="M219.27,191.12q1.72-2.52,3.32-5.08-1.59,2.57-3.32,5.08Z"/><path class="cls-1" d="M234,161.15h0c-.83,2.63-1.75,5.2-2.76,7.73C232.25,166.35,233.17,163.78,234,161.15Z"/><path class="cls-3" d="M137.8,16.39a110.2,110.2,0,0,1,22.43,4.41A110.2,110.2,0,0,0,137.8,16.39Z"/><path class="cls-1" d="M91,22.06h0a110.46,110.46,0,0,1,27.7-5.8A110.46,110.46,0,0,0,91,22.06Z"/><path class="cls-1" d="M215.09,196.72h0q-2.35,3-4.87,5.76Q212.74,199.69,215.09,196.72Z"/><path class="cls-1" d="M77.16,27.94l1-.47Z"/><path class="cls-4" d="M18.06,162.27A114,114,0,0,0,34,194.13l11.23-8.53a100.33,100.33,0,0,1-13.61-27.22Z"/><path class="cls-1" d="M16.62,139.67c0-.24-.05-.48-.07-.73C16.57,139.19,16.59,139.43,16.62,139.67Z"/><path class="cls-1" d="M16.3,120.26h0c-.58,3.07-.5,9.12,0,15.35C15.8,129.38,15.72,123.33,16.3,120.26Z"/><path class="cls-5" d="M26.79,127.5c0-2.08.07-4.15.19-6.21l-13.91-1.24c-.59,3.16-.52,9.39,0,15.79.05.69.11,1.38.17,2.06l.12,1.37c0,.26,0,.51.08.76.68,6.77,1.76,13,2.91,15.26l13.35-3.83A100.63,100.63,0,0,1,26.79,127.5Z"/><path class="cls-6" d="M78,215.26l-7.43,12a119.6,119.6,0,0,0,11.26,5.65,114.47,114.47,0,0,0,21.8,7L106.23,226A99.65,99.65,0,0,1,78,215.26Z"/><path class="cls-7" d="M146.19,240.89c-.88-4.63-1.75-9.26-2.62-13.86a102.13,102.13,0,0,1-30.25.26q-1.3,6.93-2.62,13.88A116,116,0,0,0,146.19,240.89Z"/><path class="cls-1" d="M20.36,96.33a109.48,109.48,0,0,0-3.52,16.94l10.61,1-10.61-1A109.48,109.48,0,0,1,20.36,96.33Z"/><path class="cls-1" d="M26.45,80.23h0l7.8,3.88Z"/><path class="cls-1" d="M36.11,85.13l-4.57-2.28-8-4a115.12,115.12,0,0,0-6.28,16.58,113.91,113.91,0,0,0-3.62,17.43l10.93,1,3.13.28A99.7,99.7,0,0,1,36.11,85.13Z"/><path class="cls-8" d="M193.05,50.88q4.71-5.13,9.42-10.29c-7.73-7-24.05-17.11-30.08-18.6q-2.49,6.47-5,12.91A100.6,100.6,0,0,1,193.05,50.88Z"/><path class="cls-1" d="M50.5,46.87h0A109.72,109.72,0,0,0,32.84,68.53,109.72,109.72,0,0,1,50.5,46.87Z"/><path class="cls-1" d="M57.7,54.88,48.27,44.53A113.18,113.18,0,0,0,30.09,66.82c-1.15,1.84-2.25,3.71-3.3,5.63l12.58,6.27A101.07,101.07,0,0,1,57.7,54.88Z"/><path class="cls-9" d="M64.45,223.49l7.42-12a101.24,101.24,0,0,1-22.3-20.17l-11.21,8.52A115.48,115.48,0,0,0,64.45,223.49Z"/><path class="cls-1" d="M215.09,196.72l-8.52-6.43,8.52,6.43Z"/><path class="cls-10" d="M184.4,210.76q3.67,6,7.39,12a115.3,115.3,0,0,0,20.83-18.08c1.73-1.91,3.4-3.88,5-5.93l-8.77-6.61-2.43-1.83A101.57,101.57,0,0,1,184.4,210.76Z"/><path class="cls-1" d="M124.39,26.77v-14c-2,0-4,.16-6,.31a113.63,113.63,0,0,0-28.5,6L95,32.1A100.65,100.65,0,0,1,124.39,26.77Z"/><path class="cls-11" d="M150.63,225.64q1.29,6.81,2.57,13.62c2.86.08,11-2.61,18.58-5.75l1-.42c5.51-2.33,10.57-4.85,12.85-6.65q-3.65-5.92-7.31-11.84A100.13,100.13,0,0,1,150.63,225.64Z"/><path class="cls-1" d="M226,74.85a118.73,118.73,0,0,0-6.52-10.65A118.73,118.73,0,0,1,226,74.85Z"/><path class="cls-12" d="M207.78,45.43l-9.44,10.31a100.93,100.93,0,0,1,17.92,23.83l12.54-6.25a116,116,0,0,0-6.71-10.95A113.32,113.32,0,0,0,207.78,45.43Z"/><path class="cls-1" d="M238.31,113.71a110,110,0,0,0-9.26-32.63h0a110,110,0,0,1,9.26,32.63Z"/><path class="cls-13" d="M227.55,114.63l14-1.32A113.17,113.17,0,0,0,232,79.73L219.45,86A99.92,99.92,0,0,1,227.55,114.63Z"/><path class="cls-1" d="M164.68,22.26c-1.49-.52-3-1-4.45-1.46,1.48.45,3,.94,4.45,1.46Z"/><path class="cls-14" d="M131.78,26.8a100.8,100.8,0,0,1,28.94,5.49l5-13.09q-2.28-.79-4.58-1.5a113.5,113.5,0,0,0-23.07-4.54c-2.1-.19-4.2-.32-6.32-.4Z"/><path class="cls-15" d="M228.37,127.5a101,101,0,0,1-2.83,23.82l13.34,3.84c2.48-5.93,4.52-28.14,3.15-34.66l-13.82,1.3C228.31,123.69,228.37,125.59,228.37,127.5Z"/><path class="cls-1" d="M74.48,29.35c.89-.48,1.78-1,2.68-1.41C76.26,28.4,75.37,28.87,74.48,29.35Z"/><path class="cls-1" d="M69.21,32.39c1.34-.83,2.7-1.62,4.08-2.39C71.91,30.77,70.55,31.56,69.21,32.39Z"/><path class="cls-1" d="M63.05,50.08A101,101,0,0,1,88.29,34.66l-5.08-13.1q-3.33,1.43-6.53,3l-1,.49c-.93.47-1.85.95-2.76,1.45l-1.23.67c-1.42.79-2.81,1.61-4.19,2.45a112.66,112.66,0,0,0-13.93,10.1Z"/><path class="cls-1" d="M231.24,168.88A110.32,110.32,0,0,1,222.59,186,110.32,110.32,0,0,0,231.24,168.88Z"/><path class="cls-16" d="M210.71,184.5,221.93,193q1.78-2.58,3.42-5.22a113.21,113.21,0,0,0,8.9-17.66q1.56-3.9,2.83-8l-13.49-3.88A100.46,100.46,0,0,1,210.71,184.5Z"/><path class="cls-1" d="M147.29,67.46l-12-2.32,12,2.32L159.78,35h0Z"/><path class="cls-1" d="M194.31,117.87,224.73,115h0Z"/><path class="cls-1" d="M216.86,87.16h0L189.7,100.7Z"/><path class="cls-1" d="M190.77,125.23l-.05.59.05-.59Z"/><path class="cls-1" d="M167.7,78.71h0L153.81,70c4.12-10.71,8.29-21.57,12.49-32.47h0c-4.2,10.9-8.37,21.76-12.49,32.47Z"/><path class="cls-1" d="M187.48,147.78h0c-2.34,4.82-4.6,9.45-6.89,14.17l12.18,9.18L180.59,162C182.88,157.23,185.14,152.6,187.48,147.78Z"/><path class="cls-1" d="M225.37,122h0l-.17,0Z"/><path class="cls-1" d="M204.21,188.51h0l-19.76-14.9Z"/><path class="cls-1" d="M124.48,64.37h0l-13.13,2.35Z"/><path class="cls-1" d="M189.35,141.05h0l.42-4.69C189.63,137.92,189.49,139.47,189.35,141.05Z"/><path class="cls-1" d="M213.35,147.94l-14.12-4.05Z"/><path class="cls-1" d="M172.83,83.43l23.51-25.67h0L172.83,83.43Z"/><path class="cls-1" d="M206.89,84.34l6.87-3.42h0Z"/><path class="cls-1" d="M104.72,186l1.4.53Z"/><path class="cls-1" d="M168.49,198.54q-4.94-8-9.84-15.92L155.38,184l3.27-1.33Q163.55,190.54,168.49,198.54Z"/><path class="cls-1" d="M143.55,188.75h0l4.28-1.73Z"/><path class="cls-1" d="M143.12,224.22h0q-1.62-8.59-3.22-17.13Q141.51,215.63,143.12,224.22Z"/><path class="cls-1" d="M65,117.6l-34.55-3.1h0L65,117.6Z"/><path class="cls-1" d="M56.54,143.86l-4,1.14Z"/><path class="cls-1" d="M64.36,124.56c.47,5.62.92,11.07,1.39,16.66l-3.31.95,3.31-.95c-.47-5.59-.92-11-1.39-16.66l-34.54-3.09h0Z"/><path class="cls-1" d="M82.34,171.2l5.5,5Z"/><path class="cls-1" d="M97.63,183.28h0L79.39,212.79h0Z"/><path class="cls-1" d="M73.44,209.14h0l.42-.69Z"/><path class="cls-1" d="M106.83,223.25h0q2.15-11.33,4.25-22.55Q109,211.92,106.83,223.25Z"/><path class="cls-1" d="M73,95.59l5-6.35-5,6.35Z"/><path class="cls-1" d="M64.87,52.27h0l1.7,1.87Z"/><path class="cls-1" d="M147.3,208.62c.89,4.74,1.79,9.5,2.68,14.25h0C149.09,218.12,148.19,213.36,147.3,208.62Z"/><path class="cls-1" d="M83.08,82.59l-1.24,1.59,1.24-1.59L59.67,56.92h0Z"/><path class="cls-1" d="M164.53,178.85l17.74,28.71-17.74-28.71Z"/><path class="cls-1" d="M88.32,78h0l-4.53-5Z"/><path class="cls-1" d="M100.77,70.44l-.71.43Z"/><path class="cls-1" d="M69.77,101.81l-1,3.47,1-3.47L38.69,86.32h0Z"/><path class="cls-4" d="M67.64,147.94l-33.32,9.57A97.32,97.32,0,0,0,47.54,184l27.6-21Z"/><path class="cls-1" d="M52.56,145l-9.91,2.85Z"/><path class="cls-1" d="M62.44,142.17l-5.9,1.69Z"/><path class="cls-1" d="M32.42,150.78h0l10.23-2.93Z"/><path class="cls-5" d="M64.36,124.56l-34.54-3.09c-.12,2-.19,4-.19,6a98.06,98.06,0,0,0,2.79,23.27l10.23-2.93L52.56,145l4-1.14,5.9-1.69,3.31-.95C65.28,135.63,64.83,130.18,64.36,124.56Z"/><path class="cls-1" d="M97.63,183.28h0l7.09,2.69Z"/><path class="cls-1" d="M111.08,200.7q1.08-5.76,2.16-11.5l-7.12-2.7,7.12,2.7Q112.16,194.93,111.08,200.7Z"/><path class="cls-6" d="M106.83,223.25q2.15-11.33,4.25-22.55,1.08-5.76,2.16-11.5l-7.12-2.7-1.4-.53-7.09-2.69L79.39,212.79A97.38,97.38,0,0,0,106.83,223.25Z"/><path class="cls-1" d="M120.18,190.15H136.7l3.2,16.94-3.2-16.94H120.18l-6.46,34.33h0Z"/><path class="cls-7" d="M120.18,190.15l-6.46,34.33a99.12,99.12,0,0,0,29.4-.26q-1.62-8.59-3.22-17.13l-3.2-16.94Z"/><path class="cls-1" d="M65,117.6c1.25-4.16,2.46-8.22,3.69-12.32-1.23,4.1-2.44,8.16-3.69,12.32Z"/><path class="cls-1" d="M38.69,86.32a97.31,97.31,0,0,0-8.2,28.18L65,117.6c1.25-4.16,2.46-8.22,3.69-12.32l1-3.47Z"/><path class="cls-1" d="M167.7,78.71h0L191.21,53h0Z"/><path class="cls-8" d="M166.3,37.51c-4.2,10.9-8.37,21.76-12.49,32.47l13.89,8.73L191.21,53A98.24,98.24,0,0,0,166.3,37.51Z"/><path class="cls-1" d="M73,95.59,41.85,80.09h0L73,95.59Z"/><path class="cls-1" d="M81.84,84.18l-3.93,5.06Z"/><path class="cls-1" d="M59.67,56.92A98.72,98.72,0,0,0,41.85,80.09L73,95.59l5-6.35,3.93-5.06,1.24-1.59Z"/><path class="cls-1" d="M73.86,208.45l17.81-28.81c-1.28-1.17-2.56-2.32-3.83-3.47,1.27,1.15,2.55,2.3,3.83,3.47Z"/><path class="cls-1" d="M79.39,168.53l3,2.67-3-2.67-27.62,21h0Z"/><path class="cls-9" d="M51.77,189.53a98.68,98.68,0,0,0,21.67,19.61l.42-.69,17.81-28.81c-1.28-1.17-2.56-2.32-3.83-3.47l-5.5-5-3-2.67Z"/><path class="cls-1" d="M182.27,207.56l.52.85h0Z"/><path class="cls-1" d="M184.45,173.61q-4-3-8-6l-11.95,11.25h0l11.95-11.25Q180.46,170.6,184.45,173.61Z"/><path class="cls-10" d="M204.21,188.51l-19.76-14.9q-4-3-8-6l-11.95,11.25,17.74,28.71.52.85A98.32,98.32,0,0,0,204.21,188.51Z"/><rect class="cls-1" x="124.48" y="29.61" height="34.76"/><path class="cls-1" d="M111.35,66.72l-2.87.51Q102.26,51.17,95.9,34.8h0q6.34,16.35,12.58,32.43Z"/><path class="cls-1" d="M95.9,34.8q6.34,16.35,12.58,32.43l2.87-.51,13.13-2.35V29.61A97.62,97.62,0,0,0,95.9,34.8Z"/><path class="cls-1" d="M176.89,212.15h0l-8.4-13.61Z"/><path class="cls-1" d="M143.55,188.75q1.88,9.88,3.75,19.87-1.89-10-3.75-19.87Z"/><path class="cls-1" d="M147.83,187l7.55-3.07Z"/><path class="cls-11" d="M176.89,212.15l-8.4-13.61q-4.94-8-9.84-15.92L155.38,184,147.83,187l-4.28,1.73q1.88,9.88,3.75,19.87c.89,4.74,1.79,9.5,2.68,14.25A97.16,97.16,0,0,0,176.89,212.15Z"/><path class="cls-1" d="M172.83,83.43h0c3.3,4.4,6.5,8.65,9.78,13l24.28-12.1-24.28,12.1C179.33,92.08,176.13,87.83,172.83,83.43Z"/><path class="cls-12" d="M196.34,57.76,172.83,83.43c3.3,4.4,6.5,8.65,9.78,13l24.28-12.1,6.87-3.42A98.42,98.42,0,0,0,196.34,57.76Z"/><path class="cls-1" d="M185.72,102.69l4-2-4,2c1.5,5.31,2.94,10.38,4.41,15.57l4.18-.39-4.18.39C188.66,113.07,187.22,108,185.72,102.69Z"/><path class="cls-13" d="M216.86,87.16,189.7,100.7l-4,2c1.5,5.31,2.94,10.38,4.41,15.57l4.18-.39L224.73,115A97.54,97.54,0,0,0,216.86,87.16Z"/><path class="cls-1" d="M135.32,65.14l-3.66-.72V29.65h0V64.42Z"/><path class="cls-14" d="M159.78,35a97.35,97.35,0,0,0-28.12-5.33V64.42l3.66.72,12,2.32Z"/><path class="cls-1" d="M213.35,147.94l9.42,2.71h0Z"/><path class="cls-1" d="M190.77,125.23h0L225.2,122Z"/><path class="cls-1" d="M189.35,141.05l9.88,2.84-9.88-2.84Z"/><path class="cls-1" d="M189.77,136.36c.32-3.5.63-7,.95-10.54C190.4,129.38,190.09,132.86,189.77,136.36Z"/><path class="cls-15" d="M225.52,127.51q0-2.79-.15-5.55l-.17,0-34.43,3.25-.05.59c-.32,3.56-.63,7-.95,10.54l-.42,4.69,9.88,2.84,14.12,4.05,9.42,2.71A98.05,98.05,0,0,0,225.52,127.51Z"/><path class="cls-1" d="M88.32,78l11.74-7.12L88.32,78Z"/><path class="cls-1" d="M83.79,73,66.57,54.14Z"/><path class="cls-1" d="M102,69.71l-1.2.73,1.2-.73Q95.73,53.63,89.4,37.28h0Q95.73,53.62,102,69.71Z"/><path class="cls-1" d="M89.4,37.28a97.84,97.84,0,0,0-24.53,15l1.7,1.87L83.79,73l4.53,5,11.74-7.12.71-.43,1.2-.73Q95.73,53.63,89.4,37.28Z"/><path class="cls-1" d="M187.48,147.78l33.4,9.6h0l-33.4-9.6Z"/><path class="cls-1" d="M192.77,171.13l15.6,11.77h0Z"/><path class="cls-16" d="M220.88,157.38l-33.4-9.6c-2.34,4.82-4.6,9.45-6.89,14.17l12.18,9.18,15.6,11.77A97.68,97.68,0,0,0,220.88,157.38Z"/><text class="cls-17" transform="translate(145.19 24.11) rotate(11.54)">1</text><text class="cls-17" transform="matrix(0.98, -0.21, 0.21, 0.98, 102.49, 25.34)">1</text><text class="cls-17" transform="translate(107.73 24.24) rotate(-8.94)">7</text><text class="cls-17" transform="matrix(0.84, -0.54, 0.54, 0.84, 67.95, 40.59)">1</text><text class="cls-17" transform="translate(72.45 37.7) rotate(-29.83)">6</text><text class="cls-17" transform="translate(40.62 67.72) rotate(-53.85)">1</text><text class="cls-17" transform="translate(43.78 63.4) rotate(-50.94)">5</text><text class="cls-17" transform="translate(24.73 103.77) rotate(-75.63)">1</text><text class="cls-17" transform="translate(26.05 98.59) rotate(-72.68)">4</text><text class="cls-17" transform="translate(23.19 142.37) rotate(-96.77)">1</text><text class="cls-17" transform="matrix(-0.07, -1, 1, -0.07, 22.55, 137.05)">3</text><text class="cls-17" transform="matrix(-0.48, -0.88, 0.88, -0.48, 36.34, 179.96)">1</text><text class="cls-17" transform="translate(33.76 175.27) rotate(-115.88)">2</text><text class="cls-17" transform="matrix(-0.77, -0.64, 0.64, -0.77, 61.64, 209.16)">1</text><text class="cls-17" transform="translate(57.54 205.73) rotate(-137.09)">1</text><text class="cls-17" transform="matrix(-0.95, -0.32, 0.32, -0.95, 95.95, 227.29)">1</text><text class="cls-17" transform="translate(90.89 225.59) rotate(-158.45)">0</text><text class="cls-17" transform="translate(131.39 231.81) rotate(178.99)">9</text><text class="cls-17" transform="translate(167.81 223.57) rotate(158.41)">8</text><text class="cls-17" transform="matrix(-0.74, 0.68, -0.68, -0.74, 199.44, 202.61)">7</text><text class="cls-17" transform="translate(222.22 170.35) rotate(115.86)">6</text><text class="cls-17" transform="translate(231.26 134.3) rotate(95.3)">5</text><text class="cls-17" transform="translate(226.91 96.44) rotate(74.44)">4</text><text class="cls-17" transform="translate(209.55 63.06) rotate(53.66)">3</text><text class="cls-17" transform="translate(180.03 37.03) rotate(32.09)">2</text></g><g id="timeline"><path class="cls-5" d="M83.85,100.11a1.42,1.42,0,0,0,2.41,1.49,48.15,48.15,0,1,1-7,30.19,1.41,1.41,0,0,0-1.55-1.27h-.1L64,132.06a1.42,1.42,0,1,0,.32,2.82l12.28-1.39a52.5,52.5,0,0,0,1.93,8.81,51.1,51.1,0,1,0,5.36-42.19Z"/></g></svg>