<!-- Generator: Adobe Illustrator 22.1.0, SVG Export Plug-In  -->
<svg version="1.1"
	 xmlns="http://www.w3.org/2000/svg" xmlns:xlink="http://www.w3.org/1999/xlink" xmlns:a="http://ns.adobe.com/AdobeSVGViewerExtensions/3.0/"
	 x="0px" y="0px" width="319.835px" height="171.186px" viewBox="0 0 319.835 171.186"
	 style="enable-background:new 0 0 319.835 171.186;" xml:space="preserve">
<style type="text/css">
	.st0{fill:#4D4E4E;}
	.st1{fill:#48773E;}
	.st2{fill:#5DBB46;}
	.st3{fill:#279B48;}
	.st4{fill:#C31F33;}
	.st5{fill:#00AED9;}
	.st6{fill:#EF402B;}
	.st7{fill:#8F1838;}
	.st8{fill:#E11484;}
	.st9{fill:#02558B;}
	.st10{fill:#EB1C2D;}
	.st11{fill:#D3A029;}
	.st12{fill:#F99D26;}
	.st13{fill:#FDB713;}
	.st14{fill:#F36D25;}
	.st15{fill:#CF8D2A;}
	.st16{fill:#183668;}
	.st17{fill:#007DBC;}
</style>
<defs>
</defs>
<g>
	<g>
		<path class="st0" d="M0.326,29.313C0.436,13.172,15.702,6.192,29.772,6.192c15.268,0,31.843,6.216,31.843,24.32
			c0,19.413-14.614,23.121-30.645,23.121c-6.325,0-16.575,1.635-16.575,9.924V70.1h47.438v13.414H0c0-6.652,0-13.305,0-20.066
			c0-17.558,15.92-22.794,30.97-22.794c5.781,0,16.359-0.98,16.359-9.815c0-8.289-7.527-12.214-17.34-12.214
			c-7.527,0-15.268,3.817-15.376,10.688H0.326z"/>
		<path class="st0" d="M187.863,50.252V38.473h11.015c7.745,0,15.923-2.071,16.031-9.16c0-4.363-3.488-10.144-15.702-10.144
			c-6.761,0-15.923,2.4-15.923,9.38h-14.396c0-16.469,16.359-22.466,30.426-22.466c14.396,0,29.882,6.98,29.99,23.23
			c0,5.998-3.925,12.977-10.579,15.049c7.308,2.4,12.432,9.597,12.432,16.032c0,18.648-17.555,24.21-32.28,24.21
			c-14.503,0-31.081-6.108-31.189-23.448h14.503c0,7.852,10.579,10.579,16.796,10.579c7.306,0,17.011-3.053,17.011-11.232
			c0-4.581-2.508-10.251-16.249-10.251H187.863z"/>
		<g>
			<path class="st1" d="M89.699,44.525l-17.908-1.659c-0.157,4.181,0.273,8.363,1.272,12.417l17.273-4.915
				C89.911,48.451,89.697,46.491,89.699,44.525z"/>
			<path class="st2" d="M93.247,31.284c0.549-0.953,1.163-1.883,1.843-2.784c0.54-0.715,1.11-1.395,1.706-2.041L84.682,13.172
				c-1.383,1.399-2.691,2.904-3.909,4.517c-1.358,1.799-2.558,3.667-3.605,5.589L93.247,31.284z"/>
			<path class="st3" d="M139.522,31.282l16.08-8.007c-1.979-3.648-4.492-7.056-7.519-10.103l-12.111,13.285
				C137.353,27.947,138.538,29.567,139.522,31.282z"/>
			<path class="st4" d="M157.329,26.831l-16.1,8.017c0.724,1.853,1.236,3.778,1.533,5.735l17.88-1.657
				C160.112,34.775,159.002,30.699,157.329,26.831z"/>
			<path class="st5" d="M141.294,54.155c-0.687,1.786-1.579,3.52-2.676,5.172l14.331,10.823c2.444-3.491,4.32-7.219,5.645-11.072
				L141.294,54.155z"/>
			<path class="st6" d="M142.435,50.37l17.277,4.916c1.008-4.088,1.422-8.27,1.26-12.42l-17.907,1.659
				C143.07,46.479,142.863,48.44,142.435,50.37z"/>
			<path class="st7" d="M137.976,83.641l-9.466-15.288c-1.72,0.876-3.522,1.558-5.372,2.041l3.301,17.66
				C130.444,87.129,134.331,85.653,137.976,83.641z"/>
			<path class="st8" d="M106.324,88.064l3.302-17.665c-1.835-0.479-3.637-1.16-5.371-2.047l-9.463,15.283
				C98.476,85.677,102.358,87.149,106.324,88.064z"/>
			<path class="st9" d="M99.685,23.762c1.59-1.277,3.302-2.351,5.099-3.217L98.291,3.784c-3.82,1.69-7.432,3.929-10.709,6.702
				L99.685,23.762z"/>
			<path class="st10" d="M118.359,0v17.969c2.002,0.147,3.997,0.52,5.944,1.126l6.491-16.755C126.742,0.956,122.553,0.182,118.359,0
				z"/>
			<path class="st11" d="M127.98,20.546c1.552,0.751,3.054,1.663,4.482,2.741c0.208,0.157,0.412,0.317,0.614,0.479l12.101-13.274
				c-0.618-0.521-1.251-1.029-1.904-1.521c-2.786-2.104-5.739-3.831-8.798-5.19L127.98,20.546z"/>
			<path class="st12" d="M91.422,81.569l9.457-15.273c-0.193-0.138-0.386-0.279-0.576-0.423c-1.376-1.039-2.621-2.187-3.736-3.42
				L82.213,73.293c2.117,2.514,4.545,4.833,7.278,6.897C90.126,80.67,90.771,81.129,91.422,81.569z"/>
			<path class="st13" d="M136.196,62.451c-1.314,1.46-2.76,2.746-4.306,3.851l9.459,15.276c3.368-2.273,6.472-5.041,9.198-8.29
				L136.196,62.451z"/>
			<path class="st14" d="M119.25,71.107c-1.9,0.206-3.824,0.209-5.735,0.004l-3.303,17.668c4.108,0.57,8.263,0.564,12.341-0.005
				L119.25,71.107z"/>
			<path class="st15" d="M94.142,59.331c-1.085-1.636-1.975-3.373-2.667-5.177l-17.3,4.922c1.336,3.9,3.22,7.634,5.631,11.08
				L94.142,59.331z"/>
			<path class="st16" d="M108.463,19.099c1.934-0.599,3.928-0.976,5.943-1.127V0.001c-4.227,0.19-8.417,0.977-12.434,2.344
				L108.463,19.099z"/>
			<path class="st17" d="M89.996,40.582c0.293-1.944,0.804-3.868,1.536-5.736L75.434,26.83c-1.697,3.906-2.8,7.979-3.322,12.094
				L89.996,40.582z"/>
		</g>
		<path class="st0" d="M280.574,20.592c13.648,0,24.752,11.103,24.752,24.752s-11.104,24.752-24.752,24.752
			s-24.752-11.103-24.752-24.752S266.926,20.592,280.574,20.592 M280.574,6.083c-21.683,0-39.261,17.578-39.261,39.261
			s17.578,39.261,39.261,39.261s39.261-17.578,39.261-39.261S302.257,6.083,280.574,6.083L280.574,6.083z"/>
	</g>
	<g>
		<path class="st0" d="M12.612,108.035c4.735,0,8.591,2.097,8.591,6.631c0,1.792-0.541,3.652-2.605,4.599
			c2.199,1.183,3.281,3.383,3.281,5.513c0,5.311-4.836,6.9-9.165,6.935H0.503v-23.677H12.612z M7.1,117.067h5.344
			c1.387,0,2.132-0.71,2.132-1.759c0-1.049-0.745-1.861-2.064-1.861H7.1V117.067z M7.1,126.503h5.648
			c1.691,0,2.503-0.914,2.503-2.232c0-1.285-0.845-2.267-2.503-2.267H7.1V126.503z"/>
		<path class="st0" d="M67.774,108.069v13.225c0.033,7.002-4.228,10.925-11.162,10.925c-6.933,0-11.162-3.756-11.162-10.993v-13.158
			h6.663v13.158c0,3.72,1.793,5.276,4.499,5.276s4.499-1.624,4.499-5.209v-13.225H67.774z"/>
		<path class="st0" d="M92.528,131.712v-23.677h6.663v23.677H92.528z"/>
		<path class="st0" d="M130.982,108.035v17.995h11.33v5.682h-18.028v-23.677H130.982z"/>
		<path class="st0" d="M175.692,108.035c8.355,0,12.38,5.141,12.38,11.67c0,6.527-3.889,12.007-12.38,12.007h-10.146v-23.677
			H175.692z M172.175,126.063h3.517c4.262,0,5.751-3.179,5.751-6.425c0-3.248-1.658-6.021-5.751-6.021h-3.517V126.063z"/>
		<path class="st0" d="M230.854,131.712h-18.942v-23.677h18.468v5.615h-11.872v3.383h11.195v5.446h-11.195v3.585h12.346V131.712z"/>
		<path class="st0" d="M276.851,131.712h-7.374l-5.514-7.678h-2.332v7.678h-6.698v-23.677h11.568c6.054,0,9.2,3.891,9.2,8.153
			c0,2.908-1.014,5.378-5.007,7.137l6.157,7.982V131.712z M261.63,113.38v5.682h4.938c1.759,0,2.536-1.32,2.536-2.74
			c0-1.488-0.845-2.942-2.604-2.942H261.63z"/>
		<path class="st0" d="M314.727,114.597c-1.624-1.216-3.483-1.622-5.547-1.622c-1.622,0-3.213,0.506-3.213,1.759
			c0,1.624,1.591,1.861,3.925,2.097c4.701,0.506,9.606,2.401,9.606,7.847c0,5.378-5.074,7.678-10.385,7.712
			c-4.262,0.033-7.306-0.712-10.587-4.162l3.687-4.228c2.334,2.267,4.939,2.673,6.935,2.673c2.198,0,3.72-0.777,3.72-2.097
			c0-1.183-1.353-1.928-3.956-2.165c-5.176-0.473-9.64-1.793-9.64-7.678c0-5.007,4.905-7.171,9.91-7.171
			c3.552,0,6.326,0.812,8.863,2.807L314.727,114.597z"/>
	</g>
	<g>
		<path class="st0" d="M0.503,170.879v-13.424h2.511v13.424H0.503z"/>
		<path class="st0" d="M36.254,161.156l-4.372,5.83h-0.498l-4.276-5.848v9.761h-2.532v-13.424h2.914l4.201,5.773l4.199-5.773h2.895
			v13.424h-2.532V161.156z"/>
		<path class="st0" d="M66.649,166.929h-3.798v3.95h-2.532v-13.424c2.11,0,4.22-0.019,6.33-0.019
			C73.207,157.436,73.226,166.929,66.649,166.929z M62.851,164.607h3.798c3.24,0,3.221-4.756,0-4.756h-3.798V164.607z"/>
		<path class="st0" d="M101.973,168.347h-7.019l-1.151,2.532h-2.742l6.021-13.424h2.762l6.022,13.424h-2.762L101.973,168.347z
			 M98.463,160.273l-2.492,5.715h4.986L98.463,160.273z"/>
		<path class="st0" d="M137.202,169.191c-1.381,1.362-3.165,1.995-5.101,1.995c-4.986,0-7.096-3.433-7.115-6.924
			c-0.019-3.51,2.262-7.076,7.115-7.076c1.821,0,3.547,0.69,4.928,2.052l-1.688,1.63c-0.881-0.864-2.071-1.267-3.24-1.267
			c-3.242,0-4.641,2.417-4.623,4.66c0.019,2.224,1.304,4.546,4.623,4.546c1.169,0,2.492-0.48,3.375-1.362L137.202,169.191z"/>
		<path class="st0" d="M161.058,159.756h-4.257v-2.301c3.873,0,7.153,0,11.046,0v2.301h-4.257v11.123h-2.532V159.756z"/>
		<path class="st0" d="M217.907,166.929h-3.798v3.95h-2.532v-13.424c2.11,0,4.22-0.019,6.33-0.019
			C224.465,157.436,224.484,166.929,217.907,166.929z M214.109,164.607h3.798c3.24,0,3.221-4.756,0-4.756h-3.798V164.607z"/>
		<path class="st0" d="M246.23,157.455v11.084h6.905v2.34h-9.436v-13.424H246.23z"/>
		<path class="st0" d="M283.608,168.347h-7.019l-1.151,2.532h-2.742l6.021-13.424h2.762l6.022,13.424h-2.762L283.608,168.347z
			 M280.099,160.273l-2.492,5.715h4.986L280.099,160.273z"/>
		<path class="st0" d="M311.243,162.997l3.566-5.543h3.049v0.114l-5.35,7.767v5.543h-2.532v-5.543l-5.159-7.767v-0.114h3.011
			L311.243,162.997z"/>
	</g>
	<g>
		<rect x="0.503" y="143.986" class="st0" width="318.919" height="1.605"/>
	</g>
</g>
</svg>