<!-- Generator: Adobe Illustrator 22.1.0, SVG Export Plug-In  -->
<svg version="1.1"
	 xmlns="http://www.w3.org/2000/svg" xmlns:xlink="http://www.w3.org/1999/xlink" xmlns:a="http://ns.adobe.com/AdobeSVGViewerExtensions/3.0/"
	 x="0px" y="0px" width="229px" height="229px" viewBox="0 0 229 229" style="enable-background:new 0 0 229 229;"
	 xml:space="preserve">
<style type="text/css">
	.st0{fill:#666666;}
	.st1{fill:#FFFFFF;}
</style>
<defs>
</defs>
<circle class="st0" cx="114.5" cy="114.5" r="114.5"/>
<g>
	<path class="st1" d="M97.076,144.106c2.944,4.564,4.155,9.409,2.96,14.704c-0.567,2.512-2.011,3.628-4.14,3.24
		c-2.029-0.37-2.728-2.109-2.659-4.585c0.071-2.529-0.022-5.253-0.893-7.572c-1.328-3.533-4.34-5.517-8.18-5.736
		c-3.666-0.208-6.503,1.482-8.504,4.505c-1.054,1.592-1.913,3.311-2.917,4.937c-1.286,2.083-3.295,2.705-5.045,1.626
		c-1.667-1.028-2.067-2.959-0.958-5.008c0.91-1.681,1.846-3.353,2.872-4.965c4.145-6.509,10.958-9.321,18.409-7.431
		c3.042,0.771,5.685,0.461,8.222-1.432c1.93-1.44,3.803-1.179,5.057,0.469c1.241,1.63,0.817,3.722-1.113,5.172
		C99.226,142.752,98.187,143.37,97.076,144.106z"/>
	<path class="st1" d="M78.161,123.895c-5.606,4.287-11.462,4.732-17.548,1.193c-2.322-1.35-3.019-3.296-1.959-5.113
		c1.092-1.873,3.066-2.236,5.387-0.865c2.704,1.598,5.419,1.934,8.27,0.432c1.1-0.579,1.536-1.222,0.919-2.525
		c-0.511-1.079-0.799-2.323-0.91-3.52c-0.162-1.738,0.764-2.962,2.439-3.411c1.77-0.474,3.184,0.173,3.998,1.839
		c0.365,0.747,0.51,1.598,0.803,2.383c1.367,3.653,4.567,5.941,8.2,5.885c3.545-0.055,6.776-2.561,7.989-6.197
		c1.169-3.503,2.501-4.593,4.769-3.901c2.334,0.712,2.897,2.718,1.734,6.183c-3.321,9.896-14.308,13.818-23.105,8.248
		C78.827,124.322,78.508,124.117,78.161,123.895z"/>
	<path class="st1" d="M126.728,144.135c-1.291-0.87-2.48-1.556-3.534-2.41c-1.608-1.302-1.852-3.41-0.69-4.899
		c1.18-1.512,3.054-1.936,4.675-0.66c2.88,2.268,5.899,2.334,9.303,1.529c6.706-1.587,12.25,0.674,16.485,5.933
		c1.711,2.124,2.982,4.623,4.303,7.033c0.959,1.75,0.346,3.644-1.232,4.576c-1.573,0.929-3.512,0.525-4.628-1.12
		c-0.985-1.452-1.802-3.019-2.703-4.528c-2.687-4.499-6.721-6.331-11.166-5.079c-4.315,1.216-7.327,5.403-7.318,10.259
		c0.002,0.986,0.171,1.977,0.32,2.956c0.327,2.149-0.631,3.835-2.479,4.292c-2.012,0.498-3.711-0.581-4.243-2.802
		C122.536,153.853,123.579,148.899,126.728,144.135z"/>
</g>
<g>
	<path class="st1" d="M190.81,81.881c-3.507-0.812-7.029-1.559-10.544-2.333c-3.35-0.738-6.701-1.475-10.138-2.231
		c1.479-6.815,2.923-13.458,4.361-20.104c1.147-5.302,2.312-10.6,3.413-15.911c0.35-1.689-0.295-2.997-1.572-3.646
		c-1.247-0.634-2.948-0.278-4.061,0.859c-0.241,0.247-0.457,0.519-0.685,0.778c-7.052,8.003-14.107,16.005-21.157,24.01
		c-5.68,6.449-11.359,12.897-17.03,19.353c-1.996,2.273-1.406,4.596,1.426,5.676c0.691,0.263,1.395,0.491,2.091,0.742
		c5.933,2.137,11.866,4.276,17.984,6.481c-0.228,0.824-0.402,1.484-0.594,2.138c-2.974,10.122-5.958,20.241-8.909,30.37
		c-0.215,0.736-0.365,1.567-0.249,2.307c0.198,1.267,1.048,2.076,2.323,2.406c1.481,0.382,2.557-0.238,3.545-1.277
		c13.855-14.564,27.725-29.114,41.582-43.675C194.92,85.381,194.1,82.642,190.81,81.881z M155.603,117.494
		c-0.107-0.063-0.214-0.125-0.321-0.188c1.148-3.916,2.293-7.832,3.443-11.747c0.972-3.31,1.956-6.617,2.922-9.928
		c0.832-2.854,0.142-4.196-2.686-5.236c-3.323-1.222-6.653-2.444-10.028-3.681c-0.037-0.014-0.074-0.027-0.111-0.041
		c-2.599-0.953-5.223-1.915-7.905-2.899c3.573-4.055,7.132-8.094,10.696-12.139h0c1.899-2.156,3.805-4.318,5.712-6.482
		c3.876-4.399,7.768-8.816,11.719-13.299c-1.093,5.056-2.085,9.662-3.086,14.266c-0.208,0.956-0.418,1.912-0.627,2.868
		c-0.05,0.227-0.099,0.454-0.149,0.681c-0.647,2.959-1.296,5.918-1.942,8.877c-0.539,2.471,0.434,4.002,2.911,4.55
		c0.135,0.03,0.27,0.059,0.405,0.089c2.402,0.531,4.805,1.058,7.208,1.587c3.289,0.723,6.577,1.448,9.866,2.172
		c0.18,0.04,0.356,0.094,0.791,0.211C174.732,97.354,165.168,107.424,155.603,117.494z"/>
	<path class="st1" d="M177.764,113.289c-0.697,0.732-1.394,1.464-2.091,2.196c0.271,1.037,0.465,2.113,0.582,3.229
		c0.797,7.605-1.686,13.987-8.088,18.695c-0.376-0.222-0.692-0.414-1.013-0.597c-1.604-0.916-3.146-0.789-4.373,0.578
		c-1.304,1.452-1.249,3.115-0.032,4.6c2.15,2.622,3.437,5.548,3.784,8.945c0.921,9.02-7.966,17.198-16.799,15.32
		c-3.579-0.761-6.251-2.726-7.565-6.324c-0.326-0.892-0.894-2.088-1.631-2.348c-1.152-0.406-2.717-0.528-3.793-0.055
		c-1.566,0.689-1.824,2.368-1.321,3.987c1.357,4.372,4.025,7.684,8.117,9.793c0.942,0.485,1.926,0.889,2.862,1.317
		c-0.605,6.739-6.759,11.538-14.681,8.853c-0.463-0.157-0.85-1.117-0.922-1.744c-0.265-2.306-1.342-3.639-3.255-3.764
		c-1.928-0.126-3.197,1.009-3.688,3.296c-0.842,3.924-2.592,5.626-5.609,5.453c-3.133-0.179-5.16-2.47-5.492-6.243
		c-0.067-0.761-0.066-1.53-0.066-2.295c-0.003-23.673-0.013-47.345,0.022-71.018c0.002-1.51,0.141-3.084,0.582-4.516
		c1.296-4.209,5.03-6.67,9.061-6.183c3.947,0.477,7.146,3.874,7.608,8.046c0.101,0.907,0.148,1.863,0.482,2.69
		c0.657,1.625,1.998,2.267,3.717,1.97c1.633-0.282,2.588-1.309,2.72-2.953c0.097-1.214,0.019-2.443,0.019-3.965
		c2.498,0.066,4.853-0.228,7.068-0.887l-9.217-3.321c-0.248-0.089-0.497-0.175-0.745-0.261c-0.485-0.168-0.97-0.336-1.45-0.519
		c-3.219-1.227-5.483-3.62-6.212-6.564c-0.026-0.103-0.034-0.208-0.055-0.311c-4.28-1.468-8.709-1.155-13.432,1.637
		c0-5.339,0-10.413,0-15.229c2.662,0.662,5.189,1.497,7.783,1.877c2.419,0.354,4.081-1.102,4.197-3.149
		c0.109-1.927-1.337-3.388-3.618-3.658c-4.917-0.583-7.96-3.551-8.405-8.456c-0.178-1.967-0.121-3.989,0.116-5.952
		c0.349-2.88,2.688-4.885,5.447-4.972c2.765-0.087,4.703,1.583,5.278,4.695c0.206,1.117,0.158,2.281,0.218,3.425
		c0.113,2.153,1.422,3.632,3.299,3.717c1.765,0.081,3.457-1.236,3.507-3.227c0.044-1.73,0.96-1.998,2.253-2.212
		c5.229-0.866,9.613,0.932,12.023,4.732c0.28-0.318,0.56-0.637,0.841-0.955c1.288-1.463,2.577-2.925,3.866-4.387
		c-2.278-2.951-5.459-5.027-9.645-5.97c-3.312-0.746-6.932-0.127-10.686-0.127c-1.746-3.564-4.837-5.897-9.057-6.512
		c-4.288-0.625-7.928,0.984-11.015,3.809c-0.357-0.259-0.555-0.375-0.721-0.527c-6.399-5.83-15.783-3.597-19.065,2.533
		c-0.245,0.458-1.355,0.778-1.971,0.664c-11.203-2.08-19.644,3.336-22.463,14.386c-0.158,0.621-1.1,1.389-1.76,1.48
		c-6.24,0.857-11.065,3.974-14.481,9.148c-4.932,7.469-5.227,15.455-2.114,23.805c-0.311,0.266-0.474,0.426-0.657,0.56
		c-14.234,10.395-14.668,31.688-0.81,42.647c1.168,0.924,1.123,1.634,0.716,2.88c-4.23,12.939,4.086,26.314,17.447,28.272
		c0.657,0.096,1.563,0.868,1.743,1.499c3.038,10.623,9.856,15.516,20.662,13.902c3.404-0.508,6.176-0.793,8.799,1.665
		c0.513,0.481,1.384,0.627,2.118,0.819c4.795,1.259,8.879-0.209,12.441-3.423c0.292,0.158,0.521,0.226,0.673,0.374
		c4.773,4.604,12.638,4.658,17.303,0.106c0.411-0.401,1.516-0.38,2.185-0.179c4.056,1.218,8.16,1.585,12.204,0.279
		c6.485-2.094,10.11-6.879,11.707-13.321c0.27-1.09,0.558-1.645,1.827-1.837c8.291-1.258,13.943-5.991,17.019-13.678
		c2.13-5.324,1.914-10.771-0.284-16.128c7.653-5.499,11.515-12.911,11.529-22.186c0.006-4.154-0.77-7.93-2.299-11.326
		C179.924,111.021,178.844,112.155,177.764,113.289z M97.804,76.674c2.594-0.374,5.122-1.207,7.796-1.868c0,4.795,0,9.866,0,14.617
		c-2.819-0.637-5.647-1.575-8.537-1.852c-3.383-0.324-6.408,1.121-9.206,3.004c-6.492,4.371-12.73,3.455-17.987-2.372
		c-0.847-0.939-2.462-1.713-3.664-1.637c-0.945,0.059-2.236,1.405-2.568,2.438c-0.3,0.934,0.192,2.443,0.848,3.312
		c3.712,4.914,8.707,7.565,14.891,7.89c0.611,0.032,1.223,0.045,1.835,0.077c0.066,0.003,0.129,0.073,0.346,0.204
		c0,1.093-0.039,2.288,0.009,3.479c0.076,1.876,1.096,3.018,2.938,3.239c1.825,0.219,3.132-0.606,3.667-2.405
		c0.215-0.723,0.256-1.502,0.337-2.259c0.472-4.445,4.05-7.975,8.262-8.138c4.139-0.16,7.921,2.959,8.75,7.304
		c0.214,1.118,0.252,2.284,0.253,3.427c0.014,23.673,0.014,47.345,0.001,71.018c-0.001,1.222-0.037,2.46-0.233,3.662
		c-0.467,2.878-2.742,4.848-5.52,4.908c-2.68,0.058-4.499-1.521-5.207-4.53c-0.105-0.446-0.161-0.904-0.27-1.349
		c-0.456-1.88-1.616-2.965-3.592-2.845c-1.973,0.12-3.274,1.365-3.164,3.25c0.121,2.092-1.012,2.439-2.546,2.702
		c-7.071,1.212-12.559-2.612-13.167-8.717c2.721-2.096,5.468-3.792,7.649-6.037c1.477-1.52,2.335-3.741,3.147-5.778
		c0.744-1.865-0.224-3.607-1.974-4.319c-1.728-0.703-3.657-0.064-4.33,1.857c-1.854,5.292-5.673,7.75-11.037,7.531
		c-6.189-0.253-10.476-3.65-12.767-9.313c-2.095-5.181-1.122-10.085,2.258-14.47c1.352-1.754,2.133-3.503,0.454-5.337
		c-1.577-1.723-3.418-1.347-5.15-0.028c-11.938-8.238-9.999-26.614,0.261-32.276c0.798,0.852,1.61,1.746,2.452,2.612
		c1.626,1.673,3.613,1.901,5.088,0.607c1.559-1.368,1.557-3.42-0.03-5.291c-0.941-1.109-1.964-2.15-2.865-3.289
		c-5.392-6.813-4.805-17.188,1.28-23.09c5.071-4.918,12.365-5.06,17.618-0.337c0.455,0.409,0.856,0.881,1.325,1.273
		c1.586,1.328,3.357,1.295,4.742-0.06c1.34-1.311,1.581-3.362,0.089-4.711c-2.077-1.878-4.331-3.662-6.778-4.99
		c-1.633-0.886-1.805-1.701-1.34-3.215c1.869-6.079,8.223-9.474,14.234-7.455c0.566,0.19,1.12,1.086,1.261,1.744
		c0.463,2.169,1.765,3.523,3.618,3.465c1.934-0.061,3.216-1.602,3.324-3.939c0.056-1.219,0.068-2.455,0.295-3.647
		c0.424-2.225,1.747-3.781,4.024-4.177c2.298-0.4,4.243,0.428,5.616,2.344c2.846,3.974,1.322,12.758-2.805,15.399
		c-1.292,0.827-2.933,1.232-4.473,1.518c-2.257,0.42-3.714,1.736-3.63,3.681C93.721,75.547,95.385,77.023,97.804,76.674z"/>
</g>
<path class="st1" d="M151.348,86.45c0.037,0.013,0.074,0.027,0.111,0.041C151.422,86.477,151.385,86.463,151.348,86.45
	L151.348,86.45z"/>
</svg>