<!-- Generator: Adobe Illustrator 22.1.0, SVG Export Plug-In  -->
<svg version="1.1"
	 xmlns="http://www.w3.org/2000/svg" xmlns:xlink="http://www.w3.org/1999/xlink" xmlns:a="http://ns.adobe.com/AdobeSVGViewerExtensions/3.0/"
	 x="0px" y="0px" width="283.465px" height="283.465px" viewBox="0 0 283.465 283.465"
	 style="enable-background:new 0 0 283.465 283.465;" xml:space="preserve">
<style type="text/css">
	.st0{fill:#676767;}
	.st1{fill:#FFFFFF;}
</style>
<defs>
</defs>
<g>
	<circle class="st0" cx="141.732" cy="141.732" r="141.732"/>
	<g>
		<g>
			<path class="st1" d="M186.837,121.904c1.065,2.635,0.468,4.451-1.61,4.991c-1.198,0.311-2.032-0.648-3.089-0.81
				c-0.383-0.154-0.767-0.309-1.15-0.463c-1.312-0.591-2.596-1.256-4.021-1.559c-0.226-0.416-0.685-0.343-1.038-0.491
				c-1.361-0.584-2.722-1.167-4.084-1.751c-0.292-0.358-0.695-0.505-1.126-0.598c-1.065-0.525-2.129-1.05-3.194-1.574
				c-0.493-0.29-0.987-0.579-1.48-0.869c-1.118-0.705-2.236-1.41-3.354-2.115c-0.178-0.318-0.423-0.552-0.793-0.626
				c-0.979-0.854-1.957-1.709-2.936-2.563c-0.526-1.035-1.307-0.915-2.159-0.479c-1.958,0.179-3.916,0.358-5.875,0.537
				c-0.615,0.007-1.231,0.014-1.846,0.021c-1.824-0.062-3.647-0.124-5.471-0.185c-0.455-0.349-0.975-0.286-1.493-0.233
				c-1.577-0.307-3.153-0.614-4.73-0.921c-0.472-0.14-0.945-0.279-1.417-0.419c-1.371-0.428-2.742-0.855-4.113-1.283
				c-0.239-0.402-0.674-0.365-1.046-0.469c-1.241-0.574-2.482-1.147-3.724-1.721c-0.171-0.338-0.507-0.387-0.824-0.466
				c-1.026-0.416-1.705-1.97-3.138-1.044c-2.245,1.45-4.455,2.954-6.68,4.435c-1.337,0.699-2.674,1.397-4.011,2.096
				c-3.306,1.511-6.611,3.023-9.917,4.534c-0.858,0.258-1.715,0.517-2.573,0.775c-1.248-0.112-2.065-0.829-2.64-1.884
				c-0.093-0.491-0.185-0.982-0.278-1.472c2.155-4.087,4.902-7.839,6.832-12.054c0.652-1.186,1.313-2.368,1.602-3.711
				c0.247-0.533,0.465-1.082,0.746-1.596c0.851-1.56,0.67-2.791-1.068-3.566c-0.506-0.485-1.011-0.97-1.517-1.455
				c-0.833-0.91-1.666-1.82-2.499-2.729c-0.131-0.43-0.387-0.763-0.775-0.992c-0.639-0.954-1.277-1.908-1.916-2.862
				c-0.323-0.551-0.646-1.103-0.969-1.654c-0.593-1.335-1.187-2.669-1.78-4.004c-0.114-0.393-0.024-0.858-0.41-1.154
				c-0.295-1.274-0.59-2.548-0.884-3.822c-0.112-0.491-0.224-0.983-0.337-1.474c-0.031-1.829-0.063-3.659-0.094-5.488
				c0.024-0.616,0.049-1.232,0.073-1.847c0.506-2.325,0.921-4.674,1.754-6.916c0.466-1.093,0.932-2.186,1.398-3.279
				c3.586-6.625,8.888-11.557,15.24-15.454c1.308-0.424,2.491-1.102,3.657-1.812c3.998-1.404,7.974-2.802,12.219-3.411
				c7.803-1.118,15.392-0.406,22.849,2.053c0.281,0.093,0.58,0.131,0.871,0.195c0.291,0.324,0.663,0.441,1.087,0.424
				c1.345,0.616,2.69,1.233,4.036,1.849c0.279,0.376,0.678,0.546,1.116,0.648c1.083,0.674,2.166,1.347,3.249,2.021
				c0.385,0.288,0.77,0.577,1.156,0.865c0.97,0.781,1.939,1.562,2.909,2.342c0.196,0.404,0.587,0.337,0.93,0.387
				c1.396,0.619,2.792,1.239,4.189,1.858c0.119,0.344,0.437,0.31,0.705,0.371c1.212,0.712,2.425,1.425,3.637,2.137
				c0.257,0.395,0.612,0.648,1.079,0.735c1.119,0.904,2.237,1.808,3.356,2.713c0.228,0.193,0.456,0.386,0.684,0.579
				c0.981,1.051,1.961,2.102,2.942,3.154c0.264,0.309,0.528,0.617,0.791,0.926c0.65,0.948,1.301,1.896,1.951,2.844
				c0.326,0.522,0.652,1.044,0.978,1.566c0.598,1.255,1.196,2.511,1.794,3.766c0.052,0.339-0.002,0.718,0.359,0.938
				c0.389,1.335,0.778,2.671,1.168,4.006c0.001,0.513-0.078,1.038,0.243,1.499c0.135,1.705,0.271,3.41,0.406,5.114
				c-0.059,0.731-0.118,1.461-0.177,2.192c-0.15,2.246-0.799,4.401-1.219,6.597c-0.366,0.972-0.732,1.944-1.099,2.916
				c-2.476,4.928-5.656,9.291-9.951,12.826c-1.264,1.041,0.052,2.125,0.361,3.168c0.049,0.332,0.005,0.699,0.342,0.925
				c0.36,1.289,0.917,2.491,1.62,3.627c0.062,0.452,0.253,0.834,0.604,1.131c0.488,1.303,1.219,2.475,1.971,3.636
				c0.189,0.63,0.5,1.189,0.977,1.648c0.573,1.256,1.313,2.409,2.162,3.495C186.469,121.451,186.486,121.782,186.837,121.904z
				 M171.804,115.34c1.691,1.097,3.551,1.804,5.91,2.774c-1.136-2.254-2.023-4.013-2.91-5.772c-0.075-0.599-0.305-1.127-0.714-1.574
				c-0.422-1.177-0.845-2.354-1.267-3.531c-0.226-0.485-0.148-1.091-0.593-1.488c-1.11-3.019,0.112-4.943,2.627-6.708
				c2.644-1.856,4.728-4.384,6.324-7.248c0.888-1.221,1.619-2.52,1.977-4.003c1.161-2.225,1.503-4.654,1.775-7.101
				c0.01-0.69,0.02-1.379,0.029-2.069c0.224-1.65-0.173-3.235-0.511-4.826c-0.155-0.596-0.01-1.277-0.507-1.775
				c-0.224-1.626-0.857-3.094-1.73-4.469c-0.062-0.272-0.059-0.583-0.404-0.689c-0.495-1.25-1.18-2.38-2.129-3.34
				c-1.366-2.152-3.161-3.88-5.594-5.728c1.237,2.899,1.927,5.442,2.559,8.002c0.118,1.709,0.236,3.417,0.354,5.126
				c-0.007,0.613-0.013,1.226-0.02,1.839c-0.489,2.321-0.977,4.642-1.466,6.964c-0.372,0.979-0.743,1.959-1.115,2.938
				c-1.495,2.633-2.95,5.281-4.875,7.653c-3.704,4.565-8.398,7.844-13.481,10.645c-1.09,0.463-2.18,0.926-3.27,1.388
				c-3.156,1.09-6.391,1.89-9.641,2.636c-0.098,0.012-0.196,0.024-0.294,0.036c-2.183,0.183-4.366,0.365-7.045,0.589
				c2.795,1.471,8.907,2.499,12.56,2.307c0.613,0.004,1.227,0.007,1.84,0.011c2.119,0.164,4.193-0.095,6.235-0.663
				c0.755,0.002,1.522,0.07,2.196-0.388c1.272-0.071,2.229,0.517,3.023,1.445c0.329,0.609,0.773,1.106,1.393,1.431
				c0.728,0.758,1.474,1.492,2.461,1.919c0.393,0.54,0.955,0.828,1.563,1.047c0.983,0.799,2.068,1.42,3.254,1.866
				C170.726,115.005,171.231,115.239,171.804,115.34z M167.082,83.767c0.852-1.097,1.557-2.273,1.917-3.63
				c1.334-2.409,1.971-5.003,2.061-7.743c0.124-0.61,0.208-1.221,0.029-1.837c0.181-1.981,0.058-3.931-0.615-5.822
				c-0.059-0.261-0.118-0.522-0.176-0.783c-0.223-1.444-0.849-2.738-1.504-4.021c-0.152-0.401-0.193-0.863-0.615-1.115
				c-0.597-1.446-1.414-2.751-2.505-3.878c-0.121-0.432-0.378-0.758-0.769-0.978c-0.835-1.145-1.729-2.234-2.931-3.024
				c-0.245-0.215-0.49-0.43-0.735-0.646c-0.765-0.94-1.783-1.559-2.792-2.188c-0.311-0.362-0.668-0.648-1.164-0.704
				c-1.038-0.937-2.292-1.505-3.547-2.071c-0.572-0.255-1.145-0.51-1.717-0.765c-1.289-0.632-2.596-1.212-4.026-1.453
				c-0.215-0.059-0.431-0.118-0.646-0.178c-1.662-0.74-3.454-0.939-5.219-1.251c-0.612-0.042-1.225-0.083-1.837-0.125
				c-1.684-0.576-3.413-0.367-5.134-0.299c-0.613,0-1.227,0-1.84,0c-2.112-0.05-4.181,0.25-6.226,0.756
				c-0.881,0.048-1.737,0.215-2.555,0.556c-3.11,0.708-6.08,1.775-8.816,3.443c-1.029,0.235-1.832,0.91-2.673,1.467
				c-4.661,3.087-8.582,6.858-10.861,12.094l-0.01,0.054c-0.129,0.044-0.172,0.13-0.129,0.257c-1.307,2.29-2.03,4.751-2.177,7.383
				c-0.411,0.698-0.298,1.449-0.225,2.196c-0.196,1.73-0.063,3.437,0.349,5.125c-0.12,0.55,0.125,1.011,0.362,1.474
				c0.196,1.744,0.816,3.341,1.685,4.851c0.102,0.233,0.204,0.466,0.306,0.699c0.579,1.362,1.28,2.646,2.329,3.713
				c0.13,0.433,0.384,0.771,0.77,1.008c0.604,0.988,1.336,1.863,2.275,2.553c0.37,0.557,0.827,1.026,1.405,1.37
				c0.832,0.655,1.664,1.31,2.495,1.965c0.343,0.373,0.687,0.746,1.03,1.12c0.582,2.275-0.692,4.194-1.203,6.26
				c-0.407,1.077-0.814,2.155-1.221,3.232c-1.03,1.908-2.06,3.816-3.09,5.724c-0.048,0.143-0.097,0.286-0.145,0.43
				c0.157-0.02,0.314-0.041,0.471-0.061c2.608-1.228,5.206-2.474,7.565-4.155c2.246-1.185,4.342-2.589,6.24-4.282
				c1.827-1.697,3.838-2.682,6.379-1.675c0.154,0.061,0.358,0,0.538-0.005c0.436,0.363,0.944,0.377,1.47,0.307
				c1.697,0.288,3.393,0.576,5.125,0.354c0.614,0.004,1.228,0.008,1.842,0.013c2.109,0.056,4.188-0.158,6.228-0.711
				c0.789,0.174,1.476-0.23,2.206-0.387c3.097-0.634,6.083-1.574,8.821-3.199c1.644-0.53,3.054-1.475,4.417-2.502
				C161.862,90.337,164.877,87.451,167.082,83.767z"/>
			<path class="st1" d="M122.935,192.704c0.606,1.651,1.211,3.302,1.817,4.953c0.056,0.172,0.112,0.345,0.168,0.517
				c0.221,1.589,0.443,3.179,0.664,4.768c0.023,0.611,0.046,1.221,0.069,1.832c-0.006,1.832-0.011,3.664-0.017,5.496
				c0.006,0.613,0.012,1.225,0.017,1.838c-0.025,0.12-0.067,0.238-0.072,0.359c-0.217,5.271-0.348,5.416-5.556,5.418
				c-21.934,0.006-43.867,0.003-65.801-0.002c-2.679-0.001-3.714-0.961-3.678-3.607c0.065-4.759-0.484-9.563,0.426-14.266
				c1.899-9.816,7.681-16.466,16.982-20.08c0.51-0.198,1.037-0.353,1.556-0.528c0.856-0.209,1.712-0.419,2.568-0.628
				c2.605-0.163,5.206-0.341,7.824-0.329c6.683,0.029,13.367-0.042,20.05-0.073c0.573,0.209,1.161,0.291,1.768,0.2
				c1.478,0.213,2.956,0.426,4.433,0.639c0.382,0.383,0.882,0.279,1.346,0.328c1.22,0.49,2.44,0.979,3.66,1.469
				c0.511,0.286,1.022,0.572,1.533,0.858c1.113,0.745,2.226,1.49,3.339,2.235c0.231,0.179,0.462,0.359,0.693,0.538
				c0.995,1.006,1.99,2.011,2.984,3.017c0.119,0.44,0.369,0.785,0.755,1.03c0.624,0.961,1.248,1.922,1.873,2.883
				C122.536,191.947,122.735,192.325,122.935,192.704z"/>
			<path class="st1" d="M158.195,200.733c0.454-2.667,1.302-5.214,2.338-7.703c0.894-1.439,1.787-2.878,2.681-4.317
				c1.539-1.584,3.078-3.167,4.618-4.751c1.571-0.969,3.142-1.938,4.713-2.907c2.476-1.099,5.059-1.847,7.711-2.371
				c2.788-0.07,5.576-0.174,8.365-0.203c5.28-0.055,10.56-0.067,15.841-0.097c1.697,0.069,3.394,0.137,5.092,0.206
				c0.624,0.061,1.248,0.122,1.873,0.183c1.459,0.389,2.918,0.778,4.377,1.167c0.499,0.199,0.998,0.399,1.497,0.598
				c1.081,0.572,2.161,1.145,3.242,1.717c0.364,0.219,0.727,0.437,1.091,0.656c0.87,0.689,1.739,1.379,2.609,2.068
				c0.5,0.477,0.999,0.955,1.499,1.432c0.817,0.976,1.634,1.953,2.451,2.929c0.109,0.146,0.218,0.292,0.326,0.438
				c0.674,1.207,1.349,2.414,2.023,3.621c0.168,0.382,0.336,0.764,0.504,1.147c2.688,6.615,1.837,13.568,1.896,20.423
				c0.018,2.092-1.236,2.916-3.794,2.917c-9.767,0.005-19.534,0.003-29.301,0.002c-12.636-0.001-25.272-0.009-37.908,0.003
				c-1.252,0.001-2.437-0.096-3.399-1.012c-0.2-0.374-0.399-0.748-0.599-1.122c-0.022-1.828-0.043-3.657-0.065-5.485
				c-0.006-0.613-0.012-1.225-0.017-1.838c0.013-1.833,0.027-3.665,0.04-5.498C157.997,202.203,158.096,201.468,158.195,200.733z"/>
			<path class="st1" d="M215.389,166.236c-2.265,3.57-5.17,6.496-8.776,8.716c-7.728,3.829-15.41,3.776-23.042-0.279
				c-1.086-0.773-2.173-1.546-3.259-2.319c-0.232-0.206-0.463-0.412-0.695-0.617c-0.874-0.973-1.748-1.946-2.622-2.918
				c-0.186-0.256-0.372-0.512-0.559-0.768c-0.689-1.205-1.378-2.409-2.067-3.614c-0.216-0.497-0.433-0.994-0.649-1.491
				c-0.378-1.338-0.755-2.676-1.133-4.015c-0.055-0.627-0.11-1.254-0.165-1.881c-0.258-1.821,0.039-3.632,0.093-5.447
				c0.128-0.735,0.255-1.471,0.383-2.206c1.639-5.277,4.395-9.782,8.935-13.09c2.425-1.767,5.132-2.914,7.956-3.838
				c0.823-0.14,1.647-0.279,2.47-0.419c1.859-0.352,3.737-0.17,5.607-0.195c0.439,0.356,0.949,0.331,1.465,0.27
				c1.433,0.383,2.865,0.766,4.298,1.149c0.245,0.44,0.751,0.348,1.114,0.548c1.081,0.569,2.162,1.139,3.244,1.708
				c0.343,0.25,0.687,0.499,1.03,0.749c0.945,0.826,1.89,1.653,2.835,2.479c0.461,0.511,0.923,1.023,1.384,1.534
				c0.709,1.042,1.418,2.085,2.127,3.127c0.177,0.363,0.353,0.726,0.53,1.089c0.546,1.39,1.092,2.779,1.637,4.169
				c0.062,0.242,0.124,0.483,0.186,0.725c0.229,1.587,0.457,3.175,0.686,4.762c0.002,0.612,0.004,1.224,0.007,1.836
				c-0.378,2.349-0.825,4.683-1.502,6.968C216.401,164.058,215.895,165.147,215.389,166.236z"/>
			<path class="st1" d="M66.051,161.092c-0.304-1.576-0.607-3.152-0.911-4.728c-0.018-0.611-0.037-1.222-0.055-1.833
				c0.367-2.199,0.733-4.398,1.1-6.596c0.373-0.979,0.747-1.958,1.12-2.937c2.523-4.819,6.177-8.51,11.008-11.024
				c0.98-0.373,1.96-0.745,2.939-1.118c2.171-0.528,4.362-0.937,6.593-1.107c0.613,0.012,1.226,0.025,1.839,0.037
				c1.582,0.271,3.165,0.542,4.747,0.813c0.281,0.385,0.707,0.306,1.097,0.343c1.164,0.503,2.329,1.006,3.493,1.509
				c0.554,0.334,1.109,0.668,1.663,1.002c0.839,0.622,1.677,1.244,2.516,1.866c0.506,0.48,1.013,0.959,1.519,1.439
				c0.723,0.862,1.447,1.724,2.17,2.586c0.251,0.363,0.503,0.727,0.754,1.09c0.696,1.387,1.392,2.775,2.089,4.162
				c0.094,0.387,0.004,0.843,0.415,1.112c0.283,1.296,0.565,2.592,0.848,3.888c-0.068,0.518-0.087,1.03,0.206,1.498
				c-0.093,1.947-0.186,3.894-0.28,5.842c-0.419,0.805-0.547,1.684-0.654,2.569c-0.238,0.557-0.477,1.113-0.713,1.671
				c-3.665,8.656-10.157,13.509-19.515,14.496c-5.152,0.543-9.836-0.907-14.27-3.394c-0.362-0.251-0.725-0.502-1.087-0.753
				c-0.851-0.715-1.702-1.43-2.553-2.145c-0.357-0.369-0.714-0.737-1.071-1.106c-0.858-1.147-1.715-2.293-2.573-3.44
				c-0.022-0.256-0.055-0.506-0.359-0.591c-0.592-1.357-1.184-2.714-1.776-4.071C66.252,161.812,66.151,161.452,66.051,161.092z"/>
			<path class="st1" d="M154.491,57.03c0.038,0.476,0.076,0.952,0.114,1.428c-0.454,1.03-1.032,1.938-2.21,2.261
				c-0.615,0.005-1.229,0.009-1.844,0.014c-1.829,0.006-3.659,0.012-5.488,0.018c-0.616-0.006-1.231-0.012-1.847-0.018
				c-1.829,0.006-3.658,0.012-5.487,0.018c-0.616-0.006-1.231-0.012-1.847-0.018c-1.829,0.006-3.659,0.012-5.488,0.018
				c-0.615-0.006-1.231-0.012-1.846-0.018c-1.83,0.006-3.659,0.012-5.489,0.018c-0.615-0.006-1.23-0.012-1.845-0.018
				c-1.329-0.213-2.733,0.236-4.009-0.45c-0.331-0.377-0.662-0.755-0.994-1.132c-0.386-3.317,0.136-3.815,4.27-4.072
				c0.614,0.005,1.229,0.01,1.843,0.015c1.83-0.005,3.66-0.01,5.491-0.015c0.614,0.005,1.229,0.01,1.843,0.015
				c1.83-0.005,3.66-0.01,5.491-0.015c0.614,0.005,1.229,0.01,1.843,0.015c1.83-0.005,3.66-0.01,5.491-0.015
				c0.614,0.005,1.229,0.01,1.843,0.015c1.83-0.005,3.66-0.01,5.491-0.015c0.614,0.006,1.229,0.011,1.843,0.017
				C153.059,55.075,153.906,55.861,154.491,57.03z"/>
			<path class="st1" d="M117.575,73.787c-0.376-0.336-0.753-0.673-1.129-1.009c-0.991-2.951,0.043-4.399,3.144-4.418
				c0.786-0.005,1.572-0.044,2.358-0.068c0.614,0.005,1.228,0.01,1.843,0.015c1.83-0.005,3.661-0.01,5.491-0.015
				c0.614,0.005,1.229,0.01,1.843,0.015c1.83-0.005,3.661-0.01,5.491-0.015c0.614,0.005,1.228,0.01,1.843,0.015
				c1.831-0.005,3.661-0.01,5.492-0.015c0.614,0.005,1.228,0.01,1.842,0.015c1.831-0.005,3.661-0.01,5.492-0.015
				c0.485,0.036,0.97,0.073,1.455,0.109c1.13,0.634,1.76,1.593,1.87,2.887c-0.306,1.436-1.014,2.483-2.595,2.689
				c-1.827,0.019-3.653,0.038-5.48,0.058c-0.62-0.006-1.24-0.012-1.86-0.018c-1.825,0.006-3.65,0.012-5.475,0.018
				c-0.62-0.006-1.24-0.012-1.859-0.018c-1.825,0.006-3.65,0.012-5.475,0.018c-0.62-0.006-1.24-0.012-1.859-0.018
				c-1.826,0.006-3.653,0.012-5.479,0.018c-0.616-0.006-1.232-0.012-1.848-0.018C120.979,73.941,119.277,73.864,117.575,73.787z"/>
			<path class="st1" d="M118.674,87.349c-0.472-0.152-0.943-0.305-1.415-0.457c-1.236-0.883-1.248-2.178-1.179-3.501
				c0.494-0.888,1.248-1.471,2.178-1.846c1.719-0.014,3.439-0.027,5.158-0.041c0.614,0.005,1.228,0.011,1.841,0.016
				c1.831-0.005,3.662-0.011,5.493-0.016c0.614,0.005,1.228,0.011,1.841,0.016c1.831-0.005,3.662-0.011,5.493-0.016
				c0.614,0.005,1.228,0.011,1.841,0.016c1.831-0.005,3.662-0.011,5.493-0.016c0.614,0.005,1.227,0.011,1.841,0.016
				c1.833,0.012,3.665,0.024,5.498,0.036c0.341,0.181,0.683,0.362,1.024,0.543c1.083,1.123,1.236,2.403,0.645,3.809
				c-0.199,0.232-0.399,0.464-0.598,0.696c-1.832,1.085-3.9,0.375-5.823,0.764c-0.735-0.21-1.471-0.215-2.209-0.016
				c-1.709-0.158-3.418-0.199-5.125,0.016c-0.735-0.21-1.471-0.215-2.209-0.016c-1.709-0.158-3.418-0.199-5.125,0.016
				c-0.735-0.21-1.471-0.215-2.209-0.016c-1.709-0.158-3.418-0.199-5.125,0.016c-0.735-0.21-1.471-0.215-2.209-0.016
				C122.087,87.181,120.381,87.178,118.674,87.349z"/>
		</g>
	</g>
</g>
</svg>