<!-- Generator: Adobe Illustrator 22.1.0, SVG Export Plug-In  -->
<svg version="1.1"
	 xmlns="http://www.w3.org/2000/svg" xmlns:xlink="http://www.w3.org/1999/xlink" xmlns:a="http://ns.adobe.com/AdobeSVGViewerExtensions/3.0/"
	 x="0px" y="0px" width="382.467px" height="460.219px" viewBox="0 0 382.467 460.219"
	 style="enable-background:new 0 0 382.467 460.219;" xml:space="preserve">
<style type="text/css">
	.st0{fill:#D01436;}
	.st1{fill:#030203;}
	.st2{fill:#FFFFFF;}
</style>
<defs>
</defs>
<g>
	<g>
		<path class="st0" d="M182.605,166.875c1.726-1.308,2.894-0.877,3.606,1.123c1.954,5.488,7.091,7.35,11.482,10.065
			c0.589,0.364,1.129,0.159,1.72,0.046c5.206-1.002,10.432-1.904,15.616-3.003c1.853-0.393,3.436-0.105,5.212,0.444
			c3.976,1.228,7.042,3.357,9.013,7.097c1.032,1.959,3.008,3.102,4.644,4.508c0.968,0.832,1.124,1.535,0.574,2.675
			c-1.103,2.285-2.017,4.662-3.1,6.958c-0.617,1.309-1.213,2.681-1.094,4.073c0.285,3.33-1.392,5.633-3.465,7.905
			c-2.471,2.708-4.577,5.778-7.222,8.29c-2.905,2.759-3.461,5.861-2.754,9.527c0.203,1.049,0.68,2.299-0.48,3.116
			c-1.264,0.89-1.969,3.087-3.853,2.484c-2.499-0.8-4.641-4.854-4.147-7.053c0.098-0.437,0.162-0.882,0.24-1.323
			c0.15-0.845,0.946-2.025,0.052-2.455c-1.024-0.492-2.297-0.742-3.615,0.013c-2.436,1.396-3.983,3.604-5.679,5.67
			c-0.931,1.134-1.904,1.728-3.264,1.11c-2.245-1.021-3.976-0.434-5.448,1.424c-1.005,1.268-1.74,1.014-2.356-0.429
			c-0.616-1.44-1.392-2.811-2.088-4.218c-1.28-2.588-0.334-4.913,2.446-4.565c4.027,0.505,4.356-1.974,4.933-4.549
			c0.217-0.966,1.256-2.303,0.325-2.908c-1.52-0.989-3.369-1.597-5.253-1.683c-0.616-0.028-0.889,0.745-1.236,1.215
			c-3.021,4.095-6.015,8.209-9.04,12.3c-0.552,0.746-0.738,1.546-0.919,2.449c-1.267,6.336-0.262,12.463,1.553,18.523
			c0.438,1.462,0.552,2.89,0.349,4.406c-0.518,3.851-0.904,7.72-1.413,11.572c-0.211,1.599-1.225,2.893-2.078,4.18
			c-1.55,2.34-2.297,4.786-1.952,7.602c0.133,1.088,0.504,2.36-1.34,2.732c-1.756,0.355-3.151,0.066-4.053-1.461
			c-0.679-1.148-1.204-2.415-1.613-3.688c-0.443-1.381-1.302-1.87-2.675-1.837c-0.816,0.019-1.65-0.07-2.452-0.232
			c-2.409-0.486-4.547-0.353-6.121,1.929c-1.368,1.983-3.948,1.458-6.044,2.701c3.033,1.185,5.849,2.347,8.712,3.377
			c1.389,0.5,1.952,1.117,1.284,2.622c-0.479,1.08-0.592,2.319-1.021,3.427c-0.5,1.292-0.518,2.453,0.347,3.585
			c0.848,1.109,0.581,2.053-0.114,3.249c-1.479,2.548-3.381,4.243-6.407,4.561c-0.952,0.1-1.934,0.365-2.797,0.776
			c-6.463,3.082-12.456,0.872-18.474-1.494c-1.74-0.684-3.56-1.74-5.711-0.032c1.563,0.744,2.947,1.542,4.426,2.073
			c2.098,0.754,3.388,2.052,3.622,4.315c0.246,2.377,1.403,3.764,3.954,3.852c0.948,0.033,1.884,0.433,2.825,0.67
			c2.369,0.597,2.915,1.727,1.287,3.446c-3.602,3.802-7.333,7.492-11.171,11.056c-1.277,1.186-3.195,0.496-4.773,0.395
			c-2.231-0.143-3.868,0.647-5.354,2.264c0.254,0.131,0.464,0.339,0.619,0.304c4.076-0.923,5.62,1.974,7.305,4.746
			c0.536,0.881,0.566,1.625-0.316,2.09c-4.475,2.358-5.144,6.05-4.311,10.671c0.687,3.811,0.79,7.734,1.043,11.614
			c0.105,1.608,1.087,2.529,2.106,3.534c3.4,3.355,3.387,3.367,0.902,7.321c-1.075,1.71-2.217,3.381-3.201,5.141
			c-0.747,1.336-1.619,1.936-3.051,1.087c-1.434-0.85-2.364-0.46-3.305,0.899c-1.446,2.088-3.08,4.052-4.713,6.002
			c-0.852,1.017-1.172,1.94-0.553,3.231c0.609,1.272,0.985,2.657,1.442,4c0.665,1.953,0.036,3.157-1.919,3.676
			c-0.72,0.191-1.446,0.376-2.18,0.495c-1.347,0.218-1.299,1.175-1.288,2.195c0.013,1.221,0.883,1.188,1.702,1.289
			c1.866,0.23,3.242-0.984,4.785-1.665c1.05-0.464,1.896-0.683,2.791,0.302c3.391,3.734,7.92,5.774,12.16,8.286
			c1.931,1.144,3.667,2.07,5.917,1.672c0.082,0.093,0.165,0.186,0.247,0.28c0.018-0.067,0.037-0.133,0.055-0.2
			c-0.112-0.012-0.224-0.023-0.336-0.035c-0.707-2.271-1.812-4.371-4.29-4.896c-4.085-0.865-5.71-4.539-8.441-6.938
			c-0.719-0.632-0.534-1.311,0.429-1.701c1.939-0.785,3.868-1.595,5.791-2.418c0.44-0.188,0.84-0.247,1.291-0.062
			c0.344,0.141,0.705,0.261,1.07,0.326c7.538,1.335,13.17,5.379,17.414,11.719c1.945,2.907,4.407,5.488,6.787,8.076
			c1.512,1.643,1.891,3.415,2.148,5.599c0.495,4.195-1.088,6.166-4.947,7.717c-3.313,1.331-6.159,0.362-9.144-0.175
			c-1.741-0.313-2.142-2.714-0.801-4.248c-1.102,0-2.066-0.069-3.017,0.015c-1.728,0.152-3.289-0.187-4.543-1.423
			c-1.43-1.41-2.865-1.257-4.443-0.102c0.32,0.404,0.656,0.792,0.953,1.207c0.845,1.182,2.886,2.04,2.48,3.452
			c-0.603,2.095-2.05,3.956-3.196,5.882c-0.407,0.684-0.893,0.293-1.26-0.13c-0.54-0.622-1.145-1.212-1.56-1.912
			c-1.18-1.991-2.951-2.892-5.183-2.87c-1.479,0.014-1.805-0.671-1.969-2.034c-0.264-2.195-0.609-4.186,1.339-5.953
			c1.217-1.104-0.517-1.341-1.011-1.857c-0.591-0.617-1.256-0.827-1.653,0.314c-0.318,0.915-0.847,1.76-1.126,2.684
			c-0.732,2.427-1.859,4.202-4.843,3.561c-0.86-0.185-1.344,0.488-1.84,1.056c-1.429,1.636-2.938,3.208-4.271,4.917
			c-0.924,1.184-1.758,1.438-2.94,0.442c-1.183-0.995-2.199-1.052-2.898,0.6c-0.925,2.187-2.437,2.93-4.804,2.113
			c-1.32-0.455-2.817-0.372-4.189-0.713c-1.056-0.263-1.858-0.16-2.647,0.617c-0.988,0.973-1.841,0.847-1.828-0.664
			c0.044-5.106-2.833-7.014-7.508-7.414c-4.652-0.397-8.722-2.531-12.568-5.017c-4.232-2.736-8.94-2.67-13.639-2.459
			c-2.6,0.117-5.176,0.728-7.768,1.086c-2.066,0.285-3.449-1.169-5.024-2.088c-0.405-0.236-0.326-0.853-0.091-1.243
			c1.988-3.293,0.996-6.642,0.232-9.991c-0.399-1.748-0.756-3.505-1.18-5.246c-0.413-1.697-0.384-3.307,0.145-5.025
			c1.275-4.137,2.316-8.346,3.523-12.505c0.349-1.203,0.42-2.327-0.007-3.507c-0.253-0.7-0.34-1.462-0.611-2.153
			c-1.973-5.041-2.13-10.074-0.526-15.294c1.177-3.829-0.447-7.685-0.604-11.543c-0.088-2.161-0.571-4.305-0.667-6.466
			c-0.1-2.232-1.316-3.448-3.271-3.973c-3.532-0.949-7.085-1.841-10.663-2.593c-1.47-0.309-2.34-1.028-3.045-2.297
			c-2.214-3.988-4.604-7.881-6.747-11.906c-0.863-1.621-2.119-2.767-3.605-1.87c-1.366,0.824-1.167,2.727-0.392,4.202
			c1.356,2.581,2.64,5.215,4.205,7.667c1.674,2.621-0.755,2.91-1.951,3.949c-1.547,1.344-2.117-0.066-2.65-1.042
			C11.163,317.87,6.006,313.343,0,309.659c0-0.449,0-0.899,0-1.348c0.713-0.349,0.672-1.107,0.858-1.704
			c2.136-6.842,4.235-13.695,6.351-20.543c0.33-1.069,0.759-2.104,0.785-3.253c0.142-6.365,0.141-12.702-1.863-18.869
			c-0.713-2.194-1.145-4.484-1.641-6.744C3.568,253,2.879,254,7.196,252.297c1.514-0.597,2.061-0.184,2.353,1.449
			c0.894,4.999,2.051,9.95,2.96,14.947c0.282,1.551,0.704,1.507,1.787,0.708c3.733-2.757,7.487-5.486,11.268-8.177
			c0.863-0.614,1.151-1.133,0.682-2.211c-3.69-8.478-6.75-17.318-14.142-23.58c-0.736-0.624-1.293-1.455-1.988-2.135
			c-0.383-0.375-0.607-1.093-1.385-0.866c-0.038,0.164-0.101,0.307-0.099,0.448c0.05,3.744,0.105,7.489,0.161,11.233
			c0.031,2.084-0.971,3.506-2.509,3.555c-1.843,0.059-3.141-1.328-3.157-3.379c-0.012-1.573,0.132-3.164-0.053-4.716
			c-0.753-6.32,0.57-12.144,3.903-17.543c0.856-1.386,0.959-2.881,0.883-4.514c-0.317-6.806-0.465-13.62-0.726-20.429
			c-0.062-1.605,0.424-1.861,1.757-1.046c3.174,1.941,6.703,3.37,9.08,6.445c0.278,0.359,0.747,1.054,1.226,0.367
			c0.752-1.077,1.901-2.051,0.554-3.662c-1.916-2.292-3.602-4.781-5.309-7.24c-0.562-0.809-1.655-1.439-1.291-2.693
			c0.365-1.257,1.489-1.582,2.826-1.793c-3.501-2.23-3.48-2.211-5.978,0.555c-1.063,1.178-1.914,2.598-3.633,3.638
			c-0.154-1.732-0.042-3.103,0.131-4.492c0.557-4.451,0.947-8.927,1.623-13.359c1.098-7.206,0.951-14.637,3.963-21.514
			c0.684-1.561,1.347-2.968,2.861-3.822c0.686-0.387,1.232-1.408,2.094-0.997c0.879,0.418,0.454,1.482,0.494,2.258
			c0.253,4.942,0.377,9.867,4.854,13.333c0.944,0.731,1.588,1.366,2.879,1.086c2.736-0.593,5.261-0.05,7.704,1.411
			c3.08,1.841,6.309,3.57,10.056,3.278c2.439-0.19,3.617,1,4.117,3.075c0.961,3.995,3.329,6.074,7.518,5.898
			c0.146-0.006,0.296,0.046,0.441,0.081c1.062,0.258,1.642-0.113,1.96-1.208c2.747-9.451,3.746-6.272-2.215-13.908
			c-0.184-0.236-0.366-0.474-0.552-0.709c-1.679-2.117-1.724-2.283,0.831-2.981c3.547-0.969,6.164-2.783,7.153-6.48
			c0.66-2.468,2.157-3.358,4.664-2.665c1.395,0.386,2.885,0.149,3.492-1.247c0.604-1.389-1.05-1.754-1.808-2.322
			c-1.232-0.923-1.397-1.621-0.48-2.896c1.922-2.671,3.721-5.433,5.498-8.204c0.626-0.976,1.332-1.45,2.532-1.461
			c2.919-0.029,5.841-0.136,8.754-0.331c1.387-0.093,2.193,0.314,2.78,1.63c1.338,3.002,2.814,5.944,4.271,8.892
			c0.419,0.848,0.355,1.634,0.261,2.563c-0.509,5.014-3.202,8.891-6.204,12.67c-1.82,2.29-1.72,4.927,0.254,7.845
			c1.606-4.438,4.608-6.762,9.285-6.625c0.811,0.024,1.65-0.116,2.439-0.323c1.476-0.386,1.801,0.257,1.816,1.601
			c0.035,3.144,0.216,6.287,0.296,9.431c0.03,1.195,0.451,2.144,1.697,2.233c1.788,0.128,3.617,0.221,5.382-0.018
			c1.478-0.2,2.184-1.733,2.405-2.928c0.231-1.246-1.338-1.104-2.18-1.366c-1.207-0.375-2.462-0.647-3.716-0.805
			c-1.471-0.184-1.775-0.861-1.555-2.275c0.494-3.175,0.821-6.377,1.174-9.573c0.12-1.085-1.918-4.785-2.784-4.781
			c-1.514,0.006-1.575,1.703-2.376,2.572c-0.551,0.598-0.929,1.354-1.403,2.027c-0.211,0.3-0.424,0.592-0.901,0.461
			c-1.055-0.29-3.021-3.48-2.911-4.642c0.303-3.208,2.284-5.644,3.841-8.248c0.876-1.464,1.235-2.248-0.809-3
			c-2.377-0.875-1.699-3.565-2.574-5.36c-0.567-1.164-0.399-2.191,0.532-3.045c3.161-2.895,3.535-6.03,1.018-9.556
			c-0.645-0.904-0.814-1.905-0.238-3.14c2.152-4.613,4.735-8.795,9.354-11.368c0.973-0.542,1.855-1.271,2.706-1.999
			c0.916-0.784,1.854-1.019,3.084-0.888c4.165,0.441,8.346,0.744,12.522,1.078c3.94,0.315,3.943,0.303,3.27,4.213
			c-0.086,0.496-0.485,1.123,0.056,1.439c0.677,0.397,1.058-0.25,1.406-0.744c1.337-1.897,2.926-3.666,3.956-5.717
			c1.814-3.611,4.618-4.799,8.483-4.69c2.674,0.075,5.366-0.398,8.045-0.674c1.171-0.121,2.459-0.748,2.745-1.679
			c0.297-0.967-1.251-1.179-1.974-1.726c-0.831-0.628-1.795-1.077-2.662-1.663c-0.74-0.501-1.388-0.525-1.946,0.205
			c-2.224,2.907-5.298,3.237-8.624,2.936c-1.037-0.094-2.118-0.113-3.138,0.066c-10.434,1.832-21.005,3.18-30.521,8.366
			c-0.13,0.071-0.283,0.098-0.422,0.154c-1.735,0.692-3.261,0.626-4.689-0.836c-1.619-1.658-3.463-3.095-5.109-4.729
			c-0.962-0.954-1.758-1.038-2.924-0.336c-2.224,1.339-4.388,2.791-7.104,3.141c-3.629,0.468-7.229,1.155-10.841,1.755
			c-0.436,0.072-1.106,0.043-1.26,0.303c-1.506,2.535-4.408,3.21-6.482,4.972c-1.54,1.309-3.299,1.977-5.379,1.718
			c-0.707-0.088-1.627-0.263-2.07,0.503c-1.607,2.776-4.431,4.99-4.021,8.716c0.186,1.693-0.495,2.951-1.92,4
			c-2.288,1.685-4.427,3.573-6.634,5.367c-0.705,0.573-1.287,1.046-1.026,2.213c0.722,3.226,1.068,6.493-0.143,9.71
			c-0.152,0.405,0.045,0.712,0.229,1.04c1.039,1.852,0.833,3.515-1.03,4.99c1.837,0.392,3.547-0.457,5.045,0.272
			c2.313,1.126,4.128,9.492,2.613,11.654c-0.163,0.232-0.466,0.367-0.704,0.547c-4.206,3.177-4.206,3.177-7.775-0.676
			c-0.204-0.22-0.418-0.431-0.61-0.66c-5.21-6.193-11.805-11.319-14.803-19.217c-0.012-0.032-0.126-0.026-0.301-0.056
			c-0.402,0.643-0.231,1.398-0.272,2.103c-0.111,1.914-1.147,2.656-2.889,2.035c-2.1-0.749-3.396-2.899-3.119-5.151
			c0.064-0.519,0.089-1.044,0.114-1.568c0.217-4.525,1.117-8.778,3.571-12.761c2.937-4.768,5.458-9.796,8.097-14.744
			c1.063-1.993,2.29-3.835,3.791-5.528c5.415-6.107,10.812-12.232,16.143-18.412c0.993-1.151,1.996-1.354,3.352-1.004
			c2.746,0.71,5.558,1.202,8.254,2.063c3.071,0.981,5.893,0.891,8.815-0.58c2.257-1.136,4.775-1.744,7.082-2.794
			c5.406-2.46,10.808-3.069,16.481-0.829c1.826,0.721,3.821,1.537,5.844,1.268c5.715-0.758,11.31-1.835,16.087-5.53
			c2.53-1.957,5.986-2.951,8.02-5.263c3.919-4.455,8.038-8.851,10.482-14.471c2.83-6.508,5.941-12.895,8.951-19.324
			c0.345-0.737,0.736-1.486,1.256-2.103c4.104-4.865,8.257-9.689,12.365-14.55c0.731-0.865,1.571-1.311,2.699-1.347
			c7.587-0.24,14.972-1.719,22.274-3.692c1.006-0.272,1.928-0.617,2.73-1.407c4.91-4.834,9.875-9.611,14.826-14.403
			c1.324-1.282,2.469-2.86,4.647-2.729c0.263,0.016,0.791-0.21,0.304-0.7c0.749,0,1.498,0,2.247,0
			c-0.111,0.267,0.031,0.385,0.268,0.395c0.288,0.012,0.587,0.002,0.631-0.395c1.049,0,2.097,0,3.146,0
			c-0.079,1.585,1.538,3.082,0.764,4.499c-0.686,1.255-2.679,1.232-3.785,2.186c-5.412,4.669-10.55,9.623-12.21,16.943
			c-0.531,2.343,0.792,4.678,0.989,7.054c0.203,2.446,1.297,4.283,3.214,5.858c2.4,1.971,3.004,5.089,4.322,7.744
			c0.146,0.294,0.081,0.745-0.007,1.094c-1.919,7.621-1.443,15.278-0.37,22.945c0.041,0.296,0.092,0.594,0.17,0.882
			c1.172,4.383,0.688,8.063-3.638,10.73c-2.406,1.484-3.114,4.5-4.665,6.773c-2.943,4.313-5.044,8.93-5.579,14.219
			c-0.265,2.621-2.078,4.645-3.553,6.662c-3.296,4.504-4.099,9.733-4.684,14.993c-0.438,3.934-0.349,7.926-0.529,11.89
			c-0.039,0.855,0.126,1.612,0.538,2.36c0.902,1.637,1.584,3.426,2.67,4.925c1.984,2.739,1.721,5.764,1.582,8.825
			c-0.037,0.817-0.384,1.468-0.991,1.933c-1.337,1.024-1.369,1.792,0.077,2.867c2.032,1.511,2.295,5.57,0.648,7.568
			c-0.999,1.212-2.065,2.368-3.101,3.55c-0.169,0.215-0.44,0.41-0.134,0.714c-0.172-0.298-0.323-0.131-0.457,0.031
			c-0.033,0.04-0.028,0.175,0,0.19c0.276,0.147,0.343-0.054,0.402-0.258C182.208,167.077,182.407,166.976,182.605,166.875z
			 M131.008,419.593c3.209-4.536,3.209-4.536-0.193-8.342c-0.249-0.279-0.515-0.546-0.742-0.842
			c-0.254-0.331-0.252-0.651,0.061-0.986c0.997-1.066,4.362-1.491,5.537-0.532c1.657,1.352,3.482,1.908,5.596,1.806
			c1.343-0.065,2.704-0.038,4.04,0.108c1.373,0.15,1.8-0.27,1.772-1.692c-0.091-4.717-0.039-9.436-0.031-14.155
			c0.001-0.762-0.124-1.427-0.616-2.082c-2.683-3.579-5.56-6.842-10.386-7.439c-0.653-0.081-1.333-0.318-1.901-0.651
			c-3.197-1.871-6.029-0.41-8.882,0.904c-0.436,0.201-1.242,0.537-0.517,1.052c2.337,1.657,3.25,4.868,6.414,5.654
			c1.259,0.313,2.731,0.595,3.572,1.728c1.559,2.102,2.979,4.307,4.446,6.477c0.202,0.299,0.484,0.687,0.208,1.007
			c-0.38,0.441-0.807,0.136-1.182-0.127c-1.591-1.118-3.131-2.356-5.31-1.614c-0.275,0.094-0.815-0.086-1.002-0.322
			c-1.516-1.91-3.83-2.548-5.806-3.715c-1.924-1.137-4.106-1.893-5.621-3.633c-2.21-2.536-4.329-3.573-7.757-1.516
			c-3.086,1.853-5.029,0.212-4.893-3.288c0.041-1.054,0.466-1.463,1.369-1.659c0.877-0.19,1.748-0.406,2.62-0.616
			c1.463-0.352,1.962-1.171,1.375-2.634c-0.613-1.525-1.107-3.096-1.715-4.623c-0.363-0.913-0.339-1.636,0.334-2.457
			c2.137-2.604,4.184-5.281,6.268-7.928c0.466-0.593,0.985-1.368,1.822-0.812c2.876,1.911,3.819-0.264,4.945-2.206
			c0.788-1.358,1.521-2.783,2.521-3.975c1.421-1.696,1.173-2.931-0.521-4.191c-2.351-1.749-3.443-4.022-3.43-7.082
			c0.015-3.43-0.234-6.919-0.895-10.278c-0.859-4.365-0.384-7.932,3.895-10.201c0.065-0.035,0.115-0.096,0.178-0.136
			c0.798-0.511,0.755-1.034,0.297-1.857c-1.338-2.401-2.805-4.404-6.043-3.662c-0.637,0.146-1.343-0.004-2.016-0.02
			c-0.448-0.01-0.982,0.034-1.117-0.509c-0.131-0.528,0.38-0.74,0.718-1.023c2.527-2.116,5.196-3.763,8.73-2.984
			c1.594,0.351,2.792-0.267,3.938-1.483c2.567-2.723,5.33-5.26,7.959-7.926c0.812-0.823,2.339-1.503,1.984-2.771
			c-0.355-1.267-2.013-1.044-3.104-1.177c-3.231-0.395-5.378-1.757-5.614-5.278c-0.108-1.61-1.092-2.441-2.556-3.018
			c-1.943-0.766-3.802-1.745-5.684-2.66c-0.381-0.185-0.931-0.351-0.868-0.898c0.06-0.523,0.609-0.566,1.02-0.711
			c2.21-0.778,4.327-1.27,6.694-0.172c2.359,1.094,4.991,1.586,7.395,2.599c2.33,0.983,4.515,0.992,6.913,0.275
			c1.415-0.424,1.862-0.974,1.853-2.427c-0.063-9.36,0.023-18.722-0.076-28.082c-0.021-1.976,0.386-2.674,2.535-2.639
			c8.386,0.136,16.777,0.002,25.164,0.098c1.784,0.02,2.301-0.576,2.409-2.266c0.181-2.834,0.469-5.68,0.997-8.467
			c0.448-2.365,0.333-4.602-0.431-6.841c-1.95-5.713-2.225-11.541-1.318-17.476c0.186-1.216,0.508-2.277,1.257-3.277
			c3.096-4.134,6.2-8.264,9.155-12.497c1.005-1.44,1.926-1.647,3.527-1.095c5.362,1.852,5.383,1.791,3.881,7.248
			c-0.975,3.541-0.975,3.589-4.513,3.554c-1.092-0.011-1.805,0.604-2.644,1.056c-0.58,0.312-0.652,0.736-0.361,1.299
			c0.938,1.812,1.862,3.632,2.983,5.824c1.885-3.024,4.268-3.299,6.967-2.143c1.07,0.458,1.48-0.348,2-0.951
			c1.801-2.09,3.446-4.279,5.881-5.792c1.922-1.195,3.779-0.567,5.342,0.081c1.262,0.523-0.139,2.116-0.115,3.252
			c0.012,0.582-0.224,1.169-0.348,1.754c-0.297,1.4,2.162,5.298,3.51,5.529c0.195,0.033,0.483-0.025,0.616-0.155
			c1.124-1.099,2.783-1.815,2.351-3.941c-0.281-1.38-0.074-2.857-0.323-4.247c-0.279-1.561,0.2-2.686,1.214-3.845
			c3.696-4.228,7.309-8.528,10.943-12.81c0.523-0.617,1.106-1.167,1.235-2.075c0.38-2.674,0.1-5.46,1.761-8.092
			c-1.352,0-2.248,0-3.143,0c-26.064,0-52.129-0.021-78.193,0.044c-1.888,0.005-2.343-0.51-2.336-2.362
			c0.068-20.297,0.042-40.595,0.042-60.892c0-9.737-0.037-19.474,0.037-29.21c0.012-1.598-0.392-2.078-1.994-1.872
			c-2.82,0.363-5.659,0.647-8.498,0.752c-1.453,0.053-2.298,0.618-3.066,1.774c-1.864,2.804-3.882,5.504-5.753,8.303
			c-0.825,1.234-1.991,1.052-2.994,0.754c-1.005-0.299-0.263-1.292-0.257-1.964c0.005-0.587,0.207-1.175,0.337-1.759
			c0.228-1.021,0.153-1.592-1.212-1.689c-4.554-0.324-9.094-0.834-13.641-1.25c-0.653-0.06-1.347-0.243-1.95,0.236
			c-4.222,3.353-9.176,5.875-11.371,11.394c-0.826,2.077-1.549,3.747-0.11,5.709c2.132,2.906,1.567,5.376-0.808,8.021
			c-2.505,2.79-1.309,7.145,2.136,8.645c1.37,0.596,1.441,1.148,0.69,2.311c-1.297,2.01-2.521,4.072-3.66,6.175
			c-1.633,3.012-1.367,4.206,1.241,6.255c1.046-1.552,2.08-3.103,3.136-4.639c0.278-0.404,0.485-0.971,1.195-0.708
			c1.05,0.389,4.003,5.059,3.879,6.215c-0.335,3.126-0.634,6.257-1.067,9.37c-0.174,1.249,0.235,1.737,1.414,1.938
			c1.472,0.251,2.955,0.531,4.37,0.993c2.187,0.713,2.245,1.417,1.167,3.4c-1.153,2.12-2.685,3.021-5.059,2.623
			c-0.728-0.122-1.495-0.018-2.244-0.019c-3.12-0.006-3.898-0.777-3.975-3.99c-0.059-2.471-0.178-4.945-0.105-7.412
			c0.045-1.513-0.416-1.871-1.915-1.705c-3.816,0.421-7.587,0.663-9.288,5.057c-0.386,0.998-0.995,2.725-2.162,2.482
			c-1.066-0.222-0.71-2.08-1.185-3.126c-1.448-3.19-0.681-5.806,1.648-8.292c2.759-2.944,4.58-6.418,5.103-10.496
			c0.114-0.889,0.342-1.714-0.11-2.614c-1.442-2.873-2.718-5.832-4.235-8.663c-1.212-2.263-3.369-0.773-5.063-0.863
			c-1.583-0.084-0.874,1.457-0.876,2.242c-0.044,18.799-0.066,37.599,0.012,56.398c0.008,1.956-0.44,2.496-2.454,2.487
			c-19.024-0.085-38.048-0.05-57.072-0.05c-0.774,0-1.547,0-2.661,0c0.661,0.923,0.974,1.531,1.44,1.979
			c1.825,1.753,1.729,3.378,0.265,5.434c-1.097,1.541-1.722,1.805-2.862,0.245c-2.328-3.186-5.798-4.71-8.822-6.325
			c0,4.934-0.402,9.837,0.103,14.645c0.612,5.826-0.328,11.081-3.344,16.062c-0.713,1.177-1.43,2.417-1.395,3.956
			c0.094,4.118,0.167,8.241,0.053,12.356c-0.046,1.671,0.931,2.22,2.101,2.27c1.27,0.055,1.575-0.999,1.552-2.21
			c-0.078-4.118-0.087-8.238-0.079-12.357c0.001-0.625-0.395-1.498,0.323-1.842c0.782-0.374,1.102,0.55,1.56,0.983
			c7.547,7.141,13.475,15.352,16.721,25.335c0.207,0.637,0.459,1.281,0.815,1.843c0.847,1.336,1.088,2.597-0.653,3.962
			c1.299,0,2.115,0,2.931,0c16.253,0,32.506,0.043,48.758-0.051c2.148-0.013,2.727,0.498,2.724,2.694
			c-0.068,48.084-0.052,96.169-0.052,144.253c0,0.599,0.034,1.201-0.006,1.797c-0.066,0.969,0.227,1.59,1.308,1.664
			c4.955,0.339,8.474,2.147,7.584,8.528c2.4-2.327,4.551-1.204,6.459-0.756c2.868,0.673,5.054,0.563,6.278-2.54
			c0.304-0.77,0.943-1.556,1.879-0.724c2.098,1.865,3.448,0.887,4.751-1.013c0.715-1.042,1.723-1.88,2.481-2.897
			c1.022-1.371,2.24-2.158,4.003-1.828c1.275,0.238,1.863-0.399,2.276-1.548c0.607-1.684,1.406-3.299,2.079-4.96
			c0.299-0.738,0.7-1.257,1.476-0.687c1.195,0.878,2.912,1.381,3.429,2.748c0.381,1.008-1.13,1.765-1.742,2.672
			c-1.433,2.122-0.269,5.065,2.209,5.327c1.512,0.16,2.673,0.692,3.536,1.993C129.384,417.823,130.191,418.623,131.008,419.593z
			 M146.965,37.306c-1.449,1.444-2.462,2.657-3.157,4.174c-2.924,6.382-6.062,12.671-8.818,19.123
			c-2.47,5.782-6.999,10.01-10.592,14.941c-0.374,0.513-1.056,0.817-1.627,1.166c-2.803,1.719-5.612,3.429-8.429,5.124
			c-1.663,1-3.239,2.475-5.039,2.854c-5.551,1.168-11.077,3.001-16.879,0.47c-2.867-1.251-6.055-2.017-9.384-1.029
			c-1.582,0.469-2.378,0.928-2.318,2.781c0.147,4.56,0.047,9.129,0.049,13.694c0.001,2.746,0.543,3.06,3.07,1.919
			c2.208-0.997,4.197-3.643,6.468-2.957c2.14,0.646,3.743,3.075,5.581,4.719c0.056,0.05,0.123,0.091,0.167,0.15
			c1.701,2.26,3.633,2.164,6.102,1.09c4.363-1.898,8.557-4.347,13.356-5.066c7.155-1.071,14.148-3.342,21.483-3.048
			c2.071,0.083,3.784-0.298,5.193-1.916c1.276-1.465,2.741-2.521,4.776-0.65C146.965,75.596,146.965,56.683,146.965,37.306z
			 M8.201,262.227c1.872-0.003,1.924-0.012,1.646-1.561c-0.395-2.198-0.874-4.381-1.32-6.57c-0.085-0.416-0.043-0.866-0.723-0.886
			c-1.724-0.052-2.859,1.291-2.466,3.005c0.333,1.452,0.706,2.896,0.99,4.357C6.556,261.745,6.968,262.581,8.201,262.227z
			 M146.907,412.147c-1.144,0.532-3.018,0.162-3.053,1.776c-0.026,1.175,1.494,1.581,2.447,1.299
			C147.965,414.73,146.622,413.252,146.907,412.147z"/>
		<path class="st0" d="M313.255,460.219c-2.59-4.431-5.18-8.861-7.965-13.625c-0.027,2.524-1.327,2.812-3.09,2.444
			c-3.141-0.655-6.295-1.247-9.431-1.926c-4.761-1.031-9.015,0.169-12.905,2.901c-1.651,1.16-3.243,2.413-4.787,3.714
			c-0.932,0.785-1.597,0.753-2.486-0.092c-2.115-2.01-4.467-3.787-6.459-5.907c-4.349-4.626-9.859-7.5-15.347-10.361
			c-2.777-1.448-6.052-1.543-9.111-2.161c-1.899-0.383-3.323-1.107-4.378-2.703c-0.534-0.808-1.261-1.487-1.806-2.289
			c-0.751-1.105-2.304-1.955-1.398-3.675c0.904-1.717,3.153-2.715,5.182-2.278c2.095,0.451,3.305-1.095,4.691-2.111
			c0.58-0.425-0.218-1.061-0.534-1.513c-1.928-2.759-3.836-5.534-5.86-8.222c-0.811-1.078-0.705-1.735,0.263-2.619
			c2.266-2.068,4.432-4.244,6.64-6.377c0.483-0.467,0.942-1.07,1.666-1.044c5.11,0.183,10.323-0.895,15.275,1.327
			c1.045,0.469,1.641,1.116,2.11,2.12c2.226,4.764,5.936,8.164,10.385,10.766c3.056,1.788,6.251,3.339,9.699,5.163
			c-1.856-3.768-1.577-4.24,2.407-4.196c1.468,0.016,2.057-0.282,2.149-1.918c0.224-4.018,0.31-3.909,4.123-3.129
			c2.054,0.421,3.655,1.176,4.474,3.287c0.419-1.802,0.525-3.397-0.968-4.807c-1.136-1.073-2.052-2.375-3.087-3.557
			c-0.967-1.105-0.806-2.44-0.482-3.62c0.31-1.129,1.538-0.551,2.362-0.689c1.032-0.173,2.083-0.229,3.117-0.392
			c2.992-0.471,5.729-0.273,7.851,2.333c1.266,1.554,3.064,1.093,4.578,0.546c2.543-0.918,4.304-0.203,5.506,2.087
			c0.77,1.466,1.973,2.029,3.552,2.338c2.853,0.558,5.648,1.404,8.492,2.017c0.986,0.213,1.594,0.628,1.989,1.545
			c0.797,1.852,1.611,3.7,2.527,5.494c0.521,1.021,0.438,1.756-0.353,2.601c-3.688,3.942-6.968,8.212-9.921,12.728
			c-0.99,1.515-2.594,2.228-3.98,3.214c-0.914,0.65-1.455,1.318-1.607,2.497c-0.275,2.143-0.658,4.291-1.229,6.373
			c-0.76,2.771,0.238,5.276,0.79,7.881c0.414,1.95,1.881,4.041-0.397,5.833c-0.3,0-0.599,0-0.899,0c-0.3-0.832-0.599-0.192-0.899,0
			C313.554,460.219,313.405,460.219,313.255,460.219z"/>
		<path class="st0" d="M382.467,312.356c-1.33-0.134-2.074-0.892-2.697-2.073c-1.631-3.09-3.426-6.094-5.143-9.139
			c-0.924-1.638-0.038-3.525,1.869-3.598c1.986-0.076,4.025-0.294,5.971,0.428c0,2.247,0,4.494,0,6.741
			c-0.548,0.899-0.737,1.798,0,2.697C382.467,309.06,382.467,310.708,382.467,312.356z"/>
		<path class="st1" d="M382.467,307.412c-0.737-0.899-0.548-1.798,0-2.697C382.467,305.614,382.467,306.513,382.467,307.412z"/>
		<path class="st1" d="M207.189,0c-0.044,0.396-0.344,0.407-0.631,0.395c-0.236-0.01-0.379-0.128-0.268-0.395
			C206.589,0,206.889,0,207.189,0z"/>
		<path class="st1" d="M313.704,460.219c0.3-0.192,0.599-0.832,0.899,0C314.303,460.219,314.004,460.219,313.704,460.219z"/>
		<path class="st0" d="M290.348,388.757c3.479-0.18,6.755-0.35,10.771-0.558c-1.894-1.787-3.437-3.208-4.94-4.669
			c-2.201-2.14-2.064-2.974,0.634-4.188c1.362-0.613,2.726-1.223,4.087-1.837c0.066-0.03,0.117-0.09,0.504-0.395
			c-3.329-0.829-5.436-3.011-7.341-5.448c-0.643-0.822-1.371-0.323-2.021-0.016c-3.301,1.558-6.45,1.3-9.617-0.489
			c-2.273-1.284-4.721-2.257-7.022-3.497c-2.143-1.155-4.259-1.161-6.469-0.326c-1.816,0.686-3.645,1.336-5.47,1.997
			c-0.784,0.284-1.546,0.346-2.401,0.157c-4.493-0.992-4.732-0.956-4.936-5.606c-0.249-5.667-2.146-10.795-4.305-15.897
			c-0.902-2.132-2.724-3.539-4.184-5.217c-0.953-1.094-0.971-1.586,0.381-2.271c3.578-1.813,3.546-1.862,2.556-5.66
			c-0.828-3.179-1.705-6.347-2.426-9.55c-0.293-1.304-0.707-1.702-2.111-1.424c-1.184,0.234-2.999,1.13-3.547,0.21
			c-0.714-1.2,0.925-2.39,1.782-3.267c2.919-2.987,3.337-6.162,2.147-10.144c-1.386-4.635-1.077-4.723-5.759-5.535
			c-1.766-0.306-3.517-0.791-5.294-0.92c-2.335-0.17-3.795-1.512-5.11-3.2c-0.271-0.348-0.716-0.648-0.531-1.151
			c0.232-0.629,0.852-0.484,1.352-0.529c2.972-0.264,5.945-0.521,9.025-1.218c-2.107-0.943-4.209-1.897-6.322-2.825
			c-2.394-1.051-4.801-2.072-7.195-3.122c-0.519-0.228-1.305-0.3-1.279-1.034c0.02-0.564,0.756-0.625,1.155-0.934
			c3.872-3.005,8.186-2.755,12.558-1.617c2.901,0.755,5.575,0.324,8.274-0.827c1.865-0.795,2.538-0.216,2.432,1.802
			c-0.012,0.219-0.122,0.432-0.159,0.652c-0.519,3.037-0.518,3.038,2.712,3.18c0.06-0.122,0.193-0.26,0.17-0.363
			c-0.818-3.664-0.822-3.677,2.848-4.346c1.396-0.254,2.806-0.429,4.21-0.635c1.79-0.263,3.232-0.85,4.578-2.338
			c2.038-2.251,3.165-4.418,1.904-7.376c-0.525-1.233,0.126-1.72,1.207-2.113c2.806-1.021,5.566-2.17,8.374-3.186
			c1.084-0.392,1.908-0.843,1.775-2.168c-0.015-0.144,0.06-0.295,0.062-0.443c0.033-2.392,2.029-4.947-1.087-7.041
			c-2.103-1.413-3.869-3.07-6.665-3.221c-3.346-0.181-6.664-0.868-9.998-1.315c-1.075-0.144-1.634-0.53-1.314-1.766
			c0.411-1.588,0.699-3.209,1.009-4.822c0.247-1.284,0.944-1.308,1.954-0.822c2.29,1.101,4.646,2.071,6.892,3.254
			c2.646,1.394,5.373,2.255,8.377,1.83c3.694-0.522,6.914,0.774,9.993,2.549c1.289,0.743,2.457,0.757,3.816,0.215
			c2.773-1.107,5.621-2.027,8.39-3.143c1.406-0.567,2.037-0.363,2.657,1.151c0.902,2.203,0.919,3.827-1.523,4.871
			c-1.913,0.819-2.173,2.05-1.126,3.865c0.51,0.885,1.6,2.156,0.779,3.001c-0.798,0.821-2.037-0.379-3.108-0.555
			c-1.279-0.209-2.766-1.675-3.673-0.724c-0.877,0.919,0.354,2.495,0.749,3.746c0.809,2.563,1.735,5.088,2.609,7.631
			c0.399,1.162,0.223,1.879-1.251,1.802c-1.043-0.055-2.096,0.026-3.143,0.08c-2.397,0.124-2.396,0.133-3.541,2.95
			c2.313-0.101,4.523-0.109,6.713-0.323c1.668-0.163,2.571,0.326,3.137,2c1.099,3.249,2.44,6.416,3.819,9.973
			c2.485-3.443,5.086-6.483,3.63-10.955c-0.887-2.728,0.175-4.729,2.264-6.489c1.592-1.342,3.778-2.719,4.226-4.46
			c0.414-1.606-1.137-3.716-1.817-5.606c-0.177-0.491-0.402-0.977-0.493-1.485c-0.736-4.096,0.033-4.652,3.92-3.59
			c2.546,0.696,3.757,2.097,4.51,4.555c1.349,4.401,2.922,8.733,4.253,13.219c-0.297-4.487-0.695-8.97-0.854-13.462
			c-0.095-2.674-0.626-5.101-1.97-7.454c-0.78-1.367-1.594-1.735-3.029-1.441c-2.048,0.419-4.125,0.698-6.183,1.072
			c-1.016,0.185-2.066,0.721-2.519-0.856c-0.392-1.368-1.383-2.525,0.348-3.922c4.076-3.287,8.045-6.693,12.471-9.528
			c2.136-1.368,4.203-2.87,6.164-4.478c3.906-3.203,8.981-3.545,13.321-5.638c3.219-1.552,5.95-1.004,8.975,0.714
			c4.737,2.691,9.702,4.987,14.62,7.348c1.357,0.651,1.716,1.473,1.737,2.942c0.07,4.855-1.78,9.261-3.39,13.614
			c-1.75,4.733-1.699,8.86,1.064,13.117c2.933,4.519,3.177,9.9,4.218,14.993c1.405,6.875,3.586,13.569,4.643,20.525
			c0.278,1.826,0.13,3.21-1.698,4.078c-0.667,0.317-1.241,0.831-1.858,1.255c-3.822,2.627-4.156,2.606-7.658-0.568
			c-0.499-0.452-1.011-0.907-1.424-1.433c-1.04-1.326-2.071-1.733-3.808-0.94c-1.706,0.779-3.694,0.197-5.54,0.015
			c-1.374-0.135-2.443,0.183-3.482,1.084c-1.808,1.569-3.66,3.097-5.582,4.522c-1.551,1.15-2.635,2.565-3.435,4.313
			c-1.181,2.581-2.432,5.14-3.826,7.611c-0.744,1.319-0.421,1.924,0.775,2.62c2.132,1.24,4.114,2.745,6.27,3.937
			c4.473,2.473,7.989,5.822,10.853,10.097c2.149,3.208,4.069,6.337,4.69,10.234c0.283,1.775-0.041,2.97-1.026,4.489
			c-2.246,3.464-5.143,4.433-9.094,3.897c-3.248-0.441-6.581-0.21-9.865-0.443c-1.594-0.113-2.644,0.435-3.667,1.589
			c-2.133,2.41-4.425,4.679-6.584,7.067c-0.825,0.912-1.665,1.382-2.932,1.164c-0.609-0.105-1.64-0.71-1.792,0.521
			c-0.113,0.914-0.143,1.879,1.118,2.375c2.71,1.065,5.309,2.421,8.039,3.426c1.695,0.624,1.805,1.724,1.64,3.166
			c-0.153,1.34-0.024,2.768-2.049,2.811c-1.457,0.031-1.077,1.108-0.875,1.982c0.689,2.982,1.33,5.978,2.111,8.936
			c0.357,1.353,0.046,2.162-1.286,2.569c-0.071,0.022-0.144,0.05-0.204,0.093c-5.39,3.865-10.551,3.4-16.822,1.143
			c-7.215-2.597-13.807-6.203-20.632-9.455C291.653,390.165,290.745,390.018,290.348,388.757z M341.061,262.228
			c5.835,0,11.671,0.008,17.506-0.01c0.765-0.002,1.666,0.282,1.974-0.913c1.284-4.971,3.574-9.673,3.858-14.917
			c0.067-1.231-0.252-1.863-1.39-2.396c-3.312-1.549-6.551-3.252-9.831-4.871c-2.874-1.419-5.698-3.738-8.664-3.945
			c-2.963-0.208-6.114,1.608-9.11,2.731c-2.29,0.859-4.84,1.178-6.794,2.794c-3.754,3.105-7.877,5.68-11.841,8.485
			c-2.738,1.938-5.215,4.242-7.849,6.333c-0.849,0.674-0.634,1.334-0.361,2.173c0.338,1.036,1.039,0.875,1.786,0.749
			c1.768-0.297,3.533-0.617,5.305-0.895c3.496-0.548,3.606-0.589,5.13,2.672c0.759,1.624,1.723,2.086,3.447,2.052
			C329.838,262.158,335.451,262.228,341.061,262.228z M287.338,262.227c2.99,0,5.981,0,8.971,0c0.075,0,0.15-0.007,0.224,0.001
			c1.765,0.184,2.99-0.933,4.129-1.949c1.013-0.904-0.153-1.888-0.412-2.801c-0.259-0.915-0.976-0.368-1.477-0.195
			c-1.48,0.51-3.038,0.898-4.394,1.645c-4.021,2.215-7.846,2.168-11.616-0.526c-1.137-0.812-2.463-1.017-3.842-0.877
			c-4.656,0.474-9.036-0.319-13.064-2.8c-0.631-0.389-1.35-0.633-2.026-0.949c-3.4-1.587-3.325-1.57-4.204,2.189
			c-0.315,1.347-0.167,1.845,1.299,2.005c3.562,0.389,7.109,0.927,10.658,1.437c0.872,0.126,1.875,0.086,2.495,0.829
			c1.693,2.032,3.93,2.118,6.31,2.014C282.7,262.148,285.021,262.228,287.338,262.227z"/>
		<path class="st0" d="M156.418,370.708c0.179,1.856,0.311,3.635,0.537,5.402c0.141,1.098-0.262,1.521-1.341,1.466
			c-0.896-0.046-1.816,0.104-2.692-0.038c-1.595-0.259-2.811-0.846-2.46-2.929c0.459-2.724,0.684-5.488,1.061-8.227
			c0.206-1.499-0.365-2.653-1.766-2.947c-4.767-0.999-5.939-3.902-5.15-8.398c0.461-2.627,0.13-5.384,0.342-8.068
			c0.133-1.681-0.415-2.413-2.086-2.306c-0.298,0.019-0.599,0.002-0.899,0.001c-2.814-0.009-5.385-2.233-5.598-4.978
			c-0.091-1.177,0.743-1.572,1.841-1.777c2.475-0.461,2.567-0.73,1.37-2.862c-2.233-3.977-4.422-7.925-8.492-10.495
			c-2.108-1.331-1.905-2.974,0.098-4.384c2.386-1.681,4.805-3.317,7.164-5.035c0.958-0.697,1.678-0.74,2.495,0.201
			c0.832,0.959,1.786,1.812,2.685,2.715c2.318,2.328,3.572,2.564,6.526,1.165c7.902-3.743,15.885-7.328,23.662-11.315
			c4.069-2.087,7.8-1,11.665,0.047c0.993,0.269,1.867,0.953,2.844,1.312c2.78,1.019,4.892,2.61,5.974,5.55
			c0.652,1.772,2.492,2.742,3.71,4.152c0.475,0.55,1.19,0.913,1.376,1.677c-0.183,0.514-0.598,0.491-0.927,0.365
			c-2.392-0.914-3.098,0.117-2.714,2.351c0.318,1.849-0.822,3.077-1.709,4.458c-0.393,0.613-1.595,1.336-0.845,1.975
			c0.871,0.743,2.213,1.56,3.471,0.68c2.514-1.757,4.919-3.67,7.398-5.478c1.041-0.759,0.592-1.606,0.184-2.375
			c-2.225-4.198-0.286-8.34,0.143-12.495c0.091-0.886,0.607-1.224,1.28-0.299c3.713,5.096,6.541,10.717,9.601,16.201
			c0.62,1.112-0.227,1.607-0.929,2.184c-3.044,2.502-3.075,2.529-1.016,5.964c3.228,5.387,6.596,10.689,9.397,16.327
			c0.745,1.499,0.989,2.431-0.996,2.822c-1.533,0.301-1.979,1.337-1.887,2.813c0.107,1.717-0.131,3.478,0.145,5.16
			c1.338,8.173-1.511,15.829-2.763,23.682c-0.07,0.441-0.059,0.957-0.583,1.116c-3.086,0.94-5.828,3.19-9.359,2.44
			c-2.124-0.451-4.174-0.33-5.977,1.033c-2.883,2.181-5.991,1.772-9.361,1.396c-6.077-0.679-11.2-3.459-16.393-6.251
			c-2.821-1.516-3.041-1.459-4.585,1.279c-0.454,0.804-0.829,1.086-1.745,0.661c-2.711-1.257-5.443-2.471-8.202-3.617
			c-1.462-0.607-1.246-1.209-0.203-2.003c1.31-0.997,2.5-2.207,3.928-2.98c2.086-1.129,2.094-2.337,0.655-3.93
			c-0.198-0.219-0.326-0.501-0.487-0.753c-2.057-3.212-2.074-3.275-5.699-2.311C158.164,371.3,157.543,370.67,156.418,370.708z
			 M147.046,340.894c0-5.391,0.037-10.783-0.022-16.173c-0.018-1.683,0.948-4.041-2.261-4.056c-0.327-0.002-0.659-0.568-0.976-0.885
			c-1.06-1.057-2.166-2.074-3.154-3.196c-0.729-0.827-1.303-0.904-2.212-0.227c-2.159,1.608-4.368,3.154-6.617,4.634
			c-1.483,0.975-1.31,2.052-0.056,2.784c4.383,2.559,6.546,6.844,8.889,11.008c1.505,2.674,1.139,3.566-1.777,4.059
			c-1.164,0.197-1.501,0.399-0.996,1.695c0.86,2.208,2.032,3.28,4.61,3.059c3.01-0.258,3.628,0.595,3.52,3.65
			c-0.137,3.891-0.285,7.781-0.426,11.672c-0.03,0.816-0.188,1.903,0.991,1.826c0.927-0.061,0.455-1.093,0.459-1.656
			C147.061,353.024,147.046,346.959,147.046,340.894z"/>
		<path class="st0" d="M231.917,377.457c0.118,1.066-0.14,2.274-0.615,3.489c-6.886,17.596-13.741,35.203-20.63,52.798
			c-0.257,0.656-0.284,1.741-1.106,1.789c-0.893,0.052-0.903-1.036-1.163-1.689c-1.329-3.329-2.638-6.667-3.929-10.012
			c-1.338-3.465,0.121-7.156,3.467-8.846c2.35-1.187,2.936-2.767,1.32-4.891c-1.658-2.179-1.019-3.761,0.504-5.536
			c3.657-4.261,7.211-8.609,10.877-12.862c1.036-1.202,1.515-2.41,1.502-4.031c-0.065-7.53-0.022-7.535,5.829-12.24
			c0.456-0.366,0.979-0.719,1.529-0.886C231.589,373.906,231.919,374.296,231.917,377.457z"/>
		<path class="st0" d="M355.925,404.328c-4.437,0.098-8.619,0.237-12.793,0.615c-1.09,0.099-1.541,0.714-1.996,1.521
			c-1.431,2.538-2.949,5.03-4.311,7.604c-0.674,1.273-1.308,1.348-2.412,0.535c-1.564-1.152-3.219-2.178-4.838-3.254
			c-2.354-1.565-2.791-2.722-2.012-5.431c0.144-0.5,0.429-0.965,0.538-1.47c0.842-3.909,2.952-5.793,7.183-5.007
			c1.943,0.361,3.17-0.98,3.733-2.808c0.263-0.854,0.448-1.733,0.65-2.604c0.729-3.145,0.73-3.189,3.847-2.945
			c6.195,0.487,12.229,1.974,18.341,2.983c0.898,0.148,1.284,0.529,1.455,1.373c0.52,2.559,1.082,5.109,1.639,7.66
			c0.311,1.425-0.235,1.861-1.661,1.721C360.758,404.573,358.214,404.474,355.925,404.328z"/>
		<path class="st0" d="M210.577,268.525c0.95-0.284,1.27,0.309,0.945,1.762c-1.044,4.663-2.027,9.341-2.991,14.022
			c-0.207,1.006-0.623,1.534-1.718,1.677c-2.444,0.319-4.867,0.792-7.303,1.177c-0.887,0.14-1.624,0.054-1.754-1.129
			c-0.441-4.013-0.906-8.023-1.424-12.026c-0.146-1.128,0.163-1.869,1.199-2.358c0.674-0.318,1.301-0.736,1.949-1.111
			c2.878-1.667,3.109-5.093,0.244-6.79c-2.901-1.719-3.046-4.791-4.209-7.372c-0.282-0.625,0.145-1.133,0.652-1.529
			c1.416-1.106,2.845-2.197,4.226-3.344c0.83-0.689,1.323-0.468,1.67,0.445c0.292,0.768,0.635,1.523,0.843,2.314
			c0.828,3.158,2.246,5.809,5.577,6.967c1.059,0.368,1.206,1.214,0.936,2.195c-0.318,1.152-0.529,2.347-0.977,3.446
			C207.727,268.62,208.34,269.049,210.577,268.525z M201.027,252.47c-0.438,0.294-0.687,0.445-0.919,0.62
			c-3.984,3.018-4.078,3.468-1.81,7.863c0.335,0.649,0.77,1.179,1.49,1.193c2.486,0.048,4.973,0.018,7.46,0.018
			C202.644,260.511,202.84,255.94,201.027,252.47z"/>
		<path class="st0" d="M237.8,77.047c-1.79-0.672-3.605-1.337-5.408-2.033c-5.266-2.03-5.115-1.943-2.167-6.749
			c1.497-2.44,3.372-3.328,6.09-3.664c5.104-0.631,10.159-1.659,15.236-2.512c2.912-0.489,3.058-0.328,2.272,2.384
			c-0.971,3.349-0.971,3.349-4.743,3.395c-2.702,0.033-2.845,0.067-2.226,2.645c0.387,1.614-0.116,2.29-1.507,2.896
			c-1.981,0.864-3.87,1.936-5.808,2.902C239.011,76.573,238.452,76.773,237.8,77.047z"/>
		<path class="st0" d="M168.488,400.859c1.864-0.1,2.937,0.24,3.988,0.94c3.606,2.404,7.289,4.691,10.899,7.089
			c1.048,0.696,1.822,0.86,2.592-0.324c0.679-1.043,1.353-1.045,1.911,0.162c0.313,0.677,0.785,1.291,1.025,1.988
			c0.564,1.64,1.668,2.171,3.282,1.77c1.605-0.399,2.411,0.115,2.839,1.813c1.021,4.044,1.108,4.022-2.782,5.636
			c-6.41,2.66-6.424,2.672-10.887-2.496c-4.302-4.98-8.574-9.986-12.849-14.99c-0.323-0.378-0.917-0.693-0.731-1.286
			C167.996,400.456,168.648,400.84,168.488,400.859z"/>
		<path class="st0" d="M26.952,372.646c0-1.567,0.112-3.145-0.026-4.7c-0.217-2.452,1.214-4.305,2.705-5.64
			c1.572-1.408,3.889-0.246,5.708,0.3c1.309,0.392,2.387,1.568,2.041,3.492c-0.671,3.735-1.192,7.505-1.575,11.281
			c-0.217,2.141-1.786,3.154-3.053,4.461c-0.18,0.186-0.53,0.285-0.804,0.291c-2.309,0.052-4.995-2.654-4.996-5.006
			C26.951,375.631,26.952,374.139,26.952,372.646z"/>
		<path class="st0" d="M200.683,404.122c-1.068,0.189-1.69-0.246-2.15-1.199c-0.715-1.479-1.541-2.904-2.32-4.353
			c-1.44-2.679-0.342-5.574,2.591-6.658c1.959-0.724,3.98-1.28,5.934-2.019c1.264-0.478,1.975-0.12,1.923,1.173
			c-0.095,2.391,0.813,4.186,2.762,5.521c0.799,0.547,1.008,1.166,0.303,2.037c-0.987,1.219-1.786,2.592-2.788,3.797
			C205.265,404.434,202.713,403.355,200.683,404.122z"/>
		<path class="st0" d="M30.161,331.987c-0.513,3.92-0.99,7.614-1.489,11.304c-0.056,0.417-0.104,0.961-0.663,1.011
			c-0.565,0.051-0.688-0.508-0.87-0.885c-2.373-4.892-4.831-9.747-7.045-14.711c-1-2.242,1.313-3.288,2.501-4.453
			c1.031-1.011,2.173,0.093,2.966,1.049c1.286,1.551,2.548,3.121,3.847,4.661C29.968,330.628,30.309,331.329,30.161,331.987z"/>
		<path class="st0" d="M273.924,149.063c2.341-1.091,4.49-0.756,6.529-1.05c3.54-0.51,7.123-0.73,10.69-1.042
			c0.417-0.036,1.04-0.039,1.236,0.208c0.43,0.539-0.192,0.935-0.504,1.304c-2.412,2.851-4.85,5.68-7.266,8.527
			c-0.495,0.584-0.937,0.907-1.648,0.255C280.055,154.599,277.123,151.961,273.924,149.063z"/>
		<path class="st2" d="M131.008,419.593c-0.817-0.97-1.624-1.77-2.239-2.697c-0.863-1.301-2.024-1.833-3.536-1.993
			c-2.477-0.262-3.641-3.205-2.209-5.327c0.612-0.907,2.123-1.664,1.742-2.672c-0.517-1.367-2.234-1.87-3.429-2.748
			c-0.775-0.569-1.176-0.051-1.476,0.687c-0.673,1.662-1.473,3.276-2.079,4.96c-0.414,1.149-1.001,1.786-2.276,1.548
			c-1.764-0.33-2.981,0.457-4.003,1.828c-0.759,1.017-1.766,1.855-2.481,2.897c-1.303,1.9-2.653,2.879-4.751,1.013
			c-0.936-0.832-1.575-0.045-1.879,0.724c-1.224,3.103-3.411,3.214-6.278,2.54c-1.908-0.448-4.059-1.571-6.459,0.756
			c0.89-6.382-2.629-8.19-7.584-8.528c-1.081-0.074-1.374-0.696-1.308-1.664c0.041-0.596,0.006-1.198,0.006-1.797
			c0-48.085-0.016-96.169,0.052-144.253c0.003-2.196-0.576-2.706-2.724-2.694c-16.252,0.094-32.505,0.051-48.758,0.051
			c-0.816,0-1.633,0-2.931,0c1.741-1.365,1.499-2.626,0.653-3.962c-0.356-0.562-0.608-1.206-0.815-1.843
			c-3.246-9.983-9.174-18.193-16.721-25.335c-0.458-0.433-0.778-1.357-1.56-0.983c-0.718,0.344-0.322,1.217-0.323,1.842
			c-0.008,4.119,0.001,8.239,0.079,12.357c0.023,1.211-0.283,2.265-1.552,2.21c-1.17-0.05-2.148-0.599-2.101-2.27
			c0.114-4.115,0.041-8.238-0.053-12.356c-0.035-1.539,0.682-2.778,1.395-3.956c3.016-4.981,3.956-10.236,3.344-16.062
			c-0.505-4.808-0.103-9.711-0.103-14.645c3.024,1.615,6.494,3.139,8.822,6.325c1.14,1.561,1.765,1.297,2.862-0.245
			c1.464-2.056,1.559-3.681-0.265-5.434c-0.466-0.448-0.779-1.056-1.44-1.979c1.114,0,1.888,0,2.661,0
			c19.024,0,38.048-0.034,57.072,0.05c2.015,0.009,2.462-0.531,2.454-2.487c-0.078-18.799-0.056-37.599-0.012-56.398
			c0.002-0.785-0.707-2.327,0.876-2.242c1.693,0.09,3.85-1.4,5.063,0.863c1.517,2.831,2.793,5.791,4.235,8.663
			c0.452,0.9,0.224,1.724,0.11,2.614c-0.523,4.078-2.344,7.552-5.103,10.496c-2.329,2.485-3.096,5.102-1.648,8.292
			c0.475,1.046,0.119,2.905,1.185,3.126c1.167,0.243,1.776-1.484,2.162-2.482c1.701-4.395,5.472-4.636,9.288-5.057
			c1.499-0.165,1.961,0.192,1.915,1.705c-0.074,2.468,0.045,4.942,0.105,7.412c0.077,3.213,0.855,3.984,3.975,3.99
			c0.749,0.001,1.515-0.103,2.244,0.019c2.374,0.399,3.906-0.503,5.059-2.623c1.078-1.983,1.02-2.687-1.167-3.4
			c-1.415-0.462-2.899-0.742-4.37-0.993c-1.178-0.201-1.588-0.689-1.414-1.938c0.434-3.112,0.732-6.244,1.067-9.37
			c0.124-1.155-2.83-5.826-3.879-6.215c-0.71-0.263-0.918,0.304-1.195,0.708c-1.056,1.536-2.09,3.088-3.136,4.639
			c-2.609-2.049-2.874-3.243-1.241-6.255c1.14-2.103,2.364-4.165,3.66-6.175c0.751-1.164,0.68-1.715-0.69-2.311
			c-3.445-1.5-4.641-5.854-2.136-8.645c2.374-2.645,2.939-5.115,0.808-8.021c-1.439-1.962-0.716-3.632,0.11-5.709
			c2.195-5.519,7.148-8.041,11.371-11.394c0.603-0.479,1.297-0.295,1.95-0.236c4.547,0.416,9.088,0.926,13.641,1.25
			c1.366,0.097,1.44,0.668,1.212,1.689c-0.13,0.584-0.332,1.171-0.337,1.759c-0.006,0.672-0.749,1.665,0.257,1.964
			c1.002,0.298,2.169,0.479,2.994-0.754c1.871-2.799,3.889-5.5,5.753-8.303c0.768-1.156,1.613-1.721,3.066-1.774
			c2.839-0.104,5.679-0.389,8.498-0.752c1.602-0.206,2.006,0.275,1.994,1.872c-0.074,9.736-0.037,19.473-0.037,29.21
			c0,20.297,0.025,40.595-0.042,60.892c-0.006,1.852,0.448,2.366,2.336,2.362c26.064-0.065,52.129-0.044,78.193-0.044
			c0.895,0,1.791,0,3.143,0c-1.661,2.633-1.381,5.418-1.761,8.092c-0.129,0.908-0.712,1.458-1.235,2.075
			c-3.635,4.281-7.247,8.582-10.943,12.81c-1.014,1.159-1.493,2.284-1.214,3.845c0.249,1.391,0.042,2.867,0.323,4.247
			c0.433,2.127-1.227,2.842-2.351,3.941c-0.133,0.13-0.421,0.189-0.616,0.155c-1.348-0.231-3.807-4.128-3.51-5.529
			c0.124-0.585,0.36-1.172,0.348-1.754c-0.023-1.136,1.377-2.729,0.115-3.252c-1.562-0.648-3.419-1.276-5.342-0.081
			c-2.435,1.513-4.08,3.702-5.881,5.792c-0.52,0.603-0.929,1.409-2,0.951c-2.699-1.156-5.083-0.881-6.967,2.143
			c-1.121-2.192-2.045-4.012-2.983-5.824c-0.291-0.563-0.219-0.986,0.361-1.299c0.84-0.452,1.552-1.067,2.644-1.056
			c3.538,0.035,3.538-0.012,4.513-3.554c1.502-5.456,1.481-5.396-3.881-7.248c-1.601-0.553-2.521-0.346-3.527,1.095
			c-2.955,4.233-6.06,8.364-9.155,12.497c-0.749,1.001-1.071,2.061-1.257,3.277c-0.907,5.935-0.632,11.764,1.318,17.476
			c0.764,2.239,0.88,4.476,0.431,6.841c-0.528,2.787-0.817,5.633-0.997,8.467c-0.108,1.69-0.625,2.286-2.409,2.266
			c-8.387-0.095-16.778,0.038-25.164-0.098c-2.149-0.035-2.556,0.664-2.535,2.639c0.098,9.36,0.013,18.721,0.076,28.082
			c0.01,1.452-0.438,2.003-1.853,2.427c-2.398,0.718-4.583,0.708-6.913-0.275c-2.404-1.014-5.036-1.505-7.395-2.599
			c-2.367-1.098-4.484-0.606-6.694,0.172c-0.41,0.145-0.96,0.187-1.02,0.711c-0.063,0.547,0.487,0.713,0.868,0.898
			c1.882,0.915,3.742,1.893,5.684,2.66c1.464,0.578,2.448,1.409,2.556,3.018c0.236,3.521,2.383,4.883,5.614,5.278
			c1.092,0.134,2.749-0.09,3.104,1.177c0.355,1.268-1.172,1.948-1.984,2.771c-2.63,2.666-5.393,5.203-7.959,7.926
			c-1.146,1.216-2.344,1.835-3.938,1.483c-3.534-0.778-6.203,0.868-8.73,2.984c-0.338,0.283-0.849,0.496-0.718,1.023
			c0.135,0.543,0.669,0.498,1.117,0.509c0.674,0.016,1.379,0.166,2.016,0.02c3.237-0.741,4.705,1.261,6.043,3.662
			c0.458,0.823,0.501,1.346-0.297,1.857c-0.063,0.04-0.113,0.102-0.178,0.136c-4.279,2.269-4.754,5.836-3.895,10.201
			c0.661,3.359,0.909,6.849,0.895,10.278c-0.013,3.06,1.078,5.333,3.43,7.082c1.694,1.26,1.941,2.496,0.521,4.191
			c-0.999,1.193-1.733,2.617-2.521,3.975c-1.127,1.942-2.069,4.116-4.945,2.206c-0.837-0.556-1.355,0.22-1.822,0.812
			c-2.084,2.647-4.132,5.324-6.268,7.928c-0.673,0.82-0.697,1.543-0.334,2.457c0.607,1.527,1.102,3.099,1.715,4.623
			c0.588,1.463,0.088,2.282-1.375,2.634c-0.872,0.21-1.743,0.426-2.62,0.616c-0.904,0.196-1.329,0.605-1.369,1.659
			c-0.135,3.5,1.807,5.141,4.893,3.288c3.428-2.057,5.547-1.02,7.757,1.516c1.515,1.739,3.697,2.495,5.621,3.633
			c1.976,1.168,4.29,1.805,5.806,3.715c0.187,0.236,0.727,0.416,1.002,0.322c2.179-0.742,3.72,0.496,5.31,1.614
			c0.375,0.263,0.801,0.568,1.182,0.127c0.276-0.32-0.006-0.709-0.208-1.007c-1.467-2.17-2.887-4.375-4.446-6.477
			c-0.84-1.133-2.313-1.415-3.572-1.728c-3.164-0.786-4.077-3.997-6.414-5.654c-0.726-0.514,0.08-0.851,0.517-1.052
			c2.852-1.314,5.685-2.775,8.882-0.904c0.569,0.333,1.248,0.57,1.901,0.651c4.825,0.598,7.702,3.86,10.386,7.439
			c0.491,0.655,0.617,1.32,0.616,2.082c-0.008,4.719-0.06,9.438,0.031,14.155c0.028,1.422-0.4,1.842-1.772,1.692
			c-1.336-0.145-2.697-0.173-4.04-0.108c-2.114,0.103-3.939-0.453-5.596-1.806c-1.176-0.96-4.54-0.534-5.537,0.532
			c-0.314,0.335-0.315,0.654-0.061,0.986c0.227,0.296,0.493,0.563,0.742,0.842C134.217,415.056,134.217,415.056,131.008,419.593z"/>
		<path class="st2" d="M146.965,37.306c0,19.377,0,38.291,0,57.539c-2.034-1.871-3.499-0.815-4.776,0.65
			c-1.409,1.618-3.122,1.999-5.193,1.916c-7.335-0.294-14.329,1.977-21.483,3.048c-4.799,0.718-8.993,3.168-13.356,5.066
			c-2.469,1.074-4.401,1.17-6.102-1.09c-0.044-0.059-0.111-0.1-0.167-0.15c-1.839-1.644-3.441-4.074-5.581-4.719
			c-2.271-0.685-4.26,1.961-6.468,2.957c-2.527,1.141-3.069,0.827-3.07-1.919c-0.001-4.565,0.099-9.133-0.049-13.694
			c-0.06-1.853,0.736-2.311,2.318-2.781c3.329-0.988,6.517-0.222,9.384,1.029c5.802,2.531,11.327,0.698,16.879-0.47
			c1.801-0.379,3.377-1.853,5.039-2.854c2.818-1.695,5.626-3.406,8.429-5.124c0.571-0.35,1.253-0.654,1.627-1.166
			c3.593-4.931,8.122-9.159,10.592-14.941c2.756-6.452,5.894-12.741,8.818-19.123C144.503,39.963,145.516,38.75,146.965,37.306z"/>
		<path class="st2" d="M8.201,262.227c-1.233,0.354-1.645-0.482-1.873-1.656c-0.284-1.461-0.657-2.905-0.99-4.357
			c-0.393-1.713,0.741-3.057,2.466-3.005c0.68,0.021,0.639,0.471,0.723,0.886c0.446,2.189,0.925,4.372,1.32,6.57
			C10.125,262.215,10.074,262.224,8.201,262.227z"/>
		<path class="st2" d="M146.907,412.147c-0.284,1.104,1.058,2.583-0.607,3.075c-0.953,0.282-2.472-0.124-2.447-1.299
			C143.888,412.309,145.762,412.679,146.907,412.147z"/>
		<path class="st1" d="M182.01,167.178c-0.06,0.204-0.127,0.406-0.402,0.258c-0.028-0.015-0.033-0.151,0-0.19
			c0.134-0.162,0.285-0.329,0.457-0.031L182.01,167.178z"/>
		<path class="st1" d="M182.064,167.215c-0.305-0.304-0.034-0.499,0.134-0.714c0.135,0.125,0.271,0.25,0.407,0.375
			c-0.198,0.101-0.397,0.202-0.595,0.303C182.01,167.178,182.064,167.215,182.064,167.215z"/>
		<path class="st1" d="M136.151,398.684c0.112,0.012,0.224,0.023,0.336,0.035c-0.018,0.067-0.037,0.133-0.055,0.2
			c-0.082-0.093-0.165-0.186-0.247-0.28C136.184,398.639,136.151,398.684,136.151,398.684z"/>
		<path class="st0" d="M73.65,117.369c0,1.495,0,2.991,0,4.486c0,1.324-0.444,2.011-1.913,1.444
			c-2.058-0.794-3.104-0.147-3.702,2.096c-0.959,3.593-1.126,3.548,1.896,5.851c2.629,2.003,2.629,2.003,0.595,4.615
			c-3.491,4.484-7.026,8.935-10.445,13.473c-0.865,1.148-1.738,1.469-3.049,1.092c-1.073-0.309-2.165-0.624-3.27-0.741
			c-3.085-0.325-5.506-1.607-6.986-4.435c-0.476-0.91-1.199-1.449-2.301-1.52c-1.617-0.105-1.593-0.951-1.387-2.42
			c0.631-4.508,3.271-6.915,7.455-7.978c1.807-0.459,2.272-1.503,1.813-3.302c-0.686-2.69-0.046-5.394,0.64-7.963
			c0.537-2.011,2.758-2.255,4.462-2.894c0.545-0.204,1.179-0.252,1.769-0.241c5.419,0.097,9.043-3.355,12.869-6.436
			c0.482-0.388,0.951-1.199,1.679-0.791c0.7,0.392,0.315,1.229,0.287,1.862c-0.056,1.269-0.202,2.534-0.311,3.801
			C73.719,117.368,73.685,117.368,73.65,117.369z"/>
		<path class="st2" d="M341.061,262.228c-5.611,0-11.223-0.07-16.832,0.042c-1.724,0.034-2.688-0.428-3.447-2.052
			c-1.524-3.261-1.635-3.219-5.13-2.672c-1.772,0.278-3.537,0.597-5.305,0.895c-0.747,0.126-1.448,0.287-1.786-0.749
			c-0.274-0.839-0.488-1.499,0.361-2.173c2.633-2.091,5.111-4.395,7.849-6.333c3.964-2.805,8.087-5.38,11.841-8.485
			c1.954-1.616,4.504-1.936,6.794-2.794c2.996-1.123,6.147-2.939,9.11-2.731c2.966,0.208,5.79,2.527,8.664,3.945
			c3.279,1.619,6.519,3.322,9.831,4.871c1.138,0.532,1.457,1.164,1.39,2.396c-0.284,5.243-2.574,9.946-3.858,14.917
			c-0.309,1.195-1.21,0.911-1.974,0.913C352.732,262.236,346.897,262.228,341.061,262.228z"/>
		<path class="st2" d="M287.338,262.228c-2.318,0-4.639-0.079-6.952,0.022c-2.38,0.104-4.616,0.018-6.31-2.014
			c-0.62-0.744-1.622-0.704-2.495-0.829c-3.548-0.511-7.095-1.048-10.658-1.437c-1.466-0.16-1.614-0.658-1.299-2.005
			c0.879-3.759,0.804-3.776,4.204-2.189c0.676,0.316,1.396,0.56,2.026,0.949c4.029,2.481,8.408,3.274,13.064,2.8
			c1.379-0.14,2.705,0.064,3.842,0.877c3.77,2.694,7.595,2.741,11.616,0.526c1.356-0.747,2.914-1.136,4.394-1.645
			c0.501-0.173,1.218-0.719,1.477,0.195c0.259,0.913,1.425,1.897,0.412,2.801c-1.139,1.016-2.364,2.133-4.129,1.949
			c-0.074-0.008-0.149-0.001-0.224-0.001C293.319,262.228,290.329,262.227,287.338,262.228z"/>
		<path class="st2" d="M147.046,340.894c0,6.065,0.016,12.13-0.026,18.195c-0.004,0.563,0.468,1.594-0.459,1.656
			c-1.18,0.078-1.021-1.01-0.991-1.826c0.141-3.891,0.289-7.781,0.426-11.672c0.108-3.055-0.51-3.908-3.52-3.65
			c-2.578,0.221-3.749-0.852-4.61-3.059c-0.505-1.296-0.168-1.498,0.996-1.695c2.916-0.494,3.282-1.385,1.777-4.059
			c-2.343-4.164-4.506-8.449-8.889-11.008c-1.254-0.732-1.427-1.809,0.056-2.784c2.249-1.48,4.458-3.026,6.617-4.634
			c0.909-0.677,1.483-0.6,2.212,0.227c0.988,1.121,2.094,2.138,3.154,3.196c0.317,0.317,0.649,0.883,0.976,0.885
			c3.208,0.015,2.242,2.373,2.261,4.056C147.082,330.111,147.046,335.503,147.046,340.894z"/>
		<path class="st2" d="M201.027,252.47c1.813,3.47,1.616,8.041,6.221,9.695c-2.487,0-4.974,0.029-7.46-0.018
			c-0.719-0.014-1.155-0.545-1.49-1.193c-2.268-4.395-2.173-4.846,1.81-7.863C200.34,252.915,200.59,252.764,201.027,252.47z"/>
	</g>
</g>
</svg>