<!-- Generator: Adobe Illustrator 22.1.0, SVG Export Plug-In  -->
<svg version="1.1"
	 xmlns="http://www.w3.org/2000/svg" xmlns:xlink="http://www.w3.org/1999/xlink" xmlns:a="http://ns.adobe.com/AdobeSVGViewerExtensions/3.0/"
	 x="0px" y="0px" width="229.271px" height="229.278px" viewBox="0 0 229.271 229.278"
	 style="enable-background:new 0 0 229.271 229.278;" xml:space="preserve">
<style type="text/css">
	.st0{fill:#666666;}
</style>
<defs>
</defs>
<g>
	<path class="st0" d="M114.701,0c63.172-0.004,115.545,51.537,114.556,116.537c-0.948,62.308-51.852,113.072-115.348,112.74
		C50.769,228.947-1.073,177.13,0.017,112.565C1.059,50.821,51.4,0.034,114.701,0z M105.337,165.891c14.677,0,29.355,0,44.032-0.001
		c0.56,0,1.121,0.01,1.679-0.026c2.589-0.168,4.203-1.822,4.262-4.42c0.047-2.079-0.01-4.16,0.057-6.238
		c0.031-0.976-0.379-1.369-1.293-1.455c-4.747-0.447-8.587-2.675-11.672-6.201c-1.096-1.253-2.163-1.502-3.769-1.165
		c-6.33,1.325-11.998,0.038-16.6-4.751c-2.826-2.941-4.294-6.537-4.619-10.558c-0.136-1.676-0.734-2.604-2.359-3.273
		c-10.081-4.154-13.8-15.283-8.28-24.806c0.961-1.657,0.88-2.856-0.06-4.475c-3.429-5.91-3.547-11.934,0.027-17.852
		c1.917-3.173,4.696-5.429,8.139-6.808c1.419-0.568,2.231-1.327,2.372-3.028c0.442-5.35,2.643-9.849,7.085-13.057
		c3.499-2.527,7.481-3.313,11.716-3.017c0.822,0.058,1.073-0.108,0.852-0.978c-0.541-2.139-1.191-4.236-2.133-6.231
		c-3.603-7.629-9.659-12.606-17.297-15.804c-7.23-3.027-14.623-3.671-22.115-1.048c-6.309,2.209-11.492,6.096-15.741,11.2
		c-5.483,6.587-7.545,14.2-6.639,22.703c0.607,5.697,2.658,10.852,5.584,15.687c5.798,9.58,9.278,19.974,11.09,30.972
		c0.429,2.606,0.426,2.607-2.135,3.323c-3.131,0.876-4.455,2.479-4.6,5.762c-0.093,2.116-0.057,4.238-0.067,6.357
		c-0.01,2.205-0.003,2.204-2.152,2.208c-2.879,0.006-5.76-0.037-8.638,0.032c-9.654,0.232-16.705,7.411-16.778,17.059
		c-0.026,3.439-0.008,6.879-0.004,10.318c0.002,1.64-0.038,3.282,0.04,4.918c0.148,3.095,1.574,4.478,4.664,4.622
		c0.639,0.03,1.279,0.029,1.919,0.029C76.382,165.891,90.86,165.891,105.337,165.891z M176.191,138.525
		c5.379-0.045,8.761-3.098,9.264-8.66c0.439-4.851,2.857-7.917,7.312-9.722c5.561-2.254,7.415-8.08,4.276-13.184
		c-2.538-4.127-2.564-8.149-0.051-12.31c3.197-5.292,1.311-11.021-4.445-13.292c-4.684-1.848-6.985-5.184-7.259-10.13
		c-0.115-2.084-0.881-3.973-2.339-5.525c-2.544-2.709-5.679-3.227-9.14-2.39c-4.627,1.118-8.365-0.127-11.421-3.846
		c-2.293-2.79-5.322-4.033-8.985-3.179c-2.197,0.512-3.862,1.833-5.274,3.548c-2.128,2.584-4.794,4.034-8.241,3.876
		c-1.412-0.065-2.762-0.431-4.141-0.651c-3.681-0.585-7.279,1.094-9.067,4.27c-0.886,1.573-1.122,3.314-1.297,5.073
		c-0.3,3.013-1.537,5.521-4.031,7.328c-1.042,0.755-2.217,1.261-3.383,1.794c-5.388,2.465-7.155,7.951-4.032,12.975
		c2.654,4.27,2.629,8.355-0.004,12.611c-3.105,5.019-1.183,10.909,4.322,13.06c4.725,1.846,7.031,5.182,7.406,10.172
		c0.259,3.458,1.931,6.152,5.247,7.58c1.949,0.839,3.986,0.745,6.015,0.375c1.455-0.266,2.89-0.639,4.391-0.459
		c2.803,0.336,5.055,1.657,6.851,3.803c4.159,4.97,9.671,5.187,14.197,0.558c0.391-0.4,0.774-0.81,1.154-1.221
		c2.521-2.732,5.608-3.695,9.241-2.974C173.932,138.237,175.091,138.578,176.191,138.525z M105.367,175.762
		c-14.434,0-28.868-0.001-43.302,0.001c-2.304,0-4.547,0.299-6.602,1.442c-2.448,1.361-3.954,3.349-3.991,6.234
		c-0.037,2.888,1.416,4.921,3.845,6.32c2.183,1.257,4.583,1.551,7.057,1.548c11.675-0.012,23.35-0.003,35.025-0.006
		c17.393-0.005,34.785-0.012,52.178-0.021c1.662-0.001,3.275-0.342,4.779-1.011c2.747-1.221,4.566-3.235,4.779-6.356
		c0.22-3.235-1.503-5.347-4.201-6.809c-2.028-1.099-4.244-1.343-6.505-1.343C134.075,175.762,119.721,175.762,105.367,175.762z"/>
</g>
<g>
	<path class="st0" d="M151.237,135.231c-1.844-0.426-3.708-0.782-5.528-1.294c-2.509-0.706-2.028-0.438-1.294-2.467
		c0.861-2.379,1.803-4.73,2.646-7.115c0.291-0.821,0.617-1.108,1.523-0.8c1.774,0.603,3.626,0.913,5.502,0.924
		c0.871,0.005,1.143,0.308,1.135,1.165c-0.03,3.196,0.003,6.392,0.012,9.588C153.9,135.231,152.569,135.231,151.237,135.231z"/>
	<path class="st0" d="M159.477,66.316c1.677,0.616,1.67,0.615,1.323,2.548c-0.448,2.495-0.896,4.99-1.315,7.49
		c-0.103,0.617-0.267,1.018-1.016,0.896c-1.989-0.323-3.984-0.231-5.963,0.075c-0.742,0.114-1.04-0.107-1.172-0.838
		c-0.516-2.863-1.047-5.724-1.643-8.57c-0.181-0.862,0.112-1.067,0.888-1.195c0.634-0.105,1.34,0.031,1.907-0.406
		C154.816,66.316,157.146,66.316,159.477,66.316z"/>
	<path class="st0" d="M121.024,97.278c0.623-1.16,0.529-2.486,0.841-3.72c0.207-0.817,0.493-1.067,1.363-0.821
		c2.717,0.77,5.452,1.478,8.194,2.151c0.782,0.192,1.017,0.525,0.829,1.301c-0.462,1.91-0.569,3.859-0.5,5.819
		c0.019,0.535-0.009,0.966-0.725,1.043c-3.22,0.347-6.436,0.733-9.655,1.095c-0.109,0.012-0.231-0.081-0.347-0.126
		C121.024,101.772,121.024,99.525,121.024,97.278z"/>
	<path class="st0" d="M189.939,102.771c-3.191-0.244-6.38-0.512-9.573-0.714c-0.804-0.051-1.218-0.225-1.163-1.142
		c0.119-1.962-0.116-3.907-0.581-5.812c-0.168-0.687,0.006-0.967,0.665-1.163c2.827-0.843,5.647-1.714,8.459-2.607
		c0.742-0.236,1.062-0.012,1.204,0.728c0.303,1.578,0.656,3.146,0.989,4.717C189.939,98.776,189.939,100.773,189.939,102.771z"/>
	<path class="st0" d="M156.231,135.231c-0.02-3.161-0.017-6.322-0.073-9.482c-0.015-0.868,0.213-1.254,1.158-1.327
		c1.91-0.147,3.788-0.545,5.591-1.211c0.652-0.241,0.981-0.098,1.232,0.547c1.055,2.712,2.121,5.421,3.235,8.109
		c0.342,0.825-0.003,1.096-0.704,1.341c-2.364,0.827-4.786,1.397-7.262,1.753c-0.321,0.046-0.676-0.015-0.929,0.27
		C157.729,135.231,156.98,135.231,156.231,135.231z"/>
	<path class="st0" d="M131.019,104.007c0.564-0.117,0.913,0.1,1.028,0.88c0.292,1.982,0.863,3.898,1.708,5.717
		c0.273,0.588,0.143,0.879-0.419,1.166c-2.702,1.382-5.391,2.792-8.075,4.21c-0.511,0.27-0.797,0.223-1.059-0.341
		c-1.449-3.117-2.378-6.381-2.88-9.775c-0.075-0.509,0.094-0.774,0.636-0.833C124.934,104.706,127.907,104.362,131.019,104.007z"/>
	<path class="st0" d="M146.38,123.494c-0.041,0.123-0.113,0.362-0.2,0.595c-0.993,2.644-2.012,5.279-2.969,7.936
		c-0.284,0.789-0.657,0.911-1.39,0.588c-2.903-1.28-5.633-2.839-8.123-4.817c-0.674-0.536-0.728-0.985-0.147-1.629
		c1.975-2.19,3.924-4.403,5.867-6.621c0.381-0.435,0.699-0.466,1.153-0.101c1.595,1.28,3.335,2.328,5.219,3.134
		C146.134,122.726,146.505,122.878,146.38,123.494z"/>
	<path class="st0" d="M143.396,80.416c-0.355-0.022-0.459-0.327-0.608-0.561c-1.605-2.522-3.187-5.058-4.814-7.565
		c-0.358-0.553-0.3-0.832,0.267-1.16c2.928-1.693,6.019-2.975,9.295-3.824c0.646-0.167,0.962-0.082,1.095,0.643
		c0.547,2.979,1.134,5.95,1.728,8.92c0.088,0.439,0.048,0.733-0.424,0.852c-2.188,0.55-4.25,1.406-6.201,2.536
		C143.627,80.32,143.509,80.364,143.396,80.416z"/>
	<path class="st0" d="M174.035,71.464c0.207,0.121,0.391,0.219,0.565,0.33c2.752,1.768,5.144,3.942,7.293,6.401
		c0.539,0.617,0.489,0.986-0.165,1.481c-2.32,1.76-4.615,3.555-6.887,5.378c-0.591,0.474-0.942,0.439-1.431-0.134
		c-1.274-1.495-2.729-2.809-4.386-3.867c-0.668-0.426-0.652-0.791-0.273-1.405c1.531-2.477,3.017-4.982,4.529-7.472
		C173.462,71.88,173.581,71.479,174.035,71.464z"/>
	<path class="st0" d="M131.91,94.068c-2.842-0.752-5.815-1.538-8.786-2.327c-0.511-0.136-0.63-0.46-0.478-0.951
		c1.03-3.321,2.546-6.403,4.515-9.266c0.309-0.449,0.634-0.432,1.043-0.13c2.444,1.798,4.893,3.589,7.346,5.374
		c0.424,0.309,0.455,0.634,0.174,1.058c-1.174,1.778-2.091,3.68-2.778,5.699C132.726,94.174,132.672,94.156,131.91,94.068z"/>
	<path class="st0" d="M180.378,103.008c3.087,0.208,5.615,0.4,8.146,0.536c0.91,0.049,1.266,0.402,1.126,1.327
		c-0.482,3.182-1.31,6.259-2.576,9.224c-0.331,0.774-0.689,0.861-1.414,0.503c-2.535-1.251-5.086-2.474-7.658-3.648
		c-0.808-0.369-0.884-0.776-0.54-1.537c0.688-1.52,1.093-3.137,1.403-4.776C179.182,102.964,179.185,102.964,180.378,103.008z"/>
	<path class="st0" d="M168.946,132.259c-0.487,0.107-0.53-0.262-0.628-0.505c-1.143-2.856-2.258-5.722-3.416-8.572
		c-0.217-0.535-0.032-0.74,0.415-0.945c1.938-0.892,3.729-2.025,5.339-3.424c0.52-0.452,0.826-0.303,1.231,0.135
		c2.006,2.168,4.034,4.317,6.059,6.468c0.33,0.351,0.632,0.629,0.087,1.101c-2.66,2.305-5.58,4.195-8.79,5.638
		C169.131,132.206,169.009,132.237,168.946,132.259z"/>
	<path class="st0" d="M160.273,76.588c0.552-3.021,1.106-6.041,1.653-9.062c0.095-0.525,0.376-0.667,0.887-0.564
		c3.32,0.672,6.468,1.809,9.442,3.434c0.575,0.314,0.618,0.659,0.287,1.2c-1.56,2.549-3.106,5.108-4.629,7.68
		c-0.36,0.609-0.732,0.65-1.318,0.329c-1.722-0.942-3.566-1.577-5.473-2.026C160.58,77.452,160.161,77.262,160.273,76.588z"/>
	<path class="st0" d="M182.959,79.93c0.387-0.032,0.497,0.284,0.653,0.502c1.948,2.726,3.431,5.69,4.535,8.851
		c0.228,0.653,0.077,0.963-0.601,1.163c-2.871,0.846-5.733,1.72-8.587,2.621c-0.616,0.195-0.88,0.067-1.092-0.549
		c-0.682-1.975-1.624-3.827-2.835-5.533c-0.304-0.428-0.28-0.703,0.143-1.029c2.469-1.907,4.923-3.834,7.383-5.753
		C182.686,80.102,182.829,80.017,182.959,79.93z"/>
	<path class="st0" d="M177.052,111.595c0.157,0.061,0.395,0.136,0.618,0.242c2.555,1.204,5.102,2.426,7.666,3.611
		c0.693,0.32,0.816,0.701,0.44,1.358c-1.615,2.825-3.466,5.468-5.759,7.795c-0.628,0.637-1.06,0.579-1.628-0.045
		c-1.928-2.119-3.878-4.219-5.844-6.303c-0.45-0.477-0.399-0.811,0.034-1.254c1.403-1.431,2.575-3.039,3.55-4.791
		C176.312,111.879,176.503,111.544,177.052,111.595z"/>
	<path class="st0" d="M131.976,126.195c-0.176-0.137-0.416-0.294-0.62-0.489c-2.358-2.262-4.305-4.838-5.937-7.667
		c-0.398-0.69-0.229-0.994,0.432-1.329c2.596-1.315,5.176-2.662,7.744-4.032c0.618-0.329,1.006-0.374,1.395,0.328
		c0.973,1.754,2.203,3.329,3.646,4.724c0.438,0.423,0.531,0.734,0.079,1.233c-2.009,2.22-3.982,4.472-5.973,6.708
		C132.554,125.883,132.383,126.135,131.976,126.195z"/>
	<path class="st0" d="M142.261,80.869c-0.023,0.389-0.304,0.521-0.535,0.688c-1.692,1.225-3.208,2.64-4.513,4.268
		c-0.423,0.529-0.745,0.469-1.232,0.109c-2.368-1.756-4.746-3.499-7.145-5.213c-0.591-0.422-0.592-0.742-0.151-1.286
		c2.134-2.631,4.569-4.93,7.343-6.874c0.421-0.295,0.738-0.47,1.101,0.113c1.625,2.608,3.283,5.195,4.926,7.791
		C142.143,80.603,142.205,80.758,142.261,80.869z"/>
</g>
</svg>