<!-- Generator: Adobe Illustrator 22.1.0, SVG Export Plug-In  -->
<svg version="1.1"
	 xmlns="http://www.w3.org/2000/svg" xmlns:xlink="http://www.w3.org/1999/xlink" xmlns:a="http://ns.adobe.com/AdobeSVGViewerExtensions/3.0/"
	 x="0px" y="0px" width="283.465px" height="283.465px" viewBox="0 0 283.465 283.465"
	 style="enable-background:new 0 0 283.465 283.465;" xml:space="preserve">
<style type="text/css">
	.st0{fill:#676767;}
	.st1{fill:#FFFFFF;}
</style>
<defs>
</defs>
<g>
	<circle class="st0" cx="141.732" cy="141.732" r="141.732"/>
	<g>
		<g>
			<path class="st1" d="M174.473,184.426c-6.238,0-12.477,0.036-18.714-0.01c-6.134-0.046-8.843-2.401-9.771-8.396
				c-0.679-4.39-1.527-8.735-3.254-12.856c-0.276-0.658-0.413-1.595-1.307-1.597c-0.901-0.002-1.045,0.947-1.31,1.6
				c-1.741,4.288-2.707,8.766-3.294,13.347c-0.645,5.031-3.433,7.795-8.47,7.842c-13.296,0.122-26.594,0.119-39.89-0.003
				c-4.93-0.045-8.193-2.685-8.589-7.157c-0.866-9.786-5.006-18.265-9.805-26.56c-16.382-28.318,1.729-63.615,34.313-66.697
				c13.229-1.251,24.731,2.936,34.39,12.086c2.42,2.292,2.448,2.332,4.948,0.023c8.557-7.908,18.693-12.386,30.296-12.402
				c24.607-0.033,42.991,18.583,44.623,40.959c0.748,10.25-1.836,19.482-6.95,28.188c-4.36,7.421-7.776,15.134-8.607,23.881
				c-0.479,5.042-3.648,7.601-8.909,7.704c-6.564,0.128-13.132,0.031-19.699,0.031C174.473,184.413,174.473,184.419,174.473,184.426
				z M108.097,176.552c5.909,0,11.819-0.037,17.728,0.019c2.19,0.021,3.341-0.849,3.586-3.088
				c0.725-6.614,2.901-12.795,5.984-18.645c1.065-2.021,1.056-3.709,0.028-5.768c-6.827-13.674-6.949-27.453-0.194-41.194
				c1.07-2.177,0.908-3.754-0.867-5.453c-8.644-8.275-18.832-12.149-30.761-10.521c-13.518,1.845-23.24,9.192-28.69,21.636
				c-5.381,12.287-3.647,24.189,3.162,35.546c4.55,7.588,8.164,15.554,9.141,24.484c0.245,2.24,1.464,3.039,3.648,3.01
				C96.606,176.501,102.352,176.551,108.097,176.552z M174.466,176.55c5.909,0,11.817-0.014,17.726,0.009
				c1.74,0.007,3.075-0.374,3.305-2.433c1.094-9.776,5.364-18.303,10.196-26.692c9.555-16.587,6.064-35.836-8.457-48.015
				c-14.222-11.929-37.569-9.989-49.694,4.071c-1.18,1.369-0.823,2.436-0.118,3.763c3.537,6.658,5.182,13.783,5.14,21.312
				c-0.039,7.194-1.661,13.997-5.134,20.307c-1.138,2.068-1.128,3.837,0.039,5.98c3.123,5.736,5.218,11.883,5.945,18.396
				c0.281,2.518,1.409,3.371,3.816,3.335C162.976,176.498,168.722,176.556,174.466,176.55z M138.318,128.283
				c-0.308,4.322,0.484,8.488,1.965,12.539c0.216,0.591,0.358,1.398,1.176,1.4c0.693,0.002,0.838-0.718,1.026-1.24
				c3.11-8.601,2.931-17.204-0.036-25.796c-0.179-0.518-0.349-1.228-1.048-1.209c-0.708,0.019-0.79,0.762-0.975,1.276
				C138.914,119.459,137.975,123.764,138.318,128.283z"/>
			<path class="st1" d="M108.21,199.233c-6.319-0.003-12.639,0.02-18.958-0.012c-3.2-0.016-4.87-1.255-4.978-3.55
				c-0.111-2.373,1.915-4.237,5.014-4.251c12.638-0.058,25.277-0.031,37.916-0.011c0.727,0.001,1.479,0.134,2.176,0.347
				c1.963,0.601,3.064,1.932,2.863,4.031c-0.201,2.113-1.556,3.26-3.601,3.354c-2.867,0.132-5.742,0.084-8.614,0.092
				C116.089,199.244,112.149,199.236,108.21,199.233z"/>
			<path class="st1" d="M174.581,199.221c-6.403,0-12.805,0.031-19.207-0.013c-3.206-0.022-4.581-1.106-4.695-3.476
				c-0.125-2.591,1.416-4.253,4.581-4.275c12.804-0.089,25.609-0.046,38.413-0.017c0.801,0.002,1.647,0.192,2.393,0.491
				c1.676,0.671,2.698,1.922,2.525,3.8c-0.182,1.97-1.366,3.215-3.331,3.35c-2.534,0.174-5.084,0.139-7.627,0.151
				c-4.35,0.02-8.701,0.005-13.051,0.005C174.581,199.232,174.581,199.226,174.581,199.221z"/>
			<path class="st1" d="M108.233,203.656c5.91,0,11.819-0.006,17.729,0.006c0.983,0.002,1.981-0.006,2.945,0.152
				c2.032,0.335,3.272,1.549,3.319,3.654c0.049,2.218-1.188,3.501-3.325,3.911c-0.64,0.123-1.306,0.143-1.961,0.144
				c-12.312,0.007-24.624,0.004-36.936-0.002c-0.573,0-1.153-0.014-1.719-0.093c-2.466-0.347-4.173-2.129-4.033-4.177
				c0.142-2.083,1.674-3.496,4.283-3.529c6.565-0.083,13.132-0.027,19.698-0.027C108.233,203.683,108.233,203.67,108.233,203.656z"
				/>
			<path class="st1" d="M174.503,203.656c5.569-0.001,11.139-0.002,16.708,0c0.819,0,1.639-0.013,2.457,0.027
				c2.967,0.147,5.045,1.846,4.959,4.032c-0.083,2.105-2.091,3.766-4.95,3.776c-12.695,0.046-25.389,0.019-38.084,0.012
				c-0.408,0-0.819-0.044-1.222-0.111c-2.551-0.425-3.83-1.834-3.706-4.063c0.115-2.069,1.492-3.483,3.938-3.574
				c3.926-0.147,7.86-0.082,11.791-0.096C169.098,203.649,171.8,203.657,174.503,203.656z"/>
			<path class="st1" d="M108.473,215.959c4.342,0,8.686-0.044,13.027,0.016c2.633,0.036,3.25,1.144,1.897,3.392
				c-1.382,2.295-3.372,3.889-6.148,3.929c-5.979,0.085-11.961,0.087-17.94,0.003c-2.77-0.039-4.805-1.512-6.07-3.957
				c-1.12-2.167-0.499-3.294,1.962-3.341c4.423-0.084,8.848-0.024,13.273-0.024C108.473,215.972,108.473,215.965,108.473,215.959z"
				/>
			<path class="st1" d="M174.46,215.968c4.342-0.002,8.686-0.046,13.027,0.014c2.734,0.038,3.375,1.177,2.085,3.574
				c-1.175,2.183-3.115,3.577-5.505,3.643c-6.301,0.176-12.613,0.178-18.915,0.022c-2.654-0.066-4.488-1.874-5.769-4.101
				c-1.169-2.031-0.583-3.085,1.805-3.127C165.61,215.914,170.035,215.97,174.46,215.968z"/>
			<path class="st1" d="M106.333,68.44c0.001-1.967-0.051-3.935,0.02-5.899c0.044-1.219,0.486-2.366,1.923-2.433
				c1.555-0.072,1.862,1.148,1.873,2.354c0.036,3.933,0.035,7.867-0.021,11.8c-0.017,1.196-0.371,2.426-1.851,2.458
				c-1.487,0.031-1.876-1.18-1.923-2.382C106.275,72.376,106.332,70.407,106.333,68.44z"/>
			<path class="st1" d="M177.097,68.68c0,1.966,0.065,3.935-0.025,5.897c-0.052,1.124-0.536,2.176-1.886,2.154
				c-1.344-0.022-1.817-1.086-1.834-2.209c-0.063-4.096-0.063-8.194-0.021-12.291c0.012-1.139,0.44-2.189,1.843-2.126
				c1.302,0.059,1.854,1.043,1.899,2.185C177.157,64.417,177.097,66.549,177.097,68.68z"/>
			<path class="st1" d="M74.369,86.696c0.047,0.854-0.24,1.421-0.873,1.754c-0.797,0.421-1.719,0.42-2.282-0.23
				c-2.828-3.263-5.622-6.558-8.317-9.93c-0.635-0.794-0.525-1.911,0.406-2.633c0.756-0.586,1.667-0.475,2.234,0.177
				c2.887,3.321,5.706,6.701,8.529,10.077C74.262,86.145,74.301,86.511,74.369,86.696z"/>
			<path class="st1" d="M220.801,77.173c-0.029,0.961-0.534,1.705-1.117,2.402c-2.152,2.574-4.312,5.141-6.471,7.71
				c-0.965,1.149-2.137,2.12-3.534,0.918c-1.375-1.184-0.342-2.397,0.499-3.408c2.355-2.831,4.747-5.63,7.138-8.43
				c0.61-0.715,1.345-1.25,2.355-0.913C220.469,75.718,220.775,76.368,220.801,77.173z"/>
			<path class="st1" d="M50.61,135.613c-1.88,0-3.761,0.047-5.639-0.018c-1.058-0.037-1.97-0.488-1.981-1.729
				c-0.011-1.18,0.806-1.841,1.857-1.926c3.914-0.316,7.838-0.344,11.747,0.058c1.019,0.105,1.935,0.721,1.917,1.893
				c-0.021,1.402-1.172,1.675-2.263,1.718c-1.877,0.073-3.759,0.02-5.639,0.02C50.61,135.622,50.61,135.617,50.61,135.613z"/>
			<path class="st1" d="M232.775,135.588c-1.961,0-3.924,0.05-5.882-0.021c-0.931-0.034-1.845-0.402-1.948-1.506
				c-0.111-1.198,0.742-1.9,1.75-2.014c4.065-0.461,8.151-0.49,12.219-0.027c0.965,0.11,1.605,0.866,1.558,1.912
				c-0.049,1.098-0.847,1.598-1.815,1.634C236.699,135.638,234.736,135.587,232.775,135.588z"/>
		</g>
	</g>
</g>
</svg>