<!-- Generator: Adobe Illustrator 22.1.0, SVG Export Plug-In  -->
<svg version="1.1"
	 xmlns="http://www.w3.org/2000/svg" xmlns:xlink="http://www.w3.org/1999/xlink" xmlns:a="http://ns.adobe.com/AdobeSVGViewerExtensions/3.0/"
	 x="0px" y="0px" width="229px" height="229px" viewBox="0 0 229 229" style="enable-background:new 0 0 229 229;"
	 xml:space="preserve">
<style type="text/css">
	.st0{fill:#666666;}
	.st1{fill:#FFFFFF;}
</style>
<defs>
</defs>
<g>
	<circle class="st0" cx="114.5" cy="114.5" r="114.5"/>
	<g>
		<path class="st1" d="M87.068,47.53c12.246,0,24.491-0.008,36.737,0.004c6.17,0.006,9.738,3.455,9.753,9.611
			c0.043,17.613,0.036,35.227,0.005,52.84c-0.014,8.028-3.574,14.21-10.257,18.501c-8.602,5.523-17.28,10.931-25.989,16.285
			c-6.912,4.249-13.999,4.301-20.919,0.077c-8.868-5.414-17.676-10.932-26.409-16.56c-6.709-4.323-9.981-10.614-9.968-18.632
			c0.027-17.446-0.002-34.892,0.013-52.337c0.005-6.356,3.443-9.778,9.793-9.784C62.241,47.522,74.654,47.53,87.068,47.53z
			 M86.674,127.463c2.708-0.464,5.491-0.674,8.111-1.44c8.592-2.512,15.29-7.459,19.113-15.785c1.094-2.383,0.519-4.29-1.364-5.159
			c-2.045-0.943-3.752-0.175-4.963,2.35c-3.57,7.438-9.714,11.278-17.628,12.58c-9.748,1.604-20.63-4.279-24.091-12.705
			c-0.457-1.113-2.088-2.312-3.285-2.44c-2.804-0.3-4.129,2.353-2.916,5.296C63.684,119.949,75.09,127.129,86.674,127.463z
			 M107.24,68.279c-0.832,0.093-1.918,0.178-2.993,0.339c-6.959,1.047-13.566,7.984-13.917,14.594
			c-0.131,2.472,0.893,3.887,3.014,4.096c2.417,0.238,3.572-1.143,3.902-3.306c0.442-2.897,1.817-5.138,4.206-6.831
			c5.165-3.66,14.814-2.1,16.511,6.918c0.492,2.615,1.974,3.621,4.152,3.182c2.1-0.423,2.992-2.054,2.537-4.635
			C123.18,74.291,115.91,68.208,107.24,68.279z M65.905,68.271c-8.503,0.089-15.88,6.345-17.08,14.485
			c-0.373,2.528,0.635,4.191,2.75,4.536c2.181,0.356,3.243-0.824,4.166-3.289c0.847-2.262,1.919-4.774,3.658-6.307
			c5.484-4.832,15.559-2.194,16.921,6.182c0.449,2.758,2.049,3.865,4.278,3.391c2.154-0.458,3.062-2.249,2.49-4.911
			C81.293,73.99,74.211,68.184,65.905,68.271z"/>
		<path class="st1" d="M140.499,96.264c1.216-0.068,2.117-0.162,3.018-0.163c11.741-0.01,23.482-0.021,35.223-0.001
			c6.866,0.011,10.216,3.349,10.22,10.155c0.009,17.192-0.034,34.385,0.019,51.577c0.026,8.44-3.539,14.845-10.606,19.32
			c-8.424,5.334-16.892,10.598-25.343,15.888c-7.164,4.484-14.369,4.542-21.547,0.08c-8.61-5.353-17.188-10.757-25.768-16.157
			c-8.235-5.183-10.924-12.957-10.248-22.238c0.045-0.613,0.555-1.409,1.085-1.737c9.537-5.901,19.092-11.775,28.685-17.585
			c4.36-2.64,8.213-5.75,10.953-10.144c2.973-4.768,4.294-9.957,4.307-15.524C140.507,105.384,140.499,101.032,140.499,96.264z
			 M141.031,151.352c-2.227,0.472-5.686,0.836-8.881,1.954c-7.822,2.737-13.863,7.679-17.206,15.47
			c-0.939,2.187-0.217,4.01,1.655,4.844c1.777,0.792,3.613-0.07,4.698-2.151c0.655-1.256,1.257-2.568,2.094-3.698
			c10.193-13.754,31.519-12.032,39.42,3.157c1.475,2.836,3.015,3.629,5.066,2.61c2.164-1.076,2.571-2.943,1.058-5.787
			C163.249,157.072,154.05,152.116,141.031,151.352z M162.898,135.854c8.499,0.006,15.843-6.11,17.203-14.323
			c0.425-2.569-0.514-4.162-2.678-4.546c-2.211-0.392-3.489,0.629-4.097,3.273c-1.262,5.486-5.164,8.739-10.435,8.7
			c-5.227-0.039-8.908-3.144-10.201-8.603c-0.653-2.757-2.059-3.843-4.332-3.346c-2.198,0.48-3.045,2.148-2.497,4.916
			C147.451,129.967,154.646,135.849,162.898,135.854z"/>
	</g>
	<g>
		<g>
			<path class="st1" d="M149.978,42.626c-0.279-18.615,15.272-34.244,34.376-34.549c19.281-0.308,35.009,15.174,35.15,34.787
				c0.137,19.035-15.339,34.021-33.368,34.732C166.298,78.38,149.78,62.338,149.978,42.626z M180.424,55.591
				c-3.029,0.829-4.444,2.426-4.249,4.706c0.197,2.302,1.873,3.944,4.425,4.045c2.795,0.112,5.601,0.112,8.396-0.008
				c2.289-0.099,3.77-1.406,4.231-3.382c0.398-1.704-0.278-3.511-1.777-4.431c-0.706-0.433-1.53-0.673-2.458-1.068
				c0-6.978,0-14.056,0-21.222c-3.128,0-6.122-0.135-9.096,0.046c-2.083,0.126-3.542,1.879-3.721,3.898
				c-0.209,2.352,1.241,4.003,4.249,4.783C180.424,47.13,180.424,51.319,180.424,55.591z M189.016,25.718
				c0.029-2.446-1.904-4.459-4.271-4.447c-2.325,0.012-4.245,1.961-4.246,4.313c-0.001,2.449,1.786,4.292,4.188,4.32
				C187.097,29.932,188.988,28.103,189.016,25.718z"/>
			<path class="st0" d="M184.918,8.073c19.023,0,34.446,15.37,34.585,34.792c0.137,19.035-15.339,34.021-33.368,34.732
				c-0.465,0.018-0.931,0.027-1.392,0.027c-19.213,0-34.96-15.748-34.766-34.998c-0.279-18.615,15.272-34.244,34.376-34.549
				C184.542,8.074,184.73,8.073,184.918,8.073 M184.742,29.904c2.383,0,4.246-1.819,4.274-4.186
				c0.029-2.439-1.893-4.448-4.251-4.448c-0.007,0-0.014,0-0.021,0c-2.326,0.012-4.245,1.961-4.246,4.313
				c-0.001,2.449,1.786,4.292,4.188,4.32C184.706,29.904,184.724,29.904,184.742,29.904 M184.728,64.425
				c1.424,0,2.848-0.03,4.268-0.091c2.289-0.099,3.77-1.406,4.231-3.382c0.398-1.704-0.278-3.511-1.777-4.431
				c-0.706-0.433-1.53-0.673-2.458-1.068c0-6.978,0-14.056,0-21.222c-1.872,0-3.697-0.048-5.497-0.048
				c-1.208,0-2.405,0.022-3.599,0.094c-2.083,0.126-3.542,1.879-3.721,3.898c-0.209,2.352,1.242,4.003,4.249,4.783
				c0,4.172,0,8.361,0,12.634c-3.029,0.829-4.444,2.426-4.249,4.706c0.197,2.302,1.873,3.944,4.425,4.045
				C181.974,64.397,183.351,64.425,184.728,64.425 M184.919,2.073L184.919,2.073c-0.22,0-0.44,0.002-0.66,0.005
				c-10.812,0.172-20.974,4.496-28.614,12.175c-7.664,7.703-11.806,17.781-11.667,28.388c-0.089,10.849,4.09,21.095,11.774,28.856
				c7.742,7.82,18.038,12.127,28.992,12.127c0.54,0,1.084-0.011,1.628-0.032c10.378-0.41,20.159-4.772,27.539-12.285
				c7.552-7.687,11.669-17.803,11.592-28.485c-0.079-10.959-4.327-21.213-11.963-28.872C205.905,6.291,195.74,2.073,184.919,2.073
				L184.919,2.073z"/>
		</g>
		<path class="st0" d="M180.424,55.591c0-4.273,0-8.461,0-12.634c-3.008-0.78-4.458-2.431-4.249-4.783
			c0.179-2.019,1.638-3.771,3.721-3.898c2.974-0.181,5.968-0.046,9.096-0.046c0,7.166,0,14.243,0,21.222
			c0.929,0.395,1.753,0.635,2.458,1.068c1.499,0.92,2.174,2.727,1.777,4.431c-0.461,1.976-1.942,3.284-4.231,3.382
			c-2.794,0.12-5.601,0.12-8.396,0.008c-2.552-0.102-4.228-1.744-4.425-4.045C175.98,58.017,177.395,56.42,180.424,55.591z"/>
		<path class="st0" d="M189.016,25.718c-0.028,2.384-1.92,4.213-4.329,4.185c-2.402-0.028-4.189-1.871-4.188-4.32
			c0.001-2.352,1.92-4.301,4.246-4.313C187.112,21.259,189.045,23.272,189.016,25.718z"/>
	</g>
</g>
</svg>