<!-- Generator: Adobe Illustrator 22.1.0, SVG Export Plug-In  -->
<svg version="1.1"
	 xmlns="http://www.w3.org/2000/svg" xmlns:xlink="http://www.w3.org/1999/xlink" xmlns:a="http://ns.adobe.com/AdobeSVGViewerExtensions/3.0/"
	 x="0px" y="0px" width="413.221px" height="261.588px" viewBox="0 0 413.221 261.588"
	 style="enable-background:new 0 0 413.221 261.588;" xml:space="preserve">
<style type="text/css">
	.st0{fill:#E94F3D;}
	.st1{fill:#FFFFFF;}
</style>
<defs>
</defs>
<g>
	<path class="st0" d="M369.892,62.279c7.665,27.322,10.509,55.487,8.469,83.828l34.178,2.442c2.214-31.653-0.92-64.146-9.987-96.271
		L369.892,62.279z"/>
	<g>
		<path class="st0" d="M297.218,140.309l74.456,5.32c1.982-27.513-0.771-54.861-8.194-81.387l-71.731,21.966
			C296.575,103.861,298.411,122.027,297.218,140.309z"/>
	</g>
	<g>
		<path class="st1" d="M395.819,104.807c-0.243,0.601-0.626,1.093-1.15,1.477s-1.152,0.624-1.883,0.72
			c-0.765,0.1-1.463,0.014-2.096-0.258s-1.154-0.705-1.564-1.299s-0.67-1.307-0.778-2.137c-0.09-0.687-0.064-1.375,0.076-2.063
			c0.141-0.689,0.374-1.292,0.701-1.808c0.188-0.284,0.432-0.445,0.731-0.484c0.243-0.032,0.46,0.01,0.649,0.126
			c0.19,0.116,0.298,0.268,0.322,0.457c0.015,0.11,0.009,0.218-0.017,0.323c-0.026,0.104-0.074,0.229-0.146,0.374
			c-0.253,0.484-0.434,0.947-0.545,1.39s-0.136,0.902-0.073,1.378c0.096,0.731,0.352,1.267,0.769,1.606
			c0.416,0.34,0.962,0.466,1.638,0.377c0.653-0.086,1.146-0.351,1.477-0.793c0.33-0.443,0.451-1.008,0.36-1.695
			c-0.056-0.432-0.168-0.809-0.334-1.131c-0.166-0.322-0.416-0.642-0.75-0.958c-0.172-0.192-0.272-0.398-0.301-0.62
			c-0.029-0.222,0.013-0.418,0.125-0.591c0.112-0.173,0.279-0.273,0.501-0.302l5.185-0.679c0.31-0.041,0.565,0.016,0.766,0.17
			c0.2,0.154,0.322,0.392,0.364,0.713l0.724,5.533c0.088,0.665-0.146,1.033-0.7,1.105c-0.554,0.073-0.874-0.223-0.961-0.888
			l-0.583-4.453l-3.157,0.413c0.473,0.513,0.763,1.179,0.87,1.999C396.135,103.54,396.061,104.205,395.819,104.807z"/>
	</g>
	<path class="st0" d="M241.315,200.625c1.067-1.692,0.562-3.928-1.129-4.995c-1.691-1.068-3.927-0.562-4.995,1.129
		c-15.802,25.034-40.125,43.569-68.489,52.189c-65.15,19.8-134.262-17.094-154.062-82.244S29.735,32.441,94.885,12.641
		s134.262,17.095,154.062,82.245c2.459,8.091,4.093,16.424,4.858,24.768c0.182,1.991,1.945,3.458,3.936,3.276
		c0.068-0.006,0.134-0.019,0.201-0.029c0.021-0.002,0.042,0.001,0.063-0.001l34.843-3.651c10.054-0.761,11.428-3.089,11.22-5.078
		c-0.209-1.991-0.911-3.489-11.975-2.125l-31.467,3.297c-0.916-7.608-2.507-15.182-4.75-22.563
		c-10.154-33.411-32.711-60.868-63.516-77.312c-30.805-16.445-66.17-19.91-99.581-9.756S31.912,38.423,15.467,69.228
		c-16.445,30.805-19.909,66.17-9.755,99.581s32.711,60.867,63.516,77.312c30.805,16.445,66.17,19.909,99.581,9.755
		C198.835,246.751,224.585,227.129,241.315,200.625z"/>
</g>
</svg>