<!-- Generator: Adobe Illustrator 22.1.0, SVG Export Plug-In  -->
<svg version="1.1"
	 xmlns="http://www.w3.org/2000/svg" xmlns:xlink="http://www.w3.org/1999/xlink" xmlns:a="http://ns.adobe.com/AdobeSVGViewerExtensions/3.0/"
	 x="0px" y="0px" width="261.55px" height="412.983px" viewBox="0 0 261.55 412.983"
	 style="enable-background:new 0 0 261.55 412.983;" xml:space="preserve">
<style type="text/css">
	.st0{fill:#E42832;}
	.st1{fill:#FFFFFF;}
</style>
<defs>
</defs>
<g>
	<path class="st0" d="M170.49,36.919l6.03-33.665c-32.08-4.963-64.798-4.251-96.924,2.138l6.494,33.323
		C114.053,33.242,142.416,32.64,170.49,36.919z"/>
	<path class="st1" d="M130.774,22.226c0.01,0.592-0.321,0.894-0.991,0.904l-5.664,0.092c-0.681,0.011-1.027-0.279-1.036-0.871
		c-0.009-0.57,0.327-0.86,1.008-0.871l1.743-0.028l-0.124-7.641l-1.592,1.015c-0.155,0.092-0.294,0.139-0.417,0.141
		c-0.235,0.003-0.435-0.094-0.6-0.292c-0.165-0.199-0.25-0.42-0.253-0.667c-0.005-0.324,0.136-0.578,0.423-0.761l2.571-1.651
		c0.332-0.207,0.648-0.312,0.95-0.317c0.313-0.005,0.565,0.086,0.759,0.272c0.193,0.187,0.292,0.448,0.297,0.783l0.147,9.082
		l1.759-0.028C130.425,21.376,130.765,21.656,130.774,22.226z"/>
	<path class="st0" d="M129.02,114.89c9.289,0,18.395,0.775,27.268,2.241l13.397-71.712c-27.069-4.466-54.463-4.225-81.535,0.718
		l13.052,71.085C110.249,115.696,119.539,114.89,129.02,114.89z"/>
	<g>
		<path class="st1" d="M129.772,150.953c-1.999,0.06-4.34,0.771-4.281,2.77c0.059,1.999,0.054,5.037,2.053,4.979
			c9.995-0.294,21.426,1.179,31.071,3.257c-1.815-0.546-3.058-2.651-2.621-4.523c0.453-1.947,2.185-2.981,4.133-2.528
			c0.662,0.154,2.17-0.125,2.828,0.039l-0.629,0.2C150.47,151.511,141.157,150.619,129.772,150.953z"/>
		<path class="st0" d="M209.755,178.028c-1.595-1.207-3.866-0.894-5.073,0.7c-1.208,1.594-0.894,3.865,0.7,5.073
			c23.599,17.875,39.997,43.686,46.173,72.68c14.186,66.598-28.454,132.321-95.053,146.507
			C89.904,417.173,24.181,374.533,9.995,307.934s28.455-132.321,95.053-146.507c8.271-1.762,16.713-2.681,25.091-2.733
			c2-0.012,3.611-1.644,3.599-3.643c0-0.068-0.007-0.135-0.011-0.202c0-0.021,0.005-0.041,0.004-0.063l-0.674-35.027
			c0.098-10.083-2.106-11.65-4.105-11.611c-2.002,0.039-3.553,0.611-3.136,11.751l0.608,31.633
			c-7.659,0.265-15.34,1.206-22.885,2.813c-34.153,7.275-63.43,27.415-82.436,56.709C2.098,240.348-4.363,275.29,2.912,309.443
			s27.414,63.43,56.709,82.435c29.294,19.006,64.236,25.467,98.39,18.192c34.153-7.275,63.429-27.414,82.436-56.709
			c19.006-29.294,25.466-64.236,18.191-98.39C252.1,224.278,234.74,196.952,209.755,178.028z"/>
	</g>
</g>
</svg>