<!-- Generator: Adobe Illustrator 22.1.0, SVG Export Plug-In  -->
<svg version="1.1"
	 xmlns="http://www.w3.org/2000/svg" xmlns:xlink="http://www.w3.org/1999/xlink" xmlns:a="http://ns.adobe.com/AdobeSVGViewerExtensions/3.0/"
	 x="0px" y="0px" width="353.833px" height="369.932px" viewBox="0 0 353.833 369.932"
	 style="enable-background:new 0 0 353.833 369.932;" xml:space="preserve">
<style type="text/css">
	.st0{fill:#4AA447;}
	.st1{fill:#FFFFFF;}
</style>
<defs>
</defs>
<g>
	<path class="st0" d="M281.748,0l-17.744,29.363c24.136,14.799,45.224,33.44,62.76,55.479l27.069-21.122
		C333.834,38.459,309.517,16.922,281.748,0z"/>
	<g>
		<path class="st0" d="M221.632,99.487c15.492,9.644,29.09,21.663,40.493,35.796l59.353-46.317
			c-17.031-21.393-37.506-39.491-60.94-53.865L221.632,99.487z"/>
	</g>
	<path class="st1" d="M309.463,45.074c-0.047,0.62-0.314,1.208-0.801,1.761c-0.671,0.764-1.487,1.125-2.447,1.084
		c-0.961-0.041-1.919-0.482-2.876-1.323c-0.545-0.479-0.996-1.024-1.352-1.634c-0.356-0.61-0.578-1.222-0.665-1.833
		c-0.045-0.337,0.031-0.619,0.23-0.846c0.162-0.185,0.353-0.296,0.572-0.334c0.22-0.038,0.4,0.006,0.543,0.131
		c0.084,0.074,0.146,0.155,0.188,0.243s0.092,0.218,0.15,0.388c0.146,0.545,0.322,1.02,0.531,1.426
		c0.208,0.406,0.501,0.775,0.879,1.107c0.554,0.487,1.063,0.737,1.526,0.75s0.895-0.206,1.293-0.659
		c0.391-0.445,0.54-0.898,0.447-1.359c-0.094-0.461-0.434-0.95-1.021-1.466l-0.718-0.63c-0.193-0.17-0.285-0.366-0.275-0.588
		c0.009-0.222,0.088-0.417,0.235-0.585c0.154-0.176,0.34-0.281,0.556-0.315c0.215-0.034,0.42,0.034,0.612,0.204l0.504,0.443
		c1.149,1.01,2.104,1.083,2.863,0.219c0.354-0.403,0.506-0.82,0.454-1.252s-0.291-0.836-0.72-1.212
		c-0.612-0.539-1.48-0.87-2.604-0.996c-0.177-0.036-0.312-0.069-0.404-0.099c-0.094-0.03-0.182-0.082-0.266-0.155
		c-0.143-0.125-0.209-0.299-0.2-0.521c0.01-0.222,0.096-0.425,0.258-0.61c0.11-0.125,0.228-0.212,0.352-0.26
		c0.123-0.048,0.276-0.073,0.458-0.077c0.61,0.016,1.237,0.154,1.879,0.413c0.642,0.26,1.219,0.614,1.731,1.064
		c0.872,0.767,1.379,1.591,1.519,2.473c0.14,0.882-0.104,1.679-0.73,2.393c-0.437,0.479-0.938,0.792-1.507,0.94
		s-1.148,0.11-1.741-0.113C309.328,43.843,309.51,44.453,309.463,45.074z"/>
	<g>
		<path class="st0" d="M259.486,216.18c-0.353-1.969-2.234-3.279-4.202-2.927c-1.969,0.352-3.279,2.234-2.927,4.202
			c5.213,29.142-0.249,59.23-15.379,84.722c-34.755,58.555-110.668,77.917-169.223,43.162S-10.163,234.67,24.593,176.116
			s110.669-77.917,169.223-43.161c7.272,4.316,14.098,9.367,20.289,15.013c1.478,1.347,3.768,1.242,5.116-0.236
			c0.046-0.05,0.086-0.104,0.129-0.157c0.014-0.015,0.032-0.027,0.046-0.043l23.266-26.192c6.911-7.342,6.356-9.988,4.861-11.316
			c-1.497-1.329-3.025-1.962-10.275,6.507l-21.012,23.654c-5.807-5.001-12.089-9.52-18.723-13.457
			c-30.028-17.823-65.201-22.887-99.037-14.256c-33.837,8.63-62.287,29.92-80.11,59.949s-22.886,65.2-14.256,99.037
			c8.63,33.836,29.92,62.287,59.949,80.11c30.028,17.823,65.2,22.886,99.037,14.256c33.836-8.63,62.286-29.921,80.11-59.949
			C259.223,278.887,265.005,247.033,259.486,216.18z"/>
	</g>
</g>
</svg>