<svg xmlns="http://www.w3.org/2000/svg" viewBox="0 0 209.37 219.39"><defs><style>.cls-1{fill:#ea503e;}.cls-2{font-size:8.4px;fill:#fff;font-family:AvenirNext-Bold, Avenir Next;font-weight:700;}</style></defs><title>Asset 6</title><g id="Layer_2" data-name="Layer 2"><g id="timeline"><path class="cls-1" d="M89.25,15.37a100.21,100.21,0,0,1,29.46-.48L121,1.05c-1.6-.22-3.2-.4-4.79-.55A114.09,114.09,0,0,0,92.68.73q-3.14.36-6.27.88Z"/><path class="cls-1" d="M118.33,17.71a97.59,97.59,0,0,0-28.62.46l7,34.06,3.73,0,12.19-.14Q115.48,35,118.33,17.71Z"/><text class="cls-2" transform="translate(101.85 10.02) rotate(-0.13)">5</text><path class="cls-1" d="M135.9,74.65a1.41,1.41,0,0,0-1.72,2.24A48.26,48.26,0,1,1,95,67.9a49.28,49.28,0,0,1,9.82-1,1.42,1.42,0,0,0,1.41-1.42v-.1l-.18-13.69a1.42,1.42,0,1,0-2.83,0l.16,12.37a51.12,51.12,0,1,0,32.5,10.56Z"/></g></g></svg>