<!-- Generator: Adobe Illustrator 22.1.0, SVG Export Plug-In  -->
<svg version="1.1"
	 xmlns="http://www.w3.org/2000/svg" xmlns:xlink="http://www.w3.org/1999/xlink" xmlns:a="http://ns.adobe.com/AdobeSVGViewerExtensions/3.0/"
	 x="0px" y="0px" width="277.018px" height="406.816px" viewBox="0 0 277.018 406.816"
	 style="enable-background:new 0 0 277.018 406.816;" xml:space="preserve">
<style type="text/css">
	.st0{fill:#DAA449;}
	.st1{fill:#FFFFFF;}
</style>
<defs>
</defs>
<path class="st0" d="M246.55,17.951C227.017,9.654,206.866,3.669,186.429,0l-6.029,33.661c27.892,5.025,54.4,14.711,78.879,28.823
	l17.738-29.356C267.255,27.498,257.09,22.429,246.55,17.951z"/>
<g>
	<path class="st0" d="M166.008,114.005c17.962,3.359,35.053,9.606,50.899,18.602l38.905-64.385
		c-23.776-13.688-49.51-23.083-76.593-27.963L166.008,114.005z"/>
</g>
<path class="st1" d="M227.503,35.297c-0.204,0.556-0.621,0.718-1.25,0.486l-5.977-2.199c-0.272-0.1-0.457-0.26-0.555-0.481
	c-0.098-0.22-0.103-0.451-0.014-0.692c0.116-0.314,0.341-0.553,0.675-0.716l5.003-2.534c0.618-0.32,1.104-0.645,1.456-0.973
	c0.354-0.328,0.603-0.691,0.749-1.09c0.182-0.493,0.179-0.922-0.008-1.289c-0.187-0.366-0.542-0.646-1.066-0.838
	c-0.43-0.158-0.876-0.23-1.34-0.216s-0.951,0.087-1.465,0.22c-0.132,0.035-0.259,0.056-0.381,0.065s-0.236-0.006-0.341-0.045
	c-0.178-0.065-0.302-0.207-0.371-0.422s-0.062-0.439,0.023-0.67c0.058-0.157,0.137-0.283,0.236-0.377
	c0.101-0.094,0.232-0.17,0.397-0.229c0.596-0.197,1.243-0.29,1.94-0.277c0.698,0.013,1.355,0.132,1.975,0.36
	c1.08,0.397,1.842,0.987,2.286,1.77s0.497,1.635,0.157,2.558c-0.235,0.64-0.593,1.189-1.071,1.65
	c-0.479,0.461-1.171,0.917-2.075,1.371l-3.785,1.893l4.151,1.527C227.483,34.379,227.7,34.762,227.503,35.297z"/>
<path class="st0" d="M243.157,209.271c-1.023-1.719-3.245-2.284-4.963-1.261c-1.719,1.022-2.283,3.244-1.262,4.963
	c15.133,25.444,20.607,55.53,15.412,84.716c-11.931,67.039-76.178,111.872-143.217,99.941
	C42.089,385.698-2.744,321.451,9.187,254.412s76.179-111.872,143.218-99.941c8.326,1.482,16.493,3.808,24.274,6.914
	c1.857,0.741,3.964-0.163,4.705-2.021c0.025-0.063,0.044-0.128,0.066-0.192c0.008-0.02,0.02-0.037,0.028-0.057l12.563-32.703
	c0.717-1.867-0.215-3.962-2.082-4.679c-1.869-0.718-3.962,0.215-4.679,2.082l-11.346,29.535c-7.195-2.638-14.665-4.658-22.26-6.01
	c-34.379-6.119-69.084,1.517-97.72,21.5c-28.637,19.983-47.777,49.922-53.896,84.301s1.517,69.084,21.5,97.72
	c19.983,28.636,49.922,47.777,84.301,53.896c34.379,6.119,69.083-1.517,97.72-21.5c28.636-19.983,47.777-49.922,53.895-84.302
	C264.974,268.06,259.179,236.209,243.157,209.271z"/>
</svg>