<!-- Generator: Adobe Illustrator 22.1.0, SVG Export Plug-In  -->
<svg version="1.1"
	 xmlns="http://www.w3.org/2000/svg" xmlns:xlink="http://www.w3.org/1999/xlink" xmlns:a="http://ns.adobe.com/AdobeSVGViewerExtensions/3.0/"
	 x="0px" y="0px" width="319.978px" height="392.024px" viewBox="0 0 319.978 392.024"
	 style="enable-background:new 0 0 319.978 392.024;" xml:space="preserve">
<style type="text/css">
	.st0{fill:#9F1D4B;}
	.st1{fill:#FFFFFF;}
</style>
<defs>
</defs>
<path class="st0" d="M225.241,360.62l12.496,31.404c31.021-13.121,58.635-31.031,82.241-52.516l-23.218-24.778
	C275.688,333.98,251.655,349.4,225.241,360.62z"/>
<g>
	<path class="st0" d="M195.288,285.346l27.473,69.044c25.632-10.905,48.957-25.876,69.414-44.551l-50.711-54.118
		C227.792,268.051,212.285,278,195.288,285.346z"/>
</g>
<path class="st1" d="M273.015,356.12c-0.589-0.214-1.083-0.625-1.481-1.231c-0.571-0.868-0.69-1.763-0.359-2.683
	c0.332-0.919,1.076-1.76,2.233-2.521c1.158-0.761,2.225-1.11,3.2-1.05s1.749,0.525,2.319,1.394c0.399,0.606,0.579,1.227,0.541,1.86
	c-0.038,0.633-0.298,1.215-0.778,1.745c0.617-0.139,1.196-0.102,1.737,0.111c0.541,0.212,0.986,0.585,1.336,1.117
	c0.54,0.821,0.658,1.673,0.354,2.554c-0.303,0.881-0.991,1.675-2.065,2.38c-1.073,0.706-2.074,1.022-3.004,0.951
	c-0.929-0.07-1.663-0.518-2.203-1.339c-0.356-0.541-0.526-1.105-0.51-1.69c0.017-0.586,0.212-1.122,0.587-1.608
	C274.24,356.331,273.604,356.335,273.015,356.12z M273.32,353.915c0.656,0.999,1.652,1.06,2.987,0.183
	c1.335-0.878,1.674-1.816,1.018-2.814c-0.656-0.999-1.651-1.061-2.987-0.183C273.002,351.977,272.664,352.916,273.32,353.915z
	 M279.935,355.804c-0.313-0.476-0.698-0.741-1.154-0.795c-0.457-0.055-0.975,0.108-1.554,0.489c-0.578,0.38-0.934,0.79-1.065,1.231
	c-0.132,0.44-0.041,0.898,0.272,1.375c0.626,0.952,1.522,1.045,2.689,0.278C280.29,357.615,280.561,356.756,279.935,355.804z"/>
<path class="st0" d="M118.235,260.867c1.991,0.19,3.759-1.27,3.949-3.26c0.19-1.991-1.269-3.759-3.26-3.949
	c-29.47-2.817-56.98-16.171-77.463-37.601C-5.587,166.833-3.817,88.51,45.407,41.461s127.548-45.279,174.596,3.946
	s45.278,127.548-3.946,174.596c-6.113,5.843-12.814,11.059-19.917,15.504c-1.695,1.061-2.209,3.295-1.149,4.99
	c0.036,0.058,0.077,0.111,0.116,0.166c0.011,0.018,0.018,0.038,0.029,0.056l18.969,29.454c5.212,8.632,7.91,8.808,9.592,7.725
	c1.683-1.085,2.703-2.386-3.503-11.647l-17.131-26.6c6.378-4.248,12.421-9.083,17.997-14.413
	c25.243-24.128,39.58-56.642,40.369-91.552c0.789-34.911-12.064-68.039-36.192-93.283s-56.642-39.58-91.553-40.369
	C98.776-0.755,65.647,12.098,40.403,36.226S0.823,92.868,0.034,127.778c-0.789,34.911,12.064,68.039,36.192,93.282
	C57.91,243.748,87.035,257.884,118.235,260.867z"/>
</svg>