<!-- Generator: Adobe Illustrator 22.1.0, SVG Export Plug-In  -->
<svg version="1.1"
	 xmlns="http://www.w3.org/2000/svg" xmlns:xlink="http://www.w3.org/1999/xlink" xmlns:a="http://ns.adobe.com/AdobeSVGViewerExtensions/3.0/"
	 x="0px" y="0px" width="261.605px" height="416.238px" viewBox="0 0 261.605 416.238"
	 style="enable-background:new 0 0 261.605 416.238;" xml:space="preserve">
<style type="text/css">
	.st0{fill:#ED703F;}
	.st1{fill:#FFFFFF;}
</style>
<defs>
</defs>
<g>
	<path class="st0" d="M134.808,382.008l0.244,34.23c31.702-1.167,63.793-7.731,95.105-20.15l-12.496-31.405
		C190.973,375.206,163.137,381.027,134.808,382.008z"/>
	<path class="st0" d="M134.808,299.563l0.533,74.713c27.493-0.974,54.512-6.634,80.423-16.847l-27.475-69.048
		C171.039,295.056,153.079,298.812,134.808,299.563z"/>
	<path class="st1" d="M179.894,398.656c-0.99-0.836-1.666-2.175-2.027-4.017c-0.248-1.261-0.276-2.391-0.086-3.39
		c0.191-1,0.586-1.814,1.185-2.444c0.6-0.631,1.371-1.038,2.313-1.224c0.625-0.122,1.274-0.134,1.949-0.032
		c0.674,0.101,1.269,0.3,1.782,0.598c0.166,0.092,0.291,0.19,0.374,0.293c0.082,0.104,0.14,0.237,0.172,0.402
		c0.048,0.24,0.02,0.46-0.084,0.656c-0.104,0.197-0.248,0.313-0.435,0.351c-0.109,0.021-0.218,0.022-0.324,0.004
		c-0.106-0.02-0.239-0.059-0.398-0.118c-1.035-0.457-1.908-0.615-2.621-0.476c-0.8,0.157-1.358,0.651-1.673,1.481
		c-0.315,0.83-0.353,1.916-0.111,3.258c0.155-0.543,0.456-1.009,0.903-1.398s0.983-0.646,1.608-0.769
		c0.69-0.136,1.335-0.1,1.934,0.107c0.599,0.206,1.104,0.563,1.517,1.067c0.412,0.506,0.689,1.12,0.831,1.844
		c0.146,0.745,0.11,1.444-0.108,2.097c-0.22,0.651-0.59,1.2-1.111,1.644c-0.522,0.444-1.155,0.74-1.901,0.887
		C182.113,399.765,180.883,399.491,179.894,398.656z M180.933,394.472c-0.302,0.463-0.391,1.008-0.269,1.633
		c0.125,0.636,0.415,1.11,0.87,1.426c0.454,0.314,0.988,0.412,1.603,0.291c0.603-0.118,1.047-0.408,1.332-0.868
		s0.365-1.008,0.24-1.644s-0.405-1.11-0.843-1.423s-0.957-0.409-1.56-0.291C181.693,393.716,181.235,394.008,180.933,394.472z"/>
	<path class="st0" d="M71.931,247.53c1.787,0.899,3.964,0.181,4.863-1.604c0.9-1.786,0.181-3.963-1.604-4.863
		c-26.439-13.32-47.228-35.747-58.537-63.149C-9.325,114.972,20.748,42.63,83.69,16.653s135.284,4.095,161.262,67.038
		s-4.096,135.284-67.038,161.262c-7.817,3.226-15.954,5.655-24.185,7.219c-1.965,0.373-3.254,2.269-2.882,4.233
		c0.013,0.067,0.032,0.131,0.048,0.197c0.004,0.021,0.003,0.042,0.007,0.063l6.987,34.329c1.725,9.935,4.175,11.078,6.134,10.679
		c1.962-0.4,3.385-1.243,0.962-12.124l-6.31-31.004c7.485-1.644,14.87-3.956,22.001-6.899
		c32.279-13.322,57.437-38.417,70.841-70.661c13.405-32.245,13.45-67.779,0.128-100.058c-13.322-32.279-38.417-57.437-70.661-70.841
		C148.741-3.318,113.206-3.363,80.927,9.959S23.491,48.375,10.086,80.62c-13.404,32.244-13.449,67.779-0.127,100.057
		C21.931,209.686,43.94,233.428,71.931,247.53z"/>
</g>
</svg>