<!-- Generator: Adobe Illustrator 22.1.0, SVG Export Plug-In  -->
<svg version="1.1"
	 xmlns="http://www.w3.org/2000/svg" xmlns:xlink="http://www.w3.org/1999/xlink" xmlns:a="http://ns.adobe.com/AdobeSVGViewerExtensions/3.0/"
	 x="0px" y="0px" width="154.656px" height="154.656px" viewBox="0 0 154.656 154.656"
	 style="enable-background:new 0 0 154.656 154.656;" xml:space="preserve">
<style type="text/css">
	.st0{fill:#CCCBCB;}
	.st1{fill:none;stroke:#E6E5E5;stroke-width:2;stroke-miterlimit:10;}
</style>
<defs>
</defs>
<g>
	<path class="st0" d="M140.726,33.042c-8.907-12.727-21.249-22.385-35.693-27.93c-1.104-0.424-2.64,3.575-1.535,3.999
		c13.644,5.237,25.304,14.362,33.719,26.387c8.606,12.298,13.155,26.763,13.155,41.83c0,40.277-32.767,73.044-73.044,73.044
		c-40.277,0-73.044-32.767-73.044-73.044S37.051,4.284,77.328,4.284c5.002,0,12.473,0.937,17.226,2.342
		c15.362,4.543,9.657,1.777,9.896,0.619c0.008-0.04,0.616-1.843,0.619-1.856c0,0-0.69-0.752-12.371-3.711
		C88.304,0.564,81.891,0,77.328,0C56.673,0,37.254,8.044,22.649,22.649C8.044,37.254,0,56.673,0,77.328s8.044,40.074,22.649,54.679
		c14.605,14.605,34.024,22.649,54.679,22.649c20.655,0,40.074-8.044,54.679-22.649c14.605-14.605,22.649-34.024,22.649-54.679
		C154.656,61.378,149.839,46.064,140.726,33.042z"/>
	<path class="st1" d="M13.748,77.461c0-35.486,28.767-64.253,64.253-64.253"/>
</g>
</svg>