<!-- Generator: Adobe Illustrator 22.1.0, SVG Export Plug-In  -->
<svg version="1.1"
	 xmlns="http://www.w3.org/2000/svg" xmlns:xlink="http://www.w3.org/1999/xlink" xmlns:a="http://ns.adobe.com/AdobeSVGViewerExtensions/3.0/"
	 x="0px" y="0px" width="401.564px" height="300.88px" viewBox="0 0 401.564 300.88"
	 style="enable-background:new 0 0 401.564 300.88;" xml:space="preserve">
<style type="text/css">
	.st0{fill:#C8213C;}
	.st1{fill:#FFFFFF;}
</style>
<defs>
</defs>
<path class="st0" d="M357.896,0l-27.066,21.119c12.941,17.224,23.573,36.197,31.631,56.448c2.348,5.904,4.51,12.038,6.441,18.28
	l32.661-10.002c-2.237-7.279-4.749-14.431-7.484-21.302C384.784,41.178,372.598,19.536,357.896,0z"/>
<g>
	<path class="st0" d="M286.769,108.569c1.443,3.626,2.78,7.383,3.991,11.207l71.733-21.967c-1.877-6.068-3.978-12.03-6.26-17.765
		c-7.821-19.658-18.139-38.079-30.687-54.801l-59.353,46.316C274.582,82.886,281.496,95.321,286.769,108.569L286.769,108.569z"/>
</g>
<path class="st1" d="M367.569,54.33c-0.051,0.216-0.195,0.386-0.433,0.511c-0.495,0.259-0.897,0.092-1.209-0.501l-0.396-0.757
	l-1.173,0.614c-0.307,0.161-0.59,0.199-0.849,0.114s-0.461-0.266-0.606-0.543c-0.145-0.277-0.179-0.546-0.102-0.808
	s0.27-0.472,0.576-0.633l1.173-0.615l-2.039-3.889c-0.14-0.267-0.172-0.515-0.097-0.744c0.076-0.229,0.228-0.402,0.455-0.522
	c0.237-0.125,0.507-0.165,0.808-0.121l8.993,1.132c0.19,0.026,0.362,0.094,0.514,0.204c0.152,0.109,0.27,0.243,0.353,0.402
	c0.135,0.257,0.168,0.524,0.098,0.8c-0.069,0.276-0.258,0.495-0.564,0.656l-6.055,3.174l0.396,0.757
	C367.567,53.858,367.62,54.114,367.569,54.33z M364.588,48.174l1.447,2.76l3.992-2.093L364.588,48.174z"/>
<path class="st0" d="M259.029,195.346c0.384-1.963-0.894-3.866-2.856-4.25c-1.963-0.385-3.865,0.894-4.25,2.856
	c-5.698,29.051-21.689,55.117-45.026,73.396c-53.607,41.987-131.378,32.534-173.364-21.073S0.998,114.896,54.605,72.91
	S185.983,40.377,227.97,93.983c5.214,6.657,9.747,13.838,13.473,21.343c0.889,1.791,3.062,2.522,4.853,1.633
	c0.061-0.03,0.118-0.066,0.177-0.099c0.019-0.009,0.039-0.014,0.059-0.024l31.174-15.985c9.102-4.339,9.542-7.007,8.63-8.787
	c-0.914-1.781-2.109-2.924-11.934,2.342l-28.154,14.436c-3.601-6.765-7.819-13.253-12.576-19.326
	c-21.532-27.491-52.481-44.952-87.145-49.165c-34.665-4.214-68.895,5.324-96.386,26.856S5.188,119.689,0.975,154.354
	c-4.214,34.664,5.324,68.895,26.856,96.386s52.481,44.951,87.145,49.165c34.664,4.213,68.895-5.324,96.386-26.856
	C236.068,253.698,252.997,226.103,259.029,195.346z"/>
</svg>