<!-- Generator: Adobe Illustrator 22.1.0, SVG Export Plug-In  -->
<svg version="1.1"
	 xmlns="http://www.w3.org/2000/svg" xmlns:xlink="http://www.w3.org/1999/xlink" xmlns:a="http://ns.adobe.com/AdobeSVGViewerExtensions/3.0/"
	 x="0px" y="0px" width="383.792px" height="335.553px" viewBox="0 0 383.792 335.553"
	 style="enable-background:new 0 0 383.792 335.553;" xml:space="preserve">
<style type="text/css">
	.st0{fill:#FBBE2B;}
	.st1{fill:#FFFFFF;}
</style>
<defs>
</defs>
<g>
	<path class="st0" d="M302.446,310.757l23.233,24.796c23.955-22.855,43.548-49.492,58.113-78.562l-30.957-14.705
		C339.983,267.901,323.052,290.908,302.446,310.757z"/>
	<g>
		<path class="st0" d="M247.151,251.749l50.711,54.116c19.991-19.271,36.428-41.602,48.917-66.455l-67.095-31.87
			C271.289,224.011,260.364,238.855,247.151,251.749z"/>
	</g>
	<path class="st1" d="M352.467,291.056c-0.223,0.036-0.438-0.019-0.65-0.165c-0.211-0.146-0.387-0.363-0.527-0.65l-4.934-9.919
		c-0.185-0.4-0.166-0.761,0.057-1.082c0.152-0.221,0.363-0.363,0.633-0.428c0.27-0.065,0.514-0.021,0.734,0.131
		c0.156,0.108,0.28,0.263,0.373,0.463l4.398,8.896l2.881-4.16c0.382-0.552,0.807-0.665,1.275-0.341
		c0.486,0.337,0.539,0.781,0.157,1.333l-3.816,5.51C352.883,290.882,352.689,291.02,352.467,291.056z"/>
	<g>
		<path class="st0" d="M163.908,257.27c1.934-0.508,3.092-2.487,2.584-4.421c-0.507-1.935-2.487-3.091-4.421-2.584
			c-28.636,7.51-59.063,4.454-85.675-8.606C15.267,211.661-10.059,137.525,19.938,76.396s104.135-86.455,165.263-56.458
			s86.455,104.135,56.457,165.263c-3.725,7.592-8.219,14.797-13.355,21.417c-1.226,1.58-0.939,3.854,0.641,5.081
			c0.054,0.042,0.111,0.078,0.166,0.116c0.017,0.013,0.03,0.029,0.047,0.042l27.956,21.114c7.867,6.307,10.461,5.543,11.666,3.947
			c1.206-1.598,1.715-3.171-7.302-9.726l-25.248-19.068c4.524-6.186,8.53-12.806,11.929-19.732
			c15.384-31.348,17.639-66.811,6.35-99.856c-11.289-33.045-34.77-59.716-66.118-75.099s-66.811-17.639-99.856-6.35
			c-33.044,11.288-59.715,34.77-75.099,66.118s-17.639,66.811-6.35,99.856c11.289,33.044,34.77,59.715,66.119,75.099
			C101.379,261.986,133.591,265.221,163.908,257.27z"/>
	</g>
</g>
</svg>