<!-- Generator: Adobe Illustrator 22.1.0, SVG Export Plug-In  -->
<svg version="1.1"
	 xmlns="http://www.w3.org/2000/svg" xmlns:xlink="http://www.w3.org/1999/xlink" xmlns:a="http://ns.adobe.com/AdobeSVGViewerExtensions/3.0/"
	 x="0px" y="0px" width="412.272px" height="261.468px" viewBox="0 0 412.272 261.468"
	 style="enable-background:new 0 0 412.272 261.468;" xml:space="preserve">
<style type="text/css">
	.st0{fill:#21B9DC;}
	.st1{fill:#FFFFFF;}
</style>
<defs>
</defs>
<g>
	<path class="st0" d="M355.538,233.824l30.962,14.707c13.884-29.42,22.693-61.174,25.773-93.935l-34.201-2.443
		C375.267,180.474,367.695,207.919,355.538,233.824z"/>
	<g>
		<path class="st0" d="M282.386,199.078l67.097,31.871c11.799-25.151,19.158-51.789,21.901-79.275l-74.454-5.319
			C295.003,164.617,290.12,182.32,282.386,199.078z"/>
	</g>
	<path class="st1" d="M388.921,200.854c-0.445,0.45-0.985,0.752-1.619,0.905c-0.635,0.152-1.308,0.137-2.021-0.048
		c-0.736-0.19-1.351-0.525-1.843-1.005c-0.494-0.48-0.827-1.051-1.002-1.714c-0.175-0.662-0.167-1.361,0.023-2.097
		c0.375-1.449,1.153-2.439,2.336-2.97c1.182-0.531,2.681-0.561,4.498-0.091c1.243,0.322,2.274,0.785,3.093,1.39
		c0.819,0.604,1.383,1.313,1.691,2.126c0.31,0.813,0.343,1.685,0.103,2.614c-0.16,0.616-0.432,1.207-0.813,1.771
		c-0.383,0.564-0.819,1.014-1.311,1.349c-0.155,0.109-0.297,0.18-0.426,0.21c-0.129,0.029-0.275,0.023-0.438-0.019
		c-0.237-0.062-0.423-0.182-0.556-0.36s-0.175-0.359-0.127-0.543c0.027-0.108,0.073-0.206,0.136-0.294
		c0.063-0.087,0.156-0.19,0.279-0.309c0.859-0.735,1.381-1.454,1.563-2.157c0.205-0.789,0.001-1.506-0.611-2.149
		c-0.612-0.643-1.576-1.146-2.89-1.51c0.422,0.375,0.712,0.849,0.87,1.42c0.157,0.571,0.157,1.166-0.003,1.782
		C389.677,199.838,389.366,200.404,388.921,200.854z M384.35,198.787c0.291,0.456,0.751,0.766,1.378,0.928
		c0.627,0.163,1.176,0.114,1.647-0.145c0.471-0.259,0.783-0.686,0.938-1.28c0.156-0.605,0.091-1.145-0.196-1.617
		s-0.739-0.789-1.355-0.948c-0.627-0.163-1.181-0.107-1.661,0.167c-0.481,0.273-0.8,0.713-0.956,1.318
		C383.989,197.805,384.058,198.331,384.35,198.787z"/>
	<path class="st0" d="M210.329,234.45c1.586-1.219,1.884-3.492,0.666-5.077c-1.218-1.586-3.492-1.884-5.077-0.666
		c-23.478,18.034-52.706,27.024-82.301,25.315C55.637,250.095,3.527,191.596,7.453,123.617S69.878,3.527,137.857,7.453
		s120.09,62.425,116.164,130.405c-0.488,8.442-1.833,16.827-3.997,24.921c-0.517,1.932,0.631,3.917,2.562,4.434
		c0.066,0.018,0.132,0.029,0.198,0.042c0.02,0.006,0.039,0.016,0.06,0.021l33.959,8.611c9.698,2.76,11.792,1.049,12.284-0.889
		c0.492-1.941,0.35-3.589-10.504-6.131l-30.669-7.776c1.769-7.456,2.892-15.113,3.337-22.815
		c2.013-34.862-9.67-68.421-32.897-94.495c-23.227-26.075-55.218-41.544-90.079-43.557s-68.42,9.67-94.495,32.897
		C17.705,56.347,2.236,88.338,0.223,123.199s9.67,68.42,32.897,94.495c23.227,26.074,55.218,41.543,90.08,43.556
		C154.53,263.06,185.473,253.542,210.329,234.45z"/>
</g>
</svg>