<!-- Generator: Adobe Illustrator 22.1.0, SVG Export Plug-In  -->
<svg version="1.1"
	 xmlns="http://www.w3.org/2000/svg" xmlns:xlink="http://www.w3.org/1999/xlink" xmlns:a="http://ns.adobe.com/AdobeSVGViewerExtensions/3.0/"
	 x="0px" y="0px" width="500px" height="500px" viewBox="0 0 500 500" style="enable-background:new 0 0 500 500;"
	 xml:space="preserve">
<style type="text/css">
	.st0{fill:#4D4E4E;}
	.st1{fill:#FFFFFF;}
	.st2{fill:#48773E;}
	.st3{fill:#5DBB46;}
	.st4{fill:#279B48;}
	.st5{fill:#C31F33;}
	.st6{fill:#00AED9;}
	.st7{fill:#EF402B;}
	.st8{fill:#8F1838;}
	.st9{fill:#E11484;}
	.st10{fill:#02558B;}
	.st11{fill:#EB1C2D;}
	.st12{fill:#D3A029;}
	.st13{fill:#F99D26;}
	.st14{fill:#FDB713;}
	.st15{fill:#F36D25;}
	.st16{fill:#CF8D2A;}
	.st17{fill:#183668;}
	.st18{fill:#007DBC;}
</style>
<defs>
</defs>
<g>
	<circle class="st0" cx="250" cy="250" r="250"/>
	<g>
		<g>
			<path class="st1" d="M90.408,193.72c0.111-16.141,15.376-23.121,29.446-23.121c15.268,0,31.843,6.216,31.843,24.32
				c0,19.413-14.614,23.121-30.645,23.121c-6.325,0-16.575,1.635-16.575,9.924v6.543h47.438v13.414H90.082
				c0-6.652,0-13.305,0-20.066c0-17.558,15.92-22.794,30.97-22.794c5.781,0,16.359-0.98,16.359-9.815
				c0-8.289-7.527-12.214-17.34-12.214c-7.527,0-15.268,3.817-15.376,10.688H90.408z"/>
			<path class="st1" d="M277.946,214.659V202.88h11.015c7.745,0,15.923-2.072,16.031-9.16c0-4.363-3.488-10.144-15.702-10.144
				c-6.761,0-15.923,2.4-15.923,9.38h-14.396c0-16.469,16.359-22.466,30.426-22.466c14.396,0,29.882,6.98,29.99,23.23
				c0,5.998-3.925,12.977-10.579,15.049c7.308,2.4,12.432,9.597,12.432,16.032c0,18.648-17.555,24.21-32.28,24.21
				c-14.503,0-31.081-6.108-31.189-23.448h14.503c0,7.852,10.579,10.579,16.796,10.579c7.306,0,17.011-3.053,17.011-11.232
				c0-4.581-2.508-10.251-16.249-10.251H277.946z"/>
			<g>
				<path class="st2" d="M179.782,208.931l-17.908-1.659c-0.157,4.181,0.273,8.363,1.272,12.417l17.273-4.915
					C179.994,212.858,179.779,210.898,179.782,208.931z"/>
				<path class="st3" d="M183.329,195.691c0.549-0.953,1.163-1.883,1.843-2.784c0.54-0.715,1.11-1.395,1.706-2.041l-12.113-13.288
					c-1.383,1.399-2.691,2.904-3.909,4.517c-1.358,1.799-2.558,3.667-3.605,5.589L183.329,195.691z"/>
				<path class="st4" d="M229.605,195.689l16.08-8.007c-1.979-3.648-4.492-7.056-7.519-10.103l-12.111,13.285
					C227.436,192.353,228.62,193.974,229.605,195.689z"/>
				<path class="st5" d="M247.412,191.238l-16.1,8.017c0.724,1.853,1.236,3.778,1.533,5.735l17.88-1.657
					C250.194,199.182,249.085,195.106,247.412,191.238z"/>
				<path class="st6" d="M231.377,218.562c-0.687,1.786-1.579,3.52-2.676,5.172l14.331,10.823c2.444-3.491,4.32-7.219,5.645-11.072
					L231.377,218.562z"/>
				<path class="st7" d="M232.517,214.777l17.277,4.916c1.008-4.088,1.422-8.27,1.26-12.42l-17.907,1.659
					C233.153,210.886,232.945,212.847,232.517,214.777z"/>
				<path class="st8" d="M228.058,248.048l-9.466-15.288c-1.72,0.876-3.522,1.558-5.372,2.041l3.301,17.66
					C220.527,251.536,224.414,250.06,228.058,248.048z"/>
				<path class="st9" d="M196.407,252.471l3.302-17.665c-1.835-0.479-3.637-1.16-5.371-2.047l-9.463,15.283
					C188.559,250.084,192.441,251.556,196.407,252.471z"/>
				<path class="st10" d="M189.767,188.169c1.59-1.277,3.302-2.351,5.099-3.217l-6.493-16.761c-3.82,1.69-7.432,3.929-10.709,6.702
					L189.767,188.169z"/>
				<path class="st11" d="M208.442,164.407v17.969c2.002,0.147,3.997,0.52,5.944,1.126l6.491-16.755
					C216.824,165.363,212.636,164.589,208.442,164.407z"/>
				<path class="st12" d="M218.063,184.953c1.552,0.751,3.054,1.663,4.482,2.741c0.208,0.157,0.412,0.317,0.614,0.479l12.101-13.274
					c-0.618-0.521-1.251-1.029-1.904-1.521c-2.786-2.104-5.739-3.831-8.798-5.19L218.063,184.953z"/>
				<path class="st13" d="M181.505,245.976l9.457-15.273c-0.193-0.138-0.386-0.279-0.576-0.423c-1.376-1.039-2.621-2.187-3.736-3.42
					l-14.354,10.839c2.117,2.514,4.545,4.833,7.278,6.897C180.209,245.077,180.853,245.536,181.505,245.976z"/>
				<path class="st14" d="M226.278,226.858c-1.314,1.46-2.76,2.746-4.306,3.851l9.459,15.276c3.368-2.273,6.472-5.041,9.198-8.29
					L226.278,226.858z"/>
				<path class="st15" d="M209.332,235.514c-1.9,0.206-3.824,0.209-5.735,0.004l-3.303,17.668c4.108,0.57,8.263,0.564,12.341-0.005
					L209.332,235.514z"/>
				<path class="st16" d="M184.224,223.738c-1.085-1.636-1.975-3.373-2.667-5.177l-17.3,4.922c1.336,3.9,3.22,7.634,5.631,11.08
					L184.224,223.738z"/>
				<path class="st17" d="M198.546,183.506c1.934-0.599,3.928-0.976,5.943-1.127v-17.971c-4.227,0.19-8.417,0.977-12.434,2.344
					L198.546,183.506z"/>
				<path class="st18" d="M180.079,204.989c0.293-1.944,0.804-3.868,1.536-5.736l-16.098-8.016c-1.697,3.906-2.8,7.979-3.322,12.094
					L180.079,204.989z"/>
			</g>
			<path class="st1" d="M370.657,184.999c13.648,0,24.752,11.103,24.752,24.752c0,13.648-11.103,24.752-24.752,24.752
				c-13.648,0-24.752-11.104-24.752-24.752C345.905,196.103,357.009,184.999,370.657,184.999 M370.657,170.49
				c-21.683,0-39.261,17.578-39.261,39.261s17.578,39.261,39.261,39.261c21.683,0,39.261-17.578,39.261-39.261
				S392.34,170.49,370.657,170.49L370.657,170.49z"/>
		</g>
		<g>
			<path class="st1" d="M102.695,272.442c4.735,0,8.591,2.097,8.591,6.631c0,1.792-0.541,3.652-2.605,4.599
				c2.199,1.183,3.281,3.383,3.281,5.513c0,5.311-4.836,6.9-9.165,6.935H90.586v-23.677H102.695z M97.182,281.474h5.344
				c1.387,0,2.132-0.71,2.132-1.759s-0.745-1.861-2.064-1.861h-5.411V281.474z M97.182,290.91h5.648
				c1.691,0,2.503-0.914,2.503-2.232c0-1.285-0.845-2.267-2.503-2.267h-5.648V290.91z"/>
			<path class="st1" d="M157.857,272.476v13.225c0.033,7.002-4.228,10.925-11.162,10.925c-6.933,0-11.162-3.756-11.162-10.993
				v-13.158h6.663v13.158c0,3.72,1.793,5.276,4.499,5.276c2.706,0,4.499-1.624,4.499-5.209v-13.225H157.857z"/>
			<path class="st1" d="M182.611,296.119v-23.677h6.663v23.677H182.611z"/>
			<path class="st1" d="M221.065,272.442v17.995h11.33v5.682h-18.028v-23.677H221.065z"/>
			<path class="st1" d="M265.775,272.442c8.355,0,12.38,5.141,12.38,11.67c0,6.527-3.889,12.007-12.38,12.007h-10.146v-23.677
				H265.775z M262.257,290.47h3.517c4.262,0,5.751-3.179,5.751-6.425c0-3.248-1.658-6.021-5.751-6.021h-3.517V290.47z"/>
			<path class="st1" d="M320.937,296.119h-18.942v-23.677h18.468v5.615h-11.872v3.383h11.195v5.445h-11.195v3.585h12.346V296.119z"
				/>
			<path class="st1" d="M366.933,296.119h-7.374l-5.514-7.678h-2.332v7.678h-6.698v-23.677h11.568c6.054,0,9.2,3.891,9.2,8.153
				c0,2.908-1.014,5.378-5.007,7.137l6.157,7.982V296.119z M351.713,277.787v5.682h4.938c1.759,0,2.536-1.32,2.536-2.74
				c0-1.488-0.845-2.942-2.604-2.942H351.713z"/>
			<path class="st1" d="M404.809,279.004c-1.624-1.216-3.483-1.622-5.547-1.622c-1.622,0-3.213,0.506-3.213,1.759
				c0,1.624,1.591,1.861,3.925,2.097c4.701,0.506,9.606,2.401,9.606,7.847c0,5.378-5.074,7.678-10.385,7.712
				c-4.262,0.033-7.306-0.712-10.587-4.162l3.687-4.228c2.334,2.267,4.939,2.673,6.935,2.673c2.198,0,3.72-0.777,3.72-2.097
				c0-1.183-1.353-1.928-3.956-2.165c-5.176-0.473-9.64-1.793-9.64-7.678c0-5.007,4.905-7.171,9.91-7.171
				c3.552,0,6.326,0.812,8.863,2.807L404.809,279.004z"/>
		</g>
		<g>
			<path class="st1" d="M90.586,335.286v-13.424h2.511v13.424H90.586z"/>
			<path class="st1" d="M126.336,325.563l-4.372,5.83h-0.498l-4.276-5.848v9.761h-2.532v-13.424h2.914l4.201,5.773l4.199-5.773
				h2.895v13.424h-2.532V325.563z"/>
			<path class="st1" d="M156.731,331.336h-3.798v3.95h-2.532v-13.424c2.11,0,4.22-0.019,6.33-0.019
				C163.29,321.843,163.309,331.336,156.731,331.336z M152.933,329.014h3.798c3.24,0,3.221-4.756,0-4.756h-3.798V329.014z"/>
			<path class="st1" d="M192.055,332.754h-7.019l-1.151,2.532h-2.742l6.021-13.424h2.762l6.022,13.424h-2.762L192.055,332.754z
				 M188.545,324.68l-2.492,5.715h4.986L188.545,324.68z"/>
			<path class="st1" d="M227.285,333.598c-1.381,1.362-3.165,1.995-5.101,1.995c-4.986,0-7.096-3.433-7.115-6.924
				c-0.019-3.51,2.262-7.076,7.115-7.076c1.821,0,3.547,0.69,4.928,2.052l-1.688,1.63c-0.881-0.864-2.071-1.267-3.24-1.267
				c-3.242,0-4.641,2.417-4.623,4.66c0.019,2.224,1.304,4.546,4.623,4.546c1.169,0,2.492-0.48,3.375-1.362L227.285,333.598z"/>
			<path class="st1" d="M251.141,324.163h-4.257v-2.301c3.873,0,7.153,0,11.046,0v2.301h-4.257v11.123h-2.532V324.163z"/>
			<path class="st1" d="M307.989,331.336h-3.798v3.95h-2.532v-13.424c2.11,0,4.22-0.019,6.33-0.019
				C314.548,321.843,314.566,331.336,307.989,331.336z M304.191,329.014h3.798c3.24,0,3.221-4.756,0-4.756h-3.798V329.014z"/>
			<path class="st1" d="M336.312,321.862v11.084h6.905v2.34h-9.436v-13.424H336.312z"/>
			<path class="st1" d="M373.691,332.754h-7.019l-1.151,2.532h-2.742l6.021-13.424h2.762l6.022,13.424h-2.762L373.691,332.754z
				 M370.181,324.68l-2.492,5.715h4.986L370.181,324.68z"/>
			<path class="st1" d="M401.326,327.404l3.566-5.543h3.049v0.114l-5.35,7.767v5.543h-2.532v-5.543l-5.159-7.767v-0.114h3.011
				L401.326,327.404z"/>
		</g>
		<g>
			<rect x="90.586" y="308.393" class="st1" width="318.919" height="1.605"/>
		</g>
	</g>
</g>
</svg>