<!-- Generator: Adobe Illustrator 22.1.0, SVG Export Plug-In  -->
<svg version="1.1"
	 xmlns="http://www.w3.org/2000/svg" xmlns:xlink="http://www.w3.org/1999/xlink" xmlns:a="http://ns.adobe.com/AdobeSVGViewerExtensions/3.0/"
	 x="0px" y="0px" width="563.557px" height="564.49px" viewBox="0 0 563.557 564.49"
	 style="enable-background:new 0 0 563.557 564.49;" xml:space="preserve">
<style type="text/css">
	.st0{fill:#D9D9D9;}
	.st1{fill:#FFFFFF;}
	.st2{fill:none;stroke:#E6E5E5;stroke-width:2;stroke-miterlimit:10;}
</style>
<defs>
</defs>
<g>
	<path class="st0" d="M394.878,22.389c-19.5-8.3-39.7-14.3-60.1-18l-6,33.7c27.9,5,54.4,14.7,78.9,28.8l17.7-29.4
		C415.578,31.889,405.378,26.889,394.878,22.389z"/>
	<g>
		<path class="st0" d="M314.278,118.389c18,3.4,35.1,9.6,50.9,18.6l38.9-64.4c-23.8-13.7-49.5-23.1-76.6-28L314.278,118.389z"/>
	</g>
	<path class="st1" d="M375.778,39.689c-0.2,0.6-0.6,0.7-1.3,0.5l-6-2.2c-0.3-0.1-0.5-0.3-0.6-0.5s-0.1-0.5,0-0.7
		c0.1-0.3,0.3-0.6,0.7-0.7l5-2.5c0.6-0.3,1.1-0.6,1.5-1c0.4-0.3,0.6-0.7,0.7-1.1c0.2-0.5,0.2-0.9,0-1.3s-0.5-0.6-1.1-0.8
		c-0.4-0.2-0.9-0.2-1.3-0.2s-1,0.1-1.5,0.2c-0.1,0-0.3,0.1-0.4,0.1s-0.2,0-0.3,0c-0.2-0.1-0.3-0.2-0.4-0.4s-0.1-0.4,0-0.7
		c0.1-0.2,0.1-0.3,0.2-0.4s0.2-0.2,0.4-0.2c0.6-0.2,1.2-0.3,1.9-0.3c0.7,0,1.4,0.1,2,0.4c1.1,0.4,1.8,1,2.3,1.8s0.5,1.6,0.2,2.6
		c-0.2,0.6-0.6,1.2-1.1,1.6c-0.5,0.5-1.2,0.9-2.1,1.4l-3.8,1.9l4.2,1.5C375.778,38.789,375.978,39.189,375.778,39.689z"/>
</g>
<g>
	<path class="st0" d="M431.078,40.989l-17.7,29.4c24.1,14.8,45.2,33.4,62.8,55.5l27.1-21.1
		C483.178,79.389,458.878,57.889,431.078,40.989z"/>
	<g>
		<path class="st0" d="M370.978,140.489c15.5,9.6,29.1,21.7,40.5,35.8l59.4-46.3c-17-21.4-37.5-39.5-60.9-53.9L370.978,140.489z"/>
	</g>
	<path class="st1" d="M458.778,85.989c0,0.6-0.3,1.2-0.8,1.8c-0.7,0.8-1.5,1.1-2.4,1.1c-1,0-1.9-0.5-2.9-1.3c-0.5-0.5-1-1-1.4-1.6
		s-0.6-1.2-0.7-1.8c0-0.3,0-0.6,0.2-0.8c0.2-0.2,0.4-0.3,0.6-0.3s0.4,0,0.5,0.1s0.1,0.2,0.2,0.2s0.1,0.2,0.2,0.4
		c0.1,0.5,0.3,1,0.5,1.4s0.5,0.8,0.9,1.1c0.6,0.5,1.1,0.7,1.5,0.8s0.9-0.2,1.3-0.7c0.4-0.4,0.5-0.9,0.4-1.4s-0.4-0.9-1-1.5l-0.7-0.6
		c-0.2-0.2-0.3-0.4-0.3-0.6s0.1-0.4,0.2-0.6c0.2-0.2,0.3-0.3,0.6-0.3c0.2,0,0.4,0,0.6,0.2l0.5,0.4c1.1,1,2.1,1.1,2.9,0.2
		c0.4-0.4,0.5-0.8,0.5-1.3s-0.3-0.8-0.7-1.2c-0.6-0.5-1.5-0.9-2.6-1c-0.2,0-0.3-0.1-0.4-0.1s-0.2-0.1-0.3-0.2
		c-0.1-0.1-0.2-0.3-0.2-0.5s0.1-0.4,0.3-0.6c0.1-0.1,0.2-0.2,0.4-0.3c0.1,0,0.3-0.1,0.5-0.1c0.6,0,1.2,0.2,1.9,0.4
		c0.6,0.3,1.2,0.6,1.7,1.1c0.9,0.8,1.4,1.6,1.5,2.5s-0.1,1.7-0.7,2.4c-0.4,0.5-0.9,0.8-1.5,0.9s-1.1,0.1-1.7-0.1
		C458.678,84.789,458.778,85.389,458.778,85.989z"/>
</g>
<g>
	<path class="st0" d="M507.278,109.989l-27.1,21.1c12.9,17.2,23.6,36.2,31.6,56.4c2.3,5.9,4.5,12,6.4,18.3l32.7-10
		c-2.2-7.3-4.7-14.4-7.5-21.3C534.178,151.189,521.978,129.489,507.278,109.989z"/>
	<g>
		<path class="st0" d="M436.078,218.589c1.4,3.6,2.8,7.4,4,11.2l71.7-22c-1.9-6.1-4-12-6.3-17.8c-7.8-19.7-18.1-38.1-30.7-54.8
			l-59.4,46.3C423.978,192.889,430.878,205.289,436.078,218.589L436.078,218.589z"/>
	</g>
	<path class="st1" d="M516.878,164.289c-0.1,0.2-0.2,0.4-0.4,0.5c-0.5,0.3-0.9,0.1-1.2-0.5l-0.4-0.8l-1.2,0.6
		c-0.3,0.2-0.6,0.2-0.8,0.1s-0.5-0.3-0.6-0.5c-0.1-0.3-0.2-0.5-0.1-0.8s0.3-0.5,0.6-0.6l1.2-0.6l-2-3.9c-0.1-0.3-0.2-0.5-0.1-0.7
		s0.2-0.4,0.5-0.5c0.2-0.1,0.5-0.2,0.8-0.1l9,1.1c0.2,0,0.4,0.1,0.5,0.2c0.2,0.1,0.3,0.2,0.4,0.4c0.1,0.3,0.2,0.5,0.1,0.8
		s-0.3,0.5-0.6,0.7l-6.1,3.2l0.4,0.8C516.878,163.889,516.978,164.089,516.878,164.289z M513.978,158.189l1.4,2.8l4-2.1
		L513.978,158.189z"/>
</g>
<g>
	<path class="st0" d="M520.178,212.289c7.7,27.3,10.5,55.5,8.5,83.8l34.2,2.4c2.2-31.7-0.9-64.1-10-96.3L520.178,212.289z"/>
	<g>
		<path class="st0" d="M447.478,290.289l74.5,5.3c2-27.5-0.8-54.9-8.2-81.4l-71.7,22
			C446.878,253.89,448.678,271.989,447.478,290.289z"/>
	</g>
	<path class="st1" d="M546.078,249.789c-0.2,0.6-0.6,1.1-1.2,1.5s-1.2,0.6-1.9,0.7c-0.8,0.1-1.5,0-2.1-0.3s-1.2-0.7-1.6-1.3
		s-0.7-1.3-0.8-2.1c-0.1-0.7-0.1-1.4,0.1-2.1c0.1-0.7,0.4-1.3,0.7-1.8c0.2-0.3,0.4-0.4,0.7-0.5c0.2,0,0.5,0,0.6,0.1
		c0.2,0.1,0.3,0.3,0.3,0.5c0,0.1,0,0.2,0,0.3c0,0.1-0.1,0.2-0.1,0.4c-0.3,0.5-0.4,0.9-0.5,1.4s-0.1,0.9-0.1,1.4
		c0.1,0.7,0.4,1.3,0.8,1.6s1,0.5,1.6,0.4c0.7-0.1,1.1-0.4,1.5-0.8c0.3-0.4,0.5-1,0.4-1.7c-0.1-0.4-0.2-0.8-0.3-1.1
		c-0.2-0.3-0.4-0.6-0.8-1c-0.2-0.2-0.3-0.4-0.3-0.6s0-0.4,0.1-0.6s0.3-0.3,0.5-0.3l5.2-0.7c0.3,0,0.6,0,0.8,0.2
		c0.2,0.2,0.3,0.4,0.4,0.7l0.7,5.5c0.1,0.7-0.1,1-0.7,1.1s-0.9-0.2-1-0.9l-0.6-4.5l-3.2,0.4c0.5,0.5,0.8,1.2,0.9,2
		C546.378,248.489,546.278,249.189,546.078,249.789z"/>
</g>
<g>
	<path class="st0" d="M505.478,384.489l31,14.7c13.9-29.4,22.7-61.2,25.8-93.9l-34.2-2.4
		C525.278,331.089,517.678,358.589,505.478,384.489z"/>
	<g>
		<path class="st0" d="M432.378,349.689l67.1,31.9c11.8-25.2,19.2-51.8,21.9-79.3l-74.5-5.3
			C444.978,315.189,440.078,332.989,432.378,349.689z"/>
	</g>
	<path class="st1" d="M538.878,351.489c-0.4,0.5-1,0.8-1.6,0.9c-0.6,0.2-1.3,0.1-2,0c-0.7-0.2-1.4-0.5-1.8-1c-0.5-0.5-0.8-1.1-1-1.7
		c-0.2-0.7-0.2-1.4,0-2.1c0.4-1.4,1.2-2.4,2.3-3c1.2-0.5,2.7-0.6,4.5-0.1c1.2,0.3,2.3,0.8,3.1,1.4c0.8,0.6,1.4,1.3,1.7,2.1
		c0.3,0.8,0.3,1.7,0.1,2.6c-0.2,0.6-0.4,1.2-0.8,1.8s-0.8,1-1.3,1.3c-0.2,0.1-0.3,0.2-0.4,0.2s-0.3,0-0.4,0
		c-0.2-0.1-0.4-0.2-0.6-0.4s-0.2-0.4-0.1-0.5c0-0.1,0.1-0.2,0.1-0.3c0.1-0.1,0.2-0.2,0.3-0.3c0.9-0.7,1.4-1.5,1.6-2.2
		c0.2-0.8,0-1.5-0.6-2.1s-1.6-1.1-2.9-1.5c0.4,0.4,0.7,0.8,0.9,1.4c0.2,0.6,0.2,1.2,0,1.8
		C539.678,350.489,539.378,350.989,538.878,351.489z M534.278,349.389c0.3,0.5,0.8,0.8,1.4,0.9c0.6,0.2,1.2,0.1,1.6-0.1
		c0.5-0.3,0.8-0.7,0.9-1.3c0.2-0.6,0.1-1.1-0.2-1.6s-0.7-0.8-1.4-0.9c-0.6-0.2-1.2-0.1-1.7,0.2s-0.8,0.7-1,1.3
		C533.978,348.389,534.078,348.989,534.278,349.389z"/>
</g>
<g>
	<path class="st0" d="M452.178,458.989l23.2,24.8c24-22.9,43.5-49.5,58.1-78.6l-31-14.7
		C489.778,416.089,472.778,439.089,452.178,458.989z"/>
	<g>
		<path class="st0" d="M396.878,399.889l50.7,54.1c20-19.3,36.4-41.6,48.9-66.5l-67.1-31.9
			C421.078,372.189,410.078,387.089,396.878,399.889z"/>
	</g>
	<path class="st1" d="M502.178,439.289c-0.2,0-0.4,0-0.7-0.2c-0.2-0.1-0.4-0.4-0.5-0.7l-4.9-9.9c-0.2-0.4-0.2-0.8,0.1-1.1
		c0.2-0.2,0.4-0.4,0.6-0.4c0.3-0.1,0.5,0,0.7,0.1s0.3,0.3,0.4,0.5l4.4,8.9l2.9-4.2c0.4-0.6,0.8-0.7,1.3-0.3c0.5,0.3,0.5,0.8,0.2,1.3
		l-3.8,5.5C502.678,439.089,502.478,439.189,502.178,439.289z"/>
</g>
<g>
	<path class="st0" d="M375.778,509.389l12.5,31.4c31-13.1,58.6-31,82.2-52.5l-23.2-24.8
		C426.278,482.789,402.178,498.189,375.778,509.389z"/>
	<g>
		<path class="st0" d="M345.878,434.189l27.5,69c25.6-10.9,49-25.9,69.4-44.6l-50.7-54.1
			C378.378,416.889,362.878,426.789,345.878,434.189z"/>
	</g>
	<path class="st1" d="M423.578,504.889c-0.6-0.2-1.1-0.6-1.5-1.2c-0.6-0.9-0.7-1.8-0.4-2.7c0.3-0.9,1.1-1.8,2.2-2.5
		c1.2-0.8,2.2-1.1,3.2-1s1.7,0.5,2.3,1.4c0.4,0.6,0.6,1.2,0.5,1.9c0,0.6-0.3,1.2-0.8,1.7c0.6-0.1,1.2-0.1,1.7,0.1
		c0.5,0.2,1,0.6,1.3,1.1c0.5,0.8,0.7,1.7,0.4,2.6c-0.3,0.9-1,1.7-2.1,2.4s-2.1,1-3,1c-0.9-0.1-1.7-0.5-2.2-1.3
		c-0.4-0.5-0.5-1.1-0.5-1.7c0-0.6,0.2-1.1,0.6-1.6C424.778,505.089,424.178,505.089,423.578,504.889z M423.878,502.689
		c0.7,1,1.7,1.1,3,0.2c1.3-0.9,1.7-1.8,1-2.8s-1.7-1.1-3-0.2S423.178,501.689,423.878,502.689z M430.478,504.589
		c-0.3-0.5-0.7-0.7-1.2-0.8s-1,0.1-1.6,0.5s-0.9,0.8-1.1,1.2c-0.1,0.4,0,0.9,0.3,1.4c0.6,1,1.5,1,2.7,0.3
		C430.878,506.389,431.078,505.589,430.478,504.589z"/>
</g>
<g>
	<path class="st0" d="M286.178,530.289l0.2,34.2c31.7-1.2,63.8-7.7,95.1-20.1l-12.5-31.4
		C342.278,523.49,314.478,529.289,286.178,530.289z"/>
	<g>
		<path class="st0" d="M286.178,447.889l0.5,74.7c27.5-1,54.5-6.6,80.4-16.8l-27.5-69
			C322.378,443.389,304.378,447.089,286.178,447.889z"/>
	</g>
	<path class="st1" d="M331.278,546.99c-1-0.8-1.7-2.2-2-4c-0.2-1.3-0.3-2.4-0.1-3.4s0.6-1.8,1.2-2.4c0.6-0.6,1.4-1,2.3-1.2
		c0.6-0.1,1.3-0.1,1.9,0c0.7,0.1,1.3,0.3,1.8,0.6c0.2,0.1,0.3,0.2,0.4,0.3c0.1,0.1,0.1,0.2,0.2,0.4c0,0.2,0,0.5-0.1,0.7
		s-0.2,0.3-0.4,0.4c-0.1,0-0.2,0-0.3,0s-0.2-0.1-0.4-0.1c-1-0.5-1.9-0.6-2.6-0.5c-0.8,0.2-1.4,0.7-1.7,1.5s-0.4,1.9-0.1,3.3
		c0.2-0.5,0.5-1,0.9-1.4s1-0.6,1.6-0.8c0.7-0.1,1.3-0.1,1.9,0.1c0.6,0.2,1.1,0.6,1.5,1.1s0.7,1.1,0.8,1.8s0.1,1.4-0.1,2.1
		c-0.2,0.7-0.6,1.2-1.1,1.6c-0.5,0.4-1.2,0.7-1.9,0.9C333.478,548.089,332.178,547.789,331.278,546.99z M332.278,542.789
		c-0.3,0.5-0.4,1-0.3,1.6c0.1,0.6,0.4,1.1,0.9,1.4c0.5,0.3,1,0.4,1.6,0.3c0.6-0.1,1-0.4,1.3-0.9s0.4-1,0.2-1.6s-0.4-1.1-0.8-1.4
		s-1-0.4-1.6-0.3C333.078,541.99,332.578,542.289,332.278,542.789z"/>
</g>
<g>
	<path class="st0" d="M196.678,515.19l-12.2,32.5c30.4,10.7,62.7,16.1,95.5,15.6l-0.2-34.3
		C251.378,529.289,223.478,524.589,196.678,515.19z"/>
	<g>
		<path class="st0" d="M199.378,509.389c26,9.1,53.1,13.6,80.6,13.4l-0.5-74.7c-18.4,0-36.3-3-53.6-8.9L199.378,509.389z"/>
	</g>
	<path class="st1" d="M237.478,538.089c0.1-0.6,0.5-0.8,1.1-0.7l5.6,0.9c0.7,0.1,1,0.4,0.9,1s-0.5,0.8-1.1,0.7l-1.7-0.3l-1.2,7.6
		l1.7-0.7c0.2-0.1,0.3-0.1,0.4-0.1c0.2,0,0.4,0.2,0.5,0.4s0.2,0.5,0.1,0.7c0,0.3-0.2,0.5-0.5,0.7l-2.8,1.2c-0.4,0.1-0.7,0.2-1,0.2
		s-0.5-0.2-0.7-0.4s-0.2-0.5-0.2-0.8l1.4-9l-1.7-0.3C237.678,538.99,237.378,538.69,237.478,538.089z"/>
	<path class="st1" d="M234.978,538.19c0.5,1.2,0.6,2.7,0.2,4.6c-0.4,1.9-1,3.3-1.9,4.2s-2.1,1.2-3.4,0.9s-2.3-1-2.8-2.1
		c-0.5-1.2-0.6-2.7-0.2-4.6c0.4-1.9,1-3.3,2-4.2c0.9-0.9,2.1-1.2,3.4-0.9S234.478,536.99,234.978,538.19z M229.978,538.39
		c-0.5,0.6-0.9,1.7-1.1,3.2c-0.3,1.5-0.3,2.6-0.1,3.4c0.2,0.7,0.7,1.2,1.4,1.3s1.4-0.1,1.8-0.7c0.5-0.6,0.9-1.7,1.1-3.2
		s0.3-2.6,0.1-3.4s-0.7-1.2-1.4-1.3S230.478,537.789,229.978,538.39z"/>
</g>
<g>
	<path class="st0" d="M120.778,469.689l-23,25.9c24.6,21.4,52.7,38,82.8,49.4l12.2-32.4
		C166.378,502.389,142.178,487.989,120.778,469.689z"/>
	<g>
		<path class="st0" d="M123.078,465.489c20.8,17.8,44.3,31.8,70,41.6l26.5-70.3c-17-6.6-32.6-15.9-46.5-27.7L123.078,465.489z"/>
	</g>
	<path class="st1" d="M147.478,504.389c0.3-0.5,0.7-0.6,1.3-0.3l4.9,2.9c0.6,0.3,0.7,0.8,0.4,1.3s-0.7,0.6-1.3,0.2l-1.5-0.9
		l-3.9,6.6h1.9c0.2,0,0.3,0,0.4,0.1c0.2,0.1,0.3,0.3,0.4,0.6s0,0.5-0.1,0.7c-0.2,0.3-0.4,0.4-0.8,0.4l-3.1,0.1c-0.4,0-0.7-0.1-1-0.2
		c-0.3-0.2-0.4-0.4-0.5-0.6c-0.1-0.3,0-0.5,0.2-0.8l4.6-7.8l-1.5-0.9C147.378,505.289,147.178,504.889,147.478,504.389z"/>
	<path class="st1" d="M139.078,499.089c0.3-0.5,0.8-0.6,1.3-0.2l4.8,3c0.6,0.4,0.7,0.8,0.4,1.3s-0.7,0.5-1.3,0.2l-1.5-0.9l-4.1,6.4
		h1.9c0.2,0,0.3,0,0.4,0.1c0.2,0.1,0.3,0.3,0.3,0.6s0,0.5-0.2,0.7c-0.2,0.3-0.4,0.4-0.8,0.4h-3.1c-0.4,0-0.7-0.1-1-0.3
		s-0.4-0.4-0.5-0.6c-0.1-0.3,0-0.5,0.2-0.8l4.9-7.7l-1.5-0.9C138.878,499.989,138.778,499.489,139.078,499.089z"/>
</g>
<g>
	<path class="st0" d="M63.778,400.789l-30.3,15.9c15.4,29.5,35.4,55.1,58.7,76.3l23-25.9
		C94.178,448.089,76.978,425.889,63.778,400.789z"/>
	<g>
		<path class="st0" d="M68.278,396.689c12.8,24.3,29.5,45.9,49.8,64.3l50-56.3c-13.4-12.3-24.5-26.7-33.1-42.8L68.278,396.689z"/>
	</g>
	<path class="st1" d="M78.678,443.889c0.5-0.4,0.9-0.3,1.3,0.2l3.6,4.4c0.4,0.5,0.4,1,0,1.4s-0.9,0.3-1.3-0.2l-1.1-1.3l-5.9,4.9
		l1.8,0.6c0.2,0.1,0.3,0.1,0.4,0.2c0.1,0.2,0.2,0.4,0.1,0.7c-0.1,0.3-0.2,0.5-0.4,0.6c-0.3,0.2-0.5,0.3-0.9,0.1l-2.9-1
		c-0.4-0.1-0.6-0.3-0.8-0.5s-0.3-0.5-0.3-0.8s0.2-0.5,0.4-0.7l7-5.8l-1.1-1.4C78.278,444.689,78.278,444.189,78.678,443.889z"/>
	<path class="st1" d="M72.678,435.989c0.5-0.4,0.9-0.3,1.3,0.3l3.9,5.1c0.2,0.2,0.2,0.5,0.2,0.7s-0.2,0.4-0.4,0.6
		c-0.3,0.2-0.6,0.3-1,0.2l-5.6-0.6c-0.7-0.1-1.3,0-1.8,0c-0.5,0.1-0.9,0.3-1.2,0.5c-0.4,0.3-0.6,0.7-0.7,1.1c0,0.4,0.1,0.8,0.4,1.3
		c0.3,0.4,0.6,0.7,1,0.9s0.8,0.4,1.4,0.6c0.1,0,0.2,0.1,0.4,0.1c0.1,0.1,0.2,0.1,0.3,0.2c0.1,0.2,0.1,0.3,0.1,0.6
		c-0.1,0.2-0.2,0.4-0.4,0.6c-0.1,0.1-0.3,0.2-0.4,0.2c-0.1,0-0.3,0-0.5,0c-0.6-0.2-1.2-0.4-1.8-0.8c-0.6-0.4-1.1-0.8-1.5-1.4
		c-0.7-0.9-1-1.8-1-2.7s0.5-1.6,1.2-2.2c0.5-0.4,1.1-0.7,1.8-0.8s1.5-0.1,2.5,0l4.2,0.4l-2.7-3.5
		C72.178,436.789,72.178,436.289,72.678,435.989z"/>
</g>
<g>
	<path class="st0" d="M1.778,317.089c2.7,24.2,8.6,48.4,18,72c2.7,6.8,5.8,13.7,9.2,20.5l30.4-15.8c-2.9-5.9-5.5-11.8-7.9-17.7
		c-8.1-20.2-13.4-41.4-15.9-62.9L1.778,317.089z"/>
	<g>
		<path class="st0" d="M42.278,312.389c2.4,20.9,7.6,41.5,15.4,61.1c2.3,5.7,4.8,11.5,7.6,17.1l66.7-34.7c-1.8-3.6-3.4-7.3-4.8-10.9
			c-5.3-13.2-8.8-27-10.5-41.1L42.278,312.389z"/>
	</g>
	<path class="st1" d="M33.778,358.989c0.6-0.2,0.9,0,1.2,0.7l1.8,5.4c0.2,0.6,0,1.1-0.5,1.2c-0.5,0.2-0.9-0.1-1.1-0.7l-0.5-1.7
		l-7.3,2.4l1.4,1.2c0.1,0.1,0.2,0.2,0.3,0.4s0,0.4-0.1,0.7c-0.1,0.2-0.3,0.4-0.6,0.4c-0.3,0.1-0.6,0-0.9-0.2l-2.3-2
		c-0.3-0.3-0.5-0.5-0.6-0.8s-0.1-0.6,0-0.8s0.3-0.4,0.7-0.5l8.6-2.8l-0.5-1.7C33.078,359.489,33.278,359.089,33.778,358.989z"/>
	<path class="st1" d="M27.278,351.389c0.4-0.5,0.9-0.8,1.6-1c1-0.3,1.9-0.1,2.6,0.4c0.8,0.6,1.4,1.4,1.7,2.7
		c0.2,0.7,0.3,1.4,0.3,2.1s-0.2,1.3-0.4,1.9c-0.1,0.3-0.4,0.5-0.7,0.6c-0.2,0.1-0.5,0.1-0.7,0s-0.3-0.2-0.4-0.4c0-0.1,0-0.2,0-0.3
		s0-0.2,0.1-0.4c0.2-0.5,0.3-1,0.3-1.5s0-0.9-0.1-1.4c-0.2-0.7-0.5-1.2-0.9-1.5s-0.9-0.3-1.4-0.1c-0.6,0.2-0.9,0.5-1.1,0.9
		c-0.2,0.4-0.1,1,0.1,1.8l0.3,0.9c0.1,0.2,0,0.5-0.1,0.6c-0.1,0.2-0.3,0.3-0.5,0.4c-0.2,0.1-0.4,0.1-0.6,0c-0.2-0.1-0.3-0.3-0.4-0.5
		l-0.2-0.6c-0.4-1.5-1.2-2-2.3-1.7c-0.5,0.1-0.9,0.4-1.1,0.8c-0.2,0.4-0.2,0.9-0.1,1.4c0.2,0.8,0.8,1.5,1.7,2.2
		c0.1,0.1,0.2,0.2,0.3,0.3s0.1,0.2,0.1,0.3c0.1,0.2,0,0.4-0.1,0.5c-0.1,0.2-0.3,0.3-0.5,0.4c-0.2,0-0.3,0.1-0.4,0
		c-0.1,0-0.3-0.1-0.4-0.2c-0.5-0.3-1-0.8-1.4-1.4c-0.4-0.6-0.7-1.2-0.9-1.8c-0.3-1.1-0.3-2.1,0.1-2.9c0.4-0.8,1-1.4,1.9-1.6
		c0.6-0.2,1.2-0.2,1.8,0s1,0.5,1.4,1C26.678,352.489,26.878,351.889,27.278,351.389z"/>
</g>
<g>
	<path class="st0" d="M34.878,306.489c-2.5-28.2-0.1-56.5,7.2-84.2l-32.6-8.6c-8.3,31.2-11.3,63.9-8.4,96.6L34.878,306.489z"/>
	<g>
		<path class="st0" d="M48.578,223.989c-7,26.9-9.4,54.3-7,81.7l74.4-8.5c-1.5-18.2,0.1-36.5,4.6-54.3L48.578,223.989z"/>
	</g>
	<path class="st1" d="M22.878,263.489c0.6,0,0.9,0.4,0.8,1.1l-0.3,5.7c0,0.7-0.4,1-0.9,1c-0.6,0-0.8-0.4-0.8-1.1l0.1-1.7l-7.6-0.4
		l0.9,1.7c0.1,0.2,0.1,0.3,0.1,0.4c0,0.2-0.1,0.4-0.3,0.6s-0.4,0.2-0.7,0.2s-0.6-0.2-0.7-0.5l-1.5-2.7c-0.2-0.3-0.3-0.7-0.2-1
		c0-0.3,0.1-0.6,0.3-0.7c0.2-0.2,0.5-0.3,0.8-0.2l9.1,0.5l0.1-1.8C21.978,263.789,22.278,263.489,22.878,263.489z"/>
	<path class="st1" d="M20.978,253.089c0.2-0.2,0.4-0.2,0.6-0.2c0.6,0.1,0.8,0.4,0.7,1.1l-0.1,0.9l1.3,0.1c0.3,0,0.6,0.2,0.8,0.4
		s0.2,0.5,0.2,0.8c0,0.3-0.1,0.6-0.4,0.7s-0.5,0.3-0.8,0.2l-1.3-0.1l-0.4,4.4c0,0.3-0.1,0.5-0.3,0.7s-0.4,0.2-0.7,0.2
		s-0.5-0.1-0.7-0.3l-6.9-5.8c-0.1-0.1-0.3-0.3-0.3-0.5c-0.1-0.2-0.1-0.4-0.1-0.5c0-0.3,0.1-0.5,0.4-0.7c0.2-0.2,0.5-0.3,0.8-0.2
		l6.8,0.6l0.1-0.9C20.678,253.489,20.778,253.289,20.978,253.089z M20.078,259.889l0.3-3.1l-4.5-0.4L20.078,259.889z"/>
</g>
<g>
	<path class="st0" d="M80.978,139.489l-27.1-19.8c-19.1,26.6-33.5,56.3-42.5,87.6l32.6,8.6
		C51.878,188.389,64.278,162.789,80.978,139.489z"/>
	<g>
		<path class="st0" d="M50.378,217.589l72,18.9c5.3-17.7,13.3-34.2,23.9-49.3l-59.9-43.7
			C70.178,166.089,58.078,190.989,50.378,217.589z"/>
	</g>
	<path class="st1" d="M45.378,174.689c0.5,0.2,0.7,0.7,0.4,1.3l-2.3,5.2c-0.3,0.6-0.7,0.8-1.2,0.6c-0.5-0.2-0.6-0.7-0.4-1.3l0.7-1.6
		l-7-3l0.3,1.9c0,0.2,0,0.3,0,0.4c-0.1,0.2-0.3,0.4-0.5,0.4s-0.5,0.1-0.7,0c-0.3-0.1-0.5-0.4-0.5-0.7l-0.4-3c-0.1-0.4,0-0.7,0.1-1
		s0.3-0.5,0.6-0.6c0.2-0.1,0.5-0.1,0.8,0.1l8.3,3.6l0.7-1.6C44.478,174.689,44.878,174.489,45.378,174.689z"/>
	<path class="st1" d="M43.378,164.589c0.5-0.4,1.1-0.6,1.8-0.6c0.6,0,1.3,0.1,2,0.4s1.2,0.8,1.6,1.4c0.4,0.6,0.6,1.2,0.6,1.9
		c0,0.7-0.2,1.5-0.5,2.2c-0.3,0.6-0.7,1.2-1.2,1.7s-1,0.9-1.6,1.1c-0.3,0.1-0.6,0.1-0.9,0c-0.2-0.1-0.4-0.3-0.5-0.5s-0.1-0.4,0-0.6
		c0-0.1,0.1-0.2,0.2-0.3c0.1-0.1,0.2-0.2,0.3-0.2c0.5-0.3,0.9-0.6,1.2-0.9s0.6-0.7,0.8-1.1c0.3-0.7,0.4-1.3,0.2-1.8
		s-0.6-0.9-1.2-1.2c-0.6-0.3-1.2-0.3-1.7-0.1c-0.5,0.2-0.9,0.6-1.2,1.2c-0.2,0.4-0.3,0.8-0.3,1.1c0,0.4,0,0.8,0.1,1.2
		c0,0.3,0,0.5-0.1,0.7s-0.2,0.3-0.4,0.4s-0.4,0.1-0.6,0l-4.7-2.3c-0.3-0.1-0.5-0.3-0.5-0.6c-0.1-0.2-0.1-0.5,0.1-0.8l2.4-5
		c0.3-0.6,0.7-0.8,1.2-0.5s0.6,0.7,0.3,1.3l-1.9,4l2.9,1.4c-0.1-0.7,0-1.4,0.4-2.1C42.378,165.489,42.778,164.989,43.378,164.589z"
		/>
</g>
<g>
	<path class="st0" d="M146.978,75.889l-18.1-28.5c-27.8,18.3-51.7,41.1-71.1,66.8l27.1,19.8
		C102.178,111.189,123.078,91.689,146.978,75.889z"/>
	<g>
		<path class="st0" d="M90.378,138.089l59.9,43.7c11.2-14.7,24.7-27.3,40-37.6l-39.8-62.6
			C127.378,96.889,107.178,115.889,90.378,138.089z"/>
	</g>
	<path class="st1" d="M100.678,96.089c0.4,0.4,0.4,0.9-0.1,1.3l-4,4c-0.5,0.5-0.9,0.5-1.4,0.1c-0.4-0.4-0.4-0.8,0.1-1.3l1.2-1.2
		l-5.4-5.4l-0.4,1.8c0,0.2-0.1,0.3-0.2,0.4c-0.2,0.2-0.4,0.2-0.6,0.2c-0.3,0-0.5-0.1-0.6-0.3c-0.2-0.2-0.3-0.5-0.2-0.8l0.7-3
		c0.1-0.4,0.2-0.7,0.5-0.9c0.2-0.2,0.5-0.3,0.7-0.3c0.3,0,0.5,0.1,0.8,0.4l6.4,6.4l1.2-1.2
		C99.778,95.689,100.278,95.689,100.678,96.089z"/>
	<path class="st1" d="M102.378,85.989c0.6-0.1,1.2-0.1,1.9,0.1c0.6,0.2,1.2,0.6,1.7,1.1c0.5,0.6,0.9,1.2,1,1.8
		c0.2,0.7,0.1,1.3-0.1,2c-0.2,0.7-0.6,1.2-1.1,1.8c-1.1,1-2.3,1.4-3.6,1.3s-2.6-1-3.8-2.3c-0.9-0.9-1.5-1.9-1.9-2.8
		s-0.5-1.8-0.3-2.7c0.2-0.9,0.6-1.6,1.3-2.3c0.5-0.4,1-0.8,1.6-1.1c0.6-0.3,1.2-0.4,1.8-0.4c0.2,0,0.3,0,0.5,0.1
		c0.1,0,0.2,0.1,0.4,0.2c0.2,0.2,0.3,0.4,0.3,0.6s0,0.4-0.2,0.5c-0.1,0.1-0.2,0.1-0.3,0.2s-0.2,0.1-0.4,0.1c-1.1,0.2-1.9,0.5-2.5,1
		c-0.6,0.6-0.8,1.3-0.6,2.1c0.2,0.9,0.7,1.8,1.6,2.8c-0.2-0.5-0.1-1.1,0-1.7c0.2-0.6,0.5-1.1,1-1.5
		C101.178,86.389,101.778,86.089,102.378,85.989z M105.178,90.089c0-0.5-0.2-1-0.7-1.5s-0.9-0.7-1.5-0.8c-0.5,0-1,0.2-1.5,0.6
		s-0.7,0.9-0.7,1.5s0.2,1.1,0.6,1.5c0.4,0.5,0.9,0.7,1.5,0.8c0.6,0,1.1-0.2,1.5-0.6C104.878,91.189,105.178,90.689,105.178,90.089z"
		/>
</g>
<g>
	<path class="st0" d="M190.478,52.889c13.1-5.4,26.8-9.7,40.6-12.8l-6.5-33.3c-15.7,3.5-31.3,8.4-46.5,14.6
		c-15.4,6.3-29.9,13.8-43.6,22.3l18.1,28.5C164.678,64.789,177.378,58.289,190.478,52.889z"/>
	<g>
		<path class="st0" d="M156.178,77.989l39.8,62.6c7.8-4.8,16-9,24.5-12.4c8.5-3.5,17.3-6.3,26.2-8.3l-14.3-73.1
			c-13.4,3-26.6,7.2-39.3,12.4C180.278,64.389,167.878,70.689,156.178,77.989z"/>
	</g>
	<path class="st1" d="M184.778,41.089c0.2,0.5,0,0.9-0.6,1.2l-5.2,2.2c-0.6,0.3-1.1,0.1-1.3-0.4s0-0.9,0.6-1.2l1.6-0.7l-3-7
		l-1.1,1.5c-0.1,0.1-0.2,0.2-0.3,0.3c-0.2,0.1-0.4,0.1-0.7,0c-0.2-0.1-0.4-0.3-0.5-0.5c-0.1-0.3-0.1-0.6,0.1-0.9l1.8-2.5
		c0.2-0.3,0.5-0.5,0.8-0.7c0.3-0.1,0.6-0.1,0.8,0s0.4,0.3,0.6,0.6l3.5,8.4l1.6-0.7C184.078,40.489,184.578,40.589,184.778,41.089z"
		/>
	<path class="st1" d="M189.978,27.689c0.2,0.1,0.4,0.3,0.4,0.5s0.1,0.5,0.1,0.8l-1.6,11c-0.1,0.4-0.3,0.7-0.7,0.9
		c-0.3,0.1-0.5,0.1-0.8,0s-0.4-0.3-0.5-0.5s-0.1-0.4,0-0.6l1.4-9.8l-4.7,1.8c-0.6,0.2-1,0.1-1.2-0.4c-0.2-0.6,0-0.9,0.6-1.2l6.3-2.4
		C189.578,27.589,189.778,27.589,189.978,27.689z"/>
</g>
<g>
	<path class="st0" d="M387.178,206.089c-14.9-21.3-35.6-37.5-59.8-46.8c-1.8-0.7-4.4,6-2.6,6.7c22.9,8.8,42.4,24.1,56.5,44.2
		c14.4,20.6,22,44.8,22,70.1c0,67.5-54.9,122.4-122.4,122.4s-122.4-54.9-122.4-122.4s55-122.4,122.5-122.4c8.4,0,20.9,1.6,28.9,3.9
		c25.7,7.6,16.2,3,16.6,1c0-0.1,1-3.1,1-3.1s-1.2-1.3-20.7-6.2c-7.4-1.9-18.1-2.8-25.8-2.8c-34.6,0-67.2,13.5-91.6,38
		c-24.5,24.5-38,57-38,91.6c0,34.6,13.5,67.2,38,91.6c24.5,24.5,57,38,91.6,38s67.2-13.5,91.6-38c24.5-24.5,38-57,38-91.6
		C410.578,253.489,402.478,227.889,387.178,206.089z"/>
	<path class="st2" d="M174.378,280.489c0-59.5,48.2-107.7,107.7-107.7"/>
</g>
<g>
	<path class="st0" d="M322.078,36.989l6-33.7c-32.1-5-64.8-4.3-96.9,2.1l6.5,33.3C265.678,33.289,293.978,32.689,322.078,36.989z"/>
	<path class="st1" d="M282.378,22.289c0,0.6-0.3,0.9-1,0.9l-5.7,0.1c-0.7,0-1-0.3-1-0.9s0.3-0.9,1-0.9h1.7l-0.1-7.6l-1.6,1
		c-0.2,0.1-0.3,0.1-0.4,0.1c-0.2,0-0.4-0.1-0.6-0.3c-0.2-0.2-0.2-0.4-0.3-0.7c0-0.3,0.1-0.6,0.4-0.8l2.6-1.7c0.3-0.2,0.6-0.3,1-0.3
		c0.3,0,0.6,0.1,0.8,0.3c0.2,0.2,0.3,0.4,0.3,0.8l0.1,9.1h1.8C281.978,21.389,282.378,21.689,282.378,22.289z"/>
	<path class="st0" d="M280.578,114.989c9.3,0,18.4,0.8,27.3,2.2l13.4-71.7c-27.1-4.5-54.5-4.2-81.5,0.7l13.1,71.1
		C261.778,115.789,271.078,114.989,280.578,114.989z"/>
</g>
</svg>