<!-- Generator: Adobe Illustrator 22.1.0, SVG Export Plug-In  -->
<svg version="1.1"
	 xmlns="http://www.w3.org/2000/svg" xmlns:xlink="http://www.w3.org/1999/xlink" xmlns:a="http://ns.adobe.com/AdobeSVGViewerExtensions/3.0/"
	 x="0px" y="0px" width="342.151px" height="409.623px" viewBox="0 0 342.151 409.623"
	 style="enable-background:new 0 0 342.151 409.623;" xml:space="preserve">
<style type="text/css">
	.st0{fill:#CCCBCB;}
	.st1{fill:#666666;}
</style>
<defs>
</defs>
<path class="st0" d="M132.074,394.273L132.074,394.273c-0.579,3.071-0.507,9.124-0.042,15.35
	C131.567,403.398,131.494,397.344,132.074,394.273z"/>
<g>
	<path class="st1" d="M282.174,178.231c-0.211,1.88-0.425,3.76-0.633,5.64c-1.265,11.415-4.315,22.344-9.047,32.797
		c-5.142,11.357-11.999,21.567-20.577,30.634c-8.467,8.95-18.149,16.269-29.034,22.02c-11.314,5.978-23.32,9.825-35.972,11.649
		c-7.653,1.103-15.345,1.299-23.061,0.817c-13.01-0.813-25.465-3.883-37.388-9.129c-10.29-4.528-19.659-10.503-28.143-17.884
		c-11.623-10.112-20.734-22.13-27.383-36.011c-4.957-10.35-8.195-21.222-9.746-32.6c-0.739-5.42-1.148-10.863-1.064-16.325
		c0.235-15.129,3.266-29.669,9.388-43.54c6.171-13.98,14.84-26.194,26.007-36.608c10.992-10.251,23.587-17.93,37.703-23.108
		c8.961-3.287,18.203-5.364,27.697-6.218c19.089-1.717,37.452,1.219,55.019,8.926c13.734,6.025,25.781,14.495,36.041,25.42
		c14.2,15.121,23.544,32.839,27.906,53.146c1.066,4.966,1.794,9.981,2.108,15.054c0.019,0.303,0.117,0.602,0.178,0.903
		C282.174,168.619,282.174,173.425,282.174,178.231z M121.196,152.665c-0.577-0.259-0.595-0.685-0.726-1.027
		c-1.398-3.655-2.803-7.307-4.163-10.975c-0.296-0.798-0.74-1.088-1.572-0.957c-2.174,0.343-4.242,0.997-6.03,2.293
		c-5.971,4.328-9.945,10.028-11.591,17.26c-0.966,4.241-1.272,8.574-1.608,12.895c-0.228,2.932-0.409,5.873-0.456,8.812
		c-0.033,2.092,0.786,3.871,2.725,4.928c3.799,2.071,8.212-0.09,8.756-4.437c0.48-3.836,0.634-7.712,0.979-11.565
		c0.324-3.621,0.473-7.287,2.126-10.639c0.276-0.561,0.201-1.612,1.196-1.427c0.965,0.179,0.633,1.12,0.634,1.753
		c0.021,8.448,0.01,16.896,0.02,25.344c0.001,0.935-0.097,1.853-0.229,2.775c-0.841,5.863-1.681,11.726-2.505,17.592
		c-1.379,9.814-2.766,19.627-4.104,29.447c-0.328,2.411-0.912,4.803-0.787,7.263c0.205,4.044,3.942,6.987,7.89,6.231
		c3.088-0.591,5.249-2.954,5.736-6.361c2.114-14.793,4.203-29.59,6.329-44.381c0.186-1.295,0.203-2.642,0.701-3.936
		c0.516,0.318,0.478,0.736,0.531,1.107c0.334,2.338,0.66,4.677,0.987,7.015c1.677,11.962,3.336,23.926,5.045,35.882
		c0.327,2.288,0.354,4.647,1.357,6.806c1.342,2.888,3.756,4.15,7.358,3.838c2.575-0.222,4.772-2.205,5.459-4.992
		c0.319-1.295,0.225-2.618,0.041-3.928c-0.736-5.252-1.474-10.504-2.22-15.755c-1.138-8.011-2.219-16.03-3.446-24.027
		c-1.004-6.55-1.995-13.093-1.85-19.745c0.143-6.581,0.305-13.162,0.474-19.743c0.031-1.198,0.117-2.397,0.217-3.592
		c0.039-0.458,0.131-0.959,0.66-1.137c0.524-0.176,0.77,0.266,1.037,0.574c0.559,0.643,1.077,1.321,1.626,1.973
		c3.55,4.216,7.856,7.032,13.49,7.634c4.658,0.498,9.196-0.006,13.692-1.165c2.938-0.757,4.233-2.658,4.129-5.987
		c-0.085-2.694-1.74-4.66-4.445-5.186c-2.41-0.469-4.791,0.119-7.148,0.436c-4.269,0.573-8.118,0.367-11.19-3.295
		c-3.906-4.656-8.801-7.994-14.523-10.125c-2.082-0.775-2.681-0.573-3.464,1.558c-1.216,3.309-2.46,6.607-3.704,9.905
		c-0.138,0.365-0.208,0.8-0.761,1.126c-0.537-2.22-1.023-4.323-1.561-6.412c-0.26-1.011-0.142-1.869,0.521-2.72
		c0.689-0.885,0.63-2.884,0.014-3.502c-0.666-0.668-3.317-0.915-4.12-0.384c-0.717,0.474-1.006,2.231-0.54,3.353
		c0.134,0.321,0.332,0.616,0.456,0.94c0.123,0.321,0.293,0.672,0.267,0.996C122.696,147.626,121.831,150.094,121.196,152.665z
		 M201.717,118.426c0-0.003,0-0.007,0-0.01c11.044,0,22.087-0.011,33.131,0.006c3.979,0.006,5.032,1.058,5.035,5.052
		c0.014,17.903,0.014,35.806,0,53.709c-0.003,4.016-1.023,4.991-5.056,4.992c-22.088,0.001-44.176,0.002-66.264-0.005
		c-0.656,0-1.318-0.041-1.965-0.142c-1.8-0.281-2.606-1.191-2.843-2.993c-0.238-1.816-0.157-3.636-0.16-5.455
		c-0.001-0.764-0.25-1.143-1.075-1.129c-1.859,0.032-3.72,0.028-5.58,0.002c-0.758-0.01-1.032,0.319-1.021,1.048
		c0.03,1.976-0.07,3.959,0.061,5.927c0.179,2.693,1.063,5.133,2.991,7.134c2.371,2.46,5.327,3.311,8.634,3.308
		c9.145-0.007,18.29-0.002,27.436-0.002c2.94,0,2.95,0,2.942,2.939c-0.031,10.615,0.034,21.229-0.103,31.845
		c-0.032,2.443-0.85,4.107-2.691,5.541c-3.331,2.595-6.594,5.276-9.883,7.924c-1.176,0.947-2.409,1.843-3.279,3.106
		c-1.091,1.583-1.033,3.144,0.116,4.489c1.243,1.455,2.673,1.741,4.478,0.833c0.618-0.311,1.211-0.7,1.754-1.13
		c4.073-3.219,8.154-6.429,12.175-9.713c0.878-0.717,1.444-0.679,2.281,0.011c3.227,2.662,6.502,5.267,9.769,7.881
		c1.149,0.92,2.284,1.866,3.499,2.692c1.761,1.196,3.773,0.989,4.956-0.399c1.476-1.732,1.433-3.636-0.149-5.321
		c-0.396-0.422-0.845-0.797-1.295-1.163c-3.968-3.225-7.92-6.471-11.924-9.65c-1.637-1.299-2.272-2.951-2.272-4.968
		c0.003-11.238,0.004-22.475-0.038-33.713c-0.004-1.141,0.403-1.466,1.488-1.454c4.107,0.044,8.215,0.021,12.323,0.016
		c5.967-0.007,11.937,0.068,17.902-0.058c5.278-0.111,9.907-4.537,10.178-9.535c0.12-2.203,0.193-4.41,0.195-6.616
		c0.016-15.539,0.016-31.078,0-46.617c-0.002-2.167-0.115-4.334-0.194-6.5c-0.034-0.936-0.255-1.843-0.576-2.718
		c-1.586-4.315-5.521-6.977-10.391-6.984c-9.688-0.014-19.375-0.022-29.063,0.017c-1.182,0.005-1.589-0.445-1.592-1.552
		c-0.004-1.197,0.073-2.399-0.196-3.588c-0.463-2.044-1.822-2.94-4.28-2.773c-2.073,0.14-3.215,1.242-3.368,3.276
		c-0.088,1.158-0.186,2.317-0.203,3.477c-0.012,0.81-0.374,1.118-1.138,1.088c-0.387-0.016-0.775,0.001-1.162,0.001
		c-9.61,0.01-19.22-0.007-28.83,0.04c-5.394,0.026-10.072,4.236-10.459,9.461c-0.183,2.468-0.094,4.957-0.094,7.437
		c0,5.657,0.012,11.315,0.04,16.972c0.008,1.591,0.781,2.347,2.36,2.351c1.277,0.003,2.551-0.057,3.828-0.136
		c1.172-0.073,1.476-0.528,1.468-1.648c-0.044-6.781-0.032-13.563-0.012-20.344c0.003-1.12,0.091-2.245,0.224-3.358
		c0.174-1.457,0.97-2.4,2.453-2.728c0.614-0.136,1.226-0.172,1.845-0.172C179.319,118.426,190.518,118.426,201.717,118.426z
		 M124.806,107.301c-7.271-0.239-14.103,5.505-14.127,13.716c-0.023,7.794,6.14,13.997,13.87,14.122
		c7.453,0.121,13.698-6.156,13.935-13.517C138.75,113.359,132.098,107.127,124.806,107.301z M201.443,166.549
		c0.506,0,0.778-0.007,1.048,0.001c4.475,0.139,4.402-0.684,4.709-4.552c0.115-1.444,0.638-2.495,1.715-3.376
		c3.516-2.874,4.854-6.6,4.163-11.044c-0.774-4.98-5.154-9.018-10.22-9.512c-5.347-0.521-10.371,2.575-12.119,7.468
		c-1.708,4.78-0.389,9.782,3.519,13.012c1.294,1.07,2.006,2.315,1.914,4.003c-0.04,0.739,0.084,1.464,0.238,2.187
		c0.198,0.929,0.711,1.488,1.68,1.676C199.285,166.642,200.482,166.52,201.443,166.549z M187.34,133.856
		c-0.722-0.009-1.286,0.296-1.633,0.92c-0.41,0.738-0.408,1.517,0.112,2.189c0.927,1.197,1.995,2.272,3.193,3.198
		c0.824,0.637,1.722,0.746,2.517-0.055c0.753-0.758,0.817-1.65,0.241-2.543c-0.872-1.351-2.004-2.455-3.343-3.344
		C188.1,134.005,187.745,133.854,187.34,133.856z M215.718,134.096c-0.503-0.049-0.978,0.187-1.433,0.507
		c-1.028,0.721-1.836,1.656-2.592,2.641c-0.774,1.008-0.787,1.844-0.068,2.611c0.738,0.787,1.918,0.925,2.856,0.279
		c1.23-0.847,2.203-1.962,2.956-3.232C218.271,135.493,217.422,134.113,215.718,134.096z M219.711,152.162
		c0.001-0.012,0.001-0.024,0.002-0.036c0.58,0,1.165,0.043,1.74-0.01c0.941-0.087,2.205-1.08,2.208-1.805
		c0.004-0.923-0.488-1.704-1.351-1.979c-1.614-0.514-3.311-0.547-4.907,0.01c-0.962,0.336-1.484,1.264-1.409,2.321
		c0.072,1.018,0.927,1.257,1.753,1.38C218.392,152.138,219.055,152.126,219.711,152.162z M199.667,131.607c-0.003,0-0.006,0-0.008,0
		c0,0.58-0.03,1.161,0.006,1.738c0.086,1.384,0.935,2.36,1.962,2.298c1.109-0.068,2.224-1.413,2.085-2.653
		c-0.113-1.004-0.098-2.004-0.137-3.007c-0.054-1.402-0.592-1.959-1.87-1.978c-1.303-0.019-1.96,0.609-2.034,1.979
		C199.643,130.524,199.667,131.066,199.667,131.607z M183.724,148.018c-0.77,0.025-1.554-0.073-2.306,0.149
		c-0.868,0.256-1.542,0.79-1.718,1.704c-0.164,0.856,0.5,1.304,1.087,1.766c1.069,0.84,2.315,0.366,3.478,0.504
		c1.065,0.126,1.879-0.382,2.574-1.086c1.014-1.028,0.671-2.344-0.7-2.83C185.352,147.945,184.529,148.092,183.724,148.018z"/>
	<g>
		<path class="st1" d="M150.001,342.151c-9.156-2.114-18.41-3.881-27.446-6.425c-12.457-3.507-10.07-2.176-6.424-12.249
			c4.276-11.813,8.95-23.482,13.138-35.325c1.442-4.078,3.065-5.499,7.56-3.972c8.808,2.992,18.001,4.533,27.315,4.585
			c4.324,0.024,5.674,1.529,5.634,5.782c-0.15,15.866,0.013,31.735,0.058,47.603C163.224,342.151,156.613,342.151,150.001,342.151z"
			/>
		<path class="st1" d="M190.91,0c8.327,3.058,8.293,3.051,6.57,12.653c-2.223,12.388-4.447,24.776-6.527,37.188
			c-0.513,3.064-1.328,5.053-5.046,4.449c-9.877-1.606-19.778-1.145-29.606,0.371c-3.684,0.568-5.165-0.532-5.818-4.16
			c-2.56-14.213-5.196-28.416-8.159-42.549c-0.897-4.279,0.555-5.295,4.408-5.934c3.149-0.522,6.652,0.155,9.467-2.017
			C167.77,0,179.34,0,190.91,0z"/>
		<path class="st1" d="M0,153.72c3.093-5.76,2.624-12.341,4.176-18.468c1.028-4.057,2.447-5.299,6.765-4.075
			c13.487,3.825,27.068,7.336,40.684,10.677c3.885,0.953,5.048,2.605,4.117,6.457c-2.294,9.485-2.823,19.16-2.484,28.888
			c0.093,2.658-0.046,4.794-3.602,5.177c-15.988,1.722-31.954,3.64-47.934,5.439c-0.544,0.061-1.146-0.404-1.721-0.623
			C0,176.034,0,164.877,0,153.72z"/>
		<path class="st1" d="M342.151,180.993c-15.841-1.21-31.675-2.541-47.529-3.546c-3.991-0.253-6.049-1.117-5.772-5.67
			c0.593-9.742-0.578-19.396-2.884-28.853c-0.832-3.411,0.03-4.799,3.303-5.774c14.038-4.183,28.035-8.51,41.995-12.943
			c3.684-1.17,5.271-0.062,5.976,3.613c1.504,7.833,3.258,15.617,4.91,23.421C342.151,161.158,342.151,171.076,342.151,180.993z"/>
		<path class="st1" d="M174.795,342.151c-0.097-15.692-0.086-31.385-0.364-47.074c-0.076-4.31,1.056-6.228,5.748-6.589
			c9.481-0.73,18.807-2.705,27.756-6.014c3.236-1.197,4.869-0.487,6.114,2.714c5.239,13.465,10.531,26.912,16.06,40.259
			c1.698,4.097-0.015,5.443-3.493,6.659c-11.737,4.105-23.762,6.934-36.054,8.704c-1.595,0.23-3.357-0.074-4.612,1.341
			C182.233,342.151,178.514,342.151,174.795,342.151z"/>
		<path class="st1" d="M49.624,187.132c2.798-0.58,4.534,0.494,5.105,4.371c1.447,9.839,4.283,19.351,8.48,28.385
			c1.356,2.918,0.712,4.362-2.079,5.79c-13.417,6.864-26.765,13.862-40.089,20.904c-2.535,1.34-3.956,1.109-5.258-1.692
			C8.59,229.416,3.974,213.209,1.482,196.36c-0.373-2.525,0.467-3.842,3.156-4.137C19.411,190.602,34.174,188.891,49.624,187.132z"
			/>
		<path class="st1" d="M125.889,283.88c-0.205,0.613-0.56,1.799-0.995,2.956c-4.931,13.127-9.991,26.208-14.742,39.4
			c-1.41,3.915-3.264,4.521-6.902,2.917c-14.415-6.355-27.967-14.094-40.33-23.918c-3.347-2.66-3.615-4.89-0.732-8.087
			c9.805-10.872,19.482-21.86,29.13-32.872c1.892-2.16,3.469-2.313,5.727-0.501c7.92,6.357,16.557,11.559,25.91,15.559
			C124.664,280.066,126.506,280.821,125.889,283.88z"/>
		<path class="st1" d="M111.073,70.007c-1.761-0.11-2.28-1.623-3.021-2.786c-7.968-12.519-15.825-25.109-23.899-37.559
			c-1.779-2.744-1.49-4.129,1.326-5.758c14.538-8.408,29.883-14.769,46.146-18.987c3.205-0.831,4.776-0.406,5.437,3.194
			c2.717,14.789,5.628,29.543,8.581,44.287c0.437,2.18,0.24,3.639-2.106,4.23c-10.861,2.733-21.102,6.979-30.785,12.592
			C112.22,69.529,111.636,69.75,111.073,70.007z"/>
		<path class="st1" d="M263.191,25.562c1.03,0.6,1.939,1.085,2.804,1.641c13.664,8.776,25.537,19.572,36.208,31.781
			c2.678,3.064,2.426,4.894-0.817,7.354c-11.52,8.739-22.914,17.649-34.191,26.699c-2.933,2.354-4.679,2.181-7.103-0.663
			c-6.325-7.421-13.55-13.946-21.777-19.198c-3.314-2.116-3.237-3.929-1.354-6.975c7.603-12.298,14.98-24.736,22.487-37.095
			C260.346,27.625,260.934,25.637,263.191,25.562z"/>
		<path class="st1" d="M54.049,137.785c-14.112-3.736-28.869-7.638-43.623-11.553c-2.535-0.673-3.129-2.285-2.373-4.722
			c5.114-16.487,12.641-31.789,22.418-46.002c1.535-2.231,3.147-2.144,5.18-0.648c12.133,8.928,24.292,17.819,36.472,26.683
			c2.108,1.534,2.257,3.145,0.866,5.252c-5.829,8.827-10.379,18.272-13.792,28.296C58.1,138.313,57.831,138.221,54.049,137.785z"/>
		<path class="st1" d="M294.683,182.171c15.325,1.031,27.878,1.984,40.445,2.663c4.518,0.244,6.284,1.996,5.588,6.586
			c-2.394,15.797-6.504,31.076-12.791,45.796c-1.641,3.842-3.423,4.273-7.02,2.498c-12.587-6.212-25.25-12.283-38.018-18.112
			c-4.011-1.831-4.39-3.852-2.68-7.632c3.414-7.549,5.427-15.576,6.967-23.713C288.745,181.952,288.755,181.954,294.683,182.171z"/>
		<path class="st1" d="M237.925,327.395c-2.418,0.53-2.633-1.303-3.116-2.509c-5.674-14.178-11.213-28.41-16.962-42.557
			c-1.079-2.655-0.156-3.673,2.061-4.694c9.622-4.428,18.516-10.053,26.509-16.998c2.584-2.245,4.102-1.503,6.114,0.671
			c9.961,10.765,20.029,21.432,30.08,32.113c1.639,1.742,3.14,3.122,0.434,5.467c-13.207,11.444-27.706,20.828-43.643,27.991
			C238.841,327.132,238.237,327.288,237.925,327.395z"/>
		<path class="st1" d="M194.863,51c2.739-14.997,5.491-29.991,8.206-44.992c0.472-2.605,1.868-3.314,4.402-2.801
			c16.485,3.335,32.112,8.981,46.877,17.05c2.853,1.559,3.067,3.273,1.423,5.959c-7.746,12.658-15.422,25.36-22.982,38.129
			c-1.79,3.023-3.633,3.228-6.544,1.635c-8.55-4.677-17.704-7.828-27.172-10.058C196.389,55.29,194.308,54.347,194.863,51z"/>
		<path class="st1" d="M307.493,67.591c1.921-0.157,2.467,1.411,3.241,2.494c9.672,13.534,17.033,28.249,22.513,43.944
			c1.132,3.243,0.383,4.783-2.985,5.776c-14.252,4.202-28.465,8.54-42.633,13.015c-3.058,0.966-4.368,0.332-5.423-2.724
			c-3.384-9.803-8.065-19.001-14.077-27.469c-1.51-2.126-1.392-3.488,0.71-5.111c12.258-9.469,24.44-19.037,36.655-28.562
			C306.142,68.448,306.852,68.025,307.493,67.591z"/>
		<path class="st1" d="M278.167,224.801c0.778,0.301,1.959,0.677,3.07,1.2c12.686,5.977,25.332,12.043,38.061,17.926
			c3.442,1.591,4.05,3.478,2.182,6.745c-8.019,14.026-17.208,27.146-28.593,38.703c-3.118,3.165-5.263,2.876-8.084-0.223
			c-9.574-10.519-19.253-20.946-29.014-31.292c-2.236-2.37-1.982-4.028,0.17-6.225c6.964-7.107,12.785-15.09,17.626-23.788
			C274.494,226.215,275.445,224.55,278.167,224.801z"/>
		<path class="st1" d="M54.375,297.288c-0.873-0.682-2.067-1.46-3.077-2.43c-11.707-11.229-21.376-24.02-29.475-38.066
			c-1.974-3.424-1.136-4.936,2.145-6.599c12.889-6.53,25.699-13.218,38.447-20.02c3.066-1.636,4.993-1.858,6.928,1.63
			c4.832,8.71,10.936,16.527,18.101,23.454c2.175,2.102,2.637,3.644,0.392,6.123c-9.976,11.02-19.771,22.203-29.655,33.306
			C57.243,295.741,56.398,296.993,54.375,297.288z"/>
		<path class="st1" d="M105.439,72.257c-0.115,1.933-1.508,2.589-2.654,3.418c-8.399,6.081-15.93,13.105-22.405,21.19
			c-2.102,2.624-3.7,2.329-6.115,0.539C62.508,88.684,50.701,80.029,38.791,71.52c-2.932-2.095-2.94-3.682-0.75-6.383
			c10.593-13.061,22.682-24.479,36.456-34.129c2.092-1.466,3.663-2.334,5.466,0.559c8.068,12.946,16.298,25.79,24.456,38.68
			C104.854,70.934,105.161,71.702,105.439,72.257z"/>
	</g>
</g>
</svg>