<!-- Generator: Adobe Illustrator 22.1.0, SVG Export Plug-In  -->
<svg version="1.1"
	 xmlns="http://www.w3.org/2000/svg" xmlns:xlink="http://www.w3.org/1999/xlink" xmlns:a="http://ns.adobe.com/AdobeSVGViewerExtensions/3.0/"
	 x="0px" y="0px" width="147.043px" height="147.043px" viewBox="0 0 147.043 147.043"
	 style="enable-background:new 0 0 147.043 147.043;" xml:space="preserve">
<style type="text/css">
	.st0{fill:#CE8D2A;}
</style>
<defs>
</defs>
<g>
	<g>
		<path class="st0" d="M0,0c49.014,0,98.029,0,147.043,0c0,49.014,0,98.029,0,147.043c-49.014,0-98.028,0-147.043,0
			C0,98.029,0,49.014,0,0z M119.59,94.824c-0.013-0.921-0.071-2.028-0.174-3.134c-0.222-2.37-0.718-4.676-1.576-6.9
			c-1.716-4.449-4.563-7.957-8.683-10.394c-3.471-2.052-7.259-3.074-11.257-3.335c-2.158-0.141-4.294,0.026-6.409,0.571
			c-3.003,0.773-5.817,1.931-8.371,3.706c-2.855,1.984-5.263,4.429-7.427,7.132c-0.378,0.472-0.378,0.936-0.073,1.445
			c0.621,1.036,1.23,2.08,1.833,3.127c0.375,0.651,0.709,1.326,1.101,1.965c0.416,0.677,1.228,0.703,1.721,0.087
			c0.061-0.076,0.114-0.159,0.172-0.238c1.34-1.837,2.795-3.576,4.463-5.127c1.479-1.375,3.078-2.591,4.934-3.41
			c2.532-1.117,5.134-1.895,7.968-1.59c2.079,0.224,4.087,0.667,5.997,1.526c1.443,0.649,2.752,1.5,3.879,2.613
			c1.979,1.956,3.122,4.359,3.712,7.049c0.537,2.445,0.607,4.918,0.413,7.404c-0.144,1.849-0.495,3.656-1.173,5.388
			c-1.627,4.161-4.617,6.805-8.935,7.921c-2.47,0.638-4.95,0.523-7.417-0.061c-1.227-0.29-2.401-0.727-3.546-1.259
			c-1.291-0.6-2.552-1.247-3.726-2.054c-2.202-1.515-4.038-3.404-5.654-5.519c-1.682-2.201-3.068-4.582-4.303-7.056
			c-1.811-3.627-3.797-7.152-6.138-10.467c-1.804-2.554-3.807-4.93-6.13-7.038c-3.637-3.302-7.946-5.132-12.736-5.93
			c-1.666-0.277-3.346-0.252-5.028-0.121c-2.442,0.19-4.811,0.697-7.094,1.582c-3.448,1.336-6.402,3.369-8.726,6.269
			c-1.95,2.434-3.246,5.191-4.04,8.198c-0.757,2.866-0.973,5.785-0.919,8.737c0.036,1.982,0.208,3.947,0.683,5.873
			c1.127,4.572,3.511,8.373,7.133,11.374c4.074,3.374,8.799,5.024,14.069,5.163c1.161,0.031,2.315-0.059,3.468-0.186
			c1.792-0.198,3.543-0.566,5.232-1.211c1.826-0.697,3.521-1.635,5.125-2.745c0.417-0.289,0.426-0.287,0.791,0.04
			c0.365,0.326,0.725,0.658,1.09,0.984c0.475,0.424,0.932,0.871,1.433,1.261c0.62,0.482,1.375,0.178,1.534-0.585
			c0.023-0.112,0.042-0.225,0.06-0.338c0.712-4.382,1.424-8.764,2.136-13.147c0.045-0.274,0.082-0.55,0.06-0.828
			c-0.042-0.538-0.346-0.829-0.882-0.853c-0.349-0.015-0.678,0.082-1.008,0.174c-2.405,0.673-4.809,1.347-7.215,2.017
			c-1.902,0.53-3.807,1.051-5.709,1.583c-0.757,0.212-0.987,1.041-0.461,1.627c0.087,0.097,0.19,0.179,0.287,0.267
			c0.69,0.624,1.382,1.246,2.07,1.873c0.308,0.28,0.302,0.365-0.064,0.569c-0.987,0.551-2.011,1.023-3.113,1.289
			c-2.625,0.633-5.268,0.74-7.906,0.111c-3.47-0.827-6.36-2.567-8.471-5.505c-1.423-1.979-2.287-4.163-2.539-6.594
			c-0.183-1.759-0.221-3.516-0.084-5.279c0.14-1.8,0.46-3.562,1.084-5.259c1.057-2.875,2.852-5.147,5.52-6.699
			c1.366-0.795,2.826-1.353,4.362-1.706c2.531-0.582,5.04-0.682,7.6-0.006c3.017,0.797,5.619,2.251,7.86,4.391
			c1.743,1.665,3.233,3.543,4.594,5.527c1.962,2.86,3.643,5.882,5.189,8.984c1.335,2.678,2.833,5.26,4.613,7.671
			c2.128,2.883,4.577,5.444,7.497,7.539c1.678,1.205,3.486,2.17,5.356,3.044c2.967,1.387,6.082,2.168,9.341,2.366
			c1.862,0.113,3.718-0.014,5.554-0.378c4.089-0.81,7.618-2.684,10.57-5.614c2.31-2.293,3.933-5.028,4.991-8.102
			C119.166,101.492,119.555,98.281,119.59,94.824z M28.781,41.739c1.534,0,3.069,0,4.603,0c0.392,0,0.783,0.002,1.175-0.001
			c0.666-0.006,0.715-0.054,0.718-0.736c0.003-0.849,0.001-1.697,0.001-2.546c0-0.098,0.002-0.196-0.007-0.294
			c-0.032-0.322-0.103-0.395-0.422-0.42c-0.146-0.011-0.294-0.006-0.441-0.006c-2.122,0-4.244,0-6.366,0
			c-0.147,0-0.294,0.003-0.441-0.002c-0.462-0.017-0.529-0.075-0.545-0.552c-0.012-0.359-0.001-0.718,0.004-1.077
			c0.022-1.471,0.541-2.731,1.567-3.794c1.077-1.115,2.134-2.249,3.193-3.381c0.669-0.715,1.339-1.428,1.936-2.207
			c1.194-1.561,1.787-3.319,1.792-5.279c0.003-1.306-0.001-2.611,0.004-3.917c0.002-0.475-0.044-0.946-0.128-1.412
			c-0.206-1.15-0.631-2.191-1.506-3.009c-0.702-0.656-1.549-1.023-2.47-1.225c-1.419-0.312-2.855-0.326-4.281-0.08
			c-2.462,0.425-3.987,1.911-4.526,4.347c-0.11,0.495-0.181,0.997-0.186,1.504c-0.011,1.142-0.009,2.285-0.004,3.428
			c0.002,0.497,0.074,0.571,0.568,0.574c1.11,0.008,2.22,0.003,3.33,0.002c0.065,0,0.13-0.004,0.196-0.008
			c0.23-0.014,0.363-0.129,0.374-0.366c0.006-0.13,0.009-0.261,0.009-0.391c0.001-0.963-0.001-1.926,0.002-2.889
			c0.001-0.477,0.072-0.94,0.26-1.385c0.525-1.242,2.321-1.194,2.947-0.626c0.224,0.204,0.367,0.456,0.461,0.739
			c0.109,0.328,0.167,0.667,0.168,1.01c0.003,1.191,0.02,2.384-0.012,3.574c-0.026,0.952-0.179,1.886-0.684,2.725
			c-0.296,0.492-0.649,0.94-1.041,1.357c-0.716,0.76-1.441,1.513-2.15,2.28c-0.786,0.851-1.592,1.684-2.315,2.592
			c-1.262,1.584-2.135,3.334-2.189,5.393c-0.049,1.859-0.019,3.721-0.015,5.582c0.001,0.405,0.086,0.473,0.496,0.495
			c0.147,0.008,0.294,0.004,0.441,0.004C25.125,41.739,26.953,41.739,28.781,41.739z M10.917,22.398
			c0.096-0.082,0.174-0.139,0.241-0.207c0.908-0.939,1.812-1.882,2.724-2.816c0.128-0.132,0.249-0.394,0.448-0.303
			c0.186,0.085,0.094,0.354,0.094,0.541c0.005,3.004,0.003,6.008,0.003,9.012c0,4.147-0.001,8.294,0.001,12.441
			c0,0.622,0.048,0.669,0.669,0.671c1.11,0.004,2.22,0.002,3.331,0.001c0.948,0,0.949-0.001,0.949-0.933c0-9.306,0-18.613,0-27.919
			c0-0.131,0.003-0.261-0.002-0.392c-0.015-0.45-0.068-0.513-0.514-0.516c-1.012-0.007-2.025,0.003-3.037-0.005
			c-0.286-0.003-0.49,0.1-0.674,0.318c-1.329,1.57-2.663,3.136-4.007,4.693c-0.24,0.278-0.343,0.568-0.339,0.933
			c0.013,1.339,0.004,2.678,0.008,4.016C10.812,22.074,10.767,22.228,10.917,22.398z M83.945,33.931
			c0.136,0.193,0.138,0.344,0.165,0.485c0.416,2.147,0.83,4.295,1.244,6.442c0.04,0.208,0.08,0.417,0.126,0.624
			c0.049,0.22,0.19,0.323,0.417,0.341c0.421,0.034,0.548-0.054,0.642-0.481c0.018-0.08,0.028-0.161,0.042-0.241
			c0.386-2.202,0.772-4.405,1.159-6.607c0.03-0.169,0.027-0.353,0.183-0.532c0.096,0.225,0.065,0.419,0.066,0.606
			c0.002,2.139,0.001,4.277,0.002,6.416c0,0.163,0.002,0.326,0.009,0.489c0.009,0.213,0.127,0.332,0.338,0.342
			c0.228,0.011,0.457,0.013,0.685,0.013c0.788-0.001,0.798-0.01,0.798-0.789c0.001-3.624,0-7.248,0-10.872
			c0-0.098,0.003-0.196-0.004-0.294c-0.024-0.353-0.089-0.432-0.443-0.44c-0.571-0.013-1.143-0.001-1.714-0.004
			c-0.27-0.001-0.425,0.114-0.466,0.392c-0.052,0.355-0.122,0.708-0.183,1.061c-0.288,1.656-0.574,3.313-0.865,4.969
			c-0.022,0.126,0.009,0.296-0.216,0.362c-0.047-0.193-0.096-0.363-0.129-0.536c-0.201-1.025-0.397-2.051-0.596-3.077
			c-0.161-0.833-0.322-1.667-0.484-2.5c-0.128-0.658-0.144-0.671-0.834-0.674c-0.294-0.001-0.588-0.001-0.882,0
			c-0.784,0.002-0.787,0.004-0.787,0.796c-0.001,3.591-0.001,7.183,0,10.774c0,0.834,0.001,0.834,0.85,0.832
			c0.769-0.002,0.784-0.016,0.785-0.807c0.001-2.155-0.001-4.31,0.002-6.465C83.856,34.37,83.817,34.173,83.945,33.931z
			 M118.218,36.324c-0.148-0.157-0.179-0.336-0.231-0.501c-0.453-1.432-0.902-2.864-1.354-4.296
			c-0.177-0.56-0.353-1.121-0.538-1.679c-0.122-0.368-0.174-0.404-0.56-0.418c-0.261-0.009-0.522-0.004-0.783-0.003
			c-0.783,0.002-0.786,0.003-0.786,0.797c-0.001,3.542,0,7.085-0.001,10.627c0,1.024-0.05,0.983,0.997,0.978
			c0.685-0.003,0.713-0.03,0.714-0.722c0.002-2.057,0-4.114,0.003-6.17c0-0.186-0.04-0.382,0.072-0.587
			c0.184,0.134,0.197,0.324,0.247,0.485c0.634,2.008,1.26,4.018,1.895,6.026c0.339,1.07,0.199,0.964,1.293,0.969
			c0.788,0.003,0.793-0.004,0.793-0.789c0.001-3.591,0.001-7.182,0-10.774c0-0.839-0.001-0.839-0.843-0.838
			c-0.791,0.001-0.801,0.008-0.802,0.784c-0.001,1.845,0.001,3.689-0.003,5.534C118.33,35.929,118.377,36.131,118.218,36.324z
			 M102.164,17.885c0.066-0.055,0.111-0.103,0.165-0.135c0.519-0.307,0.78-0.777,0.843-1.361c0.083-0.764,0.088-1.531-0.005-2.294
			c-0.169-1.378-0.858-2.018-2.242-2.116c-0.081-0.006-0.163-0.008-0.244-0.008c-0.864-0.002-1.729-0.007-2.593-0.003
			c-0.554,0.003-0.605,0.056-0.608,0.629c-0.005,0.881-0.002,1.761-0.002,2.642c0,2.822-0.001,5.643,0.001,8.465
			c0.001,0.624,0.041,0.661,0.671,0.663c0.881,0.003,1.761,0,2.642,0c0.427,0,0.847-0.063,1.251-0.198
			c0.664-0.222,1.106-0.672,1.316-1.342c0.103-0.328,0.163-0.666,0.166-1.01c0.005-0.603,0.002-1.207,0.002-1.81
			c0-0.23-0.036-0.454-0.086-0.678c-0.118-0.527-0.422-0.907-0.892-1.165C102.423,18.097,102.263,18.08,102.164,17.885z
			 M131.812,51.788c0.185,0.132,0.197,0.323,0.247,0.483c0.6,1.899,1.194,3.8,1.79,5.7c0.108,0.343,0.221,0.683,0.329,1.026
			c0.073,0.233,0.224,0.347,0.472,0.343c0.245-0.004,0.49,0.004,0.735,0.002c0.637-0.004,0.661-0.028,0.666-0.663
			c0.001-0.065,0-0.131,0-0.196c0-3.559,0-7.118,0-10.677c0-0.868-0.001-0.868-0.859-0.866c-0.779,0.002-0.793,0.013-0.793,0.796
			c-0.002,1.812,0.001,3.624-0.003,5.437c0,0.187,0.039,0.387-0.1,0.587c-0.158-0.126-0.181-0.29-0.228-0.437
			c-0.287-0.902-0.571-1.805-0.857-2.708c-0.33-1.043-0.657-2.086-0.992-3.128c-0.165-0.512-0.203-0.536-0.722-0.545
			c-0.196-0.004-0.392-0.002-0.588-0.001c-0.816,0.002-0.826,0.009-0.826,0.815c-0.001,3.592-0.001,7.184,0,10.775
			c0,0.147,0.002,0.294,0.011,0.44c0.014,0.232,0.137,0.361,0.374,0.364c0.277,0.004,0.555,0.013,0.832,0.002
			c0.352-0.014,0.416-0.085,0.437-0.444c0.008-0.147,0.004-0.294,0.004-0.441c0-2.024-0.001-4.049,0.002-6.073
			C131.743,52.193,131.705,51.996,131.812,51.788z M65.683,36.278c-0.167-0.101-0.177-0.242-0.215-0.361
			c-0.343-1.072-0.682-2.146-1.022-3.219c-0.296-0.933-0.587-1.868-0.888-2.799c-0.137-0.425-0.191-0.459-0.625-0.47
			c-0.261-0.007-0.522-0.003-0.783-0.002c-0.698,0.003-0.711,0.017-0.715,0.715c0,0.016,0,0.033,0,0.049c0,3.622,0,7.245,0,10.867
			c0,0.13,0.003,0.261,0.008,0.391c0.009,0.235,0.135,0.363,0.368,0.369c0.293,0.007,0.587,0.006,0.881,0.001
			c0.257-0.004,0.387-0.145,0.396-0.399c0.005-0.147,0.009-0.294,0.009-0.44c0.001-1.289,0-2.578,0-3.867
			c0-0.783-0.003-1.566,0.004-2.35c0.001-0.144-0.054-0.321,0.124-0.427c0.151,0.153,0.17,0.337,0.222,0.505
			c0.638,2.023,1.27,4.047,1.911,6.069c0.306,0.967,0.19,0.918,1.237,0.918c0.786,0,0.801-0.014,0.801-0.789
			c0.001-3.622,0.001-7.245,0-10.867c0-0.13-0.002-0.261-0.009-0.391c-0.011-0.211-0.123-0.337-0.336-0.343
			c-0.31-0.009-0.62-0.008-0.93-0.004c-0.236,0.003-0.359,0.128-0.362,0.367c-0.001,0.147-0.005,0.294-0.005,0.44
			c0,1.811,0.001,3.622-0.003,5.434C65.75,35.866,65.793,36.065,65.683,36.278z M84.889,18.827
			c-0.132-0.085-0.146-0.186-0.175-0.278c-0.389-1.228-0.778-2.457-1.167-3.686c-0.261-0.824-0.527-1.647-0.779-2.474
			c-0.089-0.292-0.253-0.438-0.565-0.423c-0.26,0.012-0.522,0-0.783,0.001c-0.778,0.002-0.78,0.002-0.78,0.798
			c-0.001,3.589-0.001,7.178,0,10.767c0,0.837,0.001,0.837,0.836,0.837c0.819-0.001,0.825-0.004,0.825-0.811
			c0.001-2.023-0.001-4.046,0.003-6.069c0-0.202-0.053-0.421,0.111-0.624c0.172,0.135,0.186,0.323,0.238,0.487
			c0.645,2.037,1.282,4.077,1.93,6.113c0.315,0.989,0.148,0.9,1.232,0.903c0.782,0.002,0.791-0.008,0.791-0.793
			c0.001-3.605,0.001-7.211,0-10.816c0-0.147-0.003-0.294-0.014-0.44c-0.015-0.209-0.13-0.334-0.343-0.34
			c-0.31-0.008-0.62-0.008-0.929-0.004c-0.242,0.003-0.348,0.147-0.353,0.377c-0.003,0.147-0.005,0.294-0.005,0.44
			c0,1.811,0.001,3.622-0.003,5.433C84.958,18.418,85.002,18.617,84.889,18.827z M58.813,53.83
			c-0.172-0.192-0.201-0.388-0.258-0.568c-0.592-1.866-1.181-3.734-1.771-5.601c-0.039-0.124-0.084-0.247-0.12-0.373
			c-0.069-0.235-0.221-0.348-0.468-0.345c-0.277,0.004-0.555-0.003-0.832-0.002c-0.784,0.002-0.786,0.002-0.786,0.795
			c-0.001,3.59-0.001,7.181,0,10.771c0,0.836,0.001,0.836,0.84,0.835c0.809-0.001,0.811-0.001,0.811-0.819
			c0.001-2.056-0.001-4.113,0.003-6.169c0-0.185-0.045-0.384,0.094-0.588c0.161,0.153,0.186,0.333,0.237,0.496
			c0.642,2.039,1.279,4.08,1.924,6.118c0.346,1.094,0.208,0.953,1.295,0.961c0.748,0.005,0.757-0.007,0.757-0.774
			c0.001-3.623,0.001-7.246,0-10.869c0-0.13-0.003-0.261-0.01-0.391c-0.012-0.237-0.143-0.354-0.376-0.359
			c-0.212-0.005-0.424-0.008-0.636-0.006c-0.572,0.007-0.614,0.048-0.623,0.611c-0.002,0.131-0.001,0.261-0.001,0.392
			c0,1.763,0.001,3.525-0.002,5.288C58.889,53.408,58.924,53.59,58.813,53.83z M92.608,53.102c0,1.861-0.002,3.722,0.001,5.583
			c0.001,0.633,0.026,0.655,0.671,0.657c0.816,0.002,1.633-0.004,2.449,0.002c0.346,0.003,0.686-0.04,1.02-0.115
			c0.797-0.18,1.391-0.621,1.728-1.381c0.256-0.578,0.345-1.19,0.347-1.815c0.005-1.943,0.001-3.885,0.002-5.828
			c0-0.46-0.055-0.913-0.183-1.354c-0.327-1.128-1.125-1.826-2.294-1.885c-1.107-0.056-2.219-0.025-3.329-0.017
			c-0.321,0.002-0.383,0.087-0.406,0.423c-0.01,0.146-0.005,0.294-0.005,0.441C92.608,49.576,92.608,51.339,92.608,53.102z
			 M49.252,18.944c0.154,0.1,0.177,0.234,0.219,0.351c0.17,0.477,0.335,0.955,0.5,1.433c0.351,1.018,0.7,2.037,1.052,3.055
			c0.201,0.583,0.203,0.583,0.84,0.586c0.294,0.002,0.588,0.002,0.881,0c0.583-0.004,0.593-0.015,0.394-0.579
			c-0.526-1.493-1.058-2.984-1.585-4.476c-0.183-0.52-0.178-0.541,0.319-0.776c0.647-0.307,1.027-0.822,1.088-1.518
			c0.089-1.008,0.096-2.024-0.002-3.031c-0.097-1.006-0.681-1.635-1.655-1.89c-0.204-0.053-0.416-0.109-0.625-0.112
			c-1.028-0.015-2.056-0.019-3.084-0.013c-0.35,0.002-0.415,0.086-0.439,0.443c-0.006,0.098-0.003,0.196-0.003,0.294
			c0,3.639,0,7.279,0,10.918c0,0.13,0.002,0.261,0.008,0.391c0.011,0.211,0.116,0.339,0.334,0.341
			c0.44,0.004,0.881,0.004,1.322-0.001c0.215-0.003,0.328-0.126,0.339-0.338c0.008-0.147,0.01-0.294,0.01-0.44
			c0.001-1.355-0.001-2.709,0.003-4.064C49.17,19.342,49.133,19.158,49.252,18.944z M80.59,53.842
			c0.167,0.142,0.194,0.307,0.246,0.454c0.237,0.677,0.467,1.357,0.7,2.036c0.297,0.863,0.601,1.725,0.891,2.591
			c0.095,0.284,0.255,0.432,0.569,0.422c0.44-0.014,0.881,0.005,1.321-0.007c0.3-0.008,0.334-0.071,0.249-0.366
			c-0.027-0.094-0.067-0.184-0.099-0.276c-0.533-1.507-1.066-3.013-1.597-4.521c-0.157-0.445-0.157-0.452,0.289-0.644
			c0.735-0.317,1.118-0.89,1.168-1.668c0.059-0.928,0.066-1.86-0.002-2.787c-0.084-1.13-0.716-1.808-1.833-2.053
			c-0.273-0.06-0.548-0.081-0.825-0.081c-0.832,0-1.664-0.003-2.495,0c-0.636,0.002-0.661,0.03-0.667,0.663c0,0.016,0,0.033,0,0.049
			c0,3.653,0,7.307,0,10.96c0,0.13,0.002,0.261,0.01,0.391c0.013,0.214,0.131,0.329,0.345,0.331
			c0.424,0.004,0.848,0.014,1.272-0.002c0.289-0.011,0.354-0.094,0.38-0.399c0.012-0.146,0.007-0.293,0.007-0.44
			c0-1.354-0.001-2.707,0.002-4.061C80.518,54.257,80.483,54.075,80.59,53.842z M61.608,53.125c0,1.859-0.003,3.718,0.002,5.577
			c0.001,0.586,0.058,0.637,0.651,0.639c0.815,0.004,1.631-0.003,2.446,0.002c0.329,0.002,0.652-0.041,0.97-0.111
			c0.816-0.179,1.42-0.63,1.758-1.41c0.244-0.564,0.333-1.159,0.335-1.766c0.005-1.957,0.001-3.914,0.003-5.871
			c0-0.41-0.049-0.815-0.148-1.211c-0.312-1.253-1.198-1.988-2.489-2.024c-0.994-0.028-1.989-0.014-2.984-0.007
			c-0.458,0.003-0.523,0.082-0.541,0.555c-0.005,0.13-0.002,0.261-0.002,0.391C61.607,49.635,61.607,51.38,61.608,53.125z
			 M112.948,35.63c-0.004,0-0.009,0-0.013,0c0-1.158,0.03-2.317-0.008-3.474c-0.044-1.358-0.804-2.369-1.954-2.702
			c-0.59-0.171-1.194-0.195-1.795-0.108c-1.277,0.186-2.084,0.954-2.366,2.215c-0.068,0.303-0.114,0.609-0.114,0.921
			c0.001,2.121,0,4.241,0.002,6.362c0,0.478,0.092,0.941,0.261,1.387c0.317,0.836,0.912,1.377,1.769,1.621
			c0.441,0.125,0.895,0.176,1.356,0.144c1.693-0.115,2.732-1.151,2.844-2.843c0.015-0.228,0.016-0.456,0.016-0.685
			C112.949,37.522,112.948,36.576,112.948,35.63z M54.163,35.631c0,0-0.001,0-0.001,0c0,0.914,0,1.827,0,2.741
			c0,0.033-0.001,0.065,0,0.098c0.011,0.31,0.005,0.621,0.038,0.929c0.131,1.243,0.868,2.146,1.997,2.459
			c0.443,0.123,0.896,0.171,1.356,0.139c1.483-0.102,2.451-0.9,2.738-2.283c0.069-0.334,0.116-0.679,0.117-1.019
			c0.011-2.055,0.008-4.111,0.003-6.166c-0.001-0.426-0.07-0.846-0.197-1.253c-0.313-1.002-0.975-1.631-2.005-1.874
			c-0.517-0.122-1.039-0.13-1.557-0.063c-1.261,0.163-2.069,0.909-2.379,2.141c-0.097,0.384-0.107,0.775-0.109,1.166
			C54.16,33.641,54.163,34.636,54.163,35.631z M129.014,53.108c0-0.44,0.001-0.881,0-1.321c-0.002-0.718,0.02-1.437-0.015-2.153
			c-0.068-1.383-0.84-2.637-2.58-2.819c-0.428-0.045-0.845-0.033-1.265,0.034c-1.084,0.173-1.806,0.784-2.161,1.818
			c-0.149,0.434-0.223,0.885-0.223,1.346c0,2.072-0.002,4.143,0.002,6.215c0.001,0.492,0.079,0.976,0.251,1.439
			c0.323,0.871,0.929,1.441,1.833,1.679c0.626,0.164,1.266,0.17,1.893,0.046c1.066-0.21,1.776-0.843,2.094-1.897
			c0.124-0.41,0.174-0.828,0.173-1.255C129.012,55.196,129.014,54.152,129.014,53.108z M91.591,53.157c0,0,0.001,0,0.001,0
			c0-0.979,0.002-1.957-0.001-2.936c-0.001-0.244-0.002-0.49-0.025-0.733c-0.129-1.336-0.861-2.26-2.049-2.574
			c-0.758-0.2-1.519-0.188-2.268,0.049c-0.686,0.216-1.194,0.647-1.516,1.299c-0.251,0.508-0.378,1.047-0.381,1.606
			c-0.012,2.169-0.008,4.339-0.003,6.508c0.001,0.477,0.106,0.939,0.281,1.383c0.321,0.814,0.904,1.348,1.749,1.573
			c0.722,0.193,1.454,0.191,2.177,0c0.884-0.234,1.481-0.793,1.797-1.651c0.171-0.464,0.241-0.945,0.239-1.44
			C91.588,55.212,91.591,54.184,91.591,53.157z M73.377,18.154c-0.003,0-0.006,0-0.009,0c0,0.212-0.001,0.424,0,0.636
			c0.007,0.978-0.017,1.958,0.029,2.935c0.067,1.422,0.898,2.422,2.203,2.694c0.579,0.121,1.174,0.122,1.751,0.005
			c1.046-0.213,1.742-0.845,2.067-1.868c0.139-0.438,0.205-0.89,0.205-1.349c0.002-2.022,0.003-4.044-0.001-6.067
			c-0.001-0.542-0.088-1.071-0.28-1.581c-0.303-0.804-0.872-1.328-1.689-1.573c-0.718-0.215-1.451-0.219-2.176-0.045
			c-0.945,0.226-1.575,0.817-1.896,1.735c-0.136,0.389-0.204,0.789-0.204,1.2C73.377,15.969,73.377,17.062,73.377,18.154z
			 M81.196,34.616c0-1.404,0-2.807,0-4.211c0-1.027,0.075-0.982-0.988-0.979c-0.846,0.002-0.847,0.001-0.847,0.829
			c-0.001,2.823-0.001,5.647,0,8.47c0,0.294,0,0.588-0.091,0.873c-0.153,0.478-0.468,0.698-0.996,0.697
			c-0.527-0.001-0.843-0.224-0.992-0.703c-0.089-0.285-0.089-0.579-0.089-0.873c0.001-2.774,0-5.549,0-8.323
			c0-0.163,0.004-0.327-0.004-0.49c-0.02-0.385-0.087-0.46-0.461-0.475c-0.31-0.012-0.62-0.007-0.93-0.004
			c-0.567,0.006-0.615,0.055-0.625,0.614c-0.001,0.049-0.001,0.098-0.001,0.147c0,2.726,0.002,5.451-0.001,8.177
			c0,0.442,0.028,0.883,0.098,1.317c0.172,1.07,0.719,1.843,1.806,2.15c0.753,0.213,1.513,0.241,2.272,0.032
			c0.815-0.225,1.37-0.732,1.634-1.542c0.148-0.453,0.219-0.919,0.218-1.396C81.194,37.488,81.196,36.052,81.196,34.616z
			 M99.84,52.049c0,1.37,0,2.741,0,4.111c0,0.049,0.001,0.098,0.001,0.147c-0.006,0.46,0.052,0.911,0.191,1.351
			c0.278,0.88,0.868,1.433,1.755,1.68c0.512,0.142,1.033,0.136,1.555,0.11c1.342-0.067,2.22-0.857,2.424-2.184
			c0.07-0.451,0.102-0.906,0.101-1.365c-0.005-2.675-0.004-5.351-0.001-8.026c0.001-0.993,0.02-0.932-0.939-0.932
			c-0.9,0.001-0.901,0.001-0.902,0.885c-0.001,2.724-0.001,5.449,0,8.173c0,0.327-0.006,0.654-0.077,0.974
			c-0.118,0.529-0.476,0.821-1.003,0.83c-0.538,0.01-0.931-0.298-1.038-0.845c-0.043-0.222-0.043-0.454-0.043-0.681
			c-0.003-2.838-0.002-5.677-0.002-8.515c0-0.163-0.002-0.326-0.011-0.489c-0.011-0.19-0.114-0.312-0.305-0.316
			c-0.456-0.009-0.913-0.009-1.369-0.002c-0.217,0.003-0.319,0.14-0.328,0.349c-0.006,0.147-0.008,0.293-0.008,0.44
			C99.84,49.178,99.84,50.614,99.84,52.049z M50.38,46.943c0-0.001,0-0.002,0-0.003c-0.098,0-0.196,0-0.294,0
			c-0.959-0.002-0.895-0.038-1.068,0.866c-0.531,2.79-1.053,5.581-1.579,8.371c-0.169,0.898-0.345,1.795-0.506,2.695
			c-0.072,0.404-0.022,0.456,0.39,0.467c0.31,0.008,0.62,0.007,0.93,0c0.435-0.01,0.492-0.057,0.572-0.499
			c0.076-0.417,0.13-0.839,0.205-1.256c0.093-0.513,0.14-0.551,0.674-0.561c0.392-0.007,0.784-0.009,1.175,0.002
			c0.47,0.014,0.523,0.058,0.613,0.522c0.09,0.465,0.17,0.931,0.243,1.399c0.043,0.274,0.188,0.398,0.463,0.393
			c0.294-0.005,0.588,0.002,0.881,0.002c0.795-0.001,0.791,0,0.639-0.797c-0.581-3.046-1.158-6.092-1.737-9.139
			c-0.128-0.673-0.253-1.347-0.389-2.019c-0.075-0.369-0.15-0.427-0.526-0.443C50.838,46.935,50.609,46.943,50.38,46.943z
			 M96.768,33.388c-0.029-0.557,0.062-1.245-0.058-1.925c-0.211-1.198-0.889-1.818-2.098-1.966c-0.993-0.121-1.987-0.057-2.981-0.07
			c-0.788-0.01-0.79,0.001-0.791,0.789c-0.001,3.604,0,7.209,0,10.813c0,0.114-0.004,0.229,0.004,0.342
			c0.023,0.352,0.092,0.434,0.438,0.448c0.374,0.015,0.751,0.015,1.125,0c0.349-0.014,0.423-0.097,0.447-0.442
			c0.01-0.146,0.005-0.293,0.006-0.44c0.001-0.93-0.005-1.859,0.005-2.789c0.005-0.468,0.077-0.53,0.547-0.544
			c0.342-0.01,0.686,0.006,1.027-0.017c1.302-0.09,2.068-0.788,2.279-2.071c0.034-0.208,0.045-0.422,0.049-0.633
			C96.772,34.428,96.768,33.972,96.768,33.388z M66.532,18.143c0,1.796,0,3.592,0,5.388c0,0.147-0.006,0.295,0.007,0.441
			c0.025,0.3,0.092,0.374,0.388,0.391c0.277,0.016,0.555,0.008,0.832,0.007c0.786-0.001,0.787-0.001,0.788-0.786
			c0.001-0.963-0.004-1.927,0.005-2.89c0.005-0.476,0.062-0.53,0.545-0.535c0.409-0.004,0.814-0.027,1.22-0.083
			c1.256-0.175,1.919-0.846,2.075-2.1c0.119-0.961,0.046-1.925,0.069-2.887c0.009-0.394-0.029-0.785-0.094-1.17
			c-0.145-0.854-0.591-1.474-1.437-1.761c-0.279-0.095-0.568-0.169-0.861-0.173c-1.028-0.013-2.057-0.017-3.086-0.01
			c-0.354,0.002-0.423,0.087-0.445,0.438c-0.009,0.146-0.005,0.294-0.005,0.441C66.532,14.616,66.532,16.379,66.532,18.143z
			 M68.317,38.712c-0.024,0.389,0.007,0.829,0.09,1.262c0.182,0.949,0.722,1.591,1.663,1.862c0.855,0.246,1.711,0.231,2.552-0.062
			c0.648-0.226,1.148-0.645,1.378-1.3c0.379-1.078,0.355-2.175,0.033-3.266c-0.046-0.154-0.132-0.298-0.213-0.439
			c-0.213-0.37-0.481-0.699-0.78-1.001c-0.655-0.66-1.314-1.316-1.972-1.973c-0.197-0.196-0.388-0.397-0.54-0.631
			c-0.292-0.449-0.364-0.939-0.257-1.455c0.099-0.476,0.405-0.733,0.884-0.771c0.663-0.053,1.061,0.263,1.136,0.927
			c0.029,0.258,0.011,0.522,0.026,0.782c0.02,0.351,0.088,0.42,0.447,0.433c0.31,0.011,0.62,0.011,0.93,0
			c0.356-0.013,0.427-0.083,0.44-0.437c0.018-0.489,0.009-0.978-0.092-1.462c-0.197-0.942-0.762-1.524-1.691-1.761
			c-0.546-0.139-1.102-0.149-1.653-0.089c-1.263,0.137-2.125,0.912-2.284,2.057c-0.209,1.502,0.057,2.862,1.249,3.925
			c0.146,0.13,0.276,0.278,0.414,0.416c0.519,0.52,1.042,1.034,1.555,1.559c0.642,0.656,0.763,1.456,0.586,2.317
			c-0.104,0.508-0.473,0.773-0.989,0.767c-0.571-0.007-0.957-0.343-0.999-0.927c-0.035-0.487-0.01-0.978-0.027-1.467
			c-0.012-0.34-0.08-0.412-0.4-0.425c-0.358-0.014-0.718-0.014-1.076,0c-0.323,0.012-0.387,0.083-0.405,0.421
			C68.307,38.202,68.317,38.431,68.317,38.712z M47.154,35.611C47.154,35.611,47.154,35.611,47.154,35.611
			c-0.001,0.685,0.001,1.371-0.001,2.056c-0.002,0.62-0.006,1.239,0.086,1.856c0.18,1.203,0.917,2.084,1.997,2.348
			c0.576,0.141,1.156,0.171,1.747,0.062c1.221-0.226,1.857-0.848,2.103-2.069c0.137-0.681,0.079-1.366,0.086-2.05
			c0.01-0.993,0.08-0.991-0.991-0.985c-0.831,0.004-0.83,0.002-0.833,0.854c-0.002,0.538,0.02,1.079-0.02,1.615
			c-0.055,0.726-0.469,1.052-1.177,0.992c-0.44-0.037-0.725-0.269-0.868-0.678c-0.081-0.233-0.113-0.476-0.113-0.722
			c0-2.171,0-4.341,0-6.512c0-0.263,0.036-0.522,0.137-0.766c0.181-0.437,0.615-0.681,1.107-0.631
			c0.49,0.05,0.757,0.289,0.879,0.781c0.052,0.208,0.054,0.42,0.055,0.632c0.002,0.326-0.008,0.653,0.009,0.979
			c0.016,0.323,0.093,0.403,0.416,0.421c0.325,0.018,0.653,0.018,0.979,0c0.324-0.017,0.4-0.096,0.416-0.42
			c0.016-0.309,0.001-0.62,0.008-0.93c0.012-0.527-0.052-1.042-0.212-1.544c-0.231-0.724-0.714-1.192-1.434-1.42
			c-0.684-0.217-1.382-0.229-2.081-0.101c-1.128,0.207-1.818,0.899-2.12,1.988c-0.132,0.474-0.17,0.964-0.172,1.454
			C47.151,33.751,47.154,34.681,47.154,35.611z M59.676,21.33c0.003,0,0.007,0,0.01,0c0,0.277-0.019,0.556,0.003,0.832
			c0.099,1.227,0.805,2.035,2.008,2.262c0.612,0.116,1.238,0.117,1.849-0.015c1.132-0.243,1.789-0.943,1.985-2.084
			c0.274-1.597-0.024-3.019-1.265-4.157c-0.192-0.176-0.368-0.37-0.553-0.554c-0.497-0.496-0.994-0.991-1.491-1.486
			c-0.481-0.478-0.701-1.045-0.631-1.728c0.059-0.583,0.402-0.937,0.972-0.965c0.568-0.028,0.955,0.284,1.048,0.873
			c0.043,0.273,0.037,0.553,0.063,0.829c0.03,0.321,0.106,0.408,0.419,0.426c0.309,0.018,0.62,0.018,0.929,0
			c0.314-0.018,0.398-0.104,0.416-0.426c0.024-0.44,0.031-0.883-0.038-1.319c-0.175-1.102-0.91-1.8-2.029-1.938
			c-0.487-0.06-0.974-0.067-1.464-0.007c-1.127,0.139-1.909,0.805-2.131,1.921c-0.283,1.421-0.053,2.731,1.007,3.807
			c0.653,0.663,1.289,1.343,1.972,1.973c0.7,0.646,0.937,1.423,0.836,2.34c-0.068,0.612-0.398,0.955-0.959,0.977
			c-0.592,0.023-0.988-0.301-1.08-0.905c-0.029-0.192-0.026-0.39-0.03-0.586c-0.006-0.294,0.007-0.588-0.01-0.881
			c-0.019-0.325-0.094-0.404-0.417-0.419c-0.342-0.016-0.686-0.016-1.027,0.002c-0.291,0.015-0.368,0.099-0.386,0.396
			C59.663,20.775,59.676,21.053,59.676,21.33z M87.572,21.388c0.006,0,0.012,0,0.018,0c0,0.294-0.021,0.589,0.004,0.88
			c0.091,1.075,0.757,1.853,1.805,2.119c0.611,0.155,1.236,0.14,1.85,0.058c1.267-0.17,2.111-1.101,2.191-2.38
			c0.022-0.358,0.002-0.718,0.016-1.077c0.032-0.859-0.267-1.594-0.804-2.251c-0.487-0.596-1.049-1.118-1.589-1.663
			c-0.368-0.371-0.747-0.731-1.102-1.114c-0.465-0.502-0.623-1.098-0.467-1.768c0.085-0.364,0.311-0.602,0.673-0.706
			c0.685-0.197,1.259,0.178,1.333,0.885c0.027,0.259,0.019,0.522,0.021,0.783c0.002,0.253,0.112,0.407,0.376,0.411
			c0.359,0.005,0.718,0.006,1.077-0.001c0.235-0.005,0.357-0.139,0.363-0.373c0.013-0.571,0.029-1.141-0.135-1.7
			c-0.231-0.786-0.726-1.304-1.519-1.514c-0.771-0.205-1.551-0.221-2.322-0.01c-1.034,0.283-1.685,1.088-1.762,2.161
			c-0.021,0.292-0.005,0.587-0.016,0.881c-0.036,0.934,0.311,1.721,0.92,2.406c0.195,0.219,0.402,0.428,0.609,0.637
			c0.551,0.557,1.104,1.112,1.659,1.665c0.658,0.657,0.841,1.452,0.674,2.342c-0.104,0.55-0.46,0.841-0.983,0.833
			c-0.594-0.01-0.947-0.318-1.024-0.907c-0.021-0.161-0.019-0.326-0.021-0.489c-0.004-0.326,0.007-0.653-0.008-0.979
			c-0.016-0.327-0.088-0.402-0.414-0.417c-0.326-0.015-0.653-0.015-0.979,0.001c-0.338,0.017-0.419,0.103-0.438,0.456
			C87.56,20.833,87.572,21.111,87.572,21.388z M106.889,53.117c-0.003,0-0.005,0-0.008,0c0,0.914-0.002,1.827,0.001,2.741
			c0.001,0.294-0.001,0.588,0.023,0.88c0.121,1.444,0.935,2.408,2.245,2.665c0.387,0.076,0.78,0.064,1.171,0.047
			c1.413-0.061,2.291-0.828,2.485-2.222c0.117-0.842,0.051-1.694,0.044-2.542c-0.002-0.257-0.143-0.388-0.401-0.389
			c-0.31-0.001-0.62-0.013-0.93,0.002c-0.339,0.016-0.421,0.098-0.434,0.455c-0.016,0.44-0.008,0.881-0.008,1.321
			c0,0.311-0.014,0.621-0.081,0.925c-0.106,0.479-0.397,0.738-0.872,0.795c-0.462,0.055-0.892-0.174-1.09-0.584
			c-0.102-0.21-0.13-0.436-0.13-0.667c-0.001-2.268-0.001-4.535,0-6.803c0-0.247,0.031-0.488,0.141-0.714
			c0.202-0.414,0.576-0.601,1.101-0.552c0.455,0.043,0.737,0.288,0.843,0.753c0.069,0.303,0.088,0.613,0.088,0.924
			c0,0.245-0.008,0.49,0.01,0.734c0.023,0.323,0.1,0.4,0.422,0.416c0.309,0.015,0.62,0.015,0.93,0
			c0.315-0.016,0.401-0.096,0.412-0.423c0.02-0.619,0.042-1.242-0.035-1.858c-0.144-1.151-0.719-1.841-1.75-2.107
			c-0.757-0.196-1.518-0.193-2.271,0.034c-0.729,0.22-1.252,0.685-1.574,1.371c-0.225,0.479-0.329,0.99-0.33,1.519
			C106.887,50.931,106.889,52.024,106.889,53.117z M71.702,53.125c0,1.779,0,3.558,0,5.337c0,0.163,0.003,0.326,0.009,0.489
			c0.009,0.259,0.146,0.386,0.403,0.386c0.375,0,0.751,0.012,1.126-0.003c0.326-0.012,0.405-0.09,0.429-0.408
			c0.018-0.244,0.01-0.489,0.01-0.734c0.001-0.816-0.005-1.632,0.004-2.448c0.006-0.57,0.06-0.625,0.614-0.624
			c0.426,0.001,0.848-0.033,1.268-0.095c1.158-0.169,1.91-0.914,1.985-2.081c0.082-1.286,0.077-2.579-0.001-3.866
			c-0.048-0.785-0.389-1.448-1.138-1.823c-0.37-0.185-0.766-0.297-1.177-0.304c-1.012-0.016-2.024-0.016-3.036-0.008
			c-0.402,0.003-0.472,0.089-0.493,0.499c-0.008,0.147-0.004,0.294-0.004,0.441C71.702,49.632,71.702,51.379,71.702,53.125z
			 M53.993,18.137C53.993,18.137,53.994,18.137,53.993,18.137c0.001,1.894-0.002,3.787,0.003,5.681
			c0.001,0.472,0.063,0.545,0.483,0.547c1.306,0.008,2.612,0.008,3.918,0c0.384-0.002,0.461-0.087,0.485-0.456
			c0.013-0.195,0.009-0.392,0.004-0.587c-0.014-0.497-0.081-0.568-0.572-0.575c-0.604-0.008-1.208,0.004-1.812-0.009
			c-0.395-0.009-0.474-0.079-0.478-0.455c-0.011-0.979-0.011-1.959,0-2.938c0.005-0.39,0.072-0.444,0.469-0.458
			c0.342-0.012,0.686-0.001,1.028-0.006c0.489-0.008,0.544-0.06,0.558-0.525c0.006-0.212,0.009-0.425-0.002-0.636
			c-0.02-0.373-0.091-0.443-0.48-0.456c-0.342-0.011-0.686,0.001-1.028-0.008c-0.48-0.013-0.544-0.068-0.549-0.539
			c-0.009-0.849-0.008-1.698-0.001-2.546c0.004-0.507,0.061-0.561,0.566-0.569c0.604-0.009,1.208,0.004,1.812-0.008
			c0.383-0.008,0.462-0.088,0.484-0.458c0.013-0.228,0.013-0.457,0.001-0.685c-0.02-0.381-0.096-0.472-0.468-0.475
			c-1.322-0.009-2.644-0.009-3.967,0c-0.357,0.002-0.426,0.086-0.449,0.434c-0.01,0.146-0.005,0.294-0.005,0.441
			C53.993,14.611,53.993,16.374,53.993,18.137z M109.712,18.194c0,0.375,0,0.75,0,1.125c0,1.484-0.003,2.968,0.003,4.453
			c0.002,0.508,0.067,0.59,0.495,0.593c1.305,0.008,2.61,0.008,3.914,0c0.39-0.002,0.457-0.078,0.478-0.454
			c0.009-0.163,0.005-0.326,0.004-0.489c-0.005-0.639-0.036-0.673-0.657-0.677c-0.587-0.004-1.175,0.006-1.761-0.008
			c-0.387-0.009-0.477-0.08-0.483-0.457c-0.017-0.978-0.017-1.957-0.003-2.935c0.006-0.391,0.082-0.449,0.471-0.46
			c0.407-0.012,0.816,0.004,1.223-0.011c0.305-0.011,0.377-0.082,0.396-0.378c0.017-0.26,0.015-0.522,0.004-0.782
			c-0.016-0.373-0.088-0.441-0.479-0.453c-0.342-0.01-0.685,0.001-1.027-0.006c-0.519-0.011-0.586-0.07-0.594-0.603
			c-0.011-0.766-0.008-1.533-0.003-2.3c0.004-0.719,0.038-0.751,0.741-0.754c0.555-0.003,1.109,0.005,1.664-0.004
			c0.423-0.007,0.489-0.074,0.507-0.477c0.01-0.228,0.01-0.457-0.001-0.685c-0.018-0.377-0.089-0.456-0.476-0.459
			c-1.305-0.008-2.61-0.008-3.914,0c-0.404,0.003-0.474,0.088-0.496,0.496c-0.008,0.146-0.004,0.294-0.004,0.44
			C109.712,14.671,109.712,16.432,109.712,18.194z M99.068,36.424c0,1.37,0,2.74,0,4.11c0,0.212-0.002,0.424,0.001,0.636
			c0.006,0.619,0.04,0.652,0.679,0.658c0.196,0.002,0.391,0.001,0.587,0c0.738-0.004,0.759-0.023,0.76-0.781
			c0.001-2.512,0.001-5.024,0.001-7.535c0-0.506-0.001-1.011,0-1.517c0.001-0.93,0.001-0.929,0.91-0.935
			c0.147-0.001,0.294-0.004,0.44-0.008c0.256-0.008,0.391-0.139,0.391-0.398c0.001-0.294,0.002-0.587-0.003-0.881
			c-0.004-0.216-0.125-0.326-0.337-0.339c-0.098-0.006-0.196-0.008-0.293-0.008c-1.386-0.001-2.773,0-4.159,0
			c-0.098,0-0.196,0.003-0.293,0.007c-0.233,0.01-0.364,0.129-0.371,0.365c-0.007,0.244-0.015,0.489-0.006,0.734
			c0.017,0.427,0.098,0.505,0.527,0.525c0.195,0.009,0.392,0,0.587,0.007c0.507,0.018,0.564,0.075,0.578,0.565
			c0.004,0.13,0.002,0.261,0.002,0.391C99.068,33.488,99.068,34.956,99.068,36.424z M115.14,53.941c0,1.175,0,2.35,0,3.525
			c0,0.441-0.005,0.881,0.002,1.322c0.008,0.505,0.053,0.546,0.575,0.555c0.212,0.003,0.424,0.001,0.636,0.001
			c0.815-0.001,0.817-0.002,0.817-0.817c0.001-3.002,0-6.005,0.001-9.007c0-0.179-0.006-0.36,0.011-0.538
			c0.032-0.331,0.093-0.391,0.426-0.407c0.309-0.015,0.62-0.007,0.93-0.012c0.237-0.004,0.361-0.128,0.366-0.364
			c0.005-0.212,0.008-0.424,0.006-0.636c-0.007-0.568-0.051-0.617-0.615-0.618c-1.403-0.004-2.807-0.002-4.21-0.001
			c-0.098,0-0.196,0.004-0.293,0.01c-0.212,0.013-0.335,0.131-0.342,0.34c-0.01,0.309-0.01,0.62,0,0.929
			c0.007,0.21,0.13,0.329,0.344,0.337c0.212,0.008,0.424,0.008,0.636,0.01c0.685,0.007,0.708,0.026,0.709,0.724
			C115.141,50.841,115.139,52.391,115.14,53.941z M104.417,18.181c0,0.31,0,0.62,0,0.93c0,1.534-0.002,3.069,0.002,4.603
			c0.002,0.598,0.056,0.65,0.638,0.654c0.539,0.004,1.077,0.001,1.616,0.001c0.588,0,1.175,0.006,1.763-0.004
			c0.394-0.007,0.459-0.075,0.476-0.453c0.01-0.228,0.009-0.457,0.001-0.685c-0.016-0.405-0.08-0.469-0.503-0.48
			c-0.392-0.01-0.783-0.003-1.175-0.004c-0.836-0.002-0.838-0.002-0.838-0.849c-0.001-3.003,0-6.007-0.001-9.01
			c0-0.163,0.006-0.327-0.008-0.489c-0.028-0.324-0.099-0.404-0.421-0.418c-0.358-0.016-0.718-0.015-1.077-0.002
			c-0.37,0.013-0.442,0.096-0.467,0.478c-0.009,0.146-0.005,0.294-0.005,0.441C104.417,14.655,104.417,16.418,104.417,18.181z
			 M121.741,53.1c0-1.747,0-3.494,0-5.241c0-0.147,0.004-0.294-0.003-0.441c-0.019-0.392-0.079-0.459-0.46-0.473
			c-0.31-0.012-0.62-0.007-0.931-0.003c-0.571,0.006-0.615,0.051-0.626,0.612c-0.001,0.033,0,0.065,0,0.098
			c0,3.657,0,7.315,0,10.972c0,0.13,0.003,0.261,0.012,0.391c0.014,0.189,0.116,0.311,0.308,0.315
			c0.457,0.009,0.914,0.008,1.371,0.002c0.192-0.002,0.301-0.115,0.316-0.305c0.011-0.146,0.012-0.294,0.012-0.44
			C121.742,56.757,121.741,54.929,121.741,53.1z M105.669,35.608c0-1.761,0-3.523,0-5.284c0-0.13,0.003-0.261-0.003-0.391
			c-0.018-0.416-0.083-0.487-0.485-0.503c-0.244-0.01-0.489-0.004-0.734-0.004c-0.79,0.001-0.792,0.002-0.792,0.785
			c-0.001,3.604,0,7.208,0,10.812c0,0.114-0.003,0.229,0.004,0.342c0.024,0.355,0.093,0.44,0.435,0.455
			c0.374,0.016,0.75,0.016,1.125,0.002c0.352-0.013,0.421-0.092,0.445-0.441c0.009-0.13,0.005-0.261,0.005-0.391
			C105.669,39.196,105.669,37.402,105.669,35.608z M94.425,18.173c0,1.778,0,3.555,0,5.333c0,0.147-0.005,0.294,0.008,0.44
			c0.029,0.323,0.101,0.398,0.421,0.417c0.244,0.015,0.489,0.007,0.734,0.007c0.812-0.001,0.814-0.001,0.814-0.819
			c0.001-3.588,0-7.176,0-10.764c0-0.13,0.004-0.262-0.008-0.391c-0.03-0.324-0.1-0.405-0.42-0.419c-0.374-0.016-0.75-0.016-1.125,0
			c-0.315,0.014-0.388,0.1-0.417,0.423c-0.013,0.146-0.008,0.293-0.008,0.44C94.425,14.617,94.425,16.395,94.425,18.173z"/>
		<path class="st0" d="M99.445,20.719c0-0.39-0.002-0.78,0-1.17c0.005-0.761,0.026-0.781,0.806-0.774
			c0.13,0.001,0.261,0.001,0.39,0.015c0.489,0.054,0.795,0.311,0.837,0.799c0.066,0.777,0.066,1.56-0.002,2.337
			c-0.036,0.413-0.304,0.668-0.713,0.766c-0.273,0.065-0.549,0.058-0.825,0.046c-0.383-0.017-0.448-0.082-0.483-0.459
			c-0.011-0.113-0.009-0.227-0.009-0.341C99.444,21.532,99.445,21.125,99.445,20.719z"/>
		<path class="st0" d="M99.452,15.409c0-0.44-0.014-0.88,0.004-1.319c0.017-0.411,0.093-0.473,0.504-0.487
			c0.162-0.006,0.327-0.005,0.488,0.018c0.47,0.066,0.746,0.309,0.81,0.781c0.09,0.663,0.085,1.335,0.005,1.998
			c-0.058,0.484-0.309,0.71-0.789,0.805c-0.111,0.022-0.226,0.032-0.339,0.036c-0.592,0.021-0.674-0.058-0.688-0.658
			c-0.001-0.033-0.001-0.065-0.001-0.098c0-0.358,0-0.717,0-1.075C99.447,15.409,99.45,15.409,99.452,15.409z"/>
		<path class="st0" d="M94.63,53.094c0-1.272-0.003-2.544,0.001-3.816c0.002-0.681,0.039-0.713,0.725-0.709
			c0.147,0.001,0.295,0,0.439,0.02c0.553,0.076,0.881,0.388,0.976,0.941c0.03,0.175,0.034,0.357,0.034,0.536
			c0.002,2.039,0.005,4.077,0,6.116c-0.003,1.154-0.421,1.553-1.58,1.528c-0.523-0.011-0.59-0.068-0.592-0.603
			C94.626,55.769,94.631,54.431,94.63,53.094C94.63,53.094,94.63,53.094,94.63,53.094z"/>
		<path class="st0" d="M49.17,15.572c0-0.488-0.01-0.976,0.003-1.464c0.011-0.435,0.084-0.498,0.528-0.507
			c0.162-0.003,0.327,0,0.486,0.028c0.476,0.083,0.716,0.325,0.777,0.807c0.096,0.762,0.1,1.527-0.002,2.288
			c-0.066,0.491-0.339,0.742-0.832,0.815c-0.016,0.002-0.032,0.004-0.048,0.005c-0.991,0.055-0.91-0.061-0.914-0.801
			c-0.002-0.39,0-0.781,0-1.171C49.168,15.572,49.169,15.572,49.17,15.572z"/>
		<path class="st0" d="M82.374,50.554c0.008,0.359-0.002,0.717-0.053,1.072c-0.08,0.562-0.359,0.828-0.928,0.89
			c-0.048,0.005-0.097,0.006-0.146,0.009c-0.659,0.029-0.727-0.033-0.73-0.699c-0.004-0.895-0.006-1.791,0.003-2.686
			c0.005-0.506,0.071-0.565,0.564-0.569c0.162-0.001,0.327,0.003,0.486,0.031c0.413,0.072,0.668,0.313,0.739,0.735
			C82.377,49.74,82.379,50.146,82.374,50.554z"/>
		<path class="st0" d="M63.575,53.097c0-1.272-0.003-2.544,0.001-3.817c0.002-0.684,0.038-0.716,0.722-0.712
			c0.147,0.001,0.295,0,0.439,0.019c0.554,0.075,0.886,0.389,0.979,0.938c0.032,0.191,0.034,0.39,0.034,0.585
			c0.002,2.006-0.02,4.013,0.008,6.018c0.02,1.43-0.71,1.609-1.635,1.579c-0.463-0.015-0.542-0.081-0.545-0.55
			c-0.008-1.354-0.003-2.707-0.003-4.061C63.577,53.097,63.576,53.097,63.575,53.097z"/>
		<path class="st0" d="M110.927,35.655c0,1.044,0.001,2.087-0.001,3.131c0,0.163,0.002,0.327-0.015,0.489
			c-0.076,0.715-0.52,1.076-1.23,1.015c-0.417-0.035-0.695-0.249-0.851-0.633c-0.094-0.232-0.11-0.474-0.11-0.72
			c0.001-2.185,0-4.37,0-6.556c0-0.229,0.009-0.456,0.087-0.675c0.166-0.467,0.561-0.747,1.043-0.734
			c0.509,0.013,0.897,0.323,1.027,0.823c0.054,0.208,0.049,0.42,0.049,0.632C110.927,33.503,110.927,34.579,110.927,35.655z"/>
		<path class="st0" d="M58.401,35.666c0,1.027,0.003,2.055-0.002,3.082c-0.001,0.211-0.008,0.426-0.048,0.632
			c-0.12,0.609-0.498,0.919-1.087,0.914c-0.592-0.004-0.954-0.312-1.065-0.934c-0.043-0.239-0.056-0.486-0.056-0.73
			c-0.004-1.989-0.002-3.979-0.003-5.968c0-0.278,0.009-0.555,0.077-0.826c0.135-0.537,0.529-0.86,1.045-0.862
			c0.536-0.002,0.915,0.296,1.065,0.834c0.067,0.239,0.074,0.483,0.074,0.728C58.401,33.579,58.401,34.622,58.401,35.666z"/>
		<path class="st0" d="M124.786,53.092c0-1.044,0-2.088,0-3.131c0-0.212,0.001-0.424,0.053-0.632
			c0.138-0.546,0.503-0.848,1.042-0.857c0.555-0.01,0.917,0.262,1.07,0.814c0.074,0.269,0.093,0.546,0.093,0.824
			c0,1.99,0,3.979,0,5.969c0,0.294-0.018,0.588-0.089,0.874c-0.131,0.528-0.54,0.851-1.056,0.849
			c-0.512-0.002-0.883-0.29-1.041-0.803c-0.068-0.222-0.072-0.45-0.072-0.678C124.786,55.245,124.786,54.169,124.786,53.092z"/>
		<path class="st0" d="M87.364,53.112c0-1.044-0.002-2.088,0.002-3.132c0.001-0.195,0.002-0.394,0.037-0.585
			c0.112-0.605,0.495-0.925,1.081-0.924c0.568,0.001,0.929,0.3,1.058,0.889c0.063,0.287,0.082,0.581,0.082,0.876
			c0,1.909,0.003,3.817-0.004,5.726c-0.001,0.309-0.025,0.621-0.08,0.925c-0.101,0.563-0.514,0.909-1.048,0.916
			c-0.563,0.007-0.98-0.339-1.089-0.925c-0.036-0.191-0.037-0.389-0.037-0.584C87.362,55.233,87.364,54.173,87.364,53.112z"/>
		<path class="st0" d="M77.606,18.161c0,1.061,0,2.121,0,3.182c0,0.245-0.007,0.489-0.085,0.726
			c-0.163,0.49-0.523,0.763-1.017,0.768c-0.519,0.006-0.901-0.274-1.054-0.781c-0.081-0.268-0.101-0.545-0.101-0.823
			c-0.001-2.039-0.001-4.079,0-6.118c0-0.311,0.021-0.621,0.13-0.916c0.169-0.457,0.484-0.683,0.961-0.695
			c0.494-0.013,0.857,0.217,1.043,0.66c0.109,0.262,0.125,0.538,0.124,0.817C77.605,16.04,77.605,17.1,77.606,18.161z"/>
		<path class="st0" d="M50.3,50.553c0.184,0.607,0.23,1.176,0.329,1.733c0.145,0.819,0.272,1.641,0.406,2.462
			c0.11,0.674,0.077,0.712-0.629,0.714c-0.228,0.001-0.457-0.003-0.685-0.01c-0.204-0.006-0.291-0.121-0.277-0.32
			c0.006-0.081,0.012-0.163,0.026-0.243c0.218-1.32,0.436-2.639,0.655-3.959C50.143,50.822,50.141,50.704,50.3,50.553z"/>
		<path class="st0" d="M94.747,33.592c0,0.472,0.011,0.945-0.003,1.416c-0.021,0.709-0.352,1.03-1.064,1.06
			c-0.033,0.001-0.065,0.001-0.098,0.002c-0.671,0.01-0.72-0.035-0.722-0.711c-0.003-1.189-0.001-2.377-0.001-3.566
			c0-0.081-0.001-0.163,0.004-0.244c0.027-0.378,0.096-0.457,0.467-0.478c0.177-0.01,0.359,0,0.535,0.027
			c0.599,0.094,0.844,0.372,0.879,0.98c0.002,0.032,0.003,0.065,0.003,0.098c0,0.472,0,0.944,0,1.417
			C94.748,33.592,94.747,33.592,94.747,33.592z"/>
		<path class="st0" d="M70.435,16.075c0,0.456,0.004,0.911-0.001,1.367c-0.011,1.02-0.628,1.243-1.62,1.132
			c-0.143-0.016-0.234-0.111-0.248-0.26c-0.012-0.129-0.018-0.26-0.018-0.39c-0.001-1.204-0.001-2.408,0-3.612
			c0-0.114,0.006-0.228,0.009-0.341c0.007-0.237,0.13-0.357,0.366-0.364c0.13-0.003,0.26-0.01,0.39-0.006
			c0.773,0.025,1.093,0.334,1.119,1.107C70.448,15.163,70.435,15.619,70.435,16.075z"/>
		<path class="st0" d="M73.683,51.084c0-0.653-0.009-1.306,0.003-1.959c0.009-0.5,0.073-0.55,0.581-0.558
			c0.065-0.001,0.131-0.001,0.196,0.001c0.773,0.021,1.081,0.283,1.128,1.049c0.058,0.945,0.039,1.892,0.006,2.838
			c-0.035,1.028-0.752,1.174-1.636,1.093c-0.147-0.013-0.231-0.12-0.249-0.263c-0.018-0.145-0.028-0.292-0.029-0.439
			c-0.003-0.588-0.001-1.175-0.001-1.763C73.681,51.084,73.682,51.084,73.683,51.084z"/>
	</g>
</g>
</svg>