<!-- Generator: Adobe Illustrator 22.1.0, SVG Export Plug-In  -->
<svg version="1.1"
	 xmlns="http://www.w3.org/2000/svg" xmlns:xlink="http://www.w3.org/1999/xlink" xmlns:a="http://ns.adobe.com/AdobeSVGViewerExtensions/3.0/"
	 x="0px" y="0px" width="145.967px" height="145.967px" viewBox="0 0 145.967 145.967"
	 style="enable-background:new 0 0 145.967 145.967;" xml:space="preserve">
<style type="text/css">
	.st0{fill:#FFFFFF;}
	.st1{fill:#676767;}
	.st2{fill:#B3B3B3;}
	.st3{fill:none;}
</style>
<defs>
</defs>
<g>
	<g>
		<path class="st0" d="M90.037,100.929v-8.083h1.14l2.591,4.09c0.6,0.947,1.067,1.799,1.451,2.626l0.023-0.012
			c-0.096-1.079-0.119-2.063-0.119-3.322v-3.382h0.983v8.083h-1.056l-2.566-4.102c-0.563-0.9-1.104-1.823-1.512-2.699l-0.036,0.012
			c0.061,1.019,0.084,1.991,0.084,3.334v3.454H90.037z"/>
		<path class="st0" d="M102.119,97.139h-3.143v2.915h3.502v0.875h-4.546v-8.083h4.366v0.875h-3.322v2.555h3.143V97.139z"/>
		<path class="st0" d="M108.262,100.929l-1.031-1.787c-0.42-0.684-0.684-1.127-0.936-1.595h-0.024
			c-0.228,0.468-0.455,0.9-0.875,1.607l-0.972,1.775h-1.199l2.471-4.09l-2.375-3.994h1.212l1.067,1.895
			c0.3,0.527,0.527,0.936,0.743,1.367h0.036c0.228-0.48,0.432-0.852,0.731-1.367l1.104-1.895h1.199l-2.458,3.934l2.519,4.15H108.262
			z"/>
		<path class="st0" d="M112.319,93.733h-2.458v-0.887h5.984v0.887h-2.471v7.196h-1.056V93.733z"/>
	</g>
	<circle class="st1" cx="72.983" cy="72.983" r="72.983"/>
	<g>
		<g>
			<g>
				<path class="st2" d="M116.115,84.736c0.223-0.994,0.557-1.964,0.713-2.972l0.447-3.03c0.024-0.151,0.072-0.301,0.125-0.448
					c0.231-0.587,0.511-0.849,1.272-0.8c1.506,0.099,3.02,0.17,4.503,0.547c1.413,0.352,2.45,1.275,3.063,2.487
					c0.59,1.202,0.774,2.694,0.219,3.964c-0.19,0.382-0.508,0.646-0.857,0.874c-0.68,0.447-1.411,0.784-2.136,1.102
					c-0.28,0.123-0.278,0.223-0.101,0.445c0.335,0.422,0.634,0.876,0.96,1.317c0.854,1.106,0.686,2.226,0.077,3.354
					c-0.727,1.273-1.669,2.155-2.904,2.476c-1.229,0.328-2.576,0.168-3.936-0.452l-2.551-1.164
					c-0.923-0.429-1.147-0.823-0.914-1.598l0.194-0.534c0.598-1.861,1.447-3.642,1.813-5.572L116.115,84.736z"/>
				<path class="st2" d="M137.677,90.35c-0.396,1.599-1.254,2.899-2.469,3.655c-1.172,0.774-2.537,1.052-3.892,0.753
					c-2.625-0.587-4.145-2.44-4.979-4.806c-0.663-1.666-0.353-3.133,0.891-4.423c1.022-1.015,2.328-1.756,3.789-2.089
					c1.454-0.33,3.004-0.252,4.239,0.433c1.026,0.57,1.848,1.522,2.301,2.675C137.955,87.687,138.013,89.033,137.677,90.35z"/>
			</g>
			<path class="st3" d="M117.331,77.337c0.049-1.37,0.114-2.738,0.195-4.107l5.135-0.022l-0.214,4.576L117.331,77.337z"/>
			<path class="st3" d="M111.743,95.455c0.782-1.134,1.24-2.438,1.867-3.652l4.673,2.129c-0.693,1.36-1.224,2.805-2.085,4.076
				L111.743,95.455z"/>
		</g>
		<g>
			<g>
				<path class="st2" d="M104.744,104.721c1.316-1.565,2.832-2.964,3.962-4.677c0.091-0.123,0.203-0.233,0.317-0.338
					c0.457-0.42,0.886-0.466,1.512-0.048c1.255,0.843,2.533,1.666,3.612,2.726c1.005,0.984,1.49,2.341,1.436,3.716
					c-0.036,0.677-0.16,1.392-0.488,1.982c-0.331,0.587-0.788,1.115-1.353,1.52c-0.344,0.247-0.742,0.324-1.149,0.356
					c-0.796,0.062-1.583,0.003-2.355-0.071c-0.295-0.025-0.35,0.057-0.316,0.329c0.066,0.519,0.081,1.046,0.129,1.577
					c0.118,1.315-0.516,2.279-1.581,2.981c-1.217,0.798-2.617,0.913-3.803,0.634c-1.208-0.301-2.285-1.095-3.154-2.31l-1.631-2.281
					c-0.586-0.832-0.591-1.297-0.027-1.889c0.131-0.137,0.285-0.252,0.436-0.366l1.18-0.878c0.379-0.31,0.722-0.664,1.087-0.991
					l2.177-1.98L104.744,104.721z"/>
				<path class="st2" d="M120.6,120.372c-2.423,2.265-5.699,2.513-7.711,0.632c-1.972-1.81-2.394-4.207-1.989-6.736
					c0.143-0.874,0.486-1.568,1.016-2.098c0.511-0.549,1.151-0.991,1.995-1.254c2.633-0.827,6.396,0.26,7.825,2.629
					C122.93,115.528,122.447,118.362,120.6,120.372z"/>
			</g>
			<polygon class="st3" points="109.452,98.859 110.069,98.04 110.59,97.156 111.646,95.4 116.102,97.953 114.923,99.913 
				114.338,100.895 113.654,101.812 			"/>
			<polygon class="st3" points="95.537,111.799 97.288,110.725 98.169,110.196 98.986,109.57 101.974,113.747 101.061,114.44 
				100.081,115.035 98.127,116.233 			"/>
		</g>
		<g>
			<g>
				<path class="st2" d="M84.856,116.26l1.482-0.377c0.494-0.126,0.957-0.35,1.438-0.516l2.872-1.05
					c0.137-0.068,0.285-0.115,0.433-0.156c0.591-0.165,0.979-0.004,1.313,0.67c0.667,1.355,1.363,2.703,1.774,4.171
					c0.372,1.334,0.172,2.882-0.596,3.958c-0.75,1.103-1.977,1.934-3.343,2.125c-0.416,0.058-0.792-0.052-1.169-0.259
					c-0.73-0.378-1.39-0.852-2.029-1.331c-0.247-0.185-0.334-0.135-0.439,0.125c-0.2,0.495-0.446,0.973-0.668,1.469
					c-0.549,1.224-1.56,1.831-2.859,1.78c-2.965-0.001-4.907-1.858-5.171-4.898l-0.267-2.791c-0.091-1.027,0.147-1.353,0.924-1.639
					c0.181-0.061,0.37-0.092,0.557-0.123l2.903-0.449c0.96-0.183,1.892-0.493,2.842-0.72L84.856,116.26z"/>
				<path class="st2" d="M90.75,137.748c-1.595,0.409-3.15,0.321-4.393-0.28c-1.257-0.649-2.182-1.705-2.599-3.031
					c-0.406-1.286-0.387-2.486-0.071-3.595c0.313-1.131,0.946-2.074,1.742-3.144c1.11-1.423,2.552-1.826,4.296-1.373
					c2.669,0.536,5.364,3.281,5.43,6.087C95.2,134.73,93.424,137.138,90.75,137.748z"/>
			</g>
			<path class="st3" d="M91.853,113.595c1.206-0.636,2.503-1.103,3.627-1.893l2.59,4.434c-1.26,0.87-2.699,1.411-4.049,2.114
				L91.853,113.595z"/>
			<polygon class="st3" points="73.36,117.881 77.476,117.651 77.966,122.763 73.382,123.016 			"/>
		</g>
		<g>
			<g>
				<path class="st2" d="M61.854,116.358c0.994,0.223,1.964,0.557,2.972,0.713l3.03,0.447c0.151,0.024,0.301,0.072,0.448,0.125
					c0.587,0.231,0.849,0.511,0.8,1.272c-0.099,1.506-0.17,3.02-0.547,4.503c-0.352,1.413-1.275,2.45-2.487,3.063
					c-1.202,0.59-2.694,0.774-3.964,0.219c-0.382-0.19-0.646-0.508-0.874-0.857c-0.447-0.68-0.784-1.411-1.102-2.136
					c-0.123-0.28-0.223-0.278-0.445-0.101c-0.422,0.336-0.876,0.634-1.317,0.96c-1.106,0.854-2.226,0.686-3.354,0.077
					c-1.273-0.727-2.155-1.669-2.476-2.904c-0.328-1.229-0.168-2.576,0.452-3.936l1.164-2.551c0.429-0.923,0.823-1.147,1.598-0.914
					l0.534,0.194c1.861,0.598,3.642,1.447,5.572,1.813L61.854,116.358z"/>
				<path class="st2" d="M56.24,137.92c-1.599-0.396-2.899-1.254-3.655-2.469c-0.774-1.172-1.052-2.537-0.754-3.892
					c0.587-2.625,2.44-4.145,4.806-4.979c1.666-0.663,3.133-0.353,4.423,0.891c1.015,1.022,1.756,2.328,2.089,3.789
					c0.33,1.454,0.252,3.004-0.433,4.239c-0.57,1.026-1.522,1.848-2.675,2.301C58.903,138.198,57.557,138.256,56.24,137.92z"/>
			</g>
			<path class="st3" d="M69.253,117.574c1.37,0.049,2.738,0.114,4.107,0.195l0.022,5.136l-4.576-0.214L69.253,117.574z"/>
			<path class="st3" d="M51.134,111.986c1.134,0.782,2.438,1.24,3.652,1.867l-2.129,4.673c-1.36-0.693-2.805-1.224-4.076-2.085
				L51.134,111.986z"/>
		</g>
		<g>
			<g>
				<path class="st2" d="M41.868,104.987c1.565,1.316,2.964,2.832,4.677,3.962c0.123,0.091,0.233,0.203,0.338,0.317
					c0.42,0.457,0.466,0.886,0.048,1.512c-0.843,1.255-1.666,2.533-2.726,3.612c-0.984,1.005-2.341,1.49-3.716,1.436
					c-0.677-0.036-1.392-0.16-1.982-0.488c-0.587-0.331-1.115-0.788-1.52-1.353c-0.247-0.344-0.324-0.742-0.356-1.149
					c-0.062-0.796-0.003-1.583,0.071-2.355c0.025-0.295-0.057-0.35-0.329-0.316c-0.519,0.066-1.046,0.081-1.577,0.129
					c-1.315,0.118-2.279-0.516-2.981-1.581c-0.798-1.217-0.913-2.617-0.634-3.803c0.301-1.208,1.095-2.285,2.31-3.154l2.281-1.631
					c0.832-0.586,1.297-0.591,1.889-0.027c0.137,0.131,0.252,0.285,0.366,0.436l0.878,1.18c0.31,0.379,0.664,0.722,0.991,1.087
					l1.98,2.177L41.868,104.987z"/>
				<path class="st2" d="M26.217,120.843c-2.265-2.423-2.513-5.699-0.632-7.711c1.81-1.972,4.206-2.394,6.736-1.989
					c0.874,0.143,1.568,0.486,2.098,1.016c0.549,0.511,0.991,1.151,1.254,1.995c0.827,2.633-0.26,6.396-2.629,7.825
					C31.062,123.173,28.228,122.689,26.217,120.843z"/>
			</g>
			<polygon class="st3" points="47.73,109.695 48.55,110.312 49.433,110.833 51.19,111.889 48.637,116.345 46.677,115.166 
				45.694,114.581 44.777,113.896 			"/>
			<polygon class="st3" points="34.791,95.779 35.864,97.531 36.393,98.412 37.019,99.229 32.843,102.217 32.149,101.304 
				31.554,100.324 30.356,98.37 			"/>
		</g>
		<g>
			<g>
				<path class="st2" d="M30.329,85.098l0.377,1.482c0.126,0.494,0.35,0.957,0.516,1.438l1.05,2.872
					c0.068,0.137,0.115,0.285,0.156,0.433c0.165,0.591,0.004,0.979-0.67,1.313c-1.355,0.667-2.703,1.362-4.171,1.774
					c-1.334,0.372-2.882,0.172-3.958-0.596c-1.103-0.75-1.934-1.977-2.125-3.343c-0.058-0.416,0.052-0.792,0.259-1.169
					c0.378-0.73,0.852-1.39,1.331-2.029c0.185-0.247,0.135-0.334-0.125-0.439c-0.495-0.2-0.973-0.447-1.469-0.668
					c-1.224-0.549-1.831-1.56-1.78-2.859c0.001-2.965,1.858-4.907,4.898-5.171l2.792-0.267c1.027-0.091,1.353,0.147,1.638,0.924
					c0.061,0.181,0.092,0.37,0.123,0.557l0.449,2.903c0.183,0.96,0.493,1.892,0.72,2.842L30.329,85.098z"/>
				<path class="st2" d="M8.841,90.993c-0.409-1.595-0.321-3.15,0.28-4.393c0.649-1.257,1.705-2.182,3.031-2.599
					c1.286-0.406,2.486-0.387,3.595-0.071c1.131,0.313,2.074,0.946,3.144,1.742c1.423,1.11,1.826,2.552,1.373,4.296
					c-0.536,2.669-3.281,5.364-6.087,5.43C11.859,95.442,9.452,93.667,8.841,90.993z"/>
			</g>
			<path class="st3" d="M32.994,92.095c0.636,1.206,1.103,2.503,1.893,3.627l-4.434,2.59c-0.87-1.26-1.411-2.699-2.114-4.049
				L32.994,92.095z"/>
			<polygon class="st3" points="28.709,73.603 28.939,77.719 23.827,78.209 23.573,73.625 			"/>
		</g>
		<g>
			<g>
				<path class="st2" d="M30.232,62.096c-0.223,0.994-0.557,1.964-0.713,2.972l-0.447,3.03c-0.024,0.151-0.072,0.301-0.125,0.448
					c-0.231,0.587-0.511,0.849-1.272,0.8c-1.506-0.099-3.02-0.17-4.503-0.547c-1.413-0.352-2.45-1.275-3.063-2.487
					c-0.59-1.202-0.774-2.694-0.219-3.964c0.19-0.382,0.508-0.646,0.857-0.874c0.68-0.447,1.411-0.784,2.136-1.102
					c0.28-0.123,0.278-0.223,0.101-0.445c-0.336-0.422-0.634-0.876-0.96-1.317c-0.854-1.106-0.686-2.226-0.077-3.354
					c0.727-1.273,1.669-2.155,2.904-2.476c1.229-0.328,2.576-0.168,3.936,0.452l2.551,1.164c0.923,0.429,1.147,0.823,0.914,1.598
					l-0.194,0.534c-0.598,1.861-1.447,3.642-1.813,5.572L30.232,62.096z"/>
				<path class="st2" d="M8.67,56.482c0.396-1.599,1.254-2.899,2.469-3.655c1.172-0.774,2.537-1.052,3.892-0.753
					c2.625,0.587,4.145,2.44,4.979,4.806c0.663,1.666,0.353,3.133-0.891,4.423c-1.022,1.015-2.328,1.756-3.789,2.089
					c-1.454,0.33-3.004,0.252-4.239-0.433c-1.026-0.57-1.848-1.522-2.301-2.675C8.392,59.145,8.333,57.8,8.67,56.482z"/>
			</g>
			<path class="st3" d="M29.015,69.495c-0.049,1.37-0.114,2.738-0.195,4.107l-5.135,0.022l0.214-4.576L29.015,69.495z"/>
			<path class="st3" d="M34.604,51.377c-0.782,1.134-1.24,2.438-1.867,3.652L28.063,52.9c0.693-1.36,1.224-2.805,2.085-4.076
				L34.604,51.377z"/>
		</g>
		<g>
			<g>
				<path class="st2" d="M41.602,42.111c-1.316,1.565-2.832,2.964-3.962,4.677c-0.091,0.123-0.203,0.233-0.317,0.338
					c-0.457,0.42-0.886,0.466-1.512,0.048c-1.255-0.843-2.533-1.666-3.612-2.726c-1.005-0.984-1.49-2.341-1.436-3.716
					c0.036-0.677,0.16-1.392,0.488-1.982c0.331-0.587,0.788-1.115,1.353-1.52c0.344-0.247,0.742-0.324,1.149-0.356
					c0.796-0.062,1.583-0.003,2.355,0.071c0.295,0.025,0.35-0.057,0.316-0.329c-0.066-0.519-0.081-1.046-0.129-1.577
					c-0.118-1.315,0.516-2.279,1.581-2.981c1.217-0.798,2.617-0.913,3.803-0.634c1.208,0.301,2.285,1.095,3.154,2.31l1.631,2.281
					c0.586,0.832,0.591,1.297,0.027,1.889c-0.131,0.137-0.285,0.252-0.436,0.366l-1.18,0.878c-0.379,0.31-0.722,0.664-1.087,0.991
					l-2.177,1.98L41.602,42.111z"/>
				<path class="st2" d="M25.747,26.46c2.423-2.265,5.699-2.513,7.711-0.632c1.972,1.81,2.394,4.206,1.989,6.736
					c-0.143,0.874-0.486,1.568-1.016,2.098c-0.511,0.549-1.151,0.991-1.995,1.254c-2.633,0.827-6.396-0.26-7.825-2.629
					C23.417,31.304,23.9,28.471,25.747,26.46z"/>
			</g>
			<polygon class="st3" points="36.895,47.973 36.277,48.793 35.757,49.676 34.701,51.432 30.245,48.879 31.424,46.92 
				32.009,45.937 32.693,45.02 			"/>
			<polygon class="st3" points="50.81,35.033 49.058,36.107 48.177,36.636 47.361,37.262 44.372,33.085 45.286,32.392 
				46.266,31.797 48.22,30.599 			"/>
		</g>
		<g>
			<g>
				<path class="st2" d="M61.491,30.572l-1.482,0.377c-0.494,0.126-0.957,0.35-1.438,0.516l-2.872,1.05
					c-0.137,0.068-0.285,0.115-0.433,0.156c-0.591,0.165-0.979,0.004-1.313-0.67c-0.667-1.355-1.363-2.703-1.774-4.171
					c-0.372-1.334-0.172-2.882,0.596-3.958c0.75-1.103,1.977-1.934,3.343-2.125c0.416-0.058,0.792,0.052,1.169,0.259
					c0.73,0.378,1.389,0.852,2.029,1.331c0.247,0.185,0.334,0.135,0.439-0.125c0.2-0.495,0.446-0.973,0.668-1.469
					c0.549-1.224,1.56-1.831,2.859-1.78c2.965,0.001,4.907,1.858,5.171,4.898l0.267,2.791c0.091,1.027-0.147,1.353-0.924,1.639
					c-0.181,0.061-0.37,0.092-0.557,0.123l-2.903,0.449c-0.96,0.183-1.892,0.493-2.842,0.72L61.491,30.572z"/>
				<path class="st2" d="M55.597,9.084c1.595-0.409,3.15-0.321,4.393,0.28c1.257,0.649,2.182,1.705,2.599,3.031
					c0.406,1.286,0.387,2.486,0.071,3.595c-0.313,1.131-0.946,2.074-1.742,3.144c-1.11,1.423-2.552,1.826-4.296,1.373
					c-2.669-0.536-5.364-3.281-5.43-6.087C51.147,12.102,52.923,9.694,55.597,9.084z"/>
			</g>
			<path class="st3" d="M54.494,33.237c-1.206,0.636-2.503,1.103-3.627,1.893l-2.59-4.434c1.26-0.87,2.699-1.411,4.049-2.114
				L54.494,33.237z"/>
			<polygon class="st3" points="72.986,28.951 68.871,29.181 68.38,24.069 72.965,23.816 			"/>
		</g>
		<g>
			<g>
				<path class="st2" d="M84.493,30.475c-0.994-0.223-1.964-0.557-2.972-0.713l-3.03-0.447c-0.151-0.024-0.301-0.072-0.448-0.125
					c-0.587-0.231-0.849-0.511-0.8-1.272c0.099-1.506,0.17-3.02,0.547-4.503c0.352-1.413,1.275-2.45,2.487-3.063
					c1.202-0.59,2.694-0.774,3.964-0.219c0.382,0.19,0.646,0.508,0.874,0.857c0.447,0.68,0.784,1.411,1.102,2.136
					c0.123,0.28,0.223,0.278,0.445,0.101c0.422-0.335,0.876-0.634,1.317-0.96c1.106-0.854,2.226-0.686,3.354-0.077
					c1.273,0.727,2.155,1.669,2.476,2.904c0.328,1.229,0.168,2.576-0.452,3.936l-1.164,2.551c-0.429,0.923-0.823,1.147-1.598,0.914
					L90.062,32.3c-1.861-0.598-3.642-1.447-5.572-1.813L84.493,30.475z"/>
				<path class="st2" d="M90.107,8.913c1.599,0.396,2.899,1.254,3.655,2.469c0.774,1.172,1.052,2.537,0.754,3.892
					c-0.587,2.625-2.44,4.145-4.806,4.979c-1.666,0.663-3.133,0.353-4.423-0.891c-1.015-1.022-1.756-2.328-2.089-3.789
					c-0.33-1.454-0.252-3.004,0.433-4.239c0.57-1.026,1.522-1.848,2.675-2.301C87.444,8.634,88.79,8.576,90.107,8.913z"/>
			</g>
			<path class="st3" d="M77.094,29.258c-1.37-0.049-2.738-0.114-4.107-0.195l-0.022-5.136l4.576,0.214L77.094,29.258z"/>
			<path class="st3" d="M95.213,34.847c-1.134-0.782-2.438-1.24-3.652-1.867l2.129-4.673c1.36,0.693,2.805,1.224,4.076,2.085
				L95.213,34.847z"/>
		</g>
		<g>
			<g>
				<path class="st2" d="M104.479,41.845c-1.565-1.316-2.964-2.832-4.677-3.962c-0.123-0.091-0.233-0.203-0.338-0.317
					c-0.42-0.457-0.466-0.886-0.048-1.512c0.843-1.255,1.666-2.533,2.726-3.612c0.984-1.005,2.341-1.49,3.716-1.436
					c0.677,0.036,1.392,0.16,1.982,0.488c0.587,0.331,1.115,0.788,1.52,1.353c0.247,0.344,0.324,0.742,0.356,1.149
					c0.062,0.796,0.003,1.583-0.071,2.355c-0.025,0.295,0.057,0.35,0.329,0.316c0.519-0.066,1.046-0.081,1.577-0.129
					c1.315-0.118,2.279,0.516,2.981,1.581c0.798,1.217,0.913,2.617,0.634,3.803c-0.301,1.208-1.095,2.285-2.31,3.154l-2.281,1.631
					c-0.832,0.586-1.297,0.591-1.889,0.027c-0.137-0.131-0.252-0.285-0.366-0.436l-0.878-1.18c-0.31-0.379-0.664-0.722-0.991-1.087
					l-1.98-2.177L104.479,41.845z"/>
				<path class="st2" d="M120.13,25.989c2.265,2.423,2.513,5.699,0.632,7.711c-1.81,1.972-4.206,2.394-6.736,1.989
					c-0.874-0.143-1.568-0.486-2.098-1.016c-0.549-0.511-0.991-1.151-1.254-1.995c-0.827-2.633,0.26-6.396,2.629-7.825
					C115.285,23.659,118.119,24.143,120.13,25.989z"/>
			</g>
			<polygon class="st3" points="98.617,37.137 97.797,36.52 96.914,35.999 95.157,34.943 97.71,30.487 99.67,31.666 100.653,32.252 
				101.57,32.936 			"/>
			<polygon class="st1" points="111.556,51.053 110.483,49.301 109.953,48.42 109.328,47.603 113.504,44.615 114.198,45.529 
				114.793,46.508 115.991,48.463 			"/>
		</g>
		<g>
			<g>
				<path class="st2" d="M116.018,61.734l-0.377-1.482c-0.126-0.494-0.35-0.957-0.516-1.438l-1.05-2.872
					c-0.068-0.137-0.115-0.285-0.156-0.433c-0.165-0.591-0.004-0.979,0.67-1.313c1.355-0.667,2.703-1.362,4.171-1.774
					c1.334-0.372,2.882-0.172,3.958,0.596c1.103,0.75,1.934,1.977,2.125,3.343c0.058,0.416-0.052,0.792-0.259,1.169
					c-0.378,0.73-0.852,1.39-1.331,2.029c-0.185,0.247-0.135,0.334,0.125,0.439c0.495,0.2,0.973,0.446,1.469,0.668
					c1.224,0.549,1.831,1.56,1.78,2.859c-0.001,2.965-1.858,4.907-4.898,5.171l-2.791,0.267c-1.028,0.091-1.353-0.147-1.639-0.924
					c-0.061-0.181-0.092-0.37-0.123-0.557l-0.449-2.903c-0.183-0.96-0.493-1.892-0.72-2.842L116.018,61.734z"/>
				<path class="st2" d="M137.506,55.84c0.409,1.595,0.321,3.15-0.28,4.393c-0.649,1.257-1.705,2.182-3.031,2.599
					c-1.286,0.406-2.486,0.387-3.595,0.071c-1.131-0.313-2.074-0.946-3.144-1.742c-1.423-1.11-1.826-2.552-1.373-4.296
					c0.536-2.669,3.281-5.364,6.087-5.43C134.488,51.39,136.895,53.165,137.506,55.84z"/>
			</g>
			<path class="st3" d="M113.353,54.737c-0.636-1.206-1.103-2.503-1.893-3.627l4.434-2.59c0.87,1.26,1.411,2.699,2.114,4.049
				L113.353,54.737z"/>
			<polygon class="st3" points="117.638,73.229 117.408,69.113 122.52,68.623 122.774,73.207 			"/>
		</g>
	</g>
	<g>
		<path class="st0" d="M66.553,47.322c4.098,0,8.195-0.003,12.293,0.001c2.064,0.002,3.259,1.156,3.264,3.216
			c0.015,5.894,0.012,11.788,0.002,17.682c-0.005,2.686-1.196,4.755-3.432,6.191c-2.878,1.848-5.782,3.658-8.696,5.449
			c-2.313,1.422-4.684,1.439-7,0.026c-2.968-1.812-5.915-3.658-8.837-5.541c-2.245-1.447-3.34-3.552-3.336-6.235
			c0.009-5.838-0.001-11.675,0.004-17.513c0.002-2.127,1.152-3.272,3.277-3.274C58.246,47.319,62.399,47.322,66.553,47.322z
			 M66.421,74.069c0.906-0.155,1.837-0.225,2.714-0.482c2.875-0.841,5.116-2.496,6.396-5.282c0.366-0.797,0.174-1.436-0.456-1.726
			c-0.684-0.316-1.255-0.058-1.661,0.786c-1.195,2.489-3.25,3.774-5.899,4.21c-3.262,0.537-6.903-1.432-8.061-4.251
			c-0.153-0.373-0.699-0.774-1.099-0.817c-0.938-0.1-1.382,0.787-0.976,1.772C58.728,71.555,62.545,73.957,66.421,74.069z
			 M73.303,54.265c-0.278,0.031-0.642,0.059-1.001,0.114c-2.329,0.35-4.539,2.672-4.657,4.883c-0.044,0.827,0.299,1.301,1.009,1.371
			c0.809,0.08,1.195-0.382,1.306-1.106c0.148-0.969,0.608-1.719,1.407-2.286c1.728-1.225,4.957-0.703,5.525,2.315
			c0.165,0.875,0.661,1.212,1.389,1.065c0.703-0.142,1.001-0.687,0.849-1.551C78.637,56.276,76.205,54.241,73.303,54.265z
			 M59.472,54.262c-2.845,0.03-5.314,2.123-5.715,4.847c-0.125,0.846,0.213,1.402,0.92,1.518c0.73,0.119,1.085-0.276,1.394-1.101
			c0.284-0.757,0.642-1.598,1.224-2.11c1.835-1.617,5.206-0.734,5.662,2.069c0.15,0.923,0.686,1.293,1.431,1.135
			c0.721-0.153,1.024-0.752,0.833-1.643C64.621,56.176,62.251,54.233,59.472,54.262z"/>
		<path class="st0" d="M84.432,63.629c0.407-0.023,0.708-0.054,1.01-0.054c3.929-0.003,7.858-0.007,11.786,0
			c2.298,0.004,3.419,1.121,3.42,3.398c0.003,5.753-0.012,11.506,0.006,17.259c0.009,2.824-1.184,4.967-3.549,6.465
			c-2.819,1.785-5.652,3.546-8.48,5.317c-2.397,1.501-4.808,1.52-7.21,0.027c-2.881-1.791-5.752-3.599-8.623-5.406
			c-2.756-1.734-3.655-4.336-3.429-7.441c0.015-0.205,0.186-0.471,0.363-0.581c3.191-1.975,6.389-3.94,9.599-5.884
			c1.459-0.884,2.748-1.924,3.665-3.394c0.995-1.595,1.437-3.332,1.441-5.195C84.435,66.681,84.432,65.225,84.432,63.629z
			 M84.61,82.063c-0.745,0.158-1.903,0.28-2.972,0.654c-2.617,0.916-4.639,2.57-5.758,5.177c-0.314,0.732-0.073,1.342,0.554,1.621
			c0.595,0.265,1.209-0.023,1.572-0.72c0.219-0.42,0.421-0.859,0.701-1.237c3.411-4.602,10.547-4.026,13.191,1.057
			c0.494,0.949,1.009,1.214,1.695,0.873c0.724-0.36,0.86-0.985,0.354-1.936C92.045,83.977,88.967,82.318,84.61,82.063z
			 M91.928,76.877c2.844,0.002,5.302-2.044,5.756-4.793c0.142-0.86-0.172-1.393-0.896-1.521c-0.74-0.131-1.167,0.21-1.371,1.095
			c-0.422,1.836-1.728,2.924-3.492,2.911c-1.749-0.013-2.981-1.052-3.413-2.879c-0.219-0.923-0.689-1.286-1.45-1.12
			c-0.735,0.161-1.019,0.719-0.836,1.645C86.759,74.907,89.166,76.875,91.928,76.877z"/>
	</g>
</g>
</svg>