<!-- Generator: Adobe Illustrator 22.1.0, SVG Export Plug-In  -->
<svg version="1.1"
	 xmlns="http://www.w3.org/2000/svg" xmlns:xlink="http://www.w3.org/1999/xlink" xmlns:a="http://ns.adobe.com/AdobeSVGViewerExtensions/3.0/"
	 x="0px" y="0px" width="283.465px" height="283.465px" viewBox="0 0 283.465 283.465"
	 style="enable-background:new 0 0 283.465 283.465;" xml:space="preserve">
<style type="text/css">
	.st0{fill:#676767;}
	.st1{fill:#FFFFFF;}
</style>
<defs>
</defs>
<g>
	<circle class="st0" cx="141.732" cy="141.732" r="141.732"/>
	<g>
		<path class="st1" d="M194.615,142.061c-3.609,0.058-9.428-1.353-14.973-4.026c-9.062-4.368-15.446-11.307-19.565-20.394
			c-0.502-1.108-0.978-1.204-2.001-0.726c-5.964,2.782-11.941,5.541-17.949,8.227c-1.068,0.477-1.184,0.943-0.867,1.998
			c3.363,11.198,3.287,22.375-0.375,33.499c-0.272,0.826-0.314,1.314,0.654,1.748c6.368,2.855,12.72,5.748,19.038,8.712
			c1.183,0.555,1.558,0.184,2.072-0.829c6.833-13.476,17.731-21.412,32.768-22.973c19.644-2.039,38.03,10.784,42.884,29.872
			c3.625,14.255,0.337,27.011-9.564,37.993c-2.658,2.949-5.702,5.473-9.109,7.414c-4.543,2.588-9.442,4.392-14.693,5.038
			c-5.082,0.625-10.136,0.524-15.13-0.697c-5.961-1.457-11.396-4.017-16.124-7.961c-8.109-6.765-12.993-15.375-14.543-25.833
			c-0.794-5.357-0.426-10.666,0.97-15.89c0.284-1.062,0.088-1.55-0.953-2.017c-5.965-2.676-11.892-5.437-17.832-8.166
			c-0.441-0.203-0.914-0.347-1.333-0.587c-0.876-0.5-1.333-0.19-1.729,0.667c-1.356,2.934-2.989,5.714-4.893,8.328
			c-8.327,11.43-19.345,18.812-33.154,21.951c-10.026,2.279-19.958,1.708-29.659-1.562c-9.48-3.195-17.555-8.622-24.129-16.218
			c-6.972-8.055-11.328-17.335-12.932-27.863c-1.91-12.528,0.233-24.356,6.383-35.445c4.505-8.123,10.686-14.695,18.503-19.69
			c7.968-5.092,16.676-7.98,26.142-8.616c10.311-0.693,20.062,1.292,29.194,6.073c11.08,5.801,19.344,14.385,24.74,25.691
			c0.893,1.872,0.857,1.857,2.767,0.98c5.78-2.655,11.559-5.312,17.365-7.909c1.151-0.515,1.512-1.037,1.225-2.39
			c-2.837-13.333,0.176-25.248,9.088-35.558c6.897-7.979,15.756-12.51,26.2-13.522c11.582-1.122,21.981,2.089,30.775,9.843
			c8.111,7.153,12.81,16.152,13.599,26.977c1.108,15.196-4.724,27.32-16.87,36.373C213.693,139.722,205.78,142.038,194.615,142.061z
			 M106.324,185.659c0.022,0,0.043,0,0.065,0c0,0.972,0.016,1.945-0.004,2.916c-0.034,1.676-0.001,1.703,1.573,0.956
			c6.81-3.228,12.684-7.697,17.461-13.519c9.661-11.774,13.586-25.291,11.293-40.333c-2.267-14.873-9.838-26.589-22.402-34.959
			c-10.801-7.196-22.723-9.772-35.502-7.943c-11.34,1.623-21.144,6.621-29.07,14.9c-10.5,10.969-15.363,24.112-14.38,39.346
			c0.514,7.959,2.872,15.346,6.907,22.182c5.436,9.208,13.119,15.974,22.757,20.568c1.095,0.522,1.281,0.167,1.248-0.85
			c-0.073-2.206-0.15-4.414-0.121-6.621c0.025-1.867,0.502-2.398,2.303-2.787c0.538-0.116,0.777-0.356,0.771-0.875
			c-0.017-1.5,0.112-3.003-0.118-4.498c-0.437-2.835-2.165-4.836-4.17-6.725c-8.247-7.773-11.596-17.313-10.015-28.527
			c1.715-12.176,11.455-22.874,23.415-25.734c10.437-2.496,19.961-0.465,28.236,6.375c7.674,6.343,11.505,14.735,11.433,24.644
			c-0.07,9.647-3.918,17.732-11.32,24.035c-0.539,0.459-1.006,0.975-1.464,1.52c-2.239,2.658-2.003,5.819-1.925,8.96
			c0.016,0.641,0.395,0.799,0.952,0.835c1.339,0.085,1.989,0.914,2.059,2.162C106.382,183.006,106.324,184.334,106.324,185.659z
			 M189.382,193.278c-8.563-6.209-7.587-16.633-2.598-21.853c5.339-5.586,14.381-6.02,19.98-0.863
			c2.815,2.593,4.461,5.803,4.692,9.644c0.328,5.467-1.979,9.718-6.446,13.067c2.273,0.517,4.374,0.828,6.358,1.597
			c5.125,1.987,8.416,5.526,9.429,11.026c0.428,2.324,0.183,4.671,0.272,7.007c0.017,0.444-0.217,0.961,0.239,1.34
			c8.715-7.125,15.637-22.627,9.97-38.641c-5.102-14.419-19.387-25.402-37.244-24.044c-15.805,1.202-29.528,13.715-32.346,29.541
			c-1.436,8.065-0.239,15.749,3.468,23.024c1.966,3.858,4.552,7.266,8.094,10.371c-0.007-5.327-0.286-10.387,2.902-14.626
			C179.379,195.576,184.156,194.147,189.382,193.278z M205.157,107.351c1.971,0.383,3.882,0.703,5.702,1.375
			c5.107,1.886,8.641,5.195,9.838,10.699c0.543,2.496,0.187,5.027,0.466,7.526c0.045,0.407-0.365,0.993,0.173,1.187
			c0.429,0.154,0.747-0.386,1.05-0.683c11.462-11.209,14.198-28.234,6.831-42.454c-7.38-14.244-23.177-21.882-38.929-18.821
			c-16.285,3.164-28.531,17.372-29.163,33.948c-0.271,7.1,1.425,13.749,5.043,19.885c1.67,2.833,3.703,5.382,6.076,7.657
			c0.228,0.219,0.494,0.624,0.89,0.371c0.293-0.187,0.161-0.564,0.148-0.866c-0.081-1.857-0.022-3.71,0.157-5.559
			c0.509-5.241,2.793-9.311,7.629-11.771c2.581-1.313,5.343-1.985,8.238-2.512c-8.651-6.538-7.433-16.944-2.272-22.11
			c5.436-5.441,14.523-5.61,20.01-0.371C212.617,90.171,213.904,100.636,205.157,107.351z M58.919,144.003
			c0.043,8.202,3.205,15.018,9.28,20.466c3.606,3.234,5.468,7.143,5.409,12.015c-0.041,3.462-0.519,2.985,3,3.021
			c1.605,0.017,1.606-0.003,1.166-1.53c-2.422-8.404-4.862-16.803-7.245-25.218c-0.294-1.038-0.848-1.474-1.848-1.757
			c-2.41-0.683-3.782-2.424-4.146-4.84c-0.357-2.363,0.453-4.383,2.427-5.794c2.052-1.467,4.305-1.65,6.484-0.39
			c1.155,0.668,2.092,1.626,3.288,0.173c0.094-0.114,0.325-0.123,0.496-0.165c2.103-0.525,3.349,0.609,4.307,2.256
			c0.481,0.827,0.929,1.024,1.454,0.05c0.125-0.232,0.29-0.444,0.445-0.659c1.523-2.107,4.128-2.138,5.692-0.069
			c1.198,1.584,1.198,1.584,2.415-0.042c1.505-2.012,3.285-2.326,5.226-0.802c0.598,0.47,0.862,0.26,1.316-0.112
			c2.127-1.746,5.288-1.891,7.39-0.328c1.974,1.467,2.883,3.461,2.512,5.9c-0.39,2.562-1.952,4.195-4.416,4.939
			c-0.662,0.2-1.193,0.377-1.418,1.166c-2.48,8.709-4.988,17.41-7.506,26.108c-0.224,0.775-0.148,1.182,0.787,1.125
			c0.792-0.049,1.591-0.036,2.385-0.003c0.782,0.032,1.137-0.281,1.118-1.083c-0.028-1.192-0.02-2.386-0.004-3.579
			c0.051-3.907,1.667-7.147,4.562-9.639c6.617-5.696,10.131-12.757,10.094-21.558c-0.071-16.797-15.435-29.679-31.986-26.772
			C68.41,119.2,58.9,130.575,58.919,144.003z M187.094,215.489c0,1.767,0.062,3.536-0.023,5.298c-0.053,1.106,0.39,1.583,1.42,1.822
			c5.775,1.341,11.536,1.384,17.316,0.01c1.084-0.258,1.4-0.809,1.384-1.856c-0.048-3.002-0.017-6.006-0.015-9.009
			c0.001-3.143,0.168-3.263,3.407-2.937c0.787,0.079,1.049,0.344,1.041,1.141c-0.033,3.134,0.019,6.269-0.008,9.404
			c-0.008,0.895,0.15,1.314,1.102,0.792c1.006-0.552,2.021-1.087,3.043-1.61c0.715-0.366,0.971-0.924,0.961-1.721
			c-0.033-2.561,0.012-5.123-0.019-7.684c-0.07-5.666-2.818-9.175-8.273-10.674c-4.435-1.219-8.966-1.467-13.518-1.247
			c-3.432,0.165-6.868,0.415-10.153,1.641c-4.451,1.662-6.843,4.859-6.992,9.599c-0.06,1.897-0.028,3.798-0.029,5.697
			c-0.003,4.173,0.009,4.152,3.866,5.949c0.883,0.411,1.163,0.287,1.149-0.707c-0.037-2.561-0.01-5.123-0.011-7.684
			c-0.001-3.171,0.093-3.228,3.278-2.914c0.874,0.086,1.103,0.452,1.084,1.26C187.062,211.867,187.091,213.679,187.094,215.489z
			 M187.09,129.735c0,1.768,0.038,3.537-0.016,5.303c-0.028,0.916,0.317,1.338,1.208,1.561c5.813,1.454,11.62,1.435,17.454,0.115
			c1.142-0.259,1.481-0.822,1.461-1.932c-0.055-3.092-0.021-6.187-0.021-9.28c0-2.692,0-2.692,2.661-2.668
			c1.724,0.015,1.818,0.091,1.825,1.78c0.011,3.005,0.038,6.011-0.021,9.015c-0.019,0.994,0.269,1.055,1.027,0.625
			c0.96-0.545,1.939-1.056,2.914-1.575c0.829-0.441,1.164-1.108,1.149-2.057c-0.044-2.651,0.017-5.304-0.044-7.954
			c-0.107-4.693-2.421-7.939-6.768-9.639c-2.964-1.159-6.077-1.501-9.215-1.677c-5.227-0.293-10.421-0.161-15.477,1.422
			c-4.755,1.488-7.301,4.811-7.456,9.785c-0.058,1.854-0.03,3.712-0.032,5.568c-0.004,4.299,0.01,4.275,3.894,6.063
			c0.952,0.438,1.133,0.165,1.122-0.752c-0.032-2.563-0.03-5.126-0.007-7.689c0.028-3.146-0.51-2.899,3.038-2.925
			c0.96-0.007,1.341,0.37,1.316,1.342C187.053,126.022,187.087,127.879,187.09,129.735z M86.168,179.508
			c0.574,0,1.158-0.066,1.721,0.013c1.379,0.193,2.009-0.338,2.398-1.723c2.509-8.929,5.115-17.831,7.694-26.74
			c0.127-0.438,0.251-0.887-0.11-1.249c-1-1.003-1.562-2.219-1.924-3.571c-0.15-0.558-0.573-1.07-1.16-1.168
			c-0.589-0.098-0.708,0.562-0.99,0.929c-0.35,0.455-0.64,0.962-1.028,1.379c-1.343,1.442-3.792,1.335-5.044-0.18
			c-0.474-0.574-0.719-1.648-1.379-1.67c-0.792-0.027-0.97,1.119-1.494,1.695c-1.444,1.587-3.718,1.615-5.117,0
			c-0.317-0.366-0.576-0.782-0.857-1.178c-0.858-1.209-1.114-1.216-1.967,0.005c-0.683,0.978-0.812,2.291-1.722,3.108
			c-0.843,0.756-0.777,1.519-0.491,2.496c2.395,8.181,4.716,16.384,7.122,24.561C82.988,180.183,81.994,179.42,86.168,179.508z
			 M197.203,171.363c-5.654,0.051-9.927,4.4-9.874,10.048c0.051,5.377,4.619,9.844,9.98,9.76c5.51-0.086,9.885-4.635,9.82-10.207
			C207.066,175.612,202.624,171.314,197.203,171.363z M207.129,95.259c-0.009-5.423-4.492-9.974-9.81-9.957
			c-5.575,0.018-10.006,4.465-9.992,10.028c0.014,5.401,4.469,9.875,9.864,9.906C202.586,105.267,207.138,100.696,207.129,95.259z
			 M86.292,183.854c0-0.002,0-0.003,0-0.005c-4.726,0-9.453,0.027-14.178-0.019c-1.166-0.011-1.567,0.405-1.51,1.552
			c0.076,1.542,0.018,3.091,0.02,4.637c0.002,1.982,0.038,1.959,1.946,2.486c6.243,1.725,12.581,2.282,19.018,1.591
			c3.164-0.34,6.287-0.936,9.331-1.886c0.449-0.14,1.035-0.267,0.875-0.937c-0.137-0.577-0.686-0.436-1.108-0.463
			c-0.264-0.017-0.53,0.001-0.795,0.001c-4.02-0.001-8.039,0.012-12.059-0.009c-1.489-0.008-2.175-0.566-2.366-1.792
			c-0.232-1.496,0.771-2.511,2.632-2.526c4.063-0.033,8.127-0.021,12.191-0.006c0.92,0.003,1.636-0.04,1.643-1.294
			c0.007-1.219-0.632-1.344-1.594-1.339C95.656,183.866,90.974,183.854,86.292,183.854z M101.85,143.59
			c-0.866,0.121-1.525,0.596-1.501,1.677c0.024,1.039,0.571,1.652,1.639,1.639c1.048-0.013,1.609-0.644,1.683-1.648
			C103.734,144.417,102.838,143.586,101.85,143.59z M72.177,145.134c-0.111-0.892-0.628-1.514-1.676-1.536
			c-0.859-0.018-1.729,0.868-1.647,1.702c0.098,1,0.674,1.597,1.713,1.622C71.521,146.944,72.211,146.205,72.177,145.134z"/>
		<path class="st1" d="M51.064,166.538c-0.151-0.059-0.323-0.098-0.459-0.189c-0.102-0.068-0.159-0.205-0.238-0.309
			c-2.116-2.792-2.083-2.944,0.923-4.651c1.071-0.608,2.142-1.218,3.19-1.864c0.701-0.431,1.136-0.354,1.593,0.401
			c1.668,2.757,1.691,2.738-1.091,4.349c-1.028,0.595-2.041,1.215-3.065,1.817C51.653,166.247,51.375,166.377,51.064,166.538z"/>
		<path class="st1" d="M66.684,106.281c0.532,0.018,0.679,0.301,0.834,0.568c1.039,1.795,2.068,3.596,3.12,5.384
			c0.271,0.46,0.312,0.817-0.23,1.077c-0.04,0.019-0.079,0.04-0.115,0.065c-2.901,2.012-2.901,2.011-4.635-0.98
			c-0.62-1.069-1.218-2.152-1.869-3.201c-0.414-0.667-0.336-1.134,0.367-1.51C65.045,107.206,65.922,106.705,66.684,106.281z"/>
		<path class="st1" d="M51.106,120.936c0.235,0.117,0.556,0.257,0.857,0.431c1.561,0.899,3.1,1.839,4.682,2.697
			c0.796,0.432,0.96,0.858,0.46,1.658c-2.014,3.222-1.009,2.995-4.356,1.155c-1.116-0.614-2.204-1.28-3.324-1.887
			c-0.643-0.348-0.776-0.755-0.376-1.38c0.45-0.703,0.855-1.434,1.277-2.154C50.485,121.188,50.632,120.91,51.106,120.936z"/>
		<path class="st1" d="M108.992,108.616c-0.088,0.179-0.19,0.422-0.32,0.649c-0.917,1.602-1.872,3.183-2.745,4.808
			c-0.437,0.814-0.911,0.89-1.694,0.493c-2.852-1.447-2.861-1.429-1.283-4.151c0.661-1.141,1.345-2.269,1.978-3.425
			c0.411-0.751,0.889-0.862,1.595-0.387c0.619,0.416,1.293,0.748,1.929,1.139C108.744,107.921,109.076,108.105,108.992,108.616z"/>
		<path class="st1" d="M123.641,124.039c0.015,0.641-0.353,0.828-0.694,1.026c-1.676,0.972-3.352,1.943-5.034,2.904
			c-0.334,0.191-0.777,0.526-1.062,0.097c-0.631-0.948-1.197-1.945-1.709-2.963c-0.234-0.464,0.242-0.698,0.578-0.895
			c1.747-1.025,3.5-2.04,5.253-3.055c0.264-0.153,0.606-0.41,0.841-0.14C122.627,121.946,123.126,123.078,123.641,124.039z"/>
		<path class="st1" d="M121.469,166.487c-0.171-0.081-0.414-0.178-0.64-0.306c-1.681-0.954-3.35-1.931-5.042-2.866
			c-0.739-0.408-0.891-0.872-0.408-1.588c2.116-3.135,0.915-3.074,4.388-1.187c1.081,0.587,2.124,1.243,3.201,1.838
			c0.665,0.367,0.866,0.815,0.452,1.5c-0.386,0.639-0.729,1.304-1.11,1.946C122.135,166.118,121.972,166.455,121.469,166.487z"/>
		<path class="st1" d="M124.566,141.585c0.398,0,0.799-0.036,1.192,0.007c0.86,0.095,2.066-0.457,2.508,0.251
			c0.586,0.939,0.213,2.233,0.17,3.373c-0.022,0.571-0.489,0.689-0.957,0.692c-1.988,0.01-3.975,0.005-5.963,0.006
			c-0.73,0.001-1.024-0.413-1.031-1.09c-0.008-0.751,0.004-1.502-0.009-2.252c-0.013-0.72,0.297-1.035,1.043-1.004
			c1.014,0.042,2.032,0.011,3.048,0.011C124.566,141.582,124.566,141.583,124.566,141.585z"/>
		<path class="st1" d="M48.11,141.585c0.572,0,1.151-0.056,1.714,0.014c0.705,0.088,1.741-0.454,2.051,0.349
			c0.42,1.086,0.294,2.337,0.018,3.503c-0.095,0.402-0.515,0.454-0.87,0.456c-1.979,0.013-3.958,0.011-5.938,0.015
			c-0.7,0.001-1.045-0.324-1.044-1.045c0.007-3.969-0.345-3.213,3.013-3.291C47.406,141.577,47.758,141.584,48.11,141.585z"/>
		<path class="st1" d="M88.434,105.415c0,0.442,0,0.883,0,1.325c0,2.572-1.123,3.357-3.686,2.617
			c-0.559-0.161-0.647-0.544-0.649-1.002c-0.01-1.988-0.007-3.976-0.006-5.963c0-0.132-0.033-0.311,0.037-0.389
			c1.041-1.156,2.389-0.186,3.573-0.485c0.668-0.168,0.721,0.477,0.725,0.981c0.007,0.972,0.002,1.944,0.002,2.915
			C88.431,105.415,88.433,105.415,88.434,105.415z"/>
	</g>
</g>
</svg>